<svg viewBox="0 0 27 27" xmlns="http://www.w3.org/2000/svg"><path d="m11.146 16.323c1.192 0 2.158-.97 2.158-2.167 0-1.197-.966-2.167-2.158-2.167-1.192 0-2.158.97-2.158 2.167 0 1.197.966 2.167 2.158 2.167m7.374-5.987h1.902c.317 0 .576.261.576.579v.826c0 .318-.259.579-.576.579h-1.902c-.317 0-.576-.26-.576-.579v-.826c0-.318.26-.579.576-.579m-10.125-2.023h11.209c1.868 0 3.396 1.535 3.396 3.41v4.868c0 1.876-1.528 3.41-3.396 3.41h-11.209c-1.867 0-3.396-1.534-3.396-3.41v-4.868c0-1.875 1.528-3.41 3.396-3.41m1.305-2.312h2.49c.309 0 .562.254.562.565v.806c0 .311-.253.565-.562.565h-2.49c-.309 0-.562-.254-.562-.565v-.806c0-.311.253-.565.562-.565m1.446 11.55c1.867 0 3.381-1.52 3.381-3.395 0-1.875-1.514-3.395-3.381-3.395-1.867 0-3.381 1.52-3.381 3.395 0 1.875 1.514 3.395 3.381 3.395m0 .64c2.219 0 4.02-1.807 4.02-4.04 0-2.228-1.799-4.04-4.02-4.04-2.219 0-4.02 1.807-4.02 4.04 0 2.229 1.799 4.04 4.02 4.04"/></svg>