<svg viewBox="0 0 27 27" xmlns="http://www.w3.org/2000/svg"><path d="m3 5.392c0 0 .011-.011.029-.028-.021-.04-.032-.085-.029-.139v.168"/><path d="m20.783 19.859c-1.563-1.467-1.291-1.566-2.481-4.267-1.19-2.7-5.644-8.834-6.155-9.3-.511-.467-.816-1.701-1.632-2.82-.816-1.119-2.074-1.013-3.095-.914-1.02.101-1.734 1.2-2.088 1.601-.354.4-.632.366-1.141.466-.448.088-1.027.612-1.162.739.213.385 1.515.205 2.303.628.87.467.66 1.733.66 1.733 0 0-.442 2.201-.272 3.467.171 1.268 1.531 3.9 3.877 6.501.667.739 1.45 1.154 2.257 1.373-.031.061-.052.12-.059.173-.121.06-.313.26-.425.365-.194.184-.393.348-.613.512-.37.278-.668.619-.996.939-.308.301-.523.496-.936.617-.38.111-.692.179-1.087.221-.242.027-.498.062-.721.139-.269.092-.39.247-.685.261-.445.02-1.048.159-.997.727.027-.201.378-.543.613-.461.104.036.137.186.23.24.128.076.306.051.429.095-.149.076-.264.349-.183.503-.05-.53.565-.273.814-.281.361-.013.742-.288 1.044-.473.347-.213.697-.304 1.065-.416.388-.117.666.067 1.042.156.341.081.992.231 1.338.088.183-.075.205-.281.454-.222.189.045.34.241.432.393.003-.342-.138-.703-.5-.797-.207-.052-.431-.052-.653-.058.14-.04.284-.092.448-.131.354-.087.722-.282 1.088-.317.378-.036.766.076 1.111.2.297.107.835.3 1.15.106.171-.107.196-.276.459-.284.199-.006.387.154.425.331.038-.494-.181-.629-.652-.532-.392.081-.675.112-1.088.05-.165-.025-.381.002-.522-.089-.22-.139-.108-.224-.004-.404.132-.229.24-.472.388-.69.173-.254.42-.448.615-.688.032-.039.073-.093.116-.153.855-.102 1.576-.247 2.01-.225 1.292.067 4.182 4.234 4.964 5.167.781.933 1.563-.1 1.972-.73.407-.631-1.599-2.07-3.164-3.537m-7.83.9c-.705.321-1.466.233-2.2.383-.058.011-.111.029-.156.049.06-.089.151-.181.247-.276.351-.346.711-.695 1.083-1.04.236-.218.471-.436.708-.657.524.067 1.048.07 1.546.039-.363.53-.618 1.223-1.227 1.502"/></svg>