<svg viewBox="0 0 27 27" xmlns="http://www.w3.org/2000/svg"><path d="m15.778 6.81c1.04 0 1.884-.85 1.884-1.902 0-1.052-.844-1.907-1.884-1.907-1.037 0-1.884.856-1.884 1.907.0001 1.052.847 1.902 1.884 1.902"/><path d="m15.858 11.436c-.273.007-.569-.133-.784-.477l-1.223-1.939-2.523 2.53 2.339 1.247c.963.467.819 1.322.819 1.322v5.364c0 .608-.486 1.102-1.086 1.102-.6 0-1.084-.496-1.084-1.102v-4.293l-4.054-2.283c-.484-.272-.812-.797-.812-1.393 0-.412.148-.787.405-1.069l3.981-4.04c.491-.566 1.183-.476 1.183-.476.832 0 1.27.737 1.27.737l2.066 3.281 3.142-.005c1.127 0 1.127 1.491 0 1.491h-3.639"/><path d="m20.87 13.603c-2.835 0-5.136 2.324-5.136 5.198 0 2.875 2.302 5.199 5.136 5.199 2.829 0 5.13-2.324 5.13-5.199 0-2.874-2.301-5.198-5.13-5.198m-.003 8.979c-2.061 0-3.733-1.692-3.733-3.782 0-2.087 1.672-3.78 3.733-3.78 2.058 0 3.733 1.693 3.733 3.78 0 2.09-1.676 3.782-3.733 3.782"/><path d="m6.129 13.603c-2.828 0-5.129 2.325-5.129 5.198 0 2.873 2.302 5.199 5.129 5.199 2.838 0 5.138-2.326 5.138-5.199 0-2.873-2.299-5.198-5.138-5.198m.0001 8.979c-2.058 0-3.73-1.694-3.729-3.782 0-2.086 1.671-3.778 3.729-3.778 2.062 0 3.736 1.693 3.736 3.778 0 2.088-1.674 3.782-3.736 3.782"/></svg>