<svg xmlns="http://www.w3.org/2000/svg" viewBox="0 0 28 28" enable-background="new 0 0 28 28"><ellipse cx="10.296" cy="6.664" rx="1.751" ry="1.778"/><path d="m18.894 1.831l-.042.002c-.757.074-2.448 3.428-3.163 7.914-.297.217-.608.416-.929.598-.68-.222-1.329-.573-1.779-1.143-.104-.133-.222-.211-.343-.252v-.009c-.014-.002-.034-.006-.049-.009-.018-.004-.035-.007-.052-.001-.947-.177-3.572-.425-4.777.189-.007.007-.001.014-.015.021-.081.031-.161.072-.239.133-.718.571-1.198 1.361-1.576 2.192-.227.497-.576 1.166-.576 1.736 0 .559.427 1.213.674 1.683.45.854 1.075 1.613 1.88 2.137l-.003 1.082v6.833c0 .562.405 1.017.974 1.017s1.03-.455 1.03-1.017v-7.118c0 0 .033-.362.396-.366.363-.003.353.346.353.346v7.118c0 .561.461 1.017 1.03 1.017.568 0 1.029-.456 1.029-1.017l.034-7.346c0-.067.008-4.963.001-6.268l-.003-.049c.577.381 1.24.646 1.883.818.273.074.542-.022.794-.16-.053.686-.08 1.386-.073 2.099.046 5.897.953 12.167 3.525 12.167 2.949 0 3.618-4.319 3.759-12.169-.002-6.383-2.702-12.169-3.752-12.169m-11.859 11.259c-.017-.086.0001-.087 0 0m.879 1.654c-.165-.226-.312-.467-.454-.716-.133-.237-.246-.487-.357-.737-.021-.05-.037-.092-.048-.128.191-.665.469-1.324.867-1.888l-.008 3.469"/></svg>