<svg viewBox="0 0 27 27" version="1.1" xmlns="http://www.w3.org/2000/svg"><path d="m6.5927 11.5193l-6.5927 8.4807h13.9368c0 0 .0012-.0049.0034-.0144.0013-.0049.0028-.0108.0046-.0178.0015-.0067.0032-.0144.0052-.0232.0078-.0348.0162-.081.0207-.1289.0023-.0241.0035-.0486.002-.0752-.0017-.0267-.0054-.0559-.0182-.0905-.012-.0347-.0335-.0754-.0696-.1225-.0363-.0468-.0879-.1001-.158-.1559-.1391-.1122-.3514-.2331-.6163-.3427-.2649-.1102-.5799-.2104-.9238-.299-.3441-.0889-.7177-.1663-1.1065-.2371-.3891-.0708-.7937-.1347-1.2057-.1995-.4124-.0656-.8308-.1297-1.2576-.2165-.2139-.0443-.4293-.0933-.6558-.1649-.1135-.0366-.2298-.0782-.3548-.1385-.0624-.0303-.1271-.0654-.1944-.1109-.067-.0457-.1379-.1024-.2038-.1797-.0653-.0764-.1244-.1765-.1503-.2846-.0063-.0272-.0119-.0508-.0158-.0879-.002-.0169-.0033-.0344-.0041-.0507l.0001-.0162.0005-.0082c-.00001-.001.0007.0165-.0002-.0233l.0007-.0067.0031-.0269c.0022-.0179.0042-.0356.0071-.0535.0251-.1431.0859-.284.1712-.3951.0414-.0571.0887-.1052.1363-.1502.0485-.0428.0981-.082.1483-.1148.1003-.0669.2008-.1165.2987-.157.1962-.0801.3829-.1257.5608-.1609.178-.0347.3474-.056.5089-.072.3229-.0308.6141-.0387.8711-.0415.2568-.0024.4792.0014.6618.0044.1826.003.3255.0051.4227.003.0486-.0001.0858-.0031.1107-.0056.0124-.0011.0219-.0024.0282-.0035.0064-.0001.0096-.0015.0096-.0015l-3.3512-4.3108c-.2857-.3675-.7489-.3675-1.0346 0"/><path d="m17.8857 8.2756c-.2856-.3675-.7489-.3675-1.0346 0l-5.8726 7.5545c0 0-.0031.0011-.009.0034-.0058.0024-.0147.0056-.0268.0093-.024.0077-.0603.0175-.1079.0286-.0953.0223-.2362.0499-.4148.0844-.1785.0347-.3948.0764-.6395.1305-.2443.0542-.518.1204-.8028.2101-.142.0451-.287.096-.4274.1563-.14.0601-.2777.1296-.3908.2101-.1126.0791-.0157.3204.6121.3336.4612.0097.7927.0443 1.2073.0544 7.331.1793 6.7854 2.4707 6.7798 2.7357-.0016.0773-.0101.2135-.0101.2135h10.2514l-9.1143-11.7244"/></svg>