<svg viewBox="0 0 27 27" xmlns="http://www.w3.org/2000/svg"><path d="m13.547 10.459c-.013-.011-.03-.017-.047-.017-.017 0-.034.006-.047.017l-5.339 4.514c-.016.014-.025.034-.025.055v4.9c0 .04.033.072.073.072h3.592c.04 0 .073-.032.073-.072v-3.574h3.346v3.574c0 .04.033.072.073.072h3.593c.04 0 .073-.032.073-.072v-4.9c0-.021-.001-.04-.025-.055l-5.339-4.514"/><path d="m5.556 13.723c-.002.019.004.038.017.052l1.268 1.467c.014.016.035.025.056.025.017 0 .034-.005.047-.017l6.556-5.544 6.556 5.544c.014.012.03.017.047.017.021 0 .042-.009.056-.025l1.269-1.467c.012-.014.019-.033.017-.052-.0001-.019-.001-.037-.025-.049l-7.872-6.656c-.013-.011-.03-.018-.047-.018-.017 0-.034.006-.047.018l-7.872 6.656c-.014.012-.024.03-.025.049"/><path d="m21.706 11.724c-.009-.007-.021-.011-.031-.011-.011 0-.023.004-.032.011l-.913.773.986.834c.107.091.172.218.183.356.011.138-.035.276-.125.381l-1.268 1.466c-.101.116-.248.183-.403.183-.127 0-.249-.045-.343-.125l-.392-.332v2.859h1.137c.027 0 .049-.022.049-.048v-2.395h2.243v2.395c0 .027.022.048.05.048h2.407c.027 0 .049-.022.049-.048v-3.284c0-.015-.006-.028-.017-.037l-3.579-3.03"/><path d="m26.983 13.879l-5.277-4.461c-.009-.008-.02-.011-.031-.011-.012 0-.023.004-.032.011l-2.277 1.925 1.082.915 1.228-1.038 4.394 3.716c.009.008.021.011.031.011.014 0 .027-.005.037-.017l.85-.983c.009-.001.013-.022.012-.035 0-.012-.007-.024-.017-.033"/><path d="m6.897 15.719c-.154 0-.301-.067-.402-.183l-1.267-1.466c-.091-.105-.138-.244-.126-.381.011-.14.076-.267.184-.358l.986-.833-.914-.772c-.009-.008-.02-.012-.032-.012-.011 0-.022.004-.031.012l-3.579 3.03c-.011.008-.018.023-.018.036v3.284c0 .027.022.048.049.048h2.409c.026 0 .048-.022.048-.048v-2.395h2.244v2.395c0 .027.022.048.049.048h1.137v-2.858l-.392.331c-.096.082-.218.126-.344.126"/><path d="m6.553 12.258l1.081-.913-2.277-1.927c-.009-.008-.02-.011-.032-.011-.012 0-.022.004-.031.011l-5.277 4.461c-.001.009-.016.02-.018.034-.0001.012.004.025.012.035l.85.983c.001.011.024.017.037.017.012 0 .023-.003.032-.011l4.395-3.716 1.227 1.038"/></svg>