<svg viewBox="0 0 27 27" xmlns="http://www.w3.org/2000/svg"><path d="m21.539 10.724l-3.99 1.053c-.277.075-.531.033-.754-.156l-1.83-1.782c-.068-.078-.927-.739-1.49.007-.014-.057-.541-1.342-.557-1.438.207-.132.572-.224.572-.664v-.716c0-.014.0001.014 0 0l10.684-6.446-.358-.582-10.468 6.355c-.16-.201-.441-.334-.76-.334-.498 0-.902.324-.902.558v.62l-10.686 6.652 10.714-5.93-.028-.178c0 .399.275.722.773.722.0001 0 .0001 0 .002 0 .021.083.699 1.87.726 1.945-.022.384-.036.563.203.736l.134.141c.001.025.021.051.031.076.134.329.132.313 1.92 4.43l.489.125c0 0-1.638-3.856-1.656-3.907l1.982 1.803c.314.155.572.187.949.15.782-.076 1.123-.129 2.307-.331-.731 1.309-2.32 2.594-3.257 2.567-.076.084 0 0-.092.019l-3.707-.87c-.51-.085-1.122-.18-1.87.553l-3.713 3.986c-1.414 1.553.62 2.772 1.712 1.709l3.403-3.412 2.647.935c1.308.593 4.329 1.452 6.692-1.207 1.563-1.759 2.11-2.622 2.357-3.143.247-.521.914-2.229.378-3.348-.516-1.075-1.79-.877-2.558-.701"/><path d="m23.722 10.1c1.259 0 2.278-.999 2.278-2.238 0-1.236-1.019-2.233-2.278-2.233-1.26 0-2.284.998-2.284 2.233 0 1.236 1.025 2.238 2.284 2.238"/></svg>