<svg viewBox="0 0 27 27" xmlns="http://www.w3.org/2000/svg"><path d="m3.666 17.515v3.555c-.611.223-1.108.546-1.43.931h23.737c-.474-.683-1.411-1.222-2.576-1.479-.007-1.831-.013-4.538-.013-4.538 1.754-.481 3.143-2.61 2.423-4.996-.845-2.801-1.876-4.979-3.238-4.979-1.361 0-2.45 2.292-3.243 4.979-.38 1.288.018 2.535.531 3.442l-.042.006-.385.035-.386.015-.386-.005-.385-.024-.383-.043c-.127-.02-.253-.039-.38-.06-.125-.026-.251-.051-.375-.078-.123-.033-.247-.063-.37-.097-.121-.039-.243-.075-.363-.116-.118-.045-.238-.087-.355-.134-.094-.041-.189-.082-.283-.124 1.072-.973 1.911-2.765 1.316-4.669-.933-2.989-2.024-5.136-3.493-5.136-1.469 0-2.599 2.218-3.498 5.136-.678 2.2.449 4.223 1.856 5.063-.079.135-.16.269-.248.399l-.098.15-.105.145c-.071.096-.138.195-.216.286l-.113.139-.057.07c-.02.023-.04.044-.06.067l-.122.132c-.041.044-.08.09-.124.13l-.13.125c-.044.041-.085.085-.132.123l-.138.117c-.046.039-.09.08-.139.116-.19.149-.389.291-.6.415l-.159.093c-.053.031-.109.056-.164.085-.055.027-.11.056-.165.083l-.171.074c-.227.1-.465.179-.704.254-.122.033-.243.067-.366.096-.124.026-.247.058-.373.077l-.188.033c-.063.011-.127.018-.19.027-.063.008-.127.019-.19.025l-.191.021c-.128.016-.256.023-.385.035-.129.009-.258.016-.387.023-.255.011-.511.017-.768.021 0-.036 0-.056 0-.056 1.754-.481 3.145-2.611 2.423-4.995-.834-2.752-1.876-4.898-3.238-4.898-1.362 0-2.326 1.987-3.243 4.898-.754 2.396.708 4.546 2.463 5.01m11.686-3.391c.042.02.084.04.126.06.124.054.25.103.375.155.127.047.256.09.384.135.13.04.261.077.391.115.132.033.265.063.397.095.134.027.268.05.402.075.135.02.27.037.405.055.136.012.272.021.408.032l.409.011.409-.001.407-.03.404-.052c.059-.011.119-.021.178-.032.092.132.191.256.296.371-.016.003-.032.006-.048.009l-.383.054-.385.035-.386.015-.386-.005-.385-.024-.383-.043c-.127-.02-.253-.039-.38-.06-.125-.026-.251-.051-.375-.079-.123-.033-.247-.063-.37-.097-.121-.039-.243-.075-.363-.115-.118-.045-.238-.087-.355-.134-.115-.051-.232-.099-.346-.152-.111-.057-.225-.111-.336-.168-.079-.046-.159-.09-.238-.135.044-.026.087-.053.13-.081m-.887.402c.082-.022.162-.049.241-.078.051.032.101.063.152.095.116.067.235.13.352.196.12.061.243.118.365.175.124.054.25.103.375.155.127.047.256.09.383.135.13.04.261.077.391.115.132.033.265.063.397.095.133.027.268.05.401.075.135.02.27.037.405.055.136.012.272.021.408.032l.409.011.409-.001.407-.03.404-.052c.133-.024.267-.048.4-.074.08-.02.161-.039.241-.059.344.3.742.517 1.183.633v4.365c-1.613.015-3.02.541-3.779 1.32-.677-.852-1.98-1.491-3.553-1.708l.009-5.445m-2.256 1.038l.106-.155.053-.078.049-.08.194-.32.133-.245v5.221c-1.796.108-3.325.759-4.119 1.673-.701-.516-1.77-.845-2.969-.845-.13 0-.257.004-.383.012-.004-.758-.007-1.668-.001-2.331.027.002.053.004.08.005.261.017.522.025.785.031.131.0001.263.002.394.0001.131-.004.263-.003.395-.011.132-.006.264-.014.395-.027.066-.006.132-.011.198-.019l.197-.025c.132-.014.262-.041.393-.062.131-.024.26-.054.39-.082l.193-.051c.064-.017.129-.033.192-.055.126-.042.254-.081.376-.132l.186-.073c.061-.026.12-.055.181-.083.06-.029.122-.054.18-.085l.175-.094c.233-.126.453-.27.664-.424.055-.037.104-.079.155-.119l.151-.123c.052-.04.097-.086.145-.129l.142-.131c.049-.043.091-.09.136-.136l.133-.138c.022-.023.045-.046.066-.07l.062-.072.124-.145c.085-.095.159-.197.236-.297l.115-.151.106-.155m-6.178 2.158c.131.0001.263.002.394.0001.131-.004.263-.003.395-.011.132-.006.264-.014.395-.027.066-.006.132-.011.198-.018l.197-.025c.132-.014.262-.041.393-.062.131-.024.26-.054.39-.082l.193-.051c.064-.017.129-.033.192-.055.126-.042.254-.081.376-.132l.186-.073c.061-.026.12-.055.181-.082.06-.029.122-.054.18-.085l.175-.094c.233-.126.453-.27.664-.424.055-.037.104-.079.155-.119l.151-.123c.052-.04.097-.086.145-.129l.142-.131c.049-.043.092-.09.136-.136l.133-.139c.022-.023.045-.046.066-.069l.062-.072.124-.145c.085-.095.159-.197.236-.297l.109-.142c-.066.112-.134.223-.208.331l-.097.15-.105.145c-.071.096-.138.195-.216.286l-.113.139-.057.069c-.019.023-.04.044-.06.067l-.121.132c-.041.044-.08.09-.124.13l-.13.125c-.044.041-.085.085-.132.123l-.138.118c-.046.039-.09.08-.139.116-.19.149-.389.291-.6.415l-.159.093c-.053.031-.109.056-.164.085-.055.027-.11.056-.165.083l-.17.074c-.227.1-.465.179-.705.254-.121.033-.243.067-.366.096-.124.026-.247.058-.373.077l-.188.033c-.063.011-.127.018-.19.027-.063.008-.127.019-.19.025l-.192.021c-.127.016-.256.023-.385.035-.129.009-.258.016-.387.023-.259.011-.518.017-.778.021-.028.0001-.056.0001-.084.0001-.0001-.253-.002-.461-.002-.6.256.016.513.025.77.03"/></svg>