<svg viewBox="0 0 27 27" xmlns="http://www.w3.org/2000/svg"><path d="m21.266 8.808c-1.054 1.295-.889 3.224.37 4.309 1.258 1.085 3.132.915 4.186-.38 1.054-1.296.889-3.224-.369-4.309-1.259-1.085-3.133-.915-4.187.38"/><path d="m3.998 20.566c.6-.261 1.339-.468 2.183-.499 1.163-.043 3.02 1.236 4.01 1.236.983 0 2.335-.854 4.902-.854 2.568 0 2.824 1.237 4.01 1.237 1.181 0 3.457-.798 4.62-.756.322.012.616.041.886.082.877-.411 1.469-1.196 1.469-2.096v-.32c0-1.326-1.436-2.401-2.869-2.401-2.532 0-1.068 2.13-8.56 2.13-7.541 0-6.724-2.13-8.56-2.13-1.655 0-2.87 1.075-2.87 2.401v.32c0 .64.3 1.22.787 1.65"/><path d="m17.711 10.432c-.274-1.377 2.903-3.806 4.766-5.628.431-.421.322-1.166-.133-1.558-.455-.392-1.093-.293-1.514.138-2.227 2.285-5.478 4.985-5.553 7.109-.041 1.161.994 2.536 1.721 3.339.249.275.439.864.208 1.21 0 0-1.113 2.934-4.208 1.76-1.565-.594-2.01-1.627-2.035-1.675-.665-1.107-1.634-2.287-2.955-2.879-1.944-.871-5.963-.924-6.981-.643-1.018.28-1.059.877-1.016 1.444.043.568.602.957 1.212 1.01.609.052 4.75.075 5.452.602.701.528 1.298 1.46 1.345 1.902.047.442 1.207.71 1.868.85 8.919 1.891 11.853-1.221 12.833-2.253-2.149-.995-4.696-3.147-5.01-4.725"/><path d="m23.715 21.384c-1.163-.043-3.438.756-4.62.756-1.182 0-1.438-1.237-4.01-1.237-2.567 0-3.92.854-4.902.854-.982 0-2.842-1.279-4.01-1.237-2.363.086-3.9 1.551-3.9 1.736 0 .185 1.537-.958 3.9-.871 1.163.042 2.293 1.37 4.01 1.37 1.713 0 2.62-.889 4.62-.889 2 0 2.847 1.272 4.288 1.272 1.44 0 3.457-.847 4.62-.889 2.363-.087 3.285.574 3.285.39 0-.185-.922-1.169-3.285-1.255"/><path d="m13.34 22.693c-.79 0-2.142.593-3.12.628-.978.036-1.96-.798-2.749-.741-1.603.118-2.613 1.151-2.608 1.276.004.125 1.022-.689 2.628-.689.791 0 1.775.867 2.752.832.978-.036 2.329-.661 3.117-.719 1.603-.117 2.245.31 2.241.184-.005-.125-.654-.771-2.261-.771"/></svg>