<svg viewBox="0 0 27 27" version="1.1" xmlns="http://www.w3.org/2000/svg"><path d="m2 23l1.9641-4.3803.9175-.5699 1.2838-3.5208 2.5816-1.9832.8618-2.5574 2.1988-.9886v-5.4866h1.0151v5.4836l1.6192 2.291-4.0033 1.0522-.3814.4549-.0906 1.1713.3874.5327 6.9858 1.7412.1772.4028-2.7297 1.319-5.65-.7237-.265.0359-1.2688.5406-.2913.3231-.4532 1.5093-.1352.4501.4422.1702 5.9656 2.7326h-11.1316m12.3172-13.3308l1.3854 1.6334-.2891.7843-4.3606 1.1459-.0295.3812 6.8093 1.6971.345.2914.476 1.081-.2469.6626-3.3087 1.5991-.2872.0459-5.6629-.7255-.9206.3921-.2495.8304 9.7294 3.5119h8.2927l-1.789-2.7904-1.0571-.8792-2.639-4.5117-2.3083-1.1633-1.0861-2.7252-2.8033-1.261m-1.0836-6.1481v2.0888c1.5943-.6862 2.3338-.5891 3.9817-.0451 2.5876.8547 5.4225.0242 6.5192-2.5545-1.2041.8612-2.3584 1.4798-3.8248 1.1533-1.2703-.283-5.3473-2.0113-6.6761-.6425"/></svg>