<svg viewBox="0 0 27 27" xmlns="http://www.w3.org/2000/svg"><path d="m25.782 19.13l-.298.404-5.582-7.689c-1.171-1.881-4.768-4.846-6.597-4.846-1.978 0-6.353 4.131-6.833 5.489l-.004.012-5.03 6.928-.22-.299-.218.094.579.724h.311l.015.051-.355-.45 4.781-6.633c-.467 1.973-1.057 7.03-1.057 7.03h16.723c0 0-.792-4.927-1.682-7.319l5.05 6.982h.012l-.287.358.015-.021h.31l.579-.724-.218-.094m-15.743.593c0 0 .3-3.736.39-4.532.09-.797 2.068-3.491 3.117-3.52 1.049-.029 2.667 2.477 3.057 3.244.39.768.629 4.808.629 4.808h-7.193"/></svg>