<svg viewBox="0 0 27 27" xmlns="http://www.w3.org/2000/svg"><path d="m23.266 9.704l.002-.002c-1.983-.559-3.928-1.239-5.822-2.035-.255-.106-.535-.167-.831-.167-1.147 0-2.077.895-2.077 2 0 .06.004.119.001.178-.328-.113-.68-.178-1.048-.178-.368 0-.72.065-1.048.178.005-.059.009-.118.009-.178 0-1.105-.93-2-2.077-2-.248 0-.485.044-.705.121l-.0001-.002c-1.787.623-1.787.623-6.253 2.179l.004.004c-1.998.696-3.429 2.533-3.429 4.698 0 2.761 2.325 5 5.192 5 2.248 0 4.156-1.378 4.879-3.302l.004.004c.322-.857.579-1.541.791-2.105.552.842 1.524 1.404 2.634 1.404 1.152 0 2.155-.604 2.694-1.498.223.63.436 1.264.631 1.904l.002-.002c.63 2.078 2.62 3.596 4.981 3.596 2.868 0 5.192-2.239 5.192-5 0-2.274-1.577-4.19-3.734-4.797m-15.871 6.918c-1.215 1.17-3.191 1.17-4.405 0-1.215-1.17-1.215-3.073 0-4.243 1.215-1.169 3.191-1.169 4.405 0 1.215 1.17 1.215 3.073 0 4.243m6.105-3.121c-.573 0-1.039-.449-1.039-1 0-.551.466-1 1.039-1 .573 0 1.038.449 1.038 1 0 .551-.466 1-1.038 1m10.511 3.121c-1.215 1.17-3.191 1.17-4.406 0-1.215-1.17-1.215-3.073 0-4.242 1.215-1.17 3.191-1.17 4.406 0 1.214 1.17 1.214 3.073 0 4.242"/></svg>