<svg viewBox="0 0 27 27" xmlns="http://www.w3.org/2000/svg"><path d="m8.268 11.5c0 1.378-1.015 2.495-2.268 2.495-1.252 0-2.268-1.117-2.268-2.495 0-1.378 1.016-2.495 2.268-2.495 1.253 0 2.268 1.117 2.268 2.495"/><path d="m4.731 8.279l-2.265-.668.607 2.494c.323-.816.918-1.47 1.659-1.825"/><path d="m6 7.988c.416 0 .811.09 1.175.25l-1.175-2.238-1.174 2.237c.364-.159.759-.249 1.174-.249"/><path d="m11 11.5l-2.034-1.291c.145.4.227.835.227 1.291 0 .457-.082.892-.227 1.292l2.034-1.292"/><path d="m8.95 10.16l.633-2.602-2.364.697c.781.357 1.407 1.045 1.73 1.905"/><path d="m2.808 11.5c0-.456.082-.891.227-1.291l-2.034 1.291 2.034 1.292c-.144-.4-.227-.836-.227-1.292"/><path d="m7.269 14.721l2.266.668-.607-2.492c-.323.815-.918 1.47-1.659 1.824"/><path d="m3.05 12.841l-.634 2.601 2.364-.697c-.781-.356-1.406-1.044-1.73-1.904"/><path d="m6 15.01c-.415 0-.81-.089-1.173-.249l1.173 2.237 1.174-2.237c-.364.159-.759.249-1.174.249"/><path d="m22.713 6.161c.018-.039.035-.08.047-.123.119-.429-.115-.88-.526-1.01-.41-.126-.84.122-.96.551-.012.043-.017.086-.023.129-3.319-.593-6.677 1.566-7.892 4.87.433-.083.89-.067 1.341.071 1.247.381 2.065 1.553 2.109 2.843.633-.963 1.752-1.483 2.884-1.289-.265.95-1.151 4.046-1.802 6.326-.659-.117-1.343-.191-2.045-.201-3.827-.054-7.153 1.484-8.847 3.667h17.694c-.827-1.065-3.01-2.533-5.774-3.245.702-2.464 1.668-5.848 1.761-6.182.882.529 1.437 1.504 1.473 2.559.698-1.063 1.989-1.589 3.236-1.208.579.177 1.066.525 1.426.976.774-3.528-.952-7.338-4.104-8.739"/></svg>