<svg viewBox="0 0 27 27" xmlns="http://www.w3.org/2000/svg"><path d="m20.336 15.717c-1.888-.066-5.163 1.169-7.501 1.169-2.338 0-4.615-1.979-6.503-1.914-3.836.134-6.332 2.4-6.332 2.685 0 .286 2.496-1.481 6.332-1.348 1.888.066 4.165 2.12 6.503 2.12 2.338 0 5.614-1.31 7.501-1.376 3.836-.133 5.333.889 5.333.603 0-.286-1.497-1.808-5.333-1.941"/><path d="m7.381 19.08c1.376.048 3.034 1.544 4.737 1.544 1.703 0 4.089-.954 5.465-1 2.795-.097 3.886.648 3.886.44 0-.208-1.091-1.317-3.886-1.414-1.375-.048-3.761.852-5.465.852-1.703 0-3.362-1.442-4.737-1.394-2.795.097-4.613 1.748-4.613 1.956 0 .208 1.818-1.08 4.613-.982"/><path d="m22.442 21.898c-1.559 0-3.077-1.32-4.336-1.276-2.558.089-4.223 1.6-4.223 1.791 0 .191 1.664-.988 4.223-.899 1.259.044 2.777 1.414 4.336 1.414 1.559 0 3.743-.874 5-.918 2.558-.089-3.443-.112-5-.112"/><path d="m16.717 22.77c-.855-.03-2.34.53-3.399.53-1.059 0-2.091-.897-2.947-.867-1.738.061-2.87 1.087-2.87 1.217 0 .13 1.131-.671 2.87-.611.856.03 1.888.961 2.947.961 1.06 0 2.544-.593 3.399-.624 1.739-.06 2.417.403 2.417.273 0-.13-.679-.819-2.417-.88"/><path d="m17.614 8.547c-1.539.872-2.066 2.802-1.177 4.311.889 1.509 2.856 2.026 4.395 1.155 1.539-.871 2.066-2.801 1.178-4.311-.889-1.51-2.856-2.027-4.395-1.155"/><path d="m8.671 14.845c1.402.622 2.851 1.265 4.228 1.265.893 0 1.923-.154 2.99-.363l.916-.518c-1.533-1.916-3.641-4.759-3.392-6.403.217-1.433 4.324-2.632 6.876-3.719.59-.251.748-1.013.426-1.558-.321-.546-1.01-.683-1.589-.418-3.09 1.404-7.898 2.697-8.211 4.868-.226 1.562.296 2.88.805 3.745.198.336.154.649.303.835l-3.629 2.143c.092.041.184.081.277.123"/></svg>