<svg viewBox="0 0 27 27" xmlns="http://www.w3.org/2000/svg"><path d="m10.09 10.962v4.564c0 0 1.186.0001 1.18 0l.009-4.572c1.308-.394 2.083-2.076 1.807-4.092-.316-2.308-1.399-3.862-2.414-3.862-1.015 0-2.102 1.554-2.418 3.862-.278 2.031.528 3.723 1.837 4.1"/><path d="m15.335 12.07v3.458h1.118c-.005-.0001-.016-3.466-.016-3.466 1.213-.365 1.931-1.924 1.675-3.793-.293-2.139-1.297-3.556-2.238-3.556-.941 0-1.948 1.417-2.242 3.556-.258 1.883.49 3.451 1.703 3.801"/><path d="m4.737 13.223v2.303h1.118c-.005-.0001-.016-2.311-.016-2.311 1.213-.365 1.931-1.924 1.675-3.793-.293-2.139-1.297-3.556-2.238-3.556-.941 0-1.948 1.417-2.242 3.556-.258 1.883.49 3.451 1.702 3.801"/><path d="m23.23 19.07h-2.211c.026-.136.04-.275.04-.417 0-1.36-1.238-2.463-2.766-2.463h-13.532c-1.528 0-2.766 1.103-2.766 2.463 0 1.36 1.238 2.463 2.766 2.463h2.211c-.026.136-.04.275-.04.417 0 1.36 1.238 2.463 2.766 2.463h13.532c1.528 0 2.766-1.103 2.766-2.463 0-1.36-1.238-2.463-2.766-2.463"/></svg>