<svg viewBox="0 0 27 27" xmlns="http://www.w3.org/2000/svg"><path d="m16.81 5.601l-5.722.125-6.06-1.726-4.02 14.07 8.193 2.332 5.724-.125 6.06 1.725 4.02-14.07-8.19-2.331m3.762 15.675l-5.578-1.588-5.724.125-7.542-2.147 3.702-12.942 5.582 1.589 5.791-.127 7.472 2.147-3.702 12.942"/><path d="m15.666 9.541c-.245-.585-.45-1.99-.039-2.743-1.206.026-4.539.099-4.539.099-.344 1.269 1.098 3.457 1.857 3.872.358-.415 1.976-1.168 2.721-1.228"/><path d="m9.937 15.939c.259-.38 1.574-1.71 1.831-1.961.0001-.738.403-1.828.773-2.482-1.467-.726-2.854-3.358-2.228-4.771l-4.479-1.275-3.38 11.815 6.532 1.86c-.003-.021.848-2.957.951-3.185"/><path d="m14.277 12.38c.68-.214 1.391-.299 2.103-.33-.279-.525-.454-1.107-.575-1.696-.588 0-1.745.474-2.24.958-.418.41-.812 1.129-.923 1.924.499-.365 1.046-.67 1.637-.856"/><path d="m17.364 12.03c1.746-.011 3.494-.0001 5.24 0l.943-3.295c0 0-6.55-1.822-7.04-1.957-.214.956.014 2.383.134 2.968.145.711.499 1.708.727 2.284"/><path d="m16.235 12.877c-.979.222-1.939.289-2.449.603-.51.314-.919.573-1.49 1.149-.32.322-1 .912-1.319 1.235-.395.905-1.186 3.303-1.207 3.352l5.298-.116 5.098 1.451 2.161-7.554c-.308-.054-5.114-.343-6.093-.121"/></svg>