<?xml version="1.0" standalone="no"?>
<!-- Generator: Adobe Fireworks CS6, Export SVG Extension by Aaron Beall (http://fireworks.abeall.com) . Version: 0.6.1  -->
<!DOCTYPE svg PUBLIC "-//W3C//DTD SVG 1.1//EN" "http://www.w3.org/Graphics/SVG/1.1/DTD/svg11.dtd">
<svg id="atividade_icone_caiaque-Page%201" viewBox="0 0 27 27" style="background-color:#ffffff00" version="1.1"
	xmlns="http://www.w3.org/2000/svg" xmlns:xlink="http://www.w3.org/1999/xlink" xml:space="preserve"
	x="0px" y="0px" 
>
	<g id="Layer%201">
		<g>
			<path d="M 13.6548 9.0766 C 15.1029 9.0766 16.2767 11.0573 16.2767 13.5001 C 16.2767 13.7489 16.2617 13.9913 16.2381 14.2289 L 17.3727 15.3769 C 17.4168 14.7624 17.4421 14.137 17.4421 13.5001 C 17.4421 9.0717 16.3422 5.1232 14.6236 2.5418 C 14.1424 1.8194 13.1671 1.8194 12.686 2.5418 C 11.6775 4.0565 10.8848 6.0442 10.3995 8.3208 L 12.057 9.9982 C 12.4997 9.4226 13.0528 9.0766 13.6548 9.0766 Z" />
			<path d="M 21.3216 19.808 L 20.0986 19.4041 L 7.5322 6.689 L 7.5322 6.689 L 7.1334 5.4514 L 4.4422 2.7285 L 3 4.1875 L 5.6911 6.9104 L 6.9143 7.3143 L 6.9143 7.3143 L 10.0472 10.4845 C 9.9323 11.4566 9.8674 12.4635 9.8674 13.5001 C 9.8674 17.9281 10.9673 21.8769 12.686 24.4583 C 13.1671 25.1806 14.1424 25.1806 14.6236 24.4583 C 15.7843 22.7149 16.6597 20.3455 17.1075 17.6282 L 19.4806 20.0293 L 19.8797 21.2671 L 22.5579 23.9768 L 24 22.5177 L 21.3216 19.808 ZM 13.6548 17.9234 C 12.2066 17.9234 11.0328 15.9427 11.0328 13.5001 C 11.0328 12.8622 11.1159 12.2591 11.2604 11.7119 L 15.7186 16.2229 C 15.2389 17.257 14.4935 17.9234 13.6548 17.9234 Z" />
		</g>
	</g>
</svg>