<svg viewBox="0 0 27 27" xmlns="http://www.w3.org/2000/svg"><path d="m26.16 4.518c-4.535.692-9.07 1.383-13.606 2.075-2.918.445-5.837.89-8.755 1.335-.869.133-1.738.265-2.607.398-.791.121-1.835.56-.663 1.317-.063-.106-.117-.221-.191-.321 1.16 1.925 2.328 3.918 3.487 5.867.787 1.324 1.573 2.648 2.36 3.972.205.346.411.692.617 1.038.28.471-.481.483-.489.625 0 .008 1.44-.066 1.59-.093.637-.046.696-.256.806-.776.276-1.303.553-2.605.829-3.908.109.456 1.257 1.351.987 1.821-.256.446-.631.984-.692 1.502-.052.439.392.904.618 1.258.284.445.953 1.147.785 1.137.12.056-1.377.781-.934.731.508-.057 1.382-.041 1.654-.305.168-.163-.268-1.133-.358-1.377-.118-.323-.269-.637-.451-.93-.23-.369.24-.773.575-1.142 1.037.699 2.158.416 3.338.728-.196-.157.549.447.811-.47.103-.361.735-.427.98.547.056.223.311.172.305-.056-.001-.463-.102-.972-.198-1.174-.111-.235-.619.014-.87-.009.018-.075.164-.61.205-.713-.32-.188-.686-.223-1.051-.195-.683.053-3.063-2.513-4.393-3.328.144.088 1.426.493 1.541.292.058-.101 2.743-.901 3.344-1.078-.249-.391-2.299-3.562-2.02-3.673 1.886-.738 3.764-1.61 5.699-2.216 1.134-.355 2.262-.731 3.406-1.054 1.14-.322 2.289-.635 3.459-.835 1.01-.173.948-1.153-.124-.99m-19.2 15.563c-1.968-3.26-3.937-6.521-5.905-9.781 1.176 1.656 2.352 3.312 3.528 4.968.731 1.028 1.461 2.057 2.191 3.086.55.774.5.766.186 1.727m1.013.5c-.223.024-.445.048-.667.072.128-.407.255-.814.383-1.221.36.497.414.553.284 1.149m.156-.712c-.493-.679-.309-.825-.053-1.629.151-.474.303-.949.454-1.423.02-.063.324-.637.352-.574.165.358-.256 1.348-.337 1.722-.139.635-.277 1.27-.416 1.905m.183-5.944c-.546.052-.233-.758-1.325-.317-.93.498-.283 1.457.28 1.802.68.417.452-.995 1.265-.125.17.176-.739.646-.313.945-.283.865-.566 1.731-.849 2.596-2.177-2.996-4.354-5.992-6.53-8.987 2.554 1.591 5.376 2.803 8.252 3.721-.035.046-.034.065.005.057-.098.008-.632.232-.785.309"/></svg>