<svg viewBox="0 0 27 27" xmlns="http://www.w3.org/2000/svg"><path d="m13.155 4.774c1.043 0 1.887-.843 1.887-1.889 0-1.043-.844-1.885-1.887-1.885-1.044 0-1.892.843-1.892 1.885 0 1.044.849 1.889 1.892 1.889"/><path d="m9.962 6.355c.071-.29-.11-.58-.396-.651l-1.576-.38c-.295-.067-.586.106-.652.394l-1.322 5.469c-.072.29.106.58.398.652l1.576.376c.286.075.584-.103.65-.392l1.322-5.468"/><path d="m19 11.198c0-.338-.184-.632-.459-.789l.092-3.446-.005-.032c-.037-.232-.253-.395-.49-.357-.217.034-.356.225-.369.442l-.084 3.163-2.421-.534-.728-2.964c-.349-1.655-1.932-1.615-1.932-1.615-1.541-.039-1.927 1.577-1.927 1.577l-3.998 16.764c-.014.091-.019.177-.019.268 0 .735.593 1.327 1.329 1.327.601 0 1.109-.402 1.272-.948l2.286-9.435 2.174 9.379c.141.579.665 1 1.288 1 .732 0 1.324-.59 1.324-1.325 0-.1-.007-.195-.025-.29l-2.988-12.461.253-1.099.193.864c.178.563.693.615.693.615l3.18.723-.333 12.442c.0001.011-.002.023-.002.029.037.237.259.399.496.362.215-.033.373-.226.369-.44l.332-12.414c.295-.148.5-.45.5-.805"/></svg>