<svg viewBox="0 0 27 27" xmlns="http://www.w3.org/2000/svg"><path d="m25.306 19.56c-.463.082-.607.386-.867.749-.136.626-.801.157-1.076-.013-.607-.374-1.246-.968-1.932-.421-.364.29-.438.914-1.035.625-.725-.351-.818-1.123-1.73-.799-.486.173-.647.653-1.077.849-.78.355-1.078-.679-1.717-.947-.566-.237-.639-.032-.974.518-.424.61-1.067.397-1.52-.053-.592-.592-1.431-.777-2.063-.137-.289.292-.528.738-1.012.646-.764-.145-1-1.502-1.941-1.172-.504.177-.544.663-.871.997-.592.603-1.419-.88-1.97-1.037-.546-.157-1.113.177-1.406.649-.33.784-1.06.386-1.465-.061-.662-.734-2.531-.916-3.149-.016.051.038.728-.378 1.277-.372 1.566.017 1.758 1.114 2.57 1.267.535.101.804-.245 1.091-.654.483-.689 1.186-.535 1.672.063.429.523 1.154 1.01 1.698.347.248-.302.407-1 .932-.838.751.234.917 1.402 1.887 1.18.53-.12.696-.593 1.097-.876.787-.556 1.309.352 1.934.682.589.311 1.205.088 1.563-.456 1.016-1.539 1.619 1.744 2.906.304.409-.457.679-.791 1.292-.449.617.346 1.284 1.363 1.943.431.343-.484.448-.66 1.041-.413.643.269 1.204 1.11 1.959.764.499-.231.366-.885 1-.995.349-.061 1.558.263 2.136.313-.443-.408-1.584-.787-2.194-.677"/><path d="m8.427 9.981c1.064.136 2.028-.643 2.154-1.738.125-1.095-.636-2.092-1.7-2.228-1.064-.135-2.028.643-2.153 1.738-.126 1.095.635 2.092 1.7 2.228"/><path d="m.963 19c.842-.366 1.456.175 2.051.72.402.369.728.393 1.038-.092.294-.46.802-.811 1.351-.773.402.028.755.26 1.035.546.242.245.431.595.796.595.37 0 .583-.737.896-.958.758-.537 1.359.177 1.839.708.446.493.861.212 1.215-.212.428-.513 1.101-.717 1.716-.454.566.242 1.305 1.377 1.904.577.3-.401.082-.724.593-.751.928-.047 1.045.985 1.881 1.088.376.023.512-.242.745-.483.506-.52 1.051-.679 1.687-.343.353.186 1.053 1.205 1.375.484.302-.676.865-.765 1.465-.556.568.198.981.899 1.611.816.194-.026.49-.64.662-.775.302-.237.574-.347.947-.306.383.042.593.345.846-.028.8-1.178.666-4.412-.738-5.268-.032 2.412-3.378 2.567-5.125 2.696-3.973.294-6.846.387-10.959.681-.187.013-.555.033-.997.054l.409-3.563 4.259 2.605c.602.345 1.31.212 1.581-.295.27-.507-.0001-1.197-.602-1.54l-6.05-3.628c-.027-.016-.056-.024-.084-.039-.005-.002-.001-.005-.016-.007-.141-.067-.281-.11-.425-.129-.025-.005-.049-.011-.073-.014-.962-.122-1.831.581-1.945 1.567l-.596 5.211c-1.356.076-3.408-.002-3.729-1.418-.785.819-1.427 1.965-.659 3.158.022.032.031.05.1.125"/></svg>