<svg viewBox="0 0 27 27" version="1.1" xmlns="http://www.w3.org/2000/svg"><path d="m16.8096 5.6009l-5.7224.125-6.0629-1.7259-4.0243 14.0681 8.1931 2.3322 5.7237-.1251 6.0588 1.7248 4.0244-14.0681-8.1904-2.331m3.7616 15.6749l-5.5783-1.5881-5.7241.1251-7.5421-2.1469 3.7021-12.9417 5.5822 1.5891 5.7905-.1265 7.4718 2.1473-3.7021 12.9417"/><path d="m15.6661 9.5415c-.2445-.5846-.4503-1.9901-.0391-2.7432-1.2059.0263-4.5385.0991-4.5385.0991-.3435 1.2689 1.0977 3.457 1.8569 3.8719.3581-.4149 1.9762-1.1682 2.7207-1.2278"/><path d="m9.9365 15.9386c.2588-.3802 1.5738-1.71 1.831-1.9613.0014-.7384.4032-1.828.7726-2.4825-1.4667-.7255-2.8539-3.3578-2.2281-4.7714l-4.4787-1.2749-3.3799 11.8151 6.532 1.8595c-.0033-.0209.8481-2.9572.9511-3.1845"/><path d="m14.2769 12.3803c.6803-.214 1.3909-.2985 2.1025-.3302-.2787-.5248-.4542-1.1073-.5754-1.6957-.5882 0-1.7454.4739-2.2404.9583-.4184.4097-.8118 1.1293-.9235 1.9235.4993-.3651 1.0459-.67 1.6368-.8559"/><path d="m17.364 12.0314c1.7465-.0112 3.4935-.0011 5.24 0l.9426-3.295c0 0-6.5503-1.8217-7.0435-1.9572-.2141.9565.0141 2.3826.1336 2.9682.1451.7111.4988 1.7082.7273 2.284"/><path d="m16.2347 12.8769c-.9789.222-1.9386.2887-2.449.603-.5104.3144-.9187.5733-1.4897 1.1493-.3197.3225-1.001.912-1.3186 1.2354-.3948.9052-1.1859 3.303-1.2065 3.3515l5.2981-.1158 5.0977 1.4512 2.1609-7.5539c-.3076-.0539-5.114-.3428-6.0929-.1207"/></svg>