<svg viewBox="0 0 27 27" xmlns="http://www.w3.org/2000/svg"><path d="m6.576 17.12c.807.257 1.605.488 2.503.501h.094c.857 0 1.645-.084 2.409-.258.803-.208 1.445-.466 2.01-.809.543.204 1.133.384 1.847.566.788.186 1.458.272 2.111.272.127 0 .257-.003.396-.011.955-.098 1.719-.263 2.395-.516.878-.315 1.594-.753 2.127-1.301.07-.072.082-.187.026-.273-.053-.085-.155-.117-.245-.075-.731.352-1.49.48-2.131.56-.439.042-.841.062-1.225.062-.329 0-.649-.016-.957-.047-.664-.047-1.341-.261-2.04-.496-.584-.194-1.231-.46-2.035-.834l-.374-.174c-.061-.03-.133-.024-.19.017l-.362.255c-.449.315-1.068.567-1.794.728-.655.163-1.354.253-2.07.267h-.1c-.568 0-1.221-.09-1.94-.266-.604-.149-1.392-.353-2.121-.619l-.329-.121c-.063-.025-.139-.009-.194.039l-.194.178c-.531.481-1.259.799-1.833 1.021-.67.244-1.39.437-2.199.591-.094.017-.163.107-.163.21 0 .104.069.192.165.21.829.152 1.654.18 2.423.085.76-.085 1.433-.276 2.056-.584.733.366 1.331.621 1.931.821"/><path d="m26.837 19.756c-.802-.153-1.541-.351-2.199-.589-.576-.224-1.307-.543-1.833-1.022l-.198-.178c-.051-.049-.128-.064-.192-.04l-.331.121c-.723.265-1.511.47-2.119.619-.716.177-1.368.266-1.94.266l-.1-.0001c-.715-.013-1.413-.103-2.074-.266-.723-.161-1.342-.413-1.791-.727l-.361-.255c-.057-.04-.129-.045-.19-.017l-.372.173c-.8.374-1.447.639-2.035.835-.696.234-1.376.45-2.046.495-.655.067-1.364.063-2.174-.015-.645-.079-1.403-.208-2.133-.56-.086-.042-.192-.001-.245.075-.055.086-.043.2.026.272.531.548 1.245.986 2.123 1.3.68.256 1.441.42 2.407.518.79.045 1.556-.039 2.503-.263.712-.182 1.3-.363 1.843-.565.566.343 1.209.602 2.02.811.759.172 1.546.257 2.405.257h.094c.897-.014 1.695-.245 2.501-.502.6-.2 1.198-.455 1.933-.82.619.308 1.29.5 2.05.584.776.095 1.599.066 2.428-.085.094-.018.165-.106.165-.21 0-.103-.071-.192-.163-.21"/><path d="m22.1 10.25l.009.002c-2.642-2.266-4.758-3.286-8.37-3.403-.013-.06-.014-.104-.119-.116l-.18-.733h-.193l-.212.733c-.089.009-.11.054-.124.118-3.608.137-5.699 1.133-8.37 3.401l.041-.008-.135.199h.095l.196-.219c1.188-.14 2.999.045 4.075.468l-.066.189c.027 0 .027.024.027.024l.154-.201c1.162-.184 2.559-.292 4.105-.294v5.963h.616v-5.963c1.551.004 2.909.108 4.068.267l.122.204.023-.211c1.071-.406 2.889-.619 4.078-.448l.224.22h.04v-.033l-.102-.16"/></svg>