<svg viewBox="0 0 27 27" xmlns="http://www.w3.org/2000/svg"><path d="m12.07 4.684h2.857l-.082-.597h.939v-.598h-1.065l-.119-1.195h.898v-.598h-1.032l-.111-1.195h-1.714l-.111 1.195h-1.032v.598h.898l-.118 1.188h-.045l-1.021.007v.598h.939l-.082.597"/><path d="m13.5 17.834c-1.103 0-2 .938-2 2.092 0 1.154.897 2.092 2 2.092 1.103 0 2-.938 2-2.092 0-1.154-.897-2.092-2-2.092m0 3.587c-.789 0-1.428-.67-1.428-1.495 0-.825.639-1.494 1.428-1.494.789 0 1.429.669 1.429 1.494 0 .825-.64 1.495-1.429 1.495"/><path d="m18.307 18.645c0 0-.118-.139-.134-.156-1.835-1.997-1.197-2.885-.702-4.412 0 0 .148-.572.148-.877 0-1.58-1.4-2.78-3.262-3.066v-4.853h-1.714v4.864l-.858.216c-1.415.477-2.404 1.514-2.404 2.839 0 .304.148.877.148.877.494 1.527 1.133 2.414-.703 4.412-.015.016-.133.155-.133.155-.756.875-1.193 1.978-1.193 3.198 0 2.93 2.491 4.657 6 4.657 3.511 0 6-1.727 6-4.657 0-1.22-.436-2.322-1.193-3.198m-4.807 3.671c-1.26 0-2.286-1.072-2.286-2.391 0-1.318 1.025-2.391 2.286-2.391 1.26 0 2.286 1.072 2.286 2.391 0 1.318-1.026 2.391-2.286 2.391"/></svg>