<svg viewBox="0 0 27 27" version="1.1" xmlns="http://www.w3.org/2000/svg"><path d="m3.666 17.5146v3.5547c-.611.2233-1.1084.5461-1.4301.9307h23.737c-.4744-.6829-1.4106-1.2224-2.5764-1.4789-.0067-1.8305-.0134-4.5379-.0134-4.5379 1.7542-.4811 3.1429-2.6099 2.4227-4.9957-.8454-2.8005-1.8761-4.9794-3.2377-4.9794-1.3613-.00001-2.4499 2.2922-3.2427 4.9794-.3801 1.2885.0175 2.5346.5308 3.4419l-.0421.0059-.385.0353-.3863.0151-.3863-.0046-.3851-.0241-.3828-.0434c-.1266-.0201-.2535-.0385-.3797-.0597-.1252-.0264-.2507-.0508-.3755-.0784-.1232-.0326-.2471-.0631-.3697-.097-.121-.0388-.2428-.0754-.3631-.1156-.1183-.0447-.2376-.0874-.3549-.1336-.0943-.0415-.1889-.0819-.2829-.1238 1.0716-.9725 1.9106-2.7651 1.316-4.6692-.9334-2.9887-2.0241-5.1363-3.4927-5.1363-1.4688-.00001-2.5991 2.2175-3.4983 5.1363-.6778 2.1999.4493 4.223 1.8558 5.0626-.0794.1347-.1598.2689-.2476.3985l-.0975.1499-.1052.1446c-.0707.096-.138.1947-.2161.2855l-.1134.1389-.0566.0696c-.0196.0226-.0404.0443-.0604.0665l-.1216.1324c-.0409.0439-.0798.0895-.1242.1302l-.1297.1253c-.0438.0412-.0849.0853-.1321.1231l-.1376.1175c-.046.0391-.0901.0804-.1394.1158-.1904.1493-.3888.2907-.5999.4149l-.1587.0927c-.0527.0313-.1093.0564-.1638.0852-.0551.0274-.1096.0562-.1653.0829l-.1706.0741c-.227.0997-.4649.1787-.7045.254-.1216.0327-.243.0674-.3662.0963-.1241.0258-.2469.0576-.373.0772l-.1883.0334c-.0629.0106-.1265.0181-.1898.0272-.0634.0083-.1266.0188-.1904.0253l-.1915.021c-.1275.0163-.2563.023-.3847.0349-.1286.0094-.2577.0159-.3868.0233-.2553.0106-.5112.0169-.7677.0209-.00001-.0362-.00001-.0557-.00001-.0557 1.7542-.4809 3.1455-2.6107 2.4227-4.9954-.8341-2.7519-1.8763-4.898-3.2376-4.898-1.3616 0-2.3263 1.9872-3.2428 4.898-.7543 2.3955.7085 4.5455 2.4628 5.0057m11.6863-3.3912c.0421.02.0842.0399.1262.0599.124.0537.2501.1031.3751.1547.127.0471.2558.09.3836.1349.1296.0403.2606.0767.3908.1151.1317.0334.2646.0632.3967.0949.1336.0266.2679.0499.4016.0749.1349.0198.2702.0365.4052.0547.1358.0118.272.0211.4078.0316l.4087.011.4085-.0095.407-.0304.4041-.0516c.0595-.0106.1188-.0214.178-.0324.0917.1321.1906.2557.296.3709-.0161.003-.0322.0061-.0483.0092l-.3827.0542-.3849.0354-.3863.015-.3863-.0046-.3851-.0242-.3828-.0433c-.1266-.0202-.2535-.0386-.3798-.0597-.1251-.0264-.2507-.0509-.3754-.0785-.1232-.0326-.2471-.0631-.3697-.097-.121-.0387-.2428-.0753-.363-.1155-.1184-.0448-.2377-.0873-.3551-.1337-.1152-.0508-.2316-.0992-.3458-.1516-.1115-.057-.225-.1105-.336-.1682-.0792-.0455-.159-.0901-.2383-.1354.044-.0259.0874-.0527.1302-.0808m-.8872.4021c.0821-.0225.1622-.0493.2414-.0782.0506.0317.1013.063.1516.0949.1161.0674.235.1304.3525.1957.1201.0609.2427.1176.3645.1755.124.0537.2501.1032.3751.1547.127.047.2558.09.3835.1349.1296.0404.2607.0767.3909.1151.1317.0334.2646.0634.3968.0949.1334.0267.2677.05.4015.0749.1349.0198.2701.0366.4052.0547.1359.0119.272.0212.4078.0316l.4087.0112.4085-.0096.407-.0304.4041-.0517c.1335-.0239.2669-.0481.3996-.0744.0804-.0198.1608-.0392.2411-.0589.3437.2999.7422.5173 1.1834.633v4.3651c-1.613.0147-3.0174.5413-3.7793 1.3201-.6772-.8518-1.9798-1.4913-3.5533-1.7077l.0094-5.4454m-2.2557 1.0381l.1063-.1554.0529-.0779.0489-.0797.1936-.32.1335-.2446v5.2212c-1.7962.1082-3.3245.7586-4.1189 1.6732-.7009-.5156-1.7702-.8452-2.9687-.8452-.1296 0-.2574.0043-.3835.0118-.0036-.7577-.0071-1.6682-.0095-2.3315.0267.0016.0533.0037.0799.0053.2607.0172.5223.0254.7846.031.1311.0007.2625.0023.394.0008.1314-.0038.2631-.0026.3949-.011.1318-.0058.2635-.0136.3951-.0268.0658-.0063.1318-.0109.1976-.0186l.1971-.0249c.1319-.0142.262-.0408.3932-.0616.1307-.0239.2603-.0539.3903-.0823l.1928-.0512c.0643-.0173.1292-.0332.1918-.0554.1259-.0424.2539-.0806.3763-.132l.1856-.0729c.0608-.0264.1205-.0551.1808-.0826.0598-.0285.1216-.0537.1796-.0851l.1747-.0936c.2326-.1256.4526-.2699.6641-.4236.0546-.0366.1041-.0785.1548-.1192l.1511-.1233c.0518-.0399.0969-.0856.1449-.1288l.1424-.1314c.0487-.0428.0914-.0901.1362-.1361l.1333-.1385c.022-.0233.0448-.046.0661-.0697l.0621-.0723.1242-.145c.0854-.0952.159-.1972.2363-.2973l.1152-.1506.1064-.1552m-6.1775 2.158c.1312.0008.2625.0024.394.0009.1314-.0039.2632-.0027.3949-.0111.1317-.0057.2636-.0135.3951-.0268.0658-.0062.1319-.0108.1976-.0185l.1971-.0249c.1319-.0142.262-.0409.3932-.0617.1307-.0238.2602-.0539.3903-.0822l.1928-.0513c.0643-.0174.1292-.0331.1918-.0554.1259-.0424.2539-.0805.3763-.1319l.1856-.073c.0608-.0264.1205-.055.1809-.0825.0597-.0285.1215-.0538.1795-.0852l.1747-.0935c.2326-.1256.4526-.27.6642-.4236.0546-.0366.104-.0787.1547-.1192l.1512-.1234c.0517-.0399.0968-.0856.1449-.1288l.1423-.1314c.0488-.0427.0915-.0901.1363-.1361l.1332-.1386c.022-.0231.0448-.0458.0661-.0695l.0622-.0725.1242-.1448c.0852-.0952.159-.1973.2363-.2973l.1088-.1424c-.0665.1118-.1345.2228-.2076.3307l-.0973.1498-.1054.1447c-.0706.096-.138.1947-.216.2855l-.1134.1389-.0566.0695c-.0195.0227-.0403.0443-.0605.0665l-.1215.1324c-.0409.044-.0798.0896-.1243.1302l-.1296.1254c-.0439.0412-.085.0852-.1321.123l-.1377.1177c-.046.0389-.09.0803-.1393.1156-.1904.1494-.3888.2907-.5999.4149l-.1587.0928c-.0528.0312-.1093.0565-.1638.0851-.0551.0275-.1097.0563-.1654.0829l-.1704.0742c-.2272.0997-.465.1787-.7047.2539-.1215.0327-.2429.0674-.3661.0963-.1241.0258-.2469.0576-.373.0773l-.1883.0334c-.0629.0105-.1265.018-.1898.0272-.0634.0083-.1266.0188-.1904.0254l-.1916.0209c-.1274.0162-.2562.023-.3846.0348-.1286.0094-.2577.016-.3869.0233-.2585.0107-.5178.0173-.7778.0211-.0279.0005-.0559.0005-.0838.0008-.0009-.2525-.0016-.4609-.0021-.5996.256.0165.5129.0246.7704.0301"/></svg>