<svg viewBox="0 0 27 27" xmlns="http://www.w3.org/2000/svg"><path d="m9.371 7.401c.888-.262 1.404-1.22 1.152-2.142-.253-.921-1.179-1.455-2.068-1.193-.889.262-1.405 1.22-1.152 2.141.253.921 1.179 1.455 2.068 1.193"/><path d="m19.488 7.401c.888-.262 1.404-1.22 1.152-2.142-.253-.921-1.179-1.455-2.068-1.193-.889.262-1.405 1.22-1.152 2.141.253.921 1.179 1.455 2.068 1.193"/><path d="m20.22 17.781l.557-.859h.38c1.699-.066 3.401-.649 5.05-2.218v-.184c0-.995-.86-1.801-1.922-1.801h-.788l.722-1.114-.008-.006c.172-.155.276-.389.259-.644-.027-.434-.39-.764-.808-.735l-2.84.186-1.706-2.119c-.037-.046-.078-.085-.122-.12-.2-.227-.456-.407-.756-.513-.954-.338-1.992.189-2.318 1.177l-1.284 3.888h-1.293l.696-1.075c.205-.153.333-.409.315-.689-.027-.434-.39-.764-.808-.735l-2.84.186-1.706-2.119c-.037-.046-.078-.085-.122-.12-.2-.227-.456-.407-.756-.513-.954-.338-1.992.189-2.318 1.177l-1.284 3.888h-2.01c-1.061 0-1.922.806-1.922 1.801v.6c0 .629.345 1.182.866 1.504 2.671-1.899 6.525-2.209 9.67-1.822l1.35-2.083h-4.096l.643-1.946.76.943c.161.2.398.296.631.281.033.002.065.003.098.0001l2.954-.194-4.437 6.844c-.249-.153-.513-.236-.701-.173-.763.258-2.409 1.896-2.586 2.706-.146.669 1.879 2.127 2.43 1.762.664-.439 1.676-2.632 1.57-3.442-.025-.192-.185-.419-.395-.613l.559-.862c2.02.363 4.212.902 6.621 1.409.606-.627 1.302-1.177 1.742-1.326.196-.066.566-.094.829.053l.265-.459c-1.992-.243-4.047-.884-5.97-1.46-.659-.197-1.338-.354-2.024-.471l.554-.854c.516.086 1.01.189 1.463.307 2.063.534 4.273 1.444 6.511 1.657l2.698-4.162h-4.096l.643-1.946.76.943c.161.2.398.296.631.281.032.002.065.003.098.0001l2.993-.197-4.438 6.846c-.249-.153-.514-.236-.701-.173-.764.258-2.409 1.896-2.586 2.706-.146.669 1.88 2.127 2.43 1.762.664-.439 1.677-2.632 1.571-3.442-.025-.192-.185-.419-.396-.613l.193-.298c.298.259.571.607.602.846.015.117.001.261-.013.422 6.03-.175 7.217-5.713 7.217-5.713-1.874 3.034-4.486 3.803-7.281 3.636"/><path d="m9.124 17.893l1.451-2.238c-4.389-.538-8.971.612-11.08 3.972 2.836-2.189 5.945-2.316 9.624-1.734"/></svg>