<svg viewBox="0 0 27 27" xmlns="http://www.w3.org/2000/svg"><path d="m1.225 8.521c.169 0 .305-.131.305-.298 0-.166-.136-.299-.305-.299-.17 0-.306.13-.306.299 0 .165.137.298.306.298m-1.224-.061c-.001-.086.043-.173.201-.273.144-.092.292-.18.437-.271.316-.198.649-.38.966-.594.921-.626 2.02-.85 3.109-.994.448-.055.949-.033 1.326-.304.292-.208.798-.932 1.354-1.245.096-.056.547-.279.547-.279 0 0-.258.685-.318.823-.137.317.075.591.164.896.058.201-.422.157-.446.344-.036.276.819.373 1.3.466.721.138 1.561.402 2.281.17.849-.267 1.454-.797 2.064-1.396-.284 1.298-1.072 2.046-1.107 2.204-.037.175.09.21.205.325.254.244 1.364 1.492 1.367 1.888-.318-.048-.702-.321-.982-.48-.311-.174-1.5-1.037-1.833-1.17-.076-.031-.996-.296-1-.18-.014.18.06.219.036.294-.044.144-.284.283-.399.383-.298.25-.633.469-.843.802-.294.464-.307.965-.391 1.482-.196-.021-.396-.42-.505-.578-.101-.149-.47-.786-.611-.825-.133-.04-.543.184-.691.228-.564.163-1.113.261-1.688.261-.692.002-2.51.049-3.857-.926-.149-.11-.504-.527-.504-.527 0 0 .074-.111.206-.153-.177-.113-.368-.233-.385-.371"/><path d="m14.775 11.971c.169 0 .305-.136.305-.31 0-.173-.136-.312-.305-.312-.17 0-.305.136-.305.312 0 .171.137.31.305.31m-1.224-.063c-.001-.089.043-.18.201-.284.144-.096.292-.188.437-.282.316-.207.649-.396.966-.618.921-.652 2.02-.886 3.109-1.035.448-.058.949-.034 1.325-.317.292-.217.799-.97 1.354-1.297.096-.058.547-.291.547-.291 0 0-.258.714-.318.857-.137.331.076.616.164.933.058.21-.422.164-.446.359-.036.288.819.389 1.3.486.721.144 1.561.419 2.281.178.849-.278 1.454-.83 2.064-1.455-.284 1.352-1.072 2.131-1.108 2.296-.037.182.091.219.205.338.254.254 1.364 1.554 1.367 1.966-.318-.05-.703-.334-.982-.499-.312-.182-1.5-1.08-1.833-1.219-.076-.033-.996-.308-1-.188-.014.188.061.228.036.307-.044.15-.284.295-.399.399-.298.259-.633.488-.843.835-.294.483-.307 1-.391 1.543-.196-.022-.396-.437-.505-.601-.101-.156-.47-.818-.611-.859-.133-.041-.543.192-.691.237-.564.17-1.113.272-1.688.272-.692.002-2.51.052-3.856-.964-.149-.114-.504-.55-.504-.55 0 0 .074-.115.206-.159-.177-.118-.368-.243-.384-.387"/><path d="m4.83 18.747c.213 0 .385-.174.385-.394 0-.22-.171-.397-.385-.397-.215 0-.386.173-.386.397 0 .218.173.394.386.394m-1.547-.081c-.012-.114.054-.229.254-.362.181-.122.369-.239.552-.359.4-.263.82-.503 1.221-.787 1.164-.829 2.547-1.128 3.928-1.318.566-.073 1.198-.043 1.674-.403.369-.277 1.01-1.236 1.711-1.652.121-.074.691-.37.691-.37 0 0-.326.909-.401 1.091-.173.421.095.784.207 1.188.072.267-.533.208-.564.456-.045.366 1.034.495 1.642.618.911.183 1.972.533 2.882.227 1.073-.354 1.837-1.057 2.608-1.851-.359 1.721-1.355 2.713-1.399 2.923-.047.232.114.279.259.43.322.324 1.724 1.978 1.728 2.503-.402-.063-.887-.425-1.241-.636-.394-.231-1.895-1.374-2.316-1.552-.096-.041-1.259-.392-1.269-.239-.017.239.077.291.046.391-.056.191-.359.375-.504.508-.376.331-.8.621-1.064 1.064-.372.614-.388 1.279-.494 1.964-.248-.028-.501-.556-.638-.766-.128-.198-.595-1.042-.772-1.094-.168-.052-.687.246-.872.302-.713.217-1.406.346-2.133.346-.874.003-3.171.066-4.873-1.228-.188-.146-.637-.7-.637-.7 0 0 .094-.147.261-.202-.223-.15-.465-.31-.486-.493"/></svg>