<svg viewBox="0 0 376 89" version="1.1" xmlns="http://www.w3.org/2000/svg" width="376" height="89"><path d="m2.0884 2c0 0 5.4049 1.0001 14.9116 1.0001 2.0695 0 4.3333-1.0001 6.778-1.0001 5.1717 0 11.153 1.0001 17.8165 1.0001 3.7313 0 7.6764-2 11.8132-2 6.4103 0 13.2805 2 20.5278 2 4.4476 0 9.0373-1.0001 13.7497-1.0001 5.0321 0 10.204 1.0001 15.4927 1.0001 6.611 0 13.4043-2 20.3341-2 5.6623 0 11.4158.9999 17.2354.9999 6.1967 0 12.4683-.9999 18.7849-.9999 10.0613 0 19.4621 1.75 30.4043 0 6.6775-1.068 13.4538 2 20.1404 2 7.8839 0 15.714-2 23.4326-2 6.4808 0 12.8829 2 19.1722 2 4.716 0 9.3686-2 13.9433-2 5.6809 0 11.2416 2 16.6547 2 9.3295 0 18.2203-2 26.5311-2 4.6434 0 9.1058.9999 13.3624.9999 5.4549 0 10.5718 0 15.299 0 6.1955 0 11.7214-.9999 16.4609-.9999 4.2874 0 7.9311.9999 10.8449.9999 5.2534 0 8.1336 0 8.1336 0 .8556 0 1.5492.8955 1.5492 2.0001v81.9999c0 1.1046-.6936 2.0001-1.5492 2.0001 0 0-2.457 0-6.9717 0-1.5655 0-3.3786 0-5.4224 0-2.6395 0-5.6639-1.0001-9.0374-1.0001-4.2128 0-8.9699 1.0001-14.2016 1.0001-4.5608 0-9.4823-1.0001-14.718-1.0001-2.5929 0-5.263 1.0001-8.0045 1.0001-4.5459 0-9.2884-1.0001-14.2016-1.0001-4.1033 0-8.3257 1.0001-12.6524 1.0001-6.8989 0-14.0629-1.0001-21.4314-1.0001-4.1561 0-8.3771 1.0001-12.6524 1.0001-2.2236 0-4.4619-1.0001-6.7134-1.0001-10.1928 0-20.6547 1.0001-31.2435 1.0001-4.0295 0-8.0774-1.0001-12.1359-1.0001-4.3805 0-8.7734-1-13.1687-1-7.8431 0-15.6941 2.0001-23.4972 2.0001-1.724 0-3.4455 0-5.1642 0-3.5432 0-7.0738-1.0001-10.5866-1.0001-5.56 0-11.0755 1.0001-16.5255 1.0001-5.1423 0-10.2263 0-15.2345 0-7.9615 0-15.7314-1.0001-23.2389-1.0001-4.5786 0-9.0596 1.0001-13.427 1.0001-5.4366 0-10.6971-1.0001-15.7508-1.0001-5.0355 0-9.8656 1.0001-14.4598 1.0001-2.8473 0-5.604-1.0001-8.2628-1.0001-6.2538 0-11.966 1.0001-17.0419 1.0001-2.7778 0-5.3651-1.0001-7.7463-1.0001-1.5522 0-3.0168 1.0001-4.3896 1.0001-8.9045 0-13.9433 0-13.9433 0-.8557 0-1.5493-.8955-1.5493-2.0001v-81.9999c0-1.1046.6936-2.0001 1.5493-2.0001" style="fill:#fdc300"/></svg>