<svg viewBox="0 0 88 82" version="1.1" xmlns="http://www.w3.org/2000/svg" width="88" height="82"><path d="m86.8109.00001c0 0-.3965 2.4374-.3965 6.4663 0 2.9461.7928 6.7433.7928 11.061 0 1.5806.7929 3.231.7929 4.9349 0 1.1133-1.5857 2.2489-1.5857 3.4034 0 1.1186.7928 2.2543.7928 3.4035 0 3.2173-1.5855 6.7072-1.5855 10.0396 0 3.0186.6055 5.8905.7927 8.8487.1358 2.1458 1.1916 4.724.4739 6.3635-1.0415 2.3796-.4739 3.654-.4739 6.2289 0 3.9355.7928 7.815.7928 10.7207 0 1.8725 0 4.6728 0 5.956 0 2.1672-.3963 3.5735-.3963 3.5735h-84.4327c0 0 0-1.3009 0-3.5735 0-.9671.0002-2.28.0002-3.5736 0-2.9088-1.1892-4.1963-1.1892-8.3383 0-1.8957 1.1892-5.0814 1.1892-7.1468 0-1.4434-1.1893-3.9424-1.1893-5.4456 0-1.288-1.1185-3.1034-1.1834-4.421-.1488-3.0287 2.3445-4.9883 2.3727-8.0013.023-2.4534-1.1893-5.415-1.1893-7.8276 0-2.3745.00001-4.2011.00001-6.4664 0-1.5699-.00001-3.6156-.00001-5.105 0-1.5271 0-3.0058 0-4.4245 0-3.1144 1.1891-5.9374 1.1891-8.3381 0-5.134 0-8.3383 0-8.3383h84.4327" style="fill:#d52b11"/></svg>