<svg viewBox="0 0 787 127" version="1.1" xmlns="http://www.w3.org/2000/svg" width="787" height="127"><path d="m2.0001 127h782.9999c1.1046 0 2-.8955 2-2v-121c0-1.1047-.8954-2-2-2 0 0-13.134 0-36 0-3.744 0-7.749 2-12 2-4.1082 0-8.4458-2-13-2-4.0027 0-8.1724 2-12.5 2-3.7186 0-7.554-2-11.5-2-5.6145 0-11.4535 2-17.5 2-3.4341 0-7.9351-2-11.5-2-12.8807 0-25.5957 2-40 2-2.3157 0-4.6492 0-7 0-5.088 0-10.2567-2-15.5-2-3.7949 0-7.6292 2-11.5 2-2.6497 0-5.3165 0-8 0-4.2921 0-8.6265-2-13-2-2.9821 0-5.9824 0-9 0-10.7941 0-21.8087-1-33-1-2.1602 0-4.3269 1-6.5 1-3.1538 0-6.3208-1-9.5-1-5.3008 0-10.6356 3-16 3-7.2827 0-14.6198-3-22-3-4.3192 0-8.6533 3-13 3-17.5121 0-35.2278-3-53-3-6.6613 0-13.3306 3-20 3-3.0001 0-6.0004-3-9-3-7.0066 0-14.0095 3-21 3-4.3389 0-8.673-3-13-3-7.3571 0-14.6938 1-22 1-2.6709 0-5.3378-2-8-2-4.011 0-8.0117 1-12 1-8.0549 0-16.0598 3-24 3-9.2622 0-18.4366-3-27.5-3-12.3939 0-24.5803 3-36.5 3-13.3628 0-26.3905 0-39 0-11.7167 0-23.0723-3-34-3-13.7181 0-26.7622 3-39 3-7.2958 0-14.3052-2-21-2-5.1936 0-10.198 2-15 2-43.9887 0-70.9999-2-70.9999-2-1.1047 0-2.0001.8953-2.0001 2v121c0 1.1045.8954 2 2.0001 2" style="fill:#0b7dc3"/></svg>