<svg viewBox="0 0 718 10" version="1.1" xmlns="http://www.w3.org/2000/svg" width="718" height="10"><path d="m41.15 2.5h-45.15v1h4v6.5h718v-7h-2.31l-2.245-.5c-5.3251-2.3747-7.2939-.8746-10.41 0h-7.03c-3.1962-.5924-7.4841-1.5-9.505-1.5-1.3473 0-4.9611.9076-8.095 1.5h-7.4c-3.1962-.5924-7.4841-1.5-9.505-1.5-1.3473 0-6.777.9076-10.79 1.5h-9.61c-4.9112-.5924-11.2527-1.5-12.6-1.5l-26.25 1.5h-16.715c-5.9096-.5924-12.0141-1.5-14.035-1.5-1.3473 0-6.7762.9076-11.095 1.5h-9.885c-2.819-.3842-6.2306-.9421-9.02-1.5l-45-1c-6 1-13 0-20 1-2.6946 0-6.2944.9076-8.97 1.5h-7.345c-5.5864-.8534-14.2033-2.5-15.685-2.5-2.2225 0-9.9327 1.6466-15 2.5h-11.335l-36.665-2.5c-5.9268 0-14.599 1.6466-19.915 2.5h-6.475c-2.9041-.8534-7.1283-2.5-8.61-2.5-2.2226 0-10.4849 1.6466-15.43 2.5h-6.755c-2.3171-.5924-4.7941-1.5-6.815-1.5-9-1-18 1-27 0-3 0-6-1-9-1-1.5579 0-20.106 1.427-29.175 2.5h-10.49c-7.912-.8534-21.1124-2.5-23.335-2.5-1.4817 0-29.3086 1.6466-44.445 2.5h-19.555c-15.3083-.8534-42.7774-2.5-45-2.5-1.4817 0-19.4275 1.6466-29.85 2.5h-12.645c-5.5658-.5924-13.484-1.5-15.505-1.5-1.3473 0-6.3274.9076-10.35 1.5" style="fill:#222222"/></svg>