<svg viewBox="0 0 762 15" version="1.1" xmlns="http://www.w3.org/2000/svg"><path d="m.00001-172h783c1.1045 0 2 .8954 2 2.0001v180.9999c0 1.1046-.8955 2.0001-2 2.0001 0 0-13.1341 0-36 0-3.7441 0-7.7491-2.0001-12-2.0001-4.1082 0-8.446 2.0001-13 2.0001-4.0027 0-8.1724-2.0001-12.5-2.0001-3.7187 0-7.554 2.0001-11.5001 2.0001-5.6146 0-11.4535-2.0001-17.4999-2.0001-3.4341 0-7.9352 2.0001-11.5001 2.0001-12.8807 0-25.5956-2.0001-39.9999-2.0001-2.3158 0-4.6493 0-7 0-5.0881 0-10.2568 2.0001-15.5 2.0001-3.7951 0-7.6292-2.0001-11.5001-2.0001-2.6497 0-5.3165 0-7.9999 0-4.2922 0-8.6266 2.0001-13 2.0001-2.9822 0-5.9825 0-9 0-10.7942 0-21.8088.9999-33.0001.9999-2.1602 0-4.3269-.9999-6.5-.9999-3.1538 0-6.3207.9999-9.5.9999-5.3008 0-10.6356-3-16-3-7.2827 0-14.6198 3-21.9999 3-4.3193 0-8.6534-3-13.0001-3-17.5121 0-35.2278 3-53 3-6.6613 0-13.3305-3-19.9999-3-3.0002 0-6.0005 3-9.0001 3-7.0066 0-14.0095-3-21-3-4.3389 0-8.673 3-13 3-7.3571 0-14.6939-.9999-21.9999-.9999-2.671 0-5.3379 1.9998-8.0001 1.9998-4.011 0-8.0117-.9999-12-.9999-8.0549 0-16.0598-3-23.9999-3-9.2624 0-18.4367 3-27.5001 3-12.394 0-24.5803-3-36.5-3-13.3628 0-26.3905 0-38.9999 0-11.7167 0-23.0723 3-34.0001 3-13.7181 0-26.7621-3-39-3-7.2958 0-14.3051 2.0001-20.9999 2.0001-5.1937 0-10.198-2.0001-15.0001-2.0001-43.9887 0-70.9999 2.0001-70.9999 2.0001-1.1046 0-2.0001-.8955-2.0001-2.0001v-180.9999c0-1.1047.8955-2.0001 2.0001-2.0001" style="fill:#ffffff"/></svg>