<?xml version="1.0" standalone="no"?>
<!-- Generator: Adobe Fireworks CS6, Export SVG Extension by Aaron Beall (http://fireworks.abeall.com) . Version: 0.6.1  -->
<!DOCTYPE svg PUBLIC "-//W3C//DTD SVG 1.1//EN" "http://www.w3.org/Graphics/SVG/1.1/DTD/svg11.dtd">
<svg id="atividade_icone_novo_canoa-Page%201" viewBox="0 0 27 27" style="background-color:#ffffff00" version="1.1"
	xmlns="http://www.w3.org/2000/svg" xmlns:xlink="http://www.w3.org/1999/xlink" xml:space="preserve"
	x="0px" y="0px" 
>
	<g id="Layer%201">
		<g>
			<path d="M 25.3058 19.5596 C 24.8432 19.6415 24.6985 19.9457 24.4387 20.3083 C 24.3025 20.9342 23.6377 20.4649 23.3628 20.2957 C 22.7561 19.9216 22.1168 19.3277 21.4308 19.8746 C 21.0669 20.1644 20.993 20.789 20.3954 20.4999 C 19.6701 20.1487 19.5774 19.3765 18.665 19.7006 C 18.1794 19.8734 18.0177 20.3535 17.5878 20.5493 C 16.808 20.9046 16.5095 19.8704 15.8707 19.6024 C 15.3046 19.3651 15.232 19.5699 14.8965 20.1204 C 14.4727 20.7306 13.8291 20.5174 13.3762 20.0674 C 12.784 19.4753 11.9454 19.2904 11.3133 19.9301 C 11.0245 20.2222 10.7848 20.6685 10.3016 20.5764 C 9.5381 20.4312 9.2983 19.0741 8.3611 19.4048 C 7.8567 19.5819 7.8174 20.0674 7.4898 20.4017 C 6.8976 21.0046 6.0706 19.5217 5.5202 19.3651 C 4.9741 19.2085 4.4073 19.5422 4.1143 20.0144 C 3.7843 20.7986 3.0541 20.3999 2.6491 19.9536 C 1.9873 19.2193 0.1176 19.0374 -0.5 19.9373 C -0.4491 19.9758 0.2278 19.559 0.7769 19.565 C 2.3433 19.5825 2.5346 20.6794 3.3472 20.8324 C 3.8824 20.9336 4.1512 20.5878 4.4382 20.1782 C 4.9208 19.4892 5.6243 19.6434 6.1105 20.2409 C 6.5392 20.7643 7.2646 21.2468 7.8083 20.5878 C 8.0565 20.2854 8.2151 19.5861 8.7401 19.75 C 9.4915 19.9843 9.6568 21.1516 10.6267 20.93 C 11.1571 20.8095 11.323 20.3372 11.7239 20.0541 C 12.511 19.4976 13.0329 20.4059 13.6577 20.736 C 14.2469 21.0468 14.8626 20.8239 15.2211 20.28 C 16.237 18.741 16.8401 22.0244 18.1267 20.5842 C 18.5354 20.1276 18.8055 19.7927 19.4188 20.1349 C 20.0358 20.4806 20.703 21.4974 21.3617 20.5661 C 21.705 20.0819 21.8092 19.906 22.4025 20.1535 C 23.0456 20.4222 23.6062 21.2637 24.3618 20.9179 C 24.8608 20.6872 24.7275 20.0331 25.3645 19.9228 C 25.7139 19.8614 26.9224 20.1854 27.5 20.2361 C 27.0574 19.8277 25.9161 19.4494 25.3058 19.5596 Z" />
			<path d="M 8.4271 9.9811 C 9.4909 10.1167 10.4554 9.3385 10.5807 8.2434 C 10.7061 7.1483 9.945 6.1509 8.8806 6.0153 C 7.8167 5.8798 6.8528 6.658 6.7275 7.7531 C 6.6016 8.8482 7.3626 9.8456 8.4271 9.9811 Z" />
			<path d="M 0.9628 19.0012 C 1.805 18.635 2.419 19.1765 3.0136 19.7216 C 3.4156 20.0909 3.7419 20.1144 4.0513 19.6295 C 4.345 19.1699 4.853 18.8181 5.4021 18.8567 C 5.8042 18.885 6.1571 19.1169 6.4375 19.4024 C 6.6791 19.6476 6.8686 19.9969 7.2337 19.9969 C 7.6042 19.9969 7.8167 19.2603 8.1298 19.0386 C 8.8878 18.5013 9.4891 19.2151 9.9692 19.7469 C 10.4148 20.2397 10.8302 19.959 11.1838 19.5349 C 11.6118 19.0223 12.2845 18.8181 12.9003 19.0808 C 13.4664 19.3229 14.2057 20.4577 14.8039 19.6578 C 15.1042 19.2566 14.8862 18.9338 15.3966 18.9073 C 16.3248 18.8603 16.4417 19.8927 17.2772 19.9951 C 17.6532 20.0186 17.7889 19.753 18.022 19.5126 C 18.5281 18.9928 19.0725 18.8338 19.7088 19.1699 C 20.0618 19.356 20.7617 20.3752 21.0838 19.6536 C 21.3853 18.9772 21.949 18.8886 22.5485 19.0976 C 23.1164 19.2952 23.5293 19.9963 24.1596 19.9138 C 24.3534 19.8879 24.6501 19.2735 24.8214 19.1386 C 25.1229 18.9013 25.3954 18.7916 25.7684 18.8326 C 26.151 18.8748 26.3617 19.1771 26.6142 18.8049 C 27.414 17.6267 27.2802 14.3933 25.8767 13.5368 C 25.8446 15.9486 22.4988 16.104 20.752 16.2329 C 16.7795 16.5268 13.906 16.6196 9.793 16.9135 C 9.6059 16.9268 9.2378 16.9461 8.7958 16.9677 L 9.2045 13.4043 L 13.4634 16.0088 C 14.0652 16.3534 14.7736 16.2208 15.0443 15.7143 C 15.3143 15.2077 15.0436 14.5174 14.4424 14.1747 L 8.3895 10.5467 C 8.3623 10.5311 8.3338 10.5227 8.3054 10.5076 C 8.3005 10.5058 8.2951 10.5028 8.2896 10.501 C 8.1486 10.4335 8.0081 10.3913 7.8646 10.3721 C 7.8397 10.3673 7.8161 10.3612 7.7913 10.3576 C 6.8298 10.2353 5.9598 10.9383 5.8465 11.9249 L 5.2502 17.1364 C 3.8939 17.2123 1.8426 17.134 1.5217 15.7185 C 0.737 16.5377 0.0946 17.6839 0.8629 18.876 C 0.8847 18.9079 0.8938 18.926 0.9628 19.0012 Z" />
		</g>
	</g>
</svg>