<svg viewBox="0 0 33 60" version="1.1" xmlns="http://www.w3.org/2000/svg" width="33" height="60"><path d="m32.6403 25.4984c0 .8878-.5134 1.6409-1.2551 2.0115l-.8343 31.0288c.0089.5332-.387 1.0167-.9283 1.1002-.5965.0914-1.1535-.3113-1.2477-.9046-.0006-.0138.0077-.0436.0047-.0722l.8362-31.0979-7.9902-1.806c0 0-1.2954-.1307-1.7419-1.5366l-.4839-2.16-.6362 2.7468 7.507 31.1459c.0444.2383.0625.4753.0625.7245 0 1.8379-1.4859 3.3125-3.3265 3.3125-1.5647 0-2.8812-1.0564-3.2359-2.5048l-5.4612-23.4435-5.7434 23.5836c-.4068 1.3639-1.6857 2.3679-3.195 2.3679-1.8483 0-3.338-1.4778-3.338-3.3157 0-.2246.0142-.4421.0488-.6684l10.0457-41.9013c0 0 .9697-4.0378 4.8423-3.9426 0 0 3.9769-.0978 4.8533 4.0391l1.8299 7.4077 6.0827 1.3341.2118-7.9056c.0326-.5425.3829-1.02.928-1.1048.5944-.0943 1.139.3132 1.2308.8937l.0125.0802-.2323 8.6134c.6915.395 1.1537 1.1285 1.1537 1.9741m-14.6873-16.0593c-2.6211 0-4.7549-2.1113-4.7549-4.7202 0-2.6047 2.1321-4.7112 4.7549-4.7112 2.6219 0 4.7425 2.1034 4.7425 4.7112 0 2.6124-2.1221 4.7202-4.7425 4.7202m-11.3457 17.619c-.1654.7218-.9126 1.167-1.632.9793l-3.9591-.94c-.733-.1817-1.1807-.9053-1.0006-1.6301l3.3223-13.6687c.1657-.7205.8972-1.1517 1.6374-.9852l3.9596.9495c.7177.1795 1.174.9026.995 1.629l-3.3226 13.6662" style="fill:#fdc300"/></svg>