<svg viewBox="0 0 27 27" version="1.1" xmlns="http://www.w3.org/2000/svg" width="27" height="27"><path d="m18.6515 15.901c-.4066 0-.8015-.0794-1.1742-.2358l.4377-.9858c.2337.0982.4816.1479.7365.1479.2089 0 .4145-.0338.6113-.1005l.3634 1.0138c-.3139.1064-.6418.1604-.9747.1604m-10.2379-.0202c-.3507 0-.6956-.0598-1.0246-.1777l.382-1.0072c.2062.0738.4225.1112.6426.1112.2435 0 .4812-.0454.7059-.1351l.4196.9932c-.3587.1431-.7375.2156-1.1255.2156m8.1274-.7138l-1.5558-.8612.5464-.9329 1.5559.8612-.5465.9329m-6.0511-.0179l-.5679-.9209 1.5356-.8947.5679.9211-1.5356.8945m3.6722-1.2833c-.2275-.0924-.4685-.1393-.7157-.1393-.2164.0002-.4293.0364-.6326.108l-.3758-1.0097c.3241-.1139.6633-.172 1.0083-.172.3943 0 .7782.0748 1.1415.2223l-.4257.9907m6.8698-.1488c-.5014 0-.9078.3949-.9078.8824 0 .4872.4064.8824.9078.8824.5013 0 .9076-.3952.9076-.8824 0-.4875-.4063-.8824-.9076-.8824m-15.058 0c-.5012 0-.9076.3949-.9076.8824 0 .4872.4064.8824.9076.8824.5014 0 .9077-.3952.9077-.8824 0-.4875-.4063-.8824-.9077-.8824m18.5259-8.0285c0-1.8675-1.5578-3.3816-3.4789-3.3816-1.9215 0-3.4792 1.5141-3.4792 3.3816 0 2.7772 2.7363 3.0709 3.4792 7.2948.7428-4.224 3.4789-4.5176 3.4789-7.2948m-4.7269-.0818c0-.6701.5586-1.213 1.248-1.213.6889 0 1.2475.5429 1.2475 1.213 0 .6696-.5586 1.2125-1.2475 1.2125-.6894 0-1.248-.5429-1.248-1.2125m3.1222 6.4784v7.4457l-4.0026 2.1128v-4.6826h-.8023v4.5972l-4.368-2.7463v-3.9141h-.7652v3.9141l-4.2612 2.7463v-4.5972h-.8022v4.6826l-3.7887-2.1128v-11.7788l3.7887 1.9693v3.9437h.8022v-3.9079l4.2612-2.1482v4.0968h.7652v-4.0968l3.7884 1.8632c-.5497-.6732-1.1217-1.4232-1.3989-2.4494l-2.7721-1.3707-5.0093 2.5298-5.8301-3.0155v15.2743l5.8301 3.2351 5.0093-3.2347 5.1162 3.2347 6.044-3.2351v-10.9305c-.0354.0432-.071.0864-.1059.129-.5757.7008-1.1271 1.3723-1.4988 2.446" style="fill:#797979"/></svg>