<svg viewBox="0 0 31 30" version="1.1" xmlns="http://www.w3.org/2000/svg" width="31" height="30"><path d="m31.0008 26.1021l-8.2684-7.9429c1.209-1.8302 1.9105-3.9996 1.9105-6.3223 0-6.5257-5.5275-11.8363-12.3217-11.8363-6.7939 0-12.3213 5.3106-12.3213 11.8363 0 6.5256 5.5274 11.8356 12.3213 11.8356 2.2989 0 4.4525-.6084 6.2964-1.6664l8.3234 7.995 4.0598-3.899m-26.4074-14.2652c0-4.0937 3.4665-7.4238 7.7278-7.4238 4.2614 0 7.7282 3.3301 7.7282 7.4238 0 4.093-3.4668 7.4231-7.7282 7.4231-4.2613 0-7.7278-3.3301-7.7278-7.4231" style="fill:#8f8f8f;opacity:.502"/></svg>