<svg viewBox="0 0 31 42" version="1.1" xmlns="http://www.w3.org/2000/svg" width="31" height="42"><path d="m28 14.0001c-.0629-2.9596-1.4966-9.6678-6.9786-11.1487-.3708.2558-.0006-1.7868.0047-2.0771 5.7777.9275 9.0059 6.6183 9.0059 13.2451-.0772-.162-2.0014-.2103-2.032-.0193m-2.3308.1909c-.0298-.0769-1.9656-.1993-1.9898-.1151.1123-1.3358.2251-4.3789-2.3764-5.3326-.5174.0985-.1668-.8941-.303-1.7434 2.5627.0377 4.849 3.5035 4.6692 7.1911m3.5759 13.7439c-.4355 3.8744-2.5996 4.9884-2.5996 10.8216v2.2994h-15.0538c-.6632-2.6687-1.4612-6.9374-6.0392-11.2322-1.3838-1.2984-2.2627-3.1451-1.5671-4.9087.7509-1.9035 3.2397-3.1413 6.9527-1.0714v-10.2926c0-2.6892 1.5783-4.0763 3.648-4.0763 2.0836 0 3.7243 1.4331 3.7243 4.0763v5.9389c0 0 5.3419 1.0429 6.5465 1.2766 3.5125.681 4.7871 3.6196 4.3882 7.1684m-5.6888-3.7406l-.2595-.719c-.2717-.8993-1.1822-1.0183-2.4202-1.1836l.3236.9546c.2519.8304-.9988 1.2113-1.2499.3791l-.2342-.7382c-.2809-.9293-1.1138-1.0301-2.4853-1.239l.307 1.0249c.1272.4215-.1579.7462-.5146.7462-.4475 0-1.0081-.5115-1.0081-1.9849v-7.8834c0-1.0661-.3652-1.777-1.429-1.777-1.0639 0-1.3527.7109-1.3526 1.777v14.9965c-1.1966-1.3048-3.9261-3.4799-5.8448-3.4799-1.6148 0-1.8634 1.5803-.2674 3.078 2.705 2.5375 5.0835 5.8606 6.2642 10.6111 0 0 8.4532 0 10.9646 0 0-6.2544 2.2473-7.8138 2.6141-11.0787.2746-2.4428-.4572-4.3534-2.4305-4.6347l.2722.7723c.2534.8349-.9999 1.207-1.2496.3787m-19.2687-10.1909c-.1768-3.5759 2.0706-6.9367 4.5896-6.9732-.134.8237.2107 1.7862-.2979 1.6906-2.5571.9248-2.4462 3.8756-2.3358 5.171-.0238-.0817-1.9266.0369-1.9559.1116m4.5685-10.9961c-5.3884 1.4361-6.7976 7.9411-6.8595 10.8109-.0302-.1851-1.9214-.1383-1.9973.0188 0-6.4257 3.1731-11.9444 8.8523-12.8437.0051.2814.369 2.2621.0045 2.014" style="fill:#74ccdd"/></svg>