<svg viewBox="0 0 70 70" version="1.1" xmlns="http://www.w3.org/2000/svg" width="70" height="70"><path d="m50.9894 68.5905c.345 0 .656-.036.9151-.1152-.3976.036-.7988.072-1.201.108.1028.0036.202.0072.2859.0072" style="fill:#007dc2"/><g style="fill:#ffcb00"><path d="m19.6642 17.3355c.9723.1081 1.5497.3817 1.7301.6517.2154.3276 1.0796.9829 2.16.9829 1.0813 0 .6488 0 1.1895-.8713.5406-.8713 1.4048-1.3069 1.9455-2.2862.5406-.9793.3252-1.1989.2153-2.2863-.1072-1.0873-1.1885-.5436-1.9446-.5436-.7569 0-2.1617.324-3.1331.6517-.9732.3276-1.9464.6516-2.7024 1.3069-.7578.6553-2.0545 1.1989-1.7292 2.1782.3235.9793 1.2967.108 2.2689.216"/><path d="m47.9832 12.4786c0 0 3.252.0288 2.9294 4.5977-.0768 1.0837-.4665 2.5059-1.0894 3.4996-.6863 1.0945 1.5389-.6121 1.9616-2.0774.5997-2.0774 1.092-2.8011.6077-4.6409-.6533-2.4951-2.4191-2.7255-3.1904-2.8299-1.3082-.1692-5.2323 2.1638-7.4155 3.2547-1.2261.6157-2.0634 2.6319-2.0634 2.6319 2.05-.3096 6.613-3.82 8.26-4.4357"/></g><path d="m57.4658 15.5714c.8382.8424 1.781 1.5841 2.6192 2.0054.8374.4212 1.202.2448 2.3039 0 .9437-.2125 3.4289.1044 5.1037-.9505 1.6756-1.0549.8381-1.1594 0-2.0055-.8374-.8424-2.4853 0-3.3227-.1044-.8373-.108-1.361-.2124-2.5138-1.0549-1.1528-.8425-2.1993-.5292-3.2467-.108-1.0473.4249-1.781 1.3754-.9436 2.2179" style="fill:#df4013"/><g style="fill:#ffcb00"><path d="m45.7491 8.6262c.5809.3637 1.0893.7309 2.058.1188.9688-.6084 2.1797-1.3393 3.1484-1.3393.9678 0 2.3002-.4861 2.9053-1.3429.605-.8533 2.4209-2.9235 1.5728-3.2908-.8463-.3672-5.3262-.1224-6.2949.2448-.9687.3637-3.7533.2413-4.2377 1.4618-.4844 1.2205-.1215 3.5356.8481 4.1476"/><path d="m47.7491 21.3752c.4012-.108.6916-.3673.8999-.7093.3941-2.2286.2368-4.4033.16-4.9433-.1413-.9937-.8723-1.5518-1.2476-1.4078-.5451.2053-8.6202 6.9884-8.6202 6.9884.7588 3.5067 6.8258 4.3888 7.1832 4.144.3789-.2628.706-.5833.9911-.9433.6067-1.7642-.6596-2.7759.6336-3.1287"/><path d="m29.7643 19.1033c1.2931.5473 1.3959.2377 2.3825.6805.9857.4428 1.6658.4428 2.9615-.0396 1.294-.4861 1.1242-1.0009 1.1278-2.3799.0036-1.3717-.7462-1.1629-2.0393-2.0558-1.2904-.8893-2.0411-.3384-2.8918-.162-.8517.1728-2.8972 1.9514-2.8981 2.5851-.0018 1.0297.0661.8245 1.3574 1.3717"/><path d="m26.3362 22.7181c-1.3279 1.2277-1.1563 1.541-1.1563 3.3196l.3691.1872c1.479-.3277 2.8292-1.0117 4.2591-1.4906 1.4531-.4896 2.1367-2.8191.3208-3.2331-1.6023-.3673-2.6416.1584-3.7927 1.2169"/><path d="m32.6142 10.5668c1.3002.5005 1.4459.3601 1.6997.8029.4003.7057 2.7006 1.3142 3.5013 1.4114.7999.1008 1.4996-.6013 1.2002-1.4114-.3003-.8029-.2002-1.4077.2002-2.8191.4004-1.4113.1993-1.7102.1993-2.2142 0-.5077-1.2002-.8101-2.4004-.5077-1.2002.3061-1.6997.5077-2.4012.7057-.6998.2052-2.0992.5041-2.4996.7093-.3994.198-1.6997.7021-1.3994 1.5085.2993.8065.5987 1.3106 1.8999 1.8146"/><path d="m59.3218 7.9566c.5765.3924 1.8946.5076 2.2967.6192.4594.1332 1.3191.7309 1.8321 1.307.5236.5904 1.0098.9649 1.6764 1.0657.6649.1008 3.9321.288 4.1225-.3097.1894-.6012-.068-1.9838.0267-3.1827.0957-1.1953.6542-4.252-.4754-5.0873-.6657-.4897-2.3422-1.397-3.1036-1.397-.7614 0-1.9973-.198-2.4745.3997-.4754.5976-.4754 1.1953-.2851 2.1926.1903 1.0009-.4764 1.9982-1.1412 2.1962-.6667.2016-4.3476.9253-2.4746 2.1963"/></g><path d="m61.3102 57.5842c-.6496-.9865-1.4575-.5905-2.4083-.0324-.7919.468-3.1564 1.2961-3.3593 2.459-.202 1.1593-.5201 1.991.5603 2.4771 1.0804.4896 2.513 1.1737 3.3209.7777.8078-.3961 1.5951-1.0982 1.7032-2.2863.1091-1.1881.8329-2.4123.1832-3.3951" style="fill:#007dc2"/><path d="m66.0493 28.4463c1.0911 0 3.5013.1224 3.6291-.7849.2752-1.9658.1796-9.1017-3.8668-7.7048-1.3718.4717-3.5791.9361-4.9893 1.3069-1.42.1837-1.8302 2.0019-1.8382 3.0604-.017 1.8434 1.2528 1.4365 2.6523 2.0414 1.6417.7129 2.4003 2.081 4.4129 2.081" style="fill:#df4013"/><path d="m43.2942 52.6444c.8034-.8064 3.9875-2.495 6.3244-6.5131.0062-.0899.0152-.1764.0152-.2772 0-.9109-.7597-.612-1.5478-.2268-1.7552 2.4159-4.8231 5.0153-10.1698 6.2863-.361.0828-1.2225.7344-1.4271 1.4905-.3673 1.361-1.0402 3.5644-1.925 5.2098-.7292 1.8758-3.0098 3.2655-3.5236 4.27-.6801 1.3358-1.3289 3.55-3.1439 4.7885 1.0974.09 2.1126.1764 2.8087.1152 2.2457-.198 6.7971-.8281 8.9937-.3204.5845.1332 1.0456.2592 1.4272.3744.3789-1.3213 1.1984-4.0504 1.8472-5.3537 1.2037-2.4231-1.4102-8.0973.3208-9.8435" style="fill:#007dc2"/><path d="m14.9404 62.5923c2.6836.4392 3.4862-.4537 4.9732-.8065 1.2734-.3024 3.4075 1.505 5.8382 1.0153 1.353-.27.8391-.8749.513-.9001-4.9687-.4032-5.0778-1.1377-5.6256-1.5121-.5469-.3745-.3985-.7417-.4343-1.3646-.092-1.5913 2.4709-3.2691 2.4709-3.2691 2.5497-.2413 2.6059-2.6967 2.5497-3.37-.0528-.6553-.4648-.7633-.6265-.2736-.1635.4896-1.5139 1.3537-2 1.4041-.4861.0576-.9723-.1044-1.6211-.2664-.6479-.162-6.6461-.054-6.6461-.054-.865.216-.865.7633-.865.7633-.5943 1.6886 5.6193 4.0792 5.8347 5.1161.1045.4897.1018.8101-.3227 1.2493-2.344 2.4375-4.8713.8065-4.8713.8065 0 0-3.9437-2.8299-3.9437-5.3861 0 0-.5961-4.1945-.2234-7.244.0626-.5112-.0581-1.8326-.4942-2.4014-.7784-1.019-1.8811-2.5095-1.9856-2.9272-.1618-.6552-.8097-1.3069-.9724-2.7758-.1626-1.469-.1626-3.4312-.3243-4.2449 0 0 0-.6553-.1618-1.9622-.1618-1.3033 0-2.4482 0-3.2655 0-.8137.4861-1.9586.3235-2.938-.1617-.9792.1626-1.4689-.4853-3.1035-.058-.144-.1045-.2844-.1537-.4248-.1054-.036-.3548-1.0981-.4325-1.7498-.0581-.3636-.042-.8821-.4423-1.505-.5085-.7884-2.2484-2.6426-3.2914-4.396.0546 1.4149.1144 2.7651.1689 3.7948.1305 2.5382-1.2252 6.9163-1.2252 9.3934 0 2.585 1.0769 5.0261 1.0769 7.6112 0 1.3789-1.0724 4.2664-1.0724 5.6418 0 1.2745.6765 2.8083.6765 4.0792 0 2.5994-.3673 4.1512-.3414 6.7903.0269 2.7147-1.1179 5.8182-.7193 8.4969.3198 2.1458-.3986 3.0387 1.4155 4.8641 1.3065 1.3141 3.7792.8677 5.3824.5868 2.177-.378 3.1305.4321 5.143.8173 1.9375.3745 4.1725-.2664 6.1537-.2268.8758.0144 1.6479.0612 2.4003-.0288-.8748-.1008-1.6505-.3024-2.0786-.6661-.7354-.6264-2.5058-3.5571-3.5603-5.3681" style="fill:#009540"/><g style="fill:#df4013"><path d="m61.5024 51.6075c-.8847-.594-2.2592-.9901-2.9464-2.2754-.6872-1.2853.6872-2.7687-.3923-3.5608-1.0813-.7921-2.2601-.4932-3.1439 0-.8498.4753-.9821.5941-1.4736 1.6814-.4906 1.0873-.7864 1.4834 0 2.4734.7855.9866 1.277 2.8696 2.6523 3.2656 1.3745.396 2.0626-.2988 3.5353-.2016 1.4746.1008 2.6524-.7885 1.7686-1.3826"/><path d="m67.9277 52.6048c1.0438.2413 1.8838-3.6687 1.6426-4.4752-.2396-.8065.3485-3.7192.1081-4.5257-.2413-.8065-2.5836-.2088-3.4665-.3672-.882-.1657-1.5237 0-2.647 0-.6425 0-1.2028.3204-1.6041 1.2097-.4012.8893.4808 2.5851 1.6041 3.7156 1.1233 1.1341 3.3218 4.198 4.3628 4.4428"/></g><path d="m12.3247 15.0889c0 0 1.2967-.1656 1.9455-.6553.6487-.4896 1.621-1.1413 1.621-1.1413l3.404-1.7966c0 0 2.9178-.9793 3.5666-.9793.6478 0 .9722-1.9622 2.5933-2.4518 1.6211-.4897 3.0796-1.793 4.0536-2.4483.9723-.6553 10.05-2.9379 11.185-3.2655 1.0214-.2917 2.8963.6588 12.6693-1.937-1.9741-.0216-3.8329-1.1342-5.7525-.9613-4.7703.4284-10.6371.108-15.3824-.3349-5.3735-.4932-9.664.6949-13.9767 1.1629-2.9544.3241-5.0116-1.3177-8.0455-.9072-2.1529.2916-4.9339-.2341-7.1028-.0756-2.1689.1548-3.3905 4.3888-2.6979 7.0819.6121 2.3798.8856 1.8794.9481 3.748 1.7873.9577 5.5987 3.3807 6.4951 3.5104 1.1188.162 4.4763 1.4509 4.4763 1.4509" style="fill:#ffcb00"/><path d="m38.5355 42.2321c0 0-1.6657.1621-2.5299 1.0334-.8642.8676-.496 1.5805-.2797 2.2322.2162.6553.3718.7777.966 1.0405.6175.27.5478.6373 1.412.2016.865-.4356 1.0196-.3564 1.0965-1.2133.1189-1.3177.1993-1.3357.1993-1.9874 0-.6517-.8642-1.307-.8642-1.307" style="fill:#df4013"/><path d="m42.3604 29.3284c.1715-.6085.6863-1.3861-.2574-1.6454-.9437-.2592-2.1457-.6912-3.1761-.6048-1.0294.0864-1.0294-.6913-1.8873-1.2098-.8597-.5184-1.5461-.8641-2.4049-.7776-.8579.0864-1.8016.6912-1.8874 1.4689-.0857.7813-.0857 2.3367.6864 2.4195.5192.0612 1.1161-.3457 2.0598.0864.9446.4356 1.8883 1.2133 2.6613 1.4725.7721.2593 1.9741.3457 2.3172.0864.3432-.2592 1.7168-.6912 1.8884-1.2961" style="fill:#ffcb00"/><g style="fill:#df4013"><path d="m33.2513 32.2951c-2.9732-.432-3.6836-.3348-4.7721.18-1.0885.5185-3.2064 4.8569-3.2064 4.8569-1.0527 1.793-.613 5.307-.613 6.2863 0 .9793 1.9446 2.9379 1.9446 2.9379.3789.4357.5415.6553.8105.3816.2699-.2736-.5425-1.2709-.6372-1.9226-.1099-.7524.782-.7236.4576-1.6489-.3235-.9253-1.353-3.694-1.0108-4.8641.345-1.1702 1.3531-2.0306 1.3531-2.0306 1.243 1.4689 3.0249 1.2133 3.0249 1.2133 3.5023-.6445 3.5327-2.6607 3.1877-4.0037-.0152-.0575 1.2628-.45 1.0572-1.2817-.1877-.7561-1.5961-.1044-1.5961-.1044m-2.7828 3.892c-1.9866 0-2.1081-2.2034-2.1081-2.2034.4459-.5293 1.0036-.7993 1.4638-.9433-.2046.198-.3334.468-.3334.7705 0 .6084.5229 1.1017 1.1689 1.1017.6453 0 1.1671-.4933 1.1671-1.1017 0-.4249-.2528-.7885-.6219-.9721 1.2869-.0432 1.6139.5724 1.6139.5724.6479 2.6931-2.3503 2.7759-2.3503 2.7759"/><path d="m54.254 32.3779c.933-1.0981 2.512-1.8074 2.537-3.2295.026-1.4222-1.0625-1.595-2.4092-1.7066-1.1234-.09-4.0805-.9181-5.0903.0864-1.0098 1.0081-1.9026 1.6058-1.1519 2.8407.7516 1.2349 1.7247 2.9091 2.8123 3.0819 1.0885.1693 2.37.0252 3.3021-1.0729"/><path d="m41.1995 34.981c-.6229 1.1413-1.2458 2.6823-.2815 3.8236.3977.4752 1.7444 1.1557 1.2976 2.0558-.3807.7669-1.5764 1.2998-.4674 2.7939.9651 1.2961 1.7909 1.2889 2.8963.3348 1.1493-.9973 2.0045-4.036 1.3485-5.7786-.6407-1.7066-3.5755-4.1296-4.7935-3.2295"/></g><path d="m46.6865 60.5581c.7489.54 1.3905.864 2.033.1116.6399-.7561 1.0689-1.2962 1.9241-1.1881.8561.108 1.605-.1081 2.033-.7561.4272-.6445 1.0689-1.1845.4272-1.829-.5442-.5473-.983-1.2241-1.3306-1.505-.5639-.4536-.5335-.7992-.5639-1.6886-.0635-1.8505-1.0295-1.6165-1.4826-1.5913-.58.0324-1.1152 2.0918-1.5424 2.8443-.4281.7561-1.605 2.5851-1.7114 3.3411-.1072.7525-.5353 1.7246.2136 2.2611" style="fill:#007dc2"/><g style="fill:#ffcb00"><path d="m18.7072 28.2951c.2439.4788.6488.5725 1.865.5725 1.2154 0 .9714-.8606 1.0537-1.4366.0813-.5724-.4058-1.433-.892-1.6274-.4861-.1908-1.0535.288-1.6219.4789-.5657.1908-.8105.5761-.4048 1.0549 0 0-.2431.4789 0 .9577"/><path d="m26.4131 30.3617c.1886-.4789.3146-1.2889-.5675-1.5049-.8802-.2125-.6988-.3673-1.2412-.3565-1.0938.0216-2.1868 4.3745-4.9804 4.3889-.9178.0072-1.6783-1.757-2.9875-2.6319-.1009.0684-.4065.7597-.6013 1.3213-.1922.5617.1679.9649.1778 1.0189.5094.5221.9285 1.4258 1.6926 1.865.9436.5437 1.1421 1.3718 1.8703 1.415.7284.0396 1.0966-.7561 2.1037-1.3538 1.008-.5976 1.1832-.8353 1.8937-1.937.7104-1.1053 2.4504-1.7462 2.6398-2.225"/><path d="m13.6232 21.6596c.7935.504.647 1.4617 1.487 1.8758 0 0 1.1966.0216 1.6104-1.1485.4146-1.1665-1.8204-3.154-3.7364-3.3844-1.613-.1908.0402 2.2755.639 2.6571"/><path d="m20.7188 21.2383c-1.6139-.756-2.0045 1.1702-2.1225 2.3799 1.984.3312 5.6256-.7417 2.1225-2.3799"/><path d="m11.1058 27.6506c.1108-2.045 1.4995-7.5536-2.6721-6.045-.2797.1008.614 3.3556.5371 3.7012-.4602 2.1062-.4361 2.4987 2.135 2.3438"/><path d="m15.2433 26.6029c-.2439-.5724-1.3905-.45-1.7855-.0324-.3932.4177-.6121 1.3249.1413 2.1998.638.7453.8516.9829 1.1465 1.3646.2413-.324 1.1304-.9181.798-2.6175-.1037-.522-.1859-.648-.3003-.9145"/><path d="m10.9279 16.5182c-1.3226-.72-2.6434-1.4401-3.9588-2.171-.2664-.144-.6211.0468-.5595.2773.4772 1.7821.0599 2.9991 2.4218 3.694 1.2252.36 3.3155.1656 2.0965-1.8003"/><path d="m14.3202 34.675c-2.2654-2.7039-5.7944-1.5518-5.7944-1.5518.0089.0792-1.0393-.1728-1.0393.3384 0 .4933.7265.5797.7354.6625.4728 4.3781 2.9589 4.1224 4.4558 3.5464.3378-.1296 1.3011.216 1.3985 1.1017.2485 2.2862-1.5272 2.6643-1.697 3.7012-.1019.6193-.1582 1.1269-.1582 1.1269 0 0-.1546 1.1233.3459.8929.4995-.234.6729-.5437 1.2171-1.1485.5407-.5977.4487-.7165.756-1.415.3084-.6985.4638-1.3537.5416-2.0126.076-.6589.0742-2.063 0-2.7219-.0778-.6589.2958-1.2601-.7614-2.5202m-2.5907 2.2862c-1.1921 0-2.1572-.9109-2.1572-2.0378 0-1.1305-.1582-1.4402 1.0303-1.5122.2824-.018.58.0468.874.1548-.5844.0613-1.0402.5221-1.0402 1.091 0 .612.5219 1.1053 1.168 1.1053.6452 0 1.168-.4933 1.168-1.1053 0-.1405-.0304-.2773-.084-.4033.5711.4285.9973.9001 1.0751 1.0765.4548 1.0297-.8446 1.631-2.034 1.631"/></g><path d="m53.9814 67.19c-.1063-1.0801.1081-1.5086-1.0697-1.8326-1.176-.3205-2.0313-.9685-1.9249-1.829.1349-1.0909-1.4978-1.0801-2.2467-.2161-.748.8606-.9625.6445-1.4977 1.0766-.5345.432-1.1752.9685-1.0688 1.9406.1063.9685-.1073 1.6129 1.0688 1.7209 1.084.1009 3.5272.4717 4.7426.5329.4021-.036.8034-.072 1.201-.108.547-.1728.8687-.5581.7954-1.2853" style="fill:#007dc2"/><g style="fill:#df4013"><path d="m69.8365 36.1979c0-.5616-.1384-1.6814-.4164-2.3762-.277-.7021-.277-.8425-1.3887-1.6814-1.1117-.8389-2.5818 0-3.1385.2808-.387.1944-.6443.3925-1.0474.6373-.1983-.0828-.4673-.072-.899.0504-1.2511.3528-1.865-.5149-3.0286.8713-.9097 1.0837-1.2806 1.8398-2.4057 2.279-1.1251.4429-1.5862.5797-2.6881.5725-1.1019-.0072-2.7989.9397-2.9937 1.6418-.1948.7056-.1126 1.1305.3941 1.4761.5362.3672 6 .0684 7.1215.18 1.1224.1153 3.4298.108 4.1081.198.6765.0865 3.345.6337 4.5353-.0432 1.0652-.6048.9884-.45 1.8972-1.6489.2815-.6625-.0501-1.9334-.0501-2.4375"/><path d="m69.0912 61.6202c-.4807-.9793-2.3672-1.1197-3.4807-.6229-1.1135.5005-1.9294 1.6346-1.849 2.6139.0876 1.0621.3647 1.649-.0178 2.1998-.429.6193-1.0036 1.6994-.8884 2.1999.0778.3384 1.034 1.0441 1.866.9684.3682-.0323 3.58-.1908 4.2073-.432.6265-.2412.2234-2.3871.2234-2.6427 0-1.4257.4209-3.3051-.0608-4.2844"/></g></svg>