<svg viewBox="0 0 457 112" xmlns="http://www.w3.org/2000/svg"><path d="m420.62 69.24c-.433 0-1.084-.045-1.721-.258-.988-.283-2.195-1.074-3.709-4.814-1.906-4.75-5.947-15.303-8.361-21.608l-1.894-4.934c-.525-1.355-.727-1.666-1.086-1.666-.356 0-.549.319-1.088 1.801l-9.992 27.337c-.838 2.322-1.731 3.813-3.596 4.055l-1.26.088-.223.031c-.096-.031-.197-.031-.25-.031-.43 0-1.566 0-2.826-.393-1.85-.602-2.123-3.078-2.287-4.559l-2.949-27.03c-.088-.825-.223-1.303-.654-1.303-.399 0-.602.386-.775.78-.002 0-11.598 24.771-12.828 27.402-.228-.471-13.355-27.451-13.355-27.451-.197-.438-.406-.731-.774-.731-.391 0-.527.453-.609.896l-3.17 28.71-.016.16c-.17 1.617-.33 3.145-1.641 3.383-.65.131-.951.131-1.299.131-.275 0-.568.121-.568.346 0 .523.66.523.877.523l2.707-.092.99-.041.789.031 3.305.102c.32 0 .918 0 .918-.523 0-.217-.244-.346-.48-.346-.268 0-.916-.047-1.643-.217-.607-.123-1.045-.645-1.045-1.242l.043-2.236c0 0 1.605-18.643 1.746-20.264.656 1.544 5.344 11.598 5.762 12.432l.215.434c2.606 5.227 4.266 8.52 4.935 9.781l.076.145c.83 1.574 1.027 1.949 1.4 1.949.428 0 .572-.303 1.262-1.76l.307-.646c0 0 9.703-20.594 10.697-22.701.041.45 2.092 22.482 2.092 22.482.029.272.041.506.041.701 0 .465-.066.715-.121.75-.172.033-.404.117-.404.43 0 .381.453.49 1.348.568 1.578.127 6.342.264 7.361.264.307 0 .555-.045.733-.123.213.121.541.123.756.123l3.967-.1 1.01-.033 1.121.047 2.313.086c.522 0 .787-.162.787-.481 0-.178-.098-.389-.566-.389h-.44c-.598 0-1.547-.313-1.547-1.15 0-.785.217-1.816.609-2.906l2.643-7.794c.092-.233.207-.266.318-.266h9.465c.158 0 .211.048.283.193l4.086 10.817c.121.32.135.605.039.807-.051.107-.133.186-.225.217-.322.082-.393.277-.393.428 0 .361.438.385 1.234.424l.205.012 6.918.088c.67 0 1.01-.162 1.01-.481 0-.389-.412-.389-.567-.389m-13.162-13.954h-8.408l-.037-.047.024-.089 3.875-11.893c.125-.375.213-.407.213-.408 0 .003.086.044.207.408l4.184 11.888.012.132-.068.009m48.949 13.954c-.26 0-.871 0-1.697-.131-1.178-.188-3.01-.719-5.299-3.133-2.236-2.391-4.84-5.732-7.856-9.603 0 0-1.098-1.409-1.223-1.568 3.6-3.346 5.283-6.583 5.283-10.18 0-3.053-1.941-5.264-3.088-6.088-2.412-1.729-5.463-1.961-8.131-1.961l-3.709.09-1.486.042-.584-.02-4.389-.111c-.269 0-.832 0-.832.48 0 .225.203.389.481.389.396 0 1.129.045 1.465.129 1.436.305 1.715.984 1.797 2.394.088 1.404.088 2.641.088 9.501v7.747c0 4.3 0 7.696-.219 9.538-.162 1.168-.361 2.148-1.176 2.313-.49.107-.975.174-1.295.174-.353 0-.481.209-.481.389 0 .481.563.481.832.481l3.941-.125.197-.008.521.018 4.893.115c.688 0 .83-.262.83-.481 0-.18-.125-.389-.478-.389-.381 0-1.334-.086-1.963-.176-1.168-.154-1.467-.932-1.609-2.309-.219-1.844-.219-5.24-.219-9.54v-1.056c0-.208.086-.225.18-.225l5.414.087c.221 0 .324.067.484.227l1.639 2.232 3.148 4.27.551.725c2.203 2.91 3.658 4.832 5.432 5.781 1.199.645 2.359.852 4.772.852h3.125c.648 0 1.184-.037 1.184-.481 0-.211-.24-.389-.523-.389m-17.371-15.65c-1.049.73-2.346.814-3.231.814-1.912 0-3.916-.302-4.557-.687-.17-.102-.246-.231-.246-.42v-14.394c0-.2.092-.338.273-.411.408-.121 1.572-.255 2.902-.255 4.688 0 7.488 3.244 7.488 8.679 0 3.05-.984 5.545-2.631 6.673m-208.95 15.65c-.259 0-.87 0-1.697-.133-1.18-.188-3.01-.717-5.298-3.131-2.243-2.396-4.854-5.75-7.878-9.632 0 0-1.075-1.38-1.2-1.539 3.6-3.347 5.283-6.584 5.283-10.18 0-3.053-1.942-5.263-3.09-6.088-2.411-1.73-5.462-1.962-8.13-1.962l-3.713.091-1.48.042-.586-.021-4.389-.111c-.27 0-.831 0-.831.478 0 .227.201.391.479.391.398 0 1.129.045 1.466.129 1.435.305 1.714.984 1.797 2.394.088 1.404.088 2.641.088 9.501v7.747c0 4.3 0 7.696-.219 9.538-.161 1.168-.361 2.15-1.176 2.313-.49.107-.974.174-1.295.174-.353 0-.479.201-.479.389 0 .481.562.481.831.481l3.944-.125.196-.008.52.018 4.892.115c.687 0 .831-.262.831-.481 0-.18-.126-.389-.479-.389-.379 0-1.334-.086-1.964-.176-1.167-.154-1.465-.932-1.606-2.309-.22-1.844-.22-5.24-.22-9.54v-1.056c0-.209.085-.227.181-.227l5.412.089c.221 0 .323.067.484.227l1.648 2.245 3.14 4.257.561.74c2.198 2.9 3.65 4.818 5.424 5.766 1.197.645 2.356.852 4.769.852h3.125c.648 0 1.183-.037 1.183-.481 0-.211-.238-.389-.523-.389m-17.371-15.65c-1.05.73-2.346.814-3.23.814-1.914 0-3.916-.302-4.558-.687-.17-.102-.245-.231-.245-.42v-14.394c0-.2.091-.339.271-.411.407-.121 1.57-.255 2.902-.255 4.689 0 7.488 3.244 7.488 8.679 0 3.05-.983 5.544-2.63 6.673m-56.5-2.593l-1.232-.968c-3.993-3.269-5.322-4.781-5.322-7.295 0-2.979 2.125-4.98 5.287-4.98 3.754 0 5.02 1.585 5.391 2.266.254.465.514 1.625.558 2.15.038.311.084.69.478.69.4 0 .435-.588.435-1.139 0-2.35.108-3.748.155-4.345l.022-.323c0-.382-.272-.435-.567-.435-.317 0-.639-.033-1.514-.218-1.257-.302-2.567-.442-4.121-.442-5.612 0-9.238 3.159-9.238 8.05 0 2.951.981 5.722 5.769 9.651l1.98 1.628c3.938 3.251 5.02 4.934 5.02 7.826 0 2.846-2.118 5.728-6.167 5.728-3.443 0-5.833-1.641-6.392-4.389-.128-.603-.128-1.205-.128-1.603 0-.258 0-.611-.436-.611-.372 0-.441.424-.477.82l-.039.527c-.068.887-.183 2.371-.183 4.148 0 1.207.054 1.449.731 1.787h.0001c1.657.808 3.606 1.201 5.954 1.201 2.642 0 4.965-.647 6.719-1.871 2.8-1.986 3.797-5.131 3.797-7.41 0-3.385-1.059-6.179-6.475-10.446m33.375 12.917c-.355 0-.445.346-.519.764-.306 1.783-.822 2.615-1.906 3.074-1.121.475-3.034.475-4.177.475-4.412 0-4.856-.617-4.98-3.488-.032-.662-.019-3.506-.008-5.584l.008-1.938v-3.873c0-.129.053-.181.181-.181.744 0 5.107.088 6.281.22 1.605.163 2 .823 2.181 1.447.171.558.171.976.171 1.418 0 .323.167.523.436.523.435 0 .435-.58.435-.964 0-.318.09-1.943.176-2.804l.274-1.942.079-.535c0-.418-.218-.48-.347-.48-.221 0-.398.203-.69.54l-.066.076c-.371.411-.997.491-1.984.573-.96.082-5.99.087-6.988.087-.092 0-.138 0-.138-.313v-12.15c0-.314.093-.314.138-.314.523 0 5.284.046 6.01.132 2.341.26 2.742.775 3.02 1.421.199.481.253 1.191.253 1.535 0 .464.161.698.48.698.313 0 .403-.439.433-.584.06-.354.116-1.281.161-2.027l.061-.893.261-1.531.093-.55c0-.432-.165-.522-.304-.522l-.403.126-.238.098c-.373.093-1.09.175-1.874.216-.996.044-9.703.045-10.07.045l-.588-.021-4.387-.111c-.269 0-.831 0-.831.478 0 .227.201.391.48.391.398 0 1.129.045 1.465.129 1.435.305 1.714.984 1.797 2.394.088 1.404.088 2.641.088 9.501v7.747c0 4.3 0 7.696-.219 9.538-.189 1.385-.434 2.164-1.175 2.313-.49.107-.974.174-1.297.174-.353 0-.478.209-.478.389 0 .481.561.481.832.481l2.559-.088 1.594-.039.161-.006 1.684.059c1.707.078 4.564.207 9.188.207 1.708 0 2.167 0 2.499-1.24.23-.961.577-3.959.577-4.303 0-.313 0-.785-.391-.785m102.12 5.326c-.432 0-1.08-.045-1.719-.26-.988-.281-2.195-1.072-3.709-4.813-1.916-4.773-5.973-15.372-8.398-21.704l-1.857-4.839c-.523-1.354-.727-1.665-1.086-1.665-.358 0-.551.319-1.088 1.801l-9.992 27.337c-.725 2.01-1.49 3.393-2.891 3.887-1.162-.283-2.762-.978-4.684-3.01-2.238-2.391-4.84-5.73-7.854-9.598 0 0-1.101-1.414-1.226-1.573 3.601-3.346 5.285-6.583 5.285-10.18 0-3.052-1.943-5.263-3.092-6.088-2.412-1.73-5.463-1.962-8.129-1.962l-3.711.091-1.484.042-.586-.021-4.387-.111c-.27 0-.832 0-.832.478 0 .227.201.391.479.391.398 0 1.131.045 1.467.129 1.436.305 1.713.984 1.797 2.394.088 1.405.088 2.641.088 9.501v7.747c0 4.3 0 7.696-.219 9.538-.162 1.168-.361 2.148-1.176 2.313-.49.107-.973.174-1.297.174-.353 0-.478.209-.478.389 0 .481.563.481.832.481l3.943-.125.195-.008.522.018 4.893.115c.685 0 .83-.262.83-.481 0-.18-.125-.389-.478-.389-.381 0-1.334-.086-1.963-.176-1.17-.154-1.467-.932-1.609-2.309-.219-1.844-.219-5.24-.219-9.54v-1.056c0-.209.086-.227.182-.227l5.412.089c.221 0 .324.067.484.227l1.635 2.229 3.152 4.274.565.744c2.197 2.9 3.646 4.815 5.42 5.762 1.164.627 2.297.84 4.578.85l.143.002h.008.039 3.127c.363 0 .69-.014.908-.103l.891-.029 1.121.047 2.313.086c.523 0 .787-.162.787-.481 0-.178-.098-.389-.566-.389h-.439c-.598 0-1.547-.313-1.547-1.15 0-.783.217-1.814.607-2.906l2.644-7.796c.094-.233.213-.266.318-.266h9.465c.158 0 .209.049.281.194l4.09 10.818c.119.32.133.607.037.809-.051.105-.133.184-.223.215-.324.08-.394.277-.394.428 0 .361.44.385 1.234.424l.205.012 6.918.088c.67 0 1.01-.162 1.01-.481 0-.389-.412-.389-.568-.389m-45.801-15.65c-1.051.73-2.346.814-3.231.814-1.914 0-3.916-.302-4.557-.687-.17-.102-.246-.231-.246-.42v-14.394c0-.199.092-.338.272-.411.408-.121 1.572-.255 2.902-.255 4.69 0 7.49 3.244 7.49 8.679 0 3.05-.984 5.545-2.631 6.673m32.641 1.695h-8.408l-.037-.046.024-.089 3.877-11.893c.125-.375.211-.406.211-.407.002.003.086.043.209.408l4.182 11.888.012.131-.068.009m48.65-10.639c-7.174 0-9.85 5.996-9.85 9.774 0 4.733 3.037 9.825 9.703 9.825 5.777 0 9.971-4.297 9.971-10.22 0-5.61-3.947-9.38-9.824-9.38m.518 18.422c-4.58 0-7.781-3.84-7.781-9.339 0-4.937 2.717-8 7.092-8 3.557 0 7.387 2.813 7.387 8.992 0 7.948-5.578 8.351-6.697 8.351m-23.756-18.08l-.469.002-2.742.059-.592.017-.328-.012-2.463-.063c-.152 0-.514 0-.514.317 0 .155.135.269.318.269l.811.069c.703.15.92.441.971 1.301.049.785.049 1.479.049 5.325v4.346c0 2.315 0 4.315-.123 5.347-.105.77-.23 1.178-.621 1.254l-.717.098c-.234 0-.316.143-.316.266 0 .318.361.318.514.318l2.02-.059.402-.016.672.047c1.127.088 3.223.25 4.81.25 3.154 0 5.772-.994 7.57-2.877 1.715-1.809 2.699-4.377 2.699-7.05 0-3.164-1.32-5.202-2.428-6.354-2.797-2.89-7.01-2.867-9.522-2.855m7.549 15.792c-1.439 1.438-3.551 2.262-5.795 2.262-2.857 0-3.807-.508-4.1-.936-.189-.26-.234-1.389-.25-1.813-.023-.449-.049-2.622-.049-5.355v-3.063l.024-5.256c0-.244.059-.314.225-.389.168-.083 1.031-.162 1.559-.162 3.225 0 5.816.469 7.988 2.754.873.916 2.338 2.931 2.338 6.141 0 2.379-.762 4.662-1.939 5.816" style="fill:#1c1c1a"/><g style="fill:#009540"><path d="m216.73 7.267c-.487-3.175-3.033-5.187-6.465-5.955-1.435-.304-3.076-.454-4.813-.454-8.131 0-18.273 2.982-20.12 2.982-.23 0-1.076.167-.944.61.107.372.398.843 1.289 1.378.551.345 1.225.46 1.997.46 4.124 0 11.227-3.939 18.395-3.939 1.04 0 2.09.075 3.125.267 1.903.344 2.57 1.076 2.875 1.913 1.76 4.833-10.609 10.746-13.743 12.928-.455.305-.634.648-.592.916.041.27.263.46.688.46.191 0 .379-.037.638-.114.396-.137 2.768-1.224 4.227-1.596 2.208-.669 2.326-.085 4.54-1.028 6.758-2.878 9.373-5.762 8.903-8.826"/><path d="m200.06 7.165c-.107-.704-.426-1.283-.985-1.738-.409-.27-.681.512-.751.692-.497 1.266-2.998 4.073-5.164 7.321-1.977 2.943-3.694 6.31-3.267 9.102.293 1.912 1.477 3.098 2.788 3.864.886.495 1.523.878 1.87.878.346 0 .453-.306.43-.459-.022-.151-.156-.269-.543-.269-.423 0-.657-.267-.727-.726-.24-1.566 1.142-5.621 3.71-10.747 1.648-3.327 2.927-6.04 2.639-7.918"/><path d="m410.96 22.618c-.115 0-.324.155-.559.383-.992 1.069-2.397 2.754-3.359 2.754-.078 0-.211-.114-.223-.191-.365-2.371 7.43-16.14 6.832-20.04-.041-.268-.113-.498-.543-1.031-.238-.309-1.436-.411-1.699.415-.998 2.277-6.1 9.485-7.242 15.253-1.27 1.524-3.143 3.666-4.045 4.453-.135.114-.621.534-.738.534-.193 0-.352-.18-.35-.385 0-.116-.002-.268.012-.421.285-1.368 1.631-3.824 2.029-5.196.514-2 .476-4.323-.094-5.159-1.234-2.027-2.342-2.611-3.42-2.611-.502 0-.877.075-1.629.458-1.779.89-6.115 4.04-8.336 8.136-.268.166-.686.544-1.246 1.198-1.17 1.415-3.211 3.94-3.943 3.94-.117 0-.168-.076-.184-.191-.023-.152-.016-.345.061-.612.322-1.415 1.398-3.441 1.934-5.238.023-.075.037-.151.057-.227.039-.141.078-.281.106-.423.002-.006.004-.011.006-.016l-.002-.0001c.123-.621.156-1.239.061-1.858-.209-1.378-1.619-2.026-2.318-2.065-.309 0-.363.153-.363.649-.004.163-.16.958-.557 1.733-.074.143-2.582 3.662-4.994 5.306-.293.201-1.059.879-1.408.879-.111 0-.203-.077-.225-.228-.029-.193.037-.499.162-.957.201-.645.877-1.647 1.553-2.767.004-.006.008-.012.001-.017 1.01-1.813 1.455-3.123 1.455-3.123.117-.475.17-.934.105-1.36-.146-.952-.934-1.837-2.689-2.241-.152-.036-.553.221-.498.558.043.255-.291.968-.769 1.938h-.002c-.305.618-.67 1.345-1.035 2.121-.055.119-.111.239-.168.361-.031.072-.064.142-.098.215-.001.022-.022.045-.031.068h.002c-.42.931-.816 1.913-1.102 2.872-1.461 1.846-3.797 4.495-4.644 4.817-.182.077-.33.113-.408.113-.115 0-.199-.036-.25-.381-.264-1.722 2.478-12.735 7.258-17.746.59-.539.744-1.184.414-1.464-.699-.591-1.859-1.139-2.775-1.139-1.156 0-3.123 4.514-5.072 8.643-.082.184-.246.454-.484.81-.879-2.453-4.166-2.109-4.166-2.109l.001.009c-.035-.002-.074-.009-.107-.009-.346 0-.649.039-.934.191-1.428.735-4.164 4.478-5.424 8.117-1.258 1.507-3.01 3.512-3.891 4.279-.135.114-.623.534-.738.534-.193 0-.351-.18-.35-.385 0-.116-.002-.268.012-.421.285-1.368 1.631-3.824 2.029-5.196.514-2 .477-4.323-.094-5.159-1.234-2.027-2.342-2.611-3.422-2.611-.5 0-.875.075-1.627.458-1.799.898-6.211 4.108-8.408 8.274 0 .002-.002.004-.004.007-.125.075-.273.192-.441.364-3.189 3.327-5.619 5.315-6.662 5.315-.346 0-.529-.19-.588-.573-.223-1.453.973-4.207 3.584-10.06.094-.152.191-.269.383-.269 1.877-.076 4.266-.076 5.281-.494.4-.155.596-.385.574-.538-.025-.152-.191-.228-.537-.228-.926 0-2.705-.041-4.592-.041-.309 0-.355-.036-.293-.15 1.078-2.258 1.414-3.597 1.25-4.668-.119-.768-.518-1.264-1.059-1.627-.777-.291-.894.43-.928.548-.273.957-1.742 3.857-3.242 5.938-.695 0-1.277-.041-2.896-.041-.502 0-.748.155-.713.384.016.114.111.229.25.383.322.344.561.382 1.498.458.389.039.621.039 1.123.039-.982 1.385-1.641 2.535-2.258 3.997-1.205 1.111-3.219 2.786-3.894 3.308.037-1.76-1.629-2.753-2.705-3.747-.184-.191-.279-.309-.305-.46-.063-.421.746-.688 1.963-1.301 1.106-.573 1.645-1.071 1.551-1.684-.059-.38-.353-.802-.904-1.377-1.102-1.147-1.451-1.412-1.68-1.412-.156 0-.254.114-.435.19-2.824 1.187-3.617 2.294-3.434 3.479.188 1.226 1.563 2.41 2.658 3.52.272.268.369.581.436.842 1.109 4.141-3.664 4.169-4.803 5.546-.293.344-.875.651-.83.956.043.268.188.461.443.612.42.23 1.055.344 1.822.344 2.625 0 6.656-1.34 6.34-3.901-.02-.128 1.609-1.563 2.976-2.939-.342 1.137-.42 2-.277 2.939.416 2.714 3.037 3.482 4.04 3.482 2.072 0 4.088-2.107 6.486-5.197-.061.188-.127.377-.176.568-.002.004-.002.008-.002.012-.031.143-.053.294-.061.45 0 .014-.002.026-.002.039-.006.142 0 .286.019.43.002.021 0 .042.002.064.121.784.565 1.587 1.148 2.194.406.423.881.745 1.365.906.215.07.43.112.641.112h.002c.076 0 .154-.008.232-.019.313-.04.625-.164.891-.439 2.287-2.18 4.693-5.263 6.426-7.448.104-.073.182-.073.258-.073.115 0 .166.073.178.151.017.115-.037.267-.121.459-.836 1.838-.984 2.971-.816 4.081.258 1.682.959 2.458 1.873 2.759.471.154 1.426.023 1.777-.305.476-.441 1.75-1.887 3.113-3.458-.053.328-.096.652-.105.965-.076 1.53 2.316 3.059 3.588 3.059.232 0 .459-.036.594-.15 1.363-.92 4.773-6.579 5.719-8.454.146-.305.283-.421.398-.421.076 0-.037.268-.084.46-.572 2.065-1.377 4.091-1.055 6.196.293 1.911 1.807 2.486 2.77 2.486.309 0 .568-.077.709-.153.938-.564 2.789-2.521 4.231-4.293-.063.519-.07 1.01 0 1.463.281 1.835 1.789 2.368 2.443 2.368 2.197 0 4.4-3.977 6.588-6.04.236-.229.336-.344.373-.344.039 0 .045.036-.043.229-.682 1.567-.881 2.793-.734 3.749.152.994.693 1.758 1.424 2.258.344.23.67.343 1.016.343 1.75 0 3.412-2.681 4.547-4.205-.061.19-.129.379-.178.571-.004.02-.004.042-.008.061-.025.122-.043.249-.051.38-.002.026-.004.051-.004.078-.006.129 0 .262.018.395.002.026-.002.053.002.08.244 1.568 1.768 3.213 3.154 3.213h.002c.08 0 .162-.008.244-.019.309-.042.617-.167.881-.439 2.285-2.18 4.691-5.263 6.424-7.448.103-.073.182-.073.26-.073.113 0 .164.073.178.151.016.115-.039.267-.123.459-.836 1.838-.982 2.971-.816 4.081.26 1.682.959 2.458 1.873 2.759.471.154 1.426.023 1.779-.305.535-.495 2.074-2.259 3.617-4.04-.017.497-.008.98.063 1.436.141.918.502 1.762 1.068 2.447.568.69 1.193.995 1.85.995 1.119 0 2.432-1.26 3.772-3.326.283-.423.357-.688.34-.804-.006-.037-.051-.077-.088-.077m-62.75-5.666c-1.543 1.178-4.02 3.761-5.629 5.245-.109.099-.205.17-.295.231-.086.059-.162.101-.232.131-.012.005-.023.012-.035.016-.07.027-.133.043-.182.043-.102 0-.182-.039-.25-.094-.113-.091-.188-.236-.211-.404-.014-.082-.001-.164-.002-.245.004-.02.006-.041.008-.061.016-.089.037-.178.061-.267.014-.044.035-.09.053-.135.031-.084.066-.17.103-.256.049-.109.102-.222.16-.334l-.002-.006-.002-.002c1.439-2.898 5.35-6.212 7.615-6.395.57.152.504.885.262 1.123-.201.201-.803.795-1.422 1.409m15.973-1.019l.045-.024c-1.045 1.397-2.553 3.343-4.557 5.945-.902 1.146-1.15 1.3-1.418 1.3-.078 0-.16-.039-.197-.269-.035-.229.049-.688.209-1.146 1.311-4.105 3.488-7.45 5.164-7.669 1.6.729.754 1.863.754 1.863m33.15 1.019c-1.543 1.178-4.02 3.761-5.631 5.245-.274.247-.486.366-.641.403-.037.001-.074.018-.104.018-.092 0-.166-.033-.23-.079-.125-.089-.203-.242-.231-.419-.031-.19.019-.381.065-.573.049-.144.113-.292.18-.441.129-.288.289-.583.475-.882-.002-.004-.004-.001-.006-.014 1.672-2.771 5.172-5.621 7.283-5.791.568.152.502.885.262 1.123-.203.201-.805.795-1.422 1.409"/><path d="m313.97 25.83c-4.283.959-7.502 1.342-9.773 1.342-3.045 0-4.5-.692-4.652-1.686-.326-2.142 5.332-5.697 13.412-6.541.533-.038.672-.151.627-.418-.215-1.417-1.399-3.865-3.178-3.636-.676.089-1.787.333-3.08.719-1.766-.177-5.223-.297-7.217-1.023-1.043-.381-1.627-1.29-1.697-1.75-.414-2.715 13.359-8.503 19.75-8.03 1.424.103 1.928.722 2.125 1.311.119.351.797.686 1.26.205.465-.48.781-1.07.889-1.95.129-1.039-1.25-4-5.371-3.935-4.975.079-22.08 4.857-21.11 11.207.117.766.512 1.567 1.258 2.409 1.252 1.378 3.358 1.948 5.422 2.193.772.092 1.596.162 2.377.149-3.883 1.483-8.102 3.986-7.594 7.297.082.533.279 1.07.594 1.605 1.478 2.601 3.908 3.633 6.607 3.633 3.045 0 6.473-1.262 9.5-2.639.221-.077.383-.268.365-.381-.006-.038-.068-.192-.516-.079"/><path d="m287.17 18.258c-.076 0-.147.038-.213.113-2.043 2.526-8.158 6.718-10.508 6.718-.5 0-.916-.191-.92-.955.016-.789.129-1.524.307-2.213.246-.058.555-.141.941-.26 2.135-.656 6.967-2.915 7.084-5.082.012-.243.023-.66-.168-1.012-.394-.726-1.844-1.938-3.648-2.817-.293-.152-.576-.229-.883-.229-2.16 0-4.611 3.862-5.688 6.386-.209.489-.311.746-.439 1.273-.139.131-.756 1.116-1.332 1.685-1.174 1.418-2.742 3.24-3.363 3.24-.119 0-.166-.076-.186-.191-.023-.152-.012-.345.063-.612.322-1.415 1.398-3.441 1.934-5.238.256-.845.356-1.685.229-2.525-.211-1.378-1.621-2.026-2.32-2.065-.309 0-.363.153-.363.649-.004.229-.315 1.722-1.176 2.639-.953 1.071-1.617 2.029-4.375 4.4-.275.229-1.059.879-1.406.879-.115 0-.203-.077-.227-.229-.029-.192.037-.498.16-.956.465-1.493 3.49-4.896 3.125-7.267-.144-.952-.932-1.837-2.688-2.241-.154-.036-.555.221-.498.558.103.626-2.049 3.993-3.088 7.191-1.529 1.337-3.637 2.776-5.35 3.59 1.902-2.869 3.353-6.785 3.156-8.755-.109-1.224-2.121-2.791-3.053-3.327-.17-.114-.414-.191-.607-.191-.191 0-.381.036-.516.153-1.676 1.177-3.527 3.456-4.934 6-1.793 1.675-4.82 4.584-6.248 5.775-.242.193-.385.268-.461.268-.076 0-.08-.039-.086-.075-.031-.193.055-.383.109-.536.225-.535.799-1.568 1.268-2.792.332-.842.647-2.065.523-2.869-.059-.381-.226-.727-.492-.956-1-.766-1.725-1.187-2.689-1.187-.693 0-1.473.192-2.564.613-.109.037-.219.076-.297.076-.115 0-.205-.076-.215-.154-.012-.075.053-.152.188-.267 1.049-.955 1.529-1.606 1.416-2.333-.088-.574-.705-1.339-1.781-2.334-.096-.114-.34-.19-.531-.19-.193 0-.379.04-.484.114-2.09 1.456-2.855 2.486-2.65 3.824.107.69.498 1.493 1.141 2.412.101.153-1.861 2.527-2.876 3.652-1.263 1.529-2.598 3.169-3.55 4-.135.114-.622.534-.738.534-.193 0-.352-.18-.35-.385 0-.116-.0001-.268.012-.421.286-1.368 1.631-3.824 2.03-5.196.514-2 .476-4.323-.095-5.159-1.234-2.027-2.341-2.611-3.421-2.611-.501 0-.875.075-1.628.458-2.146 1.073-8.03 5.433-9.406 10.787-.066.305-.092.65-.042.994.243 1.568 1.768 3.213 3.154 3.213.387 0 .792-.114 1.125-.458 2.286-2.18 4.693-5.263 6.425-7.448.103-.073.182-.073.259-.073.114 0 .165.073.178.151.017.115-.038.267-.122.459-.836 1.838-.983 2.971-.815 4.081.258 1.682.959 2.458 1.873 2.759.47.154 1.425.023 1.777-.305 1.125-1.043 6.688-7.677 7.387-8.36.232-.233.522-.441.9-.618.723-.34 2.465-1.087 3.352-1.087.385 0 .484.152.508.307.066.419-.645 1.567-1.334 2.599-1.19 1.799-1.887 2.793-2.117 3.787-.143.573-.221 1.072-.145 1.569.123.803.545 1.299 1.598 2.14.529.422.816.536 1.162.536.541 0 1.297-.343 2.106-1.109.932-.922 3.352-3.689 5.535-6.03-.543 1.322-.828 2.548-.688 3.465.039.268.133.612.281.842.297.421.9 1.34 1.086 1.53.189.229.371.421.381.495.019.118-.123.193-.387.231-.606.077-1.391.23-1.887.765-.164.191-.213.383-.182.574.057.382.547.803 1.049.803.191 0 .455-.039.619-.23.424-.497.973-.688 1.551-.688 3.353 0 9.318 6.234 15.678 6.234 2.391 0 4.803-.841 7.209-3.252.164-.191.289-.382.266-.536-.006-.036-.051-.074-.088-.074-.037 0-.148.038-.248.154-.981 1.146-2.496 1.567-4.268 1.567-5.357 0-13.07-4.054-15.768-4.553-.236-.037-.326-.114-.338-.191-.016-.114.121-.229.152-.267.184-.123.369-.266.555-.425 2.193-.091 4.926-2.099 6.961-4.283-.109.605-.154 1.602.008 2.059.619 1.752 1.762 2.111 2.416 2.111 2.197 0 4.4-3.977 6.59-6.04.234-.227.334-.343.371-.343.037 0 .043.036-.043.229-.684 1.567-.881 2.793-.738 3.747.156.996.695 1.76 1.428 2.26.344.227.67.343 1.016.343 1.799 0 3.461-2.628 4.6-4.126-.025.429.027.65.092 1.065.111.726.379 1.454.902 2.104.949 1.184 1.94 1.605 3.135 1.605 3.775 0 8.49-4.704 10.467-8.145.059-.115.08-.229.068-.307-.016-.114-.106-.191-.184-.191m-6.486-2.601c.322-.153.602-.344.871-.344.191 0 .35.076.379.459.115 1.514-2.281 4.117-5.732 5.02 1.076-2.732 3.195-4.485 4.482-5.131m-57.53 1.295c-1.543 1.178-4.02 3.761-5.63 5.245-.339.307-.591.421-.744.421-.27 0-.422-.229-.462-.498-.029-.19.018-.381.066-.573 1.01-2.984 5.47-6.929 7.93-7.127.57.152.503.885.262 1.123-.202.201-.804.795-1.422 1.409m25.309 6.965c-.246.153-.498.27-.613.27-.115 0-.127-.079-.144-.193-.018-.113-.004-.268.043-.457 1.199-3.748 2.484-5.93 3.557-7.229 1.432-1.721 2.725-1.837 2.842-1.837.152 0 .164.075.176.153.023.153.001.306-.039.496-.195.995-1.691 4.553-3.815 7.04-.627.686-1.299 1.338-2.01 1.757"/></g><g style="fill:#df4013"><path d="m222.91 107.81c-2.031-1.782-2.57-4.104-2.57-6.114 0-1.409.435-3.855 2.426-5.679 1.492-1.368 3.461-2.197 6.55-2.197 1.286 0 2.051.083 3 .207.789.103 1.451.29 2.074.353.227.02.311.124.311.248 0 .166-.063.415-.103 1.141-.043.684-.022 1.824-.063 2.238-.022.311-.063.477-.248.477-.166 0-.209-.166-.209-.456-.02-.643-.289-1.368-.807-1.906-.686-.726-2.301-1.285-4.209-1.285-1.804 0-2.984.456-3.896 1.285-1.514 1.389-1.907 3.357-1.907 5.368 0 4.933 3.752 7.379 6.529 7.379 1.844 0 2.963-.207 3.793-1.161.351-.394.621-.995.705-1.368.061-.331.103-.414.268-.414.147 0 .188.145.188.311 0 .249-.248 2.052-.455 2.757-.105.353-.188.456-.539.602-.83.331-2.404.477-3.732.477-2.839 0-5.222-.622-7.109-2.26"/><path d="m256.11 100.12c0-3.15 0-3.73-.041-4.394-.043-.704-.209-1.036-.893-1.181-.166-.042-.518-.063-.809-.063-.227 0-.352-.042-.352-.186 0-.145.145-.187.455-.187 1.1 0 2.406.062 3.03.062.498 0 1.803-.062 2.549-.062.311 0 .457.041.457.187 0 .144-.125.186-.332.186-.228 0-.353.02-.602.063-.559.103-.725.456-.768 1.181-.041.664-.041 1.244-.041 4.394v2.901c0 3.01.602 4.27 1.617 5.1.934.767 1.887.85 2.592.85.91 0 2.031-.29 2.859-1.119 1.141-1.141 1.203-3.01 1.203-5.141v-2.591c0-3.15 0-3.73-.043-4.394-.041-.704-.207-1.036-.891-1.181-.166-.042-.518-.063-.746-.063-.228 0-.351-.042-.351-.186 0-.145.144-.187.434-.187 1.058 0 2.363.062 2.385.062.248 0 1.555-.062 2.363-.062.289 0 .434.041.434.187 0 .144-.123.186-.373.186-.226 0-.351.02-.6.063-.56.103-.726.456-.767 1.181-.041.664-.041 1.244-.041 4.394v2.218c0 2.301-.228 4.746-1.969 6.239-1.473 1.264-2.965 1.492-4.313 1.492-1.098 0-3.088-.063-4.602-1.431-1.057-.953-1.844-2.487-1.844-5.492v-3.03"/><path d="m293.65 106.96c.043 1.617.313 2.155.727 2.301.352.124.746.146 1.078.146.227 0 .352.041.352.165 0 .166-.186.208-.477.208-1.348 0-2.176-.063-2.57-.063-.185 0-1.16.063-2.238.063-.269 0-.455-.021-.455-.208 0-.124.123-.165.33-.165.27 0 .643-.022.934-.105.539-.165.621-.767.643-2.569l.186-12.27c0-.415.063-.705.269-.705.228 0 .416.27.768.643.248.27 3.398 3.648 6.426 6.653 1.408 1.409 4.207 4.395 4.561 4.726h.103l-.209-9.307c-.019-1.264-.207-1.658-.703-1.865-.313-.124-.809-.124-1.1-.124-.248 0-.332-.063-.332-.186 0-.166.228-.187.539-.187 1.078 0 2.074.062 2.508.062.228 0 1.016-.062 2.031-.062.269 0 .476.02.476.187 0 .124-.123.186-.373.186-.207 0-.373 0-.621.063-.58.165-.746.601-.768 1.762l-.226 13.08c0 .456-.084.643-.27.643-.229 0-.477-.228-.705-.456-1.307-1.243-3.959-3.958-6.115-6.094-2.258-2.238-4.559-4.829-4.932-5.223h-.063l.226 8.705"/><path d="m340.58 100.7c.063 0 .123-.041.123-.144v-.436c0-3.15 0-3.73-.041-4.394-.041-.704-.207-1.036-.891-1.181-.166-.042-.518-.063-.809-.063-.228 0-.352-.042-.352-.186 0-.145.145-.187.434-.187 1.121 0 2.426.062 2.986.062.496 0 1.803-.062 2.611-.062.289 0 .436.041.436.187 0 .144-.125.186-.373.186-.166 0-.353.02-.602.063-.56.103-.727.456-.768 1.181-.041.664-.041 1.244-.041 4.394v3.648c0 1.906 0 3.544.103 4.436.063.58.188 1.036.809 1.119.291.041.746.083 1.057.083.228 0 .332.061.332.165 0 .145-.166.208-.414.208-1.348 0-2.654-.063-3.234-.063-.477 0-1.781.063-2.59.063-.291 0-.435-.063-.435-.208 0-.103.082-.165.332-.165.31 0 .559-.042.746-.083.414-.083.518-.539.6-1.141.103-.87.103-2.508.103-4.414v-1.824c0-.083-.061-.125-.123-.125h-7.918c-.063 0-.125.022-.125.125v1.824c0 1.906 0 3.544.103 4.436.063.58.188 1.036.809 1.119.291.041.746.083 1.057.083.228 0 .332.061.332.165 0 .145-.166.208-.414.208-1.348 0-2.652-.063-3.234-.063-.476 0-1.781.063-2.611.063-.269 0-.414-.063-.414-.208 0-.103.082-.165.332-.165.31 0 .559-.042.746-.083.414-.083.518-.539.602-1.141.104-.87.104-2.508.104-4.414v-3.648c0-3.15 0-3.73-.043-4.394-.041-.704-.207-1.036-.891-1.181-.166-.042-.518-.063-.809-.063-.228 0-.352-.042-.352-.186 0-.145.144-.187.436-.187 1.119 0 2.424.062 2.984.062.498 0 1.803-.062 2.611-.062.291 0 .435.041.435.187 0 .144-.125.186-.373.186-.166 0-.354.02-.602.063-.559.103-.725.456-.768 1.181-.041.664-.041 1.244-.041 4.394v.436c0 .103.063.144.125.144h7.918"/><path d="m368.74 104.37c-.104 0-.145.042-.186.166l-1.119 2.964c-.209.519-.313 1.016-.313 1.265 0 .373.188.643.83.643h.31c.248 0 .311.041.311.165 0 .166-.123.208-.352.208-.664 0-1.555-.063-2.197-.063-.228 0-1.367.063-2.445.063-.269 0-.394-.042-.394-.208 0-.124.084-.165.248-.165.188 0 .477-.022.643-.042.955-.124 1.348-.829 1.762-1.865l5.203-13.02c.248-.602.373-.829.58-.829.188 0 .311.187.52.663.496 1.14 3.813 9.597 5.139 12.747.789 1.865 1.389 2.156 1.824 2.26.31.062.623.083.871.083.166 0 .269.02.269.165 0 .166-.188.208-.953.208-.746 0-2.26 0-3.918-.042-.373-.021-.621-.021-.621-.166 0-.124.082-.165.289-.186.147-.041.291-.228.188-.477l-1.658-4.393c-.041-.104-.103-.146-.207-.146h-4.623m4.228-1.036c.103 0 .125-.063.103-.125l-1.865-5.119c-.022-.083-.041-.186-.103-.186-.063 0-.103.103-.125.186l-1.906 5.099c-.022.083 0 .145.082.145h3.814"/></g><path d="m267.94 80.75c-48.08-2.315-76.24-2.092-92.32-2.717-16.09-.478-20.14-1-20.14-1-6.361-.807-11.564.047-11.565 1.914 0 1.867 5.362 3.361 11.916 3.307 75.34-2.463 150.47 4.201 226 2.486 6.557-.121 17.277-.225 23.828-.231 12.998-.002 26-.144 39.01-.516 6.566-.188 11.824-2.031 11.686-3.996-.141-1.973-5.219-2.32-11.326-.859-.004-.045-2.535.744-25.938 2.111-23.393 1.238-67.742 3.334-151.16-.5" style="fill:#ffcb00"/><path d="m101.94 50.691c-1.242.919-1.303 3.139-2.997 3.977-1.422.708-2.61 1.175-3.911 1.572.313.092.635.197.957.331 1.667.688 2.531.567 2.92 2.425.391 1.855-.744 2.387-1.883 3.868-1.143 1.485-1.561 3.446-3.648 2.381-2.09-1.067-2-1.648-3.627-.487-1.622 1.167-2.329-1.219-2.329-1.219-.077-.084-.145-.182-.216-.278-1.117.492-2.227.87-3.26 1.217l-.446.155c-2.36.801-7.433 2.01-10.01 2.078-2.605.07-9.134-.694-11.483-1.636-2.02-.807-4.559-2.8-7.442-5.817.2 4.895.39 12 .205 16.16-.103 2.363 2.026 22.88 3.168 35.625.589.051 1.171.103 1.741.153 8.379.77 15.07-1.069 21.792-1.797 4.605-.498 7.814 2.039 12.544 1.405 3.355-.45 6.979.359 10.359.117 3.382-.239 5.287-6.793 4.209-10.963-1.068-4.123-1.477-2.658-1.503-7.01-.023-4.051-.295-11.05-.499-15.01-.205-3.931 1.91-10.707 1.91-14.541 0-4-.549-7.784-.549-11.787 0-.284.031-1.234.082-1.592-1.953-.486-1.744-.442-3.131-.406-1.387.039-1.711.15-2.951 1.073" style="fill:#007dc2"/><path d="m4.91 36.834c-.278-.968-.278-1.753 1.179-3.542.675-.712 1.784-2.426 2.36-2.362 3.666-.936 3.566-.157 6.49 1.185 1.139-.048.37-2.195 1.178-3.54 1.342-1.02 3.299-1.425 5.901-1.181 1.405-3.908 8.167-6.713 10.03-5.9 2.256-.395 3.607.361 5.9 1.178 1.859.286 1.337-1.809 3.539-1.178 3.106.828 4.852 3.01 6.49 5.311 1.467-.309-.894-4.501 1.182-4.723 3.108-.056 4.358-.034 5.31 1.18 1.197.081.861-1.325 1.615-1.702 3.959-1.062 7.832-.027 11.566.584 5.641.922 10.67 2.797 11.01 5.84 2.938.6 4.759.433 7.67 2.946 1.397-.189 2.545-.455 3.568-.571 4.075-.278 5.719.633 5.799 1.41.092.906 1.783 6.401 4.529 6.172 2.519-.193 5.412.483 7.675 1.571-.245-1.01-.476-2.022-.476-2.938 0-4.02.57-6.424.53-10.514-.042-4.2 1.743-9.01 1.123-13.154-.499-3.32.62-4.699-2.208-7.525-2.035-2.034-5.178-1.342-7.679-.908-3.392.586-4.882-.667-8.02-1.268-3.02-.577-6.505.414-9.595.356-2.503-.047-4.459-.255-6.688.995-2.866 1.608-9.799.083-12.842.347-3.502.303-10.598 1.281-14.02.498-6.02-1.378-3.855-2.129-9.992-2.129-4.275 0-9.918.727-14.162.987-1.867.116-3.723.702-5.605.336-1.71-.331-2.983-1.659-4.792-1.659-8.04 0-15.05-.065-12.453 10.288 1.26 5.03.793 3.345.21 8.436-.425 3.723-.964 11.791-.638 19.306h3.721c-.699-1.636-1.124-3.198.59-4.131" style="fill:#ffcb00"/><g style="fill:#009540"><path d="m19.951 47.16c8.288 1.423 18.705 1.22 24.418.573 1.478-.164.846-1.27-.385-1.581-13.566-3.431-24.47-3.709-25.373-1.97-1.059 1.83-.767 1.98 1.34 2.977"/><path d="m15.976 51.52c.862.783 2.096 2.479 2.363 2.914.143.233.097.845-.034 1.483.538.298 1.209.542 2.159.792 2.97.77 6.138 1.5 9.299 1.315 3.268-.191 6.5-.887 9.289-1.559 3.45-.834 6.326-1.791 7.895-2.408-.287-1.534-.666-1.685-.571-2.474-8.64.009-12.392 1.22-21.409.589-6.455-.447-9.389-1.597-8.258-1.178-.002.23-.291.398-.732.525"/><path d="m22.367 67.963c.172.655.408 1.196.408 1.619 0 .5-3 1.833-3.835 1.833-.835 0-1.502.834-2.168.168-.667-.668-.334-1.167-1.167-1.334-.834-.167-1.5.666-2.166.5-.668-.166-1.67-.166-2-.667-.338-.5-.17-1-.338-1.666-.166-.667-.33-1.67 0-2.17.338-.5 0-1.334.67-1.834.668-.5 4.167-1.167 5.167-2 1-.835 1.167-.667 2.17-.335 1 .335 1.667 1.168 2.334.835.667-.333.667-1 1.333-.333.667.666 1 1.166 1 1.666 0 .501-.166 1-.499 1.501-.09.136-.215.28-.352.422 11.976 3.248 23.25-7.79 24.292-9-.003-.188-.004-.366-.011-.524-.001-.215-.022-.403-.033-.596-.673.346-1.516.711-2.535 1.059-1.516.512-8.777 2.861-10.681 3.125-1.801.247-9.206-.014-10.637-.172-1.665-.178-3.254-1.181-4.7-1.613-.609-.182-.977-.359-1.276-.553-1.438.446-6.582.922-7.317.896-.83-.028-3.639-2.033-3.623-2.533.019-.501.373-1.152.566-1.98.122-.518.168-.645.182-.67-.049-.045-.811-.706-1.114-1.203-.317-.508-.468-1.018-.449-1.514.013-.345.183-.682.507-1.064-.003-.003-.005-.003-.007-.008-1.284.814-2.316.497-3.995-.057.068.604.113 1.226.113 1.885 0 3.347-.87 9.311-.052 13.162.836 3.923.802 3.195.427 7.245-.424 4.584.348 9.112.504 13.689.137 4.105-2.826 6.715-1.867 11.06.633 2.87-.347 5.709-.48 8.582-.357 7.742 11.373 6.256 16.678 5.553 3.346-.441 5.666-1.723 9.166-1.742 3.133-.013 6.075 1.768 9.112 1.495 2.233-.197 4.62-.289 7.07-.308 1.628-14.02 3.821-37.816 4.346-48.871-4.92 3.665-15.9 10.121-24.74 6.46"/></g><path d="m64.28 41.11c1.054-.074 1.86-.859 1.86-.859 0 0 2.609.129 3.355.129.743 0 5.127-.248 5.127-.248l3.518.093c2.916-.188 6.25-.14 5.207-1.98-1.724-1.771-2.313-2.375-5.459-2.321.034.128-4.297.847-4.297.847l-2.234.514c0 0-2.463-8.661-7.325-2.705-.403.491-1.239 4.095-1.39 4.856-.188.944.585 1.75 1.638 1.675m24.895 3.48c-2.035.236-4.082-.342-6.924.52-2.84.861-2.15.77-8.06 1.066-5.905.301-7.537.326-8.971-.058-1.432-.386-3.635-.759-4.859-.739-1.225.02-4.521.072-3.486.873 1.031.797 3.604 1.447 3.604 1.447 0 0 7.385 2.941 11.05 2.681 3.666-.264 5.443-.073 7.27-.506 1.827-.438 5.063-.989 6.292-.806 1.227.186 3.197-1.262 4-1.684.81-.42 2.552-1.199 2.54-2.02-.014-.813-.426-1.01-2.461-.778m-5.605 14.838c-.58-.136-1.235-.566-1.752-.972-.74.581-1.037 1.456-2.446.817-1.449-.656-2.31-.514-2.288-1.635.012-.539.079-1.035.15-1.408l-.159-.062c0 0-1.288-.141-2.729-.288-1.248.172-2.688.236-4.448.061-6.505-.334-8.267-3.547-14.672-3.256 0 0-.454.687-.669 2.095 4.673 5.423 7.371 7.03 8.563 7.51 1.805.727 7.855 1.489 10.288 1.425 2.03-.057 6.715-1.103 9.124-1.922l.455-.153c1.145-.386 2.314-.78 3.441-1.319.013-.101.024-.203.054-.283.117-.385.278-.817.5-1.281-.154.045-.316.083-.517.119-1.935.309-1.56.873-2.894.553" style="fill:#df4013"/></svg>