<svg viewBox="0 0 70 70" version="1.1" xmlns="http://www.w3.org/2000/svg" width="70" height="70"><path d="m64.9288 64.2161c-1.7713 1.7815-3.9626 3.0175-6.1341 3.7669-1.1723.4079-2.348.6905-3.5069.8854 1.6209.3685 3.1576.9284 5.0883.669 2.168-.2916 4.5088.2272 6.6902.0733 2.1824-.1538 3.4128-4.3804 2.716-7.067-.6885-2.658-.9536-1.7154-.9688-4.511-.0027-.1753-.0027-.3524-.0062-.5384-.0413.1466-.0781.2933-.1246.4382-.6994 2.2645-1.9674 4.5128-3.7539 6.2836" style="fill:#007dc2"/><path d="m7.0474 44.4495c.9026.6975 2.1357 1.345 3.385 1.8924 5.073 2.1518 10.9957 3.1785 16.263 1.8763.7541-.1878 1.5609-.4329 2.3749-.7334-.034-.3058-.0663-.6135-.0895-.9283-.0448-.7745-.0797-1.5436-.0735-2.3145-1.5644.313-3.1082.3398-4.6252.1788-1.0038-.118-1.9996-.3166-3.0358-.6653-.5184-.1753-1.0459-.39-1.6037-.6762-.2866-.152-.5731-.3201-.8723-.5205-.1523-.1037-.3099-.2236-.4648-.338-.128-.102-.2284-.1914-.342-.2862-3.4602-3.0873-4.8743-7.5303-4.0647-11.9555.215-1.1018.6008-2.1983 1.1454-3.217.2749-.5097.582-1.0025.9331-1.4613.3627-.4776.5973-.745.9205-1.117 1.2215-1.3854 2.6856-2.6678 4.4167-3.6892 1.7229-1.0168 3.7396-1.7466 5.8601-1.9577 2.1125-.2137 4.2877.0796 6.2246.8094 1.9477.7119 3.6849 1.8656 5.0604 3.064.0834.076.1658.1494.248.2236.3547-.3631.7218-.7244 1.0899-1.075.6448-.6046 1.2994-1.1886 1.9639-1.7592-1.0505-.2298-2.2093-.584-3.3018-.9265-1.2545-.3962-4.6709-4.4681-6.5908-7.8648-1.9226-3.3922-6.2354-5.4179-6.1565-6.2121.0805-.795 9.8728 3.1776 15.3326 5.4304 3.5821 1.4757 4.3396 4.5236 4.3952 6.6629 4.3565-3.1767 9.0481-5.7292 13.8399-7.9257 1.7409-.7896 3.5022-1.5248 5.2915-2.2116.9063-.3462 1.7605-.661 2.743-.9955.9312-.3085 1.7999-.5795 2.6855-.8594-.0143-1.1707 0-2.0033-1.3209-3.3225-1.3163-1.3093-3.3429-.8639-4.9557-.5866-2.1895.3791-3.1513-.4285-5.1777-.8157-1.9513-.3703-4.199.2674-6.1906.2281-1.6173-.0287-2.8745-.1646-4.319.6412-1.8519 1.0374-6.3222.0563-8.287.2245-2.2619.1967-6.8425.8273-9.0526.3228-3.8846-.8925-2.4885-1.3728-6.4485-1.3728-2.7617 0-6.401.466-9.142.6359-1.2072.076-2.4026.4499-3.6188.2164-1.1005-.2128-1.9245-1.0687-3.093-1.0687-5.1841 0-9.7206-.0403-8.0371 6.6333.8167 3.2411.5131 2.1518.137 5.4358-.283 2.446-.6377 7.7995-.403 12.7219.1173 2.4156 1.0272 4.1372 1.0272 6.6065 0 1.185-.1657 2.8851-.2346 4.5844.7476 2.1267 1.8447 4.0853 3.3016 5.7827.8418.9856 1.8063 1.88 2.8621 2.6849" style="fill:#ffcb00"/><path d="m31.2903 55.761c-.3555-.8353-.669-1.6759-.9484-2.5327-.6448.2611-1.2958.4883-1.9548.6779-3.5149 1.0392-7.0798 1.2002-10.4746.8925-.1452-.0143-.2902-.0358-.4344-.0518.2687.5562-.6833 1.9478-1.5545 3.1623-.4353.6082-3.4548 2.125-5.827 2.9227-2.3741.8013-4.2797 2.8655-4.7525 2.785-.4764-.0751 3.471-4.7883 5.699-7.414 1.0845-1.2843 2.4635-1.7404 3.6393-1.8621-2.2611-.4132-4.4704-1.0374-6.6437-1.8745-1.6021-.6421-3.1746-1.3397-4.8555-2.4952-.6241-.44-1.234-.9122-1.8232-1.4077.1022 1.6026.2713 3.2053.326 4.8133.0868 2.6455-1.8232 4.3268-1.2053 7.1243.4092 1.8531-.2248 3.6847-.3108 5.5342-.2301 4.9886 7.3422 4.0352 10.7656 3.5791 2.1574-.2826 3.6564-1.1072 5.9185-1.1179 2.0193-.0107 3.9214 1.1358 5.8771.9623 4.8043-.4293 10.7093-.1091 15.4831.3327 3.8615.3488 7.1569-.152 10.3108-.6386-3.1405-.3112-6.3795-1.2986-9.0929-3.1552-3.8739-2.59-6.4906-6.3784-8.1418-10.2366" style="fill:#009540"/><g style="fill:#ffcb00"><path d="m31.7828 23.7017c-5.27-2.3923-12.1609 1.431-13.9492 7.0546-.6797 2.9173.2435 6.2451 2.5397 8.388 1.1964 1.0893 2.7787 1.5185 4.302 1.7761 1.4784.2075 3.0061.1753 4.4908-.211.4684-3.3556 1.568-6.62 3.1405-9.5319.0735-.1324.1479-.2603.2239-.3944-.2373-.2486-.4719-.4856-.6716-.7074-.0591-.0653-.1029-.1199-.1585-.1807-.0966-.1019-.1961-.2012-.2973-.2987-.2105-.1771-.4271-.3381-.6618-.4606-.9268-.491-1.9163-.6019-2.8736-.4749-.4486.0617-.883.2406-1.3111.4785-.4719.2656-2.8951 1.7109-3.5953 1.2127-1.0747-.7682.4486-2.4988 1.4596-3.1132.9502-.6448 2.057-1.1796 2.9883-1.3424 1.4812-.2235 2.9883-.1368 4.6531.6779.4065.204.8273.4857 1.2241.8112.1952.1771.3886.3631.5748.5581.044.0447.0413.0429.0941.0957.0403.0429.0958.0974.1576.161.4548-.6672.9269-1.3174 1.4158-1.9479-1.0917-1.0679-2.3641-1.9613-3.7459-2.5507"/><path d="m39.022 32.2507c-.4656.677-.9036 1.3746-1.3029 2.0883.0608.5786.0608 1.1671-.0314 1.7395-.2445 1.6384-.9582 2.903-1.6477 3.8295-.248.3363-.5212.6511-.8068.9534-.1827.8961-.3063 1.8065-.3681 2.7384-.008.0841-.008.1699-.0152.254 1.7139-1.9353 3.2032-4.2355 3.9205-6.6485.5033-1.6152.5857-3.3162.2516-4.9546"/></g><path d="m67.215 13.6431c-1.6647.5778-3.3169 1.2118-4.9467 1.8915-6.5005 2.7367-12.7645 6.1978-17.928 10.7849-.7512.6609-1.4712 1.3549-2.1607 2.0757.5811 1.2807 1.0128 2.6642 1.216 4.0898.2964 2.0498.1281 4.1283-.3546 6.0135-.4835 1.896-1.2447 3.6132-2.1376 5.1675-.4513.7763-.9304 1.515-1.4337 2.2251-.2516.3542-.5103.6976-.7728 1.0393-.2892.3666-.5847.7297-.8999 1.0767-.7156.8175-1.5116 1.5669-2.3641 2.2448.2686 1.1233.6071 2.2323 1.0244 3.3055 1.2403 3.1749 3.1889 6.094 5.9183 8.0383 2.7161 1.9711 6.1566 2.7885 9.6724 2.6454 3.4887-.0876 7.0726-.9354 9.5925-3.3072 2.5343-2.345 3.6295-6.0243 3.5166-9.5748-.0555-1.7654-.514-3.5434-1.4408-5.0745-.9233-1.5311-2.2952-2.8028-3.9197-3.6345-1.6128-.855-3.4359-1.2861-5.2663-1.4417-1.8278-.22-3.771.1109-5.4088 1.0642-1.6335.9355-2.9784 2.4165-3.7227 4.1945-.762 1.7958-.7826 3.8313-.2749 5.7058.2606.9445.7191 1.8746 1.4122 2.6455.6896.7745 1.62 1.3415 2.5988 1.6456.9734.313 2.0095.3881 2.965.372.9653-.0197 1.9638-.1144 2.9783-.4704.9994-.3345 2.0472-1.1107 2.5649-2.175.4987-1.0446.6859-2.0481.6411-3.1892-.0376-.5545-.1496-1.1323-.4245-1.7172-.2587-.5723-.7692-1.1876-1.4928-1.4935-.7307-.3148-1.4337-.2844-2.0175-.1842-.6223.127-3.3421.7673-3.6868.1699-.4585-.8013.0403-1.574 1.7131-2.4344.4621-.2039.9375-.3416 1.4265-.4454.5141-.0966.9753-.1502 1.5761-.1359.6448.025 1.3683.1431 2.0785.4472.7128.2861 1.3476.753 1.8536 1.2556.4765.4991.8526 1.0482 1.089 1.5436.5042 1.0196.676 1.9175.7558 2.7492.0725.821.0206 1.6402-.1128 2.3897-.1192.6618-.3189 1.4792-.7317 2.3324-.4065.8586-1.0585 1.7225-1.8169 2.3611-.7586.6457-1.5645 1.0696-2.3131 1.363-1.4955.5616-2.7779.694-3.9464.7512-1.0998.0519-2.5746.0036-3.9958-.415-1.4471-.4042-2.9677-1.2646-4.0808-2.4594-1.131-1.1859-1.8447-2.5882-2.2504-3.9047-.411-1.3326-.5623-2.6097-.5687-3.8725 0-1.4184.275-2.8207.7675-4.1032.9931-2.5596 2.8065-4.6648 5.0918-6.0708 1.148-.694 2.4161-1.2162 3.7433-1.5042 1.3199-.313 2.7859-.3166 3.796-.2522 2.2324.1234 4.5875.5849 6.8174 1.6795 2.2342 1.0589 4.2822 2.8154 5.6676 4.9797.5507.8514.9922 1.7547 1.3379 2.683.2749-2.5059 1.1605-5.7398 1.1605-7.7342 0-2.5793-1.0827-5.0164-1.0827-7.5983 0-1.3728 1.0791-4.2544 1.0791-5.6272 0-1.2717-.6823-2.8001-.6823-4.0701 0-2.5945.3725-4.1408.3457-6.7782-.0072-.6546.0581-1.3352.1504-2.0275-.7334.2263-1.5511.4991-2.3158.7647" style="fill:#df4013"/></svg>