<svg viewBox="0 0 70 70" version="1.1" xmlns="http://www.w3.org/2000/svg" width="70" height="70"><path d="m36.486 5.918c.2447 1.218-.394 2.3215-1.4257 2.4655-1.0317.1431-2.0626-.728-2.3074-1.9451-.2412-1.2179.3985-2.3197 1.4265-2.4655 1.0318-.1431 2.0672.7262 2.3066 1.9451" style="fill:#df4013"/><path d="m43.3508 67.7285c-.5091-.2539-1.5444-4.0367-1.1871-5.2673.3608-1.2358.5028-11.4145.9637-12.0816 0 0-1.3961-.7905-6.1867-3.688-2.73-1.6473-3.2667-2.8027-7.9324-5.6053-7.6707-4.6073-7.5857-4.0886-10.3218-5.2924-2.3359-1.0284-9.4536-6.0792-10.5265-6.6122-3.0658-1.5248-6.1985-2.7356-6.8934-3.5557-.3547 1.9549-.8013 3.9814-.8013 5.3943 0 2.58 1.0827 5.0151 1.0827 7.596 0 1.3754-1.0764 4.2549-1.0764 5.6268 0 1.2716.6779 2.8008.6779 4.0725 0 2.5934-.3671 4.1387-.3403 6.775.0277 2.7061-1.1238 5.8039-.7253 8.4796.3233 2.1426-.3985 3.0298 1.4239 4.8523 1.3096 1.3074 3.3355.8621 4.9443.5831 2.1832-.3774 3.1425.4328 5.1648.8173 1.9422.372 4.1878-.2665 6.178-.2289 1.6098.0286 2.8657.1645 4.302-.6385 1.8491-1.0391 6.3102-.0537 8.27-.2254 2.2557-.1949 6.8257-.8299 9.0293-.3237 3.8752.8925 2.4789 1.3754 6.4335 1.3754.3439 0 .702-.0071 1.0692-.0233-.0857-.0787-.1679-.1788-.3161-.2807-.4092.3111-3.273-.6904-3.232-1.7493" style="fill:#009540"/><path d="m65.7731 64.7148c-1.021-.71-6.7184-3.5753-8.6059-5.405-.8808 2.9494-1.8919 5.7467-2.0161 6.6284-.2582 1.7975-1.7365 2.6506-2.5235 2.7919-.293.2004-.7736.4633-1.3337.7172 1.2854-.118 2.544-.2361 3.6543-.304 1.1997-.0751 2.3941-.4489 3.6108-.2164 1.0969.2128 1.9178 1.0731 3.0836 1.0731 3.9519 0 7.5178.0197 8.2396-2.9475-1.155-.6153-3.3418-1.8083-4.1091-2.3377" style="fill:#007dc2"/><path d="m34.661 34.4347l-.0821-1.7358c-1.1176-.3801-2.3904-2.2527-2.5647-2.5693-.1724-.3192-1.8321-4.3372-1.2077-7.9519.6288-3.6129 1.1247-4.7566 1.9054-5.5964.0276-.4731-1.3855-1.8493-1.1283-2.3644-1.6739.4212-4.8236.4078-10.5184.5079-5.6946.0993-14.0567.9193-16.3845 2.8572-.1546-1.4898.2788-15.4101 29.0388-15.7088.9514-.7709 2.6887-1.1286 3.7204-1.2171l-.0134-.136c-1.9222-.0992-3.7999-.2414-5.5293-.4006-5.3955-.4972-9.701.6904-14.0334 1.1581-2.9639.3228-5.0301-1.3137-8.0753-.905-2.16.2906-4.4914-.2334-6.6684-.076-2.1814.1556-3.4078 4.3766-2.7129 7.0648.687 2.6613.9522 1.7179.9656 4.516.0099 1.675.0867 4.1244.1752 6.3387.3412.1162.7253.3291 1.1488.6599 1.0906.8523 7.9804 4.1549 8.4931 4.4088.5129.2585 17.6951 9.5115 17.6951 9.5115.9004-.1609 2.9533-.4194 3.3972.085.4405.5035 2.3788 1.5534 2.3788 1.5534" style="fill:#ffcb00"/><path d="m69.9233 45.2071c-.1125-2.4163-1.0236-4.1369-1.0236-6.6033 0-2.1588.559-6.0024.0339-8.4849-.5378-2.529-.5173-2.0613-.2761-4.6717.2724-2.9529-.2233-5.8727-.3233-8.822-.0849-2.6489 1.8196-4.3284 1.2041-7.1283-.4091-1.8503.2224-3.6817.3091-5.5302.2313-4.9928-7.3241-4.0368-10.7417-3.5798-2.1493.2835-3.6446 1.1089-5.9001 1.1178-2.0161.0125-3.9099-1.1357-5.8662-.9604-2.4932.22-5.282.2414-8.0566.1493-.2269-.0071-.4708.0635-.3617.076 6.6612.829 9.2472 11.3591 9.835 15.6767 9.4277 3.7747 9.6072 12.4948 9.593 22.068.6261 1.6419.1312 10.1841.0446 12.6665 3.3283 1.7976 9.1319 5.6877 11.099 7.004.0107-.0805.0215-.1663.0312-.2575.2832-2.4468.6334-7.7981.3994-12.7202" style="fill:#df4013"/></svg>