<svg viewBox="0 0 70 70" version="1.1" xmlns="http://www.w3.org/2000/svg" width="70" height="70"><g style="fill:#df4013"><path d="m33.2519 8.8853c-1.0984.4391-2.0643 3.4338-1.0984 4.3951.9606.9603 3.4357.8271 3.9827-.4141.5523-1.2357.5523-5.3535-2.8843-3.981m.6141 3.2907c-.4207 0-.7582-.3371-.7582-.7583 0-.4193.3375-.76.7582-.76.4199 0 .7609.3407.7609.76 0 .4212-.341.7583-.7609.7583"/><path d="m24.7924 12.4747c-.4717-.2817-1.375-.6868-2.1986-.4123-.8226.2746-2.887 2.6084-.2757 4.5319 2.613 1.9225 3.7123-.2763 3.9872-1.3744.2757-1.0981-.8236-2.3357-1.5129-2.7452m-.9748 2.8552c-.4208 0-.7592-.3416-.7592-.7583 0-.4212.3384-.7583.7592-.7583.4207 0 .7609.3371.7609.7583 0 .4167-.3402.7583-.7609.7583"/><path d="m29.5584 14.5627c-.7036.0759-1.1683 4.1687-.5004 4.8349.6696.6689 2.5056 2.6701 3.0087 3.3363.4995.6688.1512-2.0406.0904-3.3363-.094-1.8725-1.093-5.0031-2.5987-4.8349"/></g><path d="m17.4393 51.5862c-.9265-1.2573-1.8091-2.9276-2.0741-4.3083-.5586-.9979-.3348-14.3349-.3348-15.1129 0-.7771 1.7814-5.6666 1.8915-6.4454.1137-.7761.4441-8.1131.4441-8.7784 0-.6661.6687-4.3333.6687-4.9995 0-.6688 0 0-.445 0-.444 0-.7779 0-.7779 0 0 0-2.2263-1.1132-2.6712-1.1132-.4476 0-1.7008-1.1106-1.7008-1.4433 0-.3353 3.4831-1.7714 4.1473-2.104.6696-.3345 1.4476-.3416 4.6738.549.4449-.1118 6.5644-2.4456 7.1221-2.5556.5541-.1118 4.1142-1.0006 4.783-1.3351.6346-.3174 3.032-2.6262 4.3139-3.3291-1.9157-.0975-3.7867-.2378-5.5171-.3952-5.406-.5008-9.7199.6885-14.058 1.1562-2.9738.3192-5.0416-1.3154-8.0951-.9067-2.1672.2906-4.5037-.2316-6.6844-.0779-2.1816.1574-3.4116 4.3816-2.716 7.0678.6893 2.6594.9516 1.7142.9686 4.514.0135 2.6137.1898 7.1241.3241 9.6761.1306 2.5324-1.2336 6.9024-1.2336 9.3731 0 2.5797 1.0823 5.0146 1.0823 7.5953 0 1.3753-1.0787 4.2546-1.0787 5.6263 0 1.2716.6821 2.8007.6821 4.0722 0 2.4018-.3169 3.9095-.342 6.2147.7422-.1341 1.5443-.245 2.4672-.422 3.1949-.6099 8.3807-1.5077 14.16-2.5181" style="fill:#ffcb00"/><path d="m67.3316 60.6784c-1.4546.3971-2.7571 1.7634-2.7571 1.7634 0 0-.572-.4095-.9373-2.6808-.3545-2.2283-.6857-4.0025.7278-5.3724-.7726-.0161-1.5639-.0554-2.392-.1538-.0313.3899-.1279.8281-.3025 1.3306-.8827 2.5324-3.0884 5.6764-5.0766 6.3506-1.9838.6742-3.6766 2.6916-3.6766 2.6916 0 0-.8271-.5222-1.52-3.6591-.6893-3.1351-1.3016-5.612.6821-7.6669.163-.1645.325-.3291.4897-.49-3.2146.025-7.2528.3523-11.3572.8334-.5004 1.1195-.9892 2.2015-1.0098 2.2516-.7197 1.7419.0072 9.5107.2068 12.7549 2.7429.744 1.9121 1.1446 5.5197 1.1446 2.7563 0 5.8483-.102 8.5875-.2719 1.2059-.0751 2.4018.0948 3.6148.3345 1.1065.2074 2.477.1555 3.6416.1555 5.1832 0 7.5671.2325 8.037-6.6331.1719-2.4877-.2354-2.2427-.0385-4.5837-.7546.9299-1.6328 1.6846-2.4394 1.901" style="fill:#007dc2"/><path d="m23.8417 56.5687c-.666.1717-1.2264.3308-1.6579.4828-1.8432.6421-11.6643 2.7453-13.4698 3.2478-1.1163.3094-3.3319-1.3055-4.1107-1.4915-.3411-.0841-3.2943.7779-4.3587.9425-.2041 1.3091-.342 2.6039-.1593 3.8146.3205 2.1425-.3993 3.0296 1.4242 4.852 1.315 1.3073 3.3418.862 4.9539.583 2.1924-.3774 3.2433-.0268 5.2665.363 1.9497.3685 3.6523-.084 5.6432-.05 1.614.0322 3.3328.4399 4.7722-.3631 1.3312-.7475 4.0185-.4471 6.1517-.2843-.162-.1324-.3213-.2683-.4824-.4168-2.5612-2.332-3.5217-9.5607-3.9729-11.68" style="fill:#009540"/><path d="m37.7243 6.606c1.2246.668 2.0025 3.5581 2.895 4.4451.8889.8906 3.0007 4.8895 3.0007 6.1128 0 1.2224 1.5584 4.8913 1.5584 6.4463 2.2255 3.5544 2.9318 12.6046 3.0419 14.495.1146 1.8885-2.6981 8.7149-2.8082 8.0478 0 0-.034.0912-.0922.2432.5165-.1162 1.0053-.2324 1.4502-.3397 2.4501-.5956 14.1207-.0305 18.3871.4667.2856.034.6132.0644.9713.1002-2.0715-1.141-4.3828-3.3533-4.7212-5.1149-.3473-1.8367-1.9255-3.5803-1.9255-3.5803 0 0 .5613-.6636 3.4222-.8943 2.546-.1985 4.6237-.4059 6.1571.9765.0761-2.214.4987-5.6254.0206-7.894-.5407-2.5288-.5174-2.0611-.2792-4.6713.2756-2.9527-.2212-5.8723-.3205-8.8213-.0896-2.6486 1.8198-4.328 1.2031-7.1277-.4073-1.8501.2238-3.6814.3097-5.5298.231-4.9923-7.3396-4.0364-10.761-3.5795-2.161.2835-3.6559 1.1089-5.9163 1.1178-2.0196.0108-3.9182-1.1356-5.8751-.9604-2.1816.1932-4.5896.2325-7.0201.1789-.1342.6393-1.0617 2.2015-1.3364 2.6423-.5551.8907-.0242 2.1309-1.3616 3.2406" style="fill:#df4013"/></svg>