<svg xmlns="http://www.w3.org/2000/svg" viewBox="0 0 457 112" style="enable-background:new 0 0 457 112"><path d="m420.4 69.27c-.434 0-1.084-.045-1.721-.258-.988-.283-2.195-1.074-3.709-4.814-1.906-4.75-5.947-15.303-8.361-21.608l-1.895-4.934c-.525-1.354-.727-1.666-1.086-1.666-.355 0-.549.319-1.088 1.801l-9.992 27.337c-.838 2.322-1.73 3.812-3.596 4.055l-1.26.088c-.082 0-.156.012-.223.031-.096-.031-.197-.031-.25-.031-.43 0-1.566 0-2.826-.393-1.85-.602-2.123-3.078-2.287-4.559l-2.949-27.03c-.088-.825-.223-1.303-.654-1.303-.398 0-.602.386-.775.78-.002 0-11.598 24.771-12.828 27.402-.229-.471-13.355-27.451-13.355-27.451-.197-.438-.406-.731-.773-.731-.391 0-.527.453-.609.896 0 .009-3.17 28.71-3.17 28.71 0 .002-.016.16-.016.16-.17 1.617-.33 3.145-1.641 3.383-.65.131-.951.131-1.299.131-.275 0-.568.121-.568.346 0 .523.66.523.877.523l2.707-.092.99-.041.789.031 3.305.102c.32 0 .918 0 .918-.523 0-.217-.244-.346-.48-.346-.268 0-.916-.047-1.643-.217-.607-.123-1.045-.645-1.045-1.242l.043-2.236c0 0 1.605-18.643 1.746-20.264.656 1.544 5.344 11.598 5.762 12.432 0 .0001.215.434.215.434 2.605 5.227 4.266 8.52 4.936 9.781l.076.145c.83 1.574 1.027 1.949 1.4 1.949.428 0 .572-.303 1.262-1.76l.307-.646c0 0 9.703-20.594 10.697-22.701.041.45 2.092 22.482 2.092 22.482.029.271.041.506.041.701 0 .465-.066.715-.121.75-.172.033-.404.117-.404.43 0 .381.453.49 1.348.568 1.578.127 6.342.264 7.361.264.307 0 .555-.045.732-.123.213.121.541.123.756.123l3.967-.1 1.01-.033 1.121.047 2.312.086c.521 0 .787-.162.787-.48 0-.178-.098-.389-.566-.389h-.439c-.598 0-1.547-.312-1.547-1.15 0-.785.217-1.816.609-2.906 0-.002 2.643-7.794 2.643-7.794.092-.232.207-.266.318-.266h9.465c.158 0 .211.048.283.193-.006-.011 4.086 10.817 4.086 10.817.121.32.135.605.039.807-.051.107-.133.186-.225.217-.322.082-.393.277-.393.428 0 .361.438.385 1.234.424l.205.012c.004 0 6.918.088 6.918.088.67 0 1.01-.162 1.01-.48-.0001-.391-.413-.391-.567-.391m-13.162-13.954h-8.408c-.021-.004-.037-.018-.037-.047 0-.021.008-.05.023-.089.002-.008 3.875-11.893 3.875-11.893.125-.375.213-.407.213-.408 0 .003.086.044.207.408 0 .003 4.184 11.888 4.184 11.888 0 .016.012.132.012.132-.0001-.0001-.069.009-.069.009m48.949 13.954c-.26 0-.871 0-1.697-.131-1.178-.188-3.01-.719-5.299-3.133-2.236-2.391-4.84-5.732-7.855-9.603 0 0-1.098-1.409-1.223-1.568 3.6-3.346 5.283-6.583 5.283-10.18 0-3.053-1.941-5.264-3.088-6.088-2.412-1.729-5.463-1.961-8.131-1.961l-3.709.09-1.486.042-.584-.021-4.389-.111c-.27 0-.832 0-.832.479 0 .226.203.389.48.389.396 0 1.129.045 1.465.129 1.436.305 1.715.984 1.797 2.394.088 1.404.088 2.641.088 9.501v7.747c0 4.3 0 7.696-.219 9.538-.162 1.168-.361 2.148-1.176 2.312-.49.107-.975.174-1.295.174-.354 0-.48.209-.48.389 0 .48.562.48.832.48l3.941-.125.197-.008.521.018 4.893.115c.688 0 .83-.262.83-.48 0-.18-.125-.389-.479-.389-.381 0-1.334-.086-1.963-.176-1.168-.154-1.467-.932-1.609-2.309-.219-1.844-.219-5.24-.219-9.54v-1.056c0-.208.086-.225.18-.225l5.414.087c.221 0 .324.067.484.228 0 .002 1.639 2.232 1.639 2.232l3.148 4.27.551.725c2.203 2.91 3.658 4.832 5.432 5.781 1.199.645 2.359.852 4.771.852h3.125c.648 0 1.184-.037 1.184-.48.0001-.21-.239-.388-.522-.388m-17.371-15.65c-1.049.729-2.346.814-3.23.814-1.912 0-3.916-.302-4.557-.687-.17-.102-.246-.231-.246-.42v-14.392c0-.2.092-.338.273-.411.408-.121 1.572-.255 2.902-.255 4.688 0 7.488 3.244 7.488 8.679.0001 3.049-.984 5.544-2.63 6.672m-208.95 15.65c-.26 0-.87 0-1.697-.133-1.18-.188-3.01-.717-5.298-3.131-2.243-2.396-4.854-5.75-7.878-9.632 0 0-1.075-1.38-1.2-1.539 3.6-3.347 5.283-6.584 5.283-10.18 0-3.053-1.942-5.263-3.09-6.088-2.411-1.729-5.462-1.962-8.13-1.962l-3.713.091-1.48.042-.586-.021-4.389-.111c-.27 0-.831 0-.831.479 0 .227.201.391.479.391.398 0 1.129.045 1.466.129 1.435.305 1.714.984 1.797 2.394.088 1.404.088 2.641.088 9.501v7.747c0 4.3 0 7.696-.219 9.538-.161 1.168-.361 2.15-1.176 2.312-.49.107-.974.174-1.295.174-.354 0-.479.201-.479.389 0 .48.562.48.831.48l3.944-.125.196-.008.52.018 4.893.115c.687 0 .831-.262.831-.48 0-.18-.126-.389-.479-.389-.379 0-1.334-.086-1.964-.176-1.167-.154-1.465-.932-1.606-2.309-.22-1.844-.22-5.24-.22-9.54v-1.056c0-.209.085-.227.181-.227l5.412.089c.221 0 .323.067.484.228 0 .002 1.647 2.245 1.647 2.245l3.14 4.257.561.74c2.198 2.9 3.65 4.818 5.424 5.766 1.197.645 2.356.852 4.77.852h3.125c.648 0 1.184-.037 1.184-.48-.002-.212-.24-.39-.526-.39m-17.371-15.65c-1.05.729-2.346.814-3.229.814-1.914 0-3.916-.302-4.558-.687-.17-.102-.245-.231-.245-.42v-14.392c0-.2.091-.339.271-.411.407-.121 1.57-.255 2.902-.255 4.688 0 7.488 3.244 7.488 8.679.0001 3.049-.982 5.543-2.629 6.672m-56.5-2.593l-1.232-.968c-3.993-3.269-5.322-4.781-5.322-7.295 0-2.979 2.125-4.979 5.287-4.979 3.754 0 5.02 1.585 5.391 2.266.254.465.514 1.625.558 2.15.038.311.084.69.479.69.4 0 .435-.588.435-1.139 0-2.35.108-3.748.155-4.345l.021-.323c0-.382-.272-.435-.567-.435-.317 0-.639-.033-1.514-.218-1.257-.302-2.567-.442-4.121-.442-5.612 0-9.238 3.159-9.238 8.05 0 2.951.981 5.722 5.769 9.651.0001 0 1.98 1.628 1.98 1.628 3.938 3.251 5.02 4.934 5.02 7.826 0 2.846-2.118 5.729-6.167 5.729-3.443 0-5.833-1.641-6.392-4.389-.128-.604-.128-1.205-.128-1.604 0-.258 0-.611-.437-.611-.372 0-.441.424-.478.82 0 .002-.039.527-.039.527-.068.887-.183 2.371-.183 4.148 0 1.207.054 1.449.731 1.787h.0001c1.657.809 3.605 1.201 5.954 1.201 2.642 0 4.965-.646 6.719-1.871 2.8-1.986 3.797-5.131 3.797-7.41 0-3.382-1.06-6.176-6.475-10.444m33.375 12.917c-.354 0-.445.346-.52.764-.306 1.783-.822 2.615-1.906 3.074-1.121.475-3.034.475-4.177.475-4.412 0-4.855-.617-4.979-3.488-.032-.662-.019-3.506-.008-5.584l.008-1.938v-3.873c0-.129.053-.181.181-.181.744 0 5.107.088 6.281.22 1.604.163 2 .823 2.181 1.447.171.558.171.976.171 1.418 0 .323.167.523.436.523.435 0 .435-.58.435-.964 0-.318.09-1.943.176-2.804 0-.0001.274-1.942.274-1.942l.079-.535c0-.418-.218-.479-.347-.479-.221 0-.397.203-.689.54l-.066.076c-.371.411-.997.491-1.984.573-.96.082-5.99.087-6.988.087-.092 0-.138 0-.138-.312v-12.15c0-.313.093-.313.138-.313.523 0 5.284.046 6.01.132 2.341.26 2.742.775 3.02 1.421.199.481.253 1.191.253 1.535 0 .464.161.698.479.698.312 0 .403-.439.433-.584.06-.354.116-1.281.161-2.027l.061-.893.261-1.531.093-.55c0-.432-.165-.522-.304-.522l-.403.126-.238.098c-.373.093-1.09.175-1.874.216-.996.044-9.703.045-10.07.045l-.588-.021-4.387-.111c-.27 0-.831 0-.831.479 0 .227.201.391.479.391.397 0 1.129.045 1.465.129 1.436.305 1.714.984 1.797 2.394.088 1.404.088 2.641.088 9.501v7.747c0 4.3 0 7.696-.219 9.538-.189 1.385-.434 2.164-1.175 2.312-.49.107-.974.174-1.297.174-.354 0-.479.209-.479.389 0 .48.562.48.832.48l2.559-.088 1.594-.039.161-.006 1.684.059c1.707.078 4.564.207 9.188.207 1.708 0 2.167 0 2.499-1.24.23-.961.577-3.959.577-4.303-.002-.317-.002-.79-.393-.79m102.12 5.326c-.432 0-1.08-.045-1.719-.26-.988-.281-2.195-1.072-3.709-4.812-1.916-4.773-5.973-15.372-8.398-21.704l-1.857-4.839c-.523-1.354-.727-1.665-1.086-1.665-.357 0-.551.319-1.088 1.801l-9.992 27.337c-.725 2.01-1.49 3.393-2.891 3.887-1.162-.283-2.762-.979-4.684-3.01-2.238-2.391-4.84-5.73-7.854-9.598 0 0-1.102-1.414-1.227-1.573 3.602-3.346 5.285-6.583 5.285-10.18 0-3.052-1.943-5.263-3.092-6.088-2.412-1.729-5.463-1.962-8.129-1.962l-3.711.091-1.484.042-.586-.021-4.387-.111c-.27 0-.832 0-.832.479 0 .227.201.391.479.391.398 0 1.131.045 1.467.129 1.436.305 1.713.984 1.797 2.394.088 1.405.088 2.641.088 9.501v7.747c0 4.3 0 7.696-.219 9.538-.162 1.168-.361 2.148-1.176 2.312-.49.107-.973.174-1.297.174-.354 0-.479.209-.479.389 0 .48.562.48.832.48l3.943-.125.195-.008.521.018 4.893.115c.686 0 .83-.262.83-.48 0-.18-.125-.389-.479-.389-.381 0-1.334-.086-1.963-.176-1.17-.154-1.467-.932-1.609-2.309-.219-1.844-.219-5.24-.219-9.54v-1.056c0-.209.086-.227.182-.227l5.412.089c.221 0 .324.067.484.227 0 .003 1.635 2.229 1.635 2.229l3.152 4.273.564.744c2.197 2.9 3.646 4.814 5.42 5.762 1.164.627 2.297.84 4.578.85.051.002.1.002.143.002h.008c.014 0 .025 0 .039 0h3.127c.363 0 .689-.014.908-.104l.891-.029 1.121.047 2.312.086c.523 0 .787-.162.787-.48 0-.178-.098-.389-.566-.389h-.439c-.598 0-1.547-.312-1.547-1.15 0-.783.217-1.814.607-2.906.002-.002 2.645-7.796 2.645-7.796.094-.233.213-.266.318-.266h9.465c.158 0 .209.049.281.194-.004-.001 4.09 10.818 4.09 10.818.119.32.133.607.037.809-.051.105-.133.184-.223.215-.324.08-.395.277-.395.428 0 .361.439.385 1.234.424l.205.012c.004 0 6.918.088 6.918.088.67 0 1.01-.162 1.01-.48.004-.391-.408-.391-.564-.391m-45.801-15.65c-1.051.729-2.346.814-3.23.814-1.914 0-3.916-.302-4.557-.687-.17-.102-.246-.231-.246-.42v-14.392c0-.199.092-.338.271-.411.408-.121 1.572-.255 2.902-.255 4.689 0 7.49 3.244 7.49 8.679.0001 3.049-.984 5.544-2.63 6.672m32.64 1.695h-8.408c-.021-.004-.037-.017-.037-.046 0-.021.008-.05.023-.089.002-.008 3.877-11.894 3.877-11.894.125-.375.211-.406.211-.407.002.003.086.043.209.408 0 .002 4.182 11.888 4.182 11.888 0 .015.012.131.012.131 0-.0001-.069.009-.069.009m48.651-10.638c-7.174 0-9.85 5.996-9.85 9.774 0 4.733 3.037 9.825 9.703 9.825 5.777 0 9.971-4.297 9.971-10.22 0-5.61-3.947-9.379-9.824-9.379m.517 18.422c-4.58 0-7.781-3.84-7.781-9.339 0-4.937 2.717-8 7.092-8 3.557 0 7.387 2.813 7.387 8.992 0 7.948-5.578 8.351-6.698 8.351m-23.755-18.08l-.469.002-2.742.059-.592.017-.328-.012-2.463-.063c-.152 0-.514 0-.514.317 0 .155.135.269.318.269l.811.069c.703.15.92.441.971 1.301.049.785.049 1.479.049 5.325v4.346c0 2.315 0 4.315-.123 5.347-.105.77-.23 1.178-.621 1.254-.002.002-.717.098-.717.098-.234 0-.316.143-.316.266 0 .318.361.318.514.318l2.02-.059.402-.016.672.047c1.127.088 3.223.25 4.811.25 3.154 0 5.771-.994 7.57-2.877 1.715-1.809 2.699-4.377 2.699-7.05 0-3.164-1.32-5.202-2.428-6.354-2.798-2.892-7.01-2.869-9.522-2.856m7.548 15.791c-1.439 1.438-3.551 2.262-5.795 2.262-2.857 0-3.807-.508-4.1-.936-.189-.26-.234-1.389-.25-1.812-.023-.449-.049-2.622-.049-5.355v-3.062l.023-5.256c0-.244.059-.314.225-.389.168-.083 1.031-.162 1.559-.162 3.225 0 5.816.469 7.988 2.754.873.916 2.338 2.931 2.338 6.141.0001 2.378-.761 4.661-1.939 5.815" style="fill:#231f20"/><g style="fill:#00a651"><path d="m216.5 7.303c-.487-3.175-3.03-5.187-6.465-5.955-1.436-.304-3.076-.454-4.812-.454-8.131 0-18.273 2.981-20.12 2.981-.229 0-1.076.167-.944.61.106.372.397.843 1.289 1.378.551.345 1.225.46 1.997.46 4.124 0 11.227-3.939 18.396-3.939 1.04 0 2.09.075 3.125.267 1.903.344 2.57 1.076 2.875 1.913 1.76 4.833-10.609 10.746-13.743 12.928-.455.305-.634.648-.592.916.041.27.263.46.688.46.191 0 .379-.037.638-.114.396-.137 2.769-1.224 4.228-1.596 2.208-.669 2.326-.085 4.54-1.028 6.757-2.879 9.372-5.763 8.902-8.827"/><path d="m199.83 7.201c-.107-.704-.426-1.283-.985-1.738-.409-.27-.681.512-.751.692-.497 1.266-2.998 4.073-5.164 7.321-1.978 2.943-3.694 6.31-3.267 9.102.293 1.912 1.477 3.098 2.788 3.864.886.495 1.523.878 1.87.878.346 0 .453-.306.43-.459-.022-.151-.156-.269-.543-.269-.423 0-.657-.267-.727-.727-.24-1.566 1.142-5.621 3.71-10.747 1.649-3.326 2.927-6.04 2.639-7.917"/><path d="m410.74 22.654c-.115 0-.324.155-.559.383-.992 1.069-2.396 2.754-3.359 2.754-.078 0-.211-.114-.223-.191-.365-2.371 7.43-16.14 6.832-20.04-.041-.268-.113-.498-.543-1.031-.238-.309-1.436-.411-1.699.415-.998 2.277-6.1 9.485-7.242 15.253-1.27 1.524-3.143 3.666-4.045 4.453-.135.114-.621.534-.738.534-.193 0-.352-.18-.35-.385 0-.116-.002-.269.012-.421.285-1.368 1.631-3.824 2.029-5.196.514-2 .477-4.323-.094-5.159-1.234-2.027-2.342-2.611-3.42-2.611-.502 0-.877.075-1.629.458-1.779.89-6.115 4.04-8.336 8.136-.268.166-.686.544-1.246 1.198-1.17 1.415-3.211 3.939-3.943 3.939-.117 0-.168-.076-.184-.191-.023-.152-.016-.345.061-.612.322-1.415 1.398-3.441 1.934-5.238.023-.075.037-.151.057-.228.039-.141.078-.281.105-.423.002-.006.004-.011.006-.016l-.002-.0001c.123-.621.156-1.239.061-1.858-.209-1.378-1.619-2.026-2.318-2.065-.309 0-.363.153-.363.649-.004.163-.16.958-.557 1.733-.074.143-2.582 3.662-4.994 5.306-.293.201-1.059.879-1.408.879-.111 0-.203-.077-.225-.228-.029-.193.037-.499.162-.957.201-.645.877-1.646 1.553-2.767.004-.006.008-.012.001-.017 1.01-1.812 1.455-3.123 1.455-3.123.117-.475.17-.935.105-1.36-.146-.952-.934-1.837-2.689-2.241-.152-.036-.553.221-.498.558.043.255-.291.968-.77 1.938h-.002c-.305.618-.67 1.345-1.035 2.121-.055.119-.111.239-.168.361-.031.072-.064.142-.098.215-.001.022-.021.045-.031.068h.002c-.42.931-.816 1.913-1.102 2.872-1.461 1.846-3.797 4.495-4.645 4.817-.182.077-.33.113-.408.113-.115 0-.199-.036-.25-.381-.264-1.722 2.479-12.735 7.258-17.746.59-.539.744-1.185.414-1.464-.699-.591-1.859-1.139-2.775-1.139-1.156 0-3.123 4.514-5.072 8.644-.082.184-.246.454-.484.81-.879-2.453-4.166-2.109-4.166-2.109l.001.009c-.035-.002-.074-.009-.107-.009-.346 0-.648.039-.934.191-1.428.735-4.164 4.478-5.424 8.117-1.258 1.507-3.01 3.512-3.891 4.279-.135.114-.623.534-.738.534-.193 0-.352-.18-.35-.385 0-.116-.002-.269.012-.421.285-1.368 1.631-3.824 2.029-5.196.514-2 .477-4.323-.094-5.159-1.234-2.027-2.342-2.611-3.422-2.611-.5 0-.875.075-1.627.458-1.799.898-6.211 4.108-8.408 8.274 0 .002-.002.004-.004.007-.125.075-.273.192-.441.364-3.189 3.327-5.619 5.315-6.662 5.315-.346 0-.529-.19-.588-.573-.223-1.453.973-4.207 3.584-10.06.094-.152.191-.269.383-.269 1.877-.076 4.266-.076 5.281-.494.4-.155.596-.385.574-.538-.025-.152-.191-.228-.537-.228-.926 0-2.705-.041-4.592-.041-.309 0-.355-.036-.293-.15 1.078-2.258 1.414-3.597 1.25-4.668-.119-.768-.518-1.264-1.059-1.627-.777-.291-.895.43-.928.548-.273.957-1.742 3.857-3.242 5.938-.695 0-1.277-.041-2.896-.041-.502 0-.748.155-.713.384.016.114.111.229.25.383.322.344.561.382 1.498.458.389.039.621.039 1.123.039-.982 1.385-1.641 2.535-2.258 3.997-1.205 1.111-3.219 2.786-3.895 3.308.037-1.76-1.629-2.753-2.705-3.747-.184-.191-.279-.309-.305-.46-.062-.421.746-.688 1.963-1.301 1.105-.573 1.645-1.071 1.551-1.684-.059-.38-.354-.802-.904-1.377-1.102-1.147-1.451-1.412-1.68-1.412-.156 0-.254.114-.436.189-2.824 1.187-3.617 2.294-3.434 3.479.188 1.226 1.562 2.41 2.658 3.52.271.268.369.581.436.842 1.109 4.141-3.664 4.169-4.803 5.546-.293.344-.875.651-.83.956.043.268.188.461.443.612.42.23 1.055.344 1.822.344 2.625 0 6.656-1.34 6.34-3.901-.02-.128 1.609-1.563 2.977-2.939-.342 1.137-.42 2-.277 2.939.416 2.714 3.037 3.481 4.04 3.481 2.072 0 4.088-2.107 6.486-5.197-.061.188-.127.377-.176.568-.002.004-.002.008-.002.012-.031.143-.053.294-.061.45 0 .014-.002.026-.002.039-.006.142 0 .286.02.43.002.021 0 .042.002.063.121.784.564 1.587 1.148 2.194.406.423.881.745 1.365.906.215.07.43.112.641.112h.002c.076 0 .154-.008.232-.019.312-.04.625-.164.891-.439 2.287-2.18 4.693-5.263 6.426-7.448.104-.073.182-.073.258-.073.115 0 .166.073.178.151.018.115-.037.267-.121.459-.836 1.838-.984 2.971-.816 4.081.258 1.682.959 2.458 1.873 2.759.471.154 1.426.022 1.777-.305.477-.441 1.75-1.887 3.113-3.458-.053.328-.096.652-.105.965-.076 1.53 2.316 3.059 3.588 3.059.232 0 .459-.036.594-.15 1.363-.92 4.773-6.579 5.719-8.454.146-.305.283-.421.398-.421.076 0-.037.269-.084.46-.572 2.065-1.377 4.091-1.055 6.196.293 1.911 1.807 2.486 2.77 2.486.309 0 .568-.077.709-.153.938-.564 2.789-2.521 4.23-4.293-.062.519-.07 1.01 0 1.463.281 1.835 1.789 2.368 2.443 2.368 2.197 0 4.4-3.977 6.588-6.04.236-.229.336-.344.373-.344.039 0 .045.036-.043.229-.682 1.567-.881 2.793-.734 3.749.152.994.693 1.758 1.424 2.258.344.229.67.343 1.016.343 1.75 0 3.412-2.681 4.547-4.205-.061.19-.129.379-.178.571-.004.021-.004.042-.008.062-.025.122-.043.249-.051.38-.002.026-.004.051-.004.078-.006.129 0 .262.018.395.002.026-.002.053.002.08.244 1.568 1.768 3.213 3.154 3.213h.002c.08 0 .162-.008.244-.02.309-.042.617-.167.881-.438 2.285-2.18 4.691-5.263 6.424-7.448.104-.073.182-.073.26-.073.113 0 .164.073.178.151.016.115-.039.267-.123.459-.836 1.838-.982 2.971-.816 4.081.26 1.682.959 2.458 1.873 2.759.471.154 1.426.022 1.779-.305.535-.495 2.074-2.259 3.617-4.04-.018.497-.008.98.062 1.436.141.918.502 1.762 1.068 2.447.568.69 1.193.995 1.85.995 1.119 0 2.432-1.26 3.771-3.326.283-.423.357-.688.34-.804-.005-.036-.05-.076-.087-.076m-62.75-5.666c-1.543 1.178-4.02 3.761-5.629 5.245-.109.099-.205.17-.295.231-.086.059-.162.101-.232.131-.012.005-.023.012-.035.016-.07.027-.133.043-.182.043-.102 0-.182-.039-.25-.094-.113-.091-.188-.236-.211-.404-.014-.082-.001-.164-.002-.245.004-.021.006-.041.008-.062.016-.089.037-.178.061-.267.014-.044.035-.09.053-.135.031-.084.066-.17.104-.256.049-.109.102-.222.16-.334l-.002-.006-.002-.002c1.439-2.898 5.35-6.212 7.615-6.395.57.152.504.885.262 1.123-.203.203-.804.797-1.423 1.411m15.972-1.018l.045-.024c-1.045 1.397-2.553 3.343-4.557 5.945-.902 1.146-1.15 1.3-1.418 1.3-.078 0-.16-.039-.197-.269-.035-.229.049-.688.209-1.146 1.311-4.105 3.488-7.45 5.164-7.669 1.6.729.754 1.863.754 1.863m33.15 1.018c-1.543 1.178-4.02 3.761-5.631 5.245-.273.247-.486.366-.641.403-.037.001-.074.018-.104.018-.092 0-.166-.033-.23-.079-.125-.089-.203-.242-.23-.419-.031-.19.02-.381.064-.573.049-.144.113-.292.18-.44.129-.288.289-.583.475-.882-.002-.004-.004-.001-.006-.014 1.672-2.771 5.172-5.621 7.283-5.791.568.152.502.885.262 1.123-.204.201-.805.795-1.422 1.409"/><path d="m313.74 25.866c-4.283.959-7.502 1.342-9.773 1.342-3.045 0-4.5-.692-4.652-1.686-.326-2.143 5.332-5.697 13.412-6.541.533-.038.672-.151.627-.418-.215-1.417-1.398-3.865-3.178-3.636-.676.089-1.787.333-3.08.719-1.766-.177-5.223-.297-7.217-1.022-1.043-.381-1.627-1.29-1.697-1.75-.414-2.715 13.359-8.503 19.75-8.03 1.424.104 1.928.722 2.125 1.311.119.351.797.686 1.26.205.465-.48.781-1.07.889-1.95.129-1.039-1.25-4-5.371-3.935-4.975.079-22.08 4.857-21.11 11.207.117.766.512 1.567 1.258 2.409 1.252 1.378 3.357 1.948 5.422 2.193.771.092 1.596.162 2.377.149-3.883 1.483-8.102 3.986-7.594 7.297.082.533.279 1.07.594 1.605 1.479 2.601 3.908 3.633 6.607 3.633 3.045 0 6.473-1.262 9.5-2.639.221-.077.383-.269.365-.381-.007-.037-.069-.191-.517-.078"/><path d="m286.94 18.294c-.076 0-.146.038-.213.113-2.043 2.526-8.158 6.718-10.508 6.718-.5 0-.916-.19-.92-.955.016-.789.129-1.524.307-2.213.246-.058.555-.141.941-.26 2.135-.656 6.967-2.915 7.084-5.082.012-.243.023-.66-.168-1.012-.395-.726-1.844-1.938-3.648-2.817-.293-.152-.576-.229-.883-.229-2.16 0-4.611 3.862-5.688 6.386-.209.489-.311.746-.439 1.272-.139.131-.756 1.116-1.332 1.685-1.174 1.418-2.742 3.24-3.363 3.24-.119 0-.166-.076-.186-.191-.023-.152-.012-.345.062-.612.322-1.415 1.398-3.441 1.934-5.238.256-.845.355-1.685.229-2.525-.211-1.378-1.621-2.026-2.32-2.065-.309 0-.363.153-.363.649-.004.229-.314 1.722-1.176 2.639-.953 1.071-1.617 2.029-4.375 4.4-.275.229-1.059.879-1.406.879-.115 0-.203-.077-.227-.229-.029-.192.037-.498.16-.956.465-1.493 3.49-4.896 3.125-7.267-.145-.952-.932-1.837-2.688-2.241-.154-.036-.555.221-.498.558.104.626-2.049 3.993-3.088 7.191-1.529 1.337-3.637 2.776-5.35 3.59 1.902-2.869 3.354-6.785 3.156-8.755-.109-1.224-2.121-2.791-3.053-3.327-.17-.114-.414-.191-.607-.191-.191 0-.381.036-.516.153-1.676 1.177-3.527 3.456-4.934 6-1.793 1.675-4.82 4.584-6.248 5.774-.242.193-.385.269-.461.269s-.08-.039-.086-.075c-.031-.193.055-.383.109-.536.225-.535.799-1.568 1.268-2.792.332-.842.646-2.065.523-2.869-.059-.381-.227-.727-.492-.956-1-.766-1.725-1.187-2.689-1.187-.693 0-1.473.192-2.564.613-.109.037-.219.076-.297.076-.115 0-.205-.076-.215-.154-.012-.075.053-.152.188-.267 1.049-.955 1.529-1.606 1.416-2.333-.088-.574-.705-1.339-1.781-2.334-.096-.114-.34-.19-.531-.19-.193 0-.379.04-.484.114-2.09 1.456-2.855 2.486-2.65 3.824.107.69.498 1.493 1.141 2.412.102.153-1.861 2.527-2.875 3.652-1.264 1.529-2.599 3.169-3.551 4-.135.114-.622.534-.738.534-.193 0-.352-.18-.35-.385 0-.116-.0001-.269.012-.421.286-1.368 1.631-3.824 2.03-5.196.514-2 .476-4.323-.095-5.159-1.234-2.027-2.341-2.611-3.421-2.611-.501 0-.875.075-1.628.458-2.146 1.073-8.03 5.433-9.406 10.787-.066.305-.092.65-.042.994.243 1.568 1.768 3.213 3.154 3.213.387 0 .792-.114 1.125-.458 2.286-2.18 4.693-5.263 6.425-7.448.104-.073.182-.073.259-.073.114 0 .165.073.178.151.017.115-.038.267-.122.459-.836 1.838-.983 2.971-.815 4.081.258 1.682.959 2.458 1.873 2.759.47.154 1.425.022 1.777-.305 1.125-1.043 6.688-7.677 7.388-8.36.232-.232.521-.44.9-.618.723-.34 2.465-1.087 3.352-1.087.385 0 .484.152.508.307.066.419-.645 1.567-1.334 2.599-1.189 1.799-1.887 2.793-2.117 3.787-.143.573-.221 1.072-.145 1.569.123.803.545 1.299 1.598 2.14.529.422.816.536 1.162.536.541 0 1.297-.343 2.105-1.109.932-.922 3.352-3.688 5.535-6.03-.543 1.322-.828 2.548-.688 3.465.039.268.133.612.281.842.297.421.9 1.34 1.086 1.53.189.229.371.421.381.495.02.118-.123.193-.387.231-.605.077-1.391.23-1.887.765-.164.191-.213.383-.182.574.057.382.547.803 1.049.803.191 0 .455-.039.619-.23.424-.497.973-.688 1.551-.688 3.354 0 9.318 6.234 15.678 6.234 2.391 0 4.803-.841 7.209-3.252.164-.191.289-.382.266-.536-.006-.036-.051-.074-.088-.074s-.148.038-.248.154c-.98 1.146-2.496 1.567-4.268 1.567-5.357 0-13.07-4.054-15.768-4.553-.236-.037-.326-.114-.338-.191-.016-.114.121-.229.152-.267.184-.123.369-.266.555-.425 2.193-.091 4.926-2.099 6.961-4.283-.109.605-.154 1.603.008 2.059.619 1.752 1.762 2.111 2.416 2.111 2.197 0 4.4-3.977 6.59-6.04.234-.228.334-.343.371-.343s.043.036-.043.229c-.684 1.567-.881 2.793-.738 3.747.156.996.695 1.76 1.428 2.26.344.227.67.343 1.016.343 1.799 0 3.461-2.628 4.6-4.126-.025.429.027.65.092 1.065.111.726.379 1.454.902 2.104.949 1.184 1.939 1.605 3.135 1.605 3.775 0 8.49-4.704 10.467-8.146.059-.115.08-.229.068-.307-.016-.113-.106-.19-.184-.19m-6.487-2.601c.322-.153.602-.344.871-.344.191 0 .35.076.379.459.115 1.514-2.281 4.117-5.732 5.02 1.076-2.731 3.195-4.485 4.482-5.131m-57.53 1.295c-1.543 1.178-4.02 3.761-5.63 5.245-.339.307-.591.421-.744.421-.27 0-.422-.229-.462-.498-.029-.19.018-.381.066-.573 1.01-2.984 5.47-6.929 7.93-7.127.57.152.503.885.262 1.123-.202.201-.804.795-1.422 1.409m25.31 6.965c-.246.153-.498.271-.613.271s-.127-.079-.145-.193c-.018-.113-.004-.269.043-.457 1.199-3.748 2.484-5.93 3.557-7.229 1.432-1.721 2.725-1.837 2.842-1.837.152 0 .164.075.176.153.023.153.001.306-.039.496-.195.995-1.691 4.553-3.814 7.04-.628.687-1.3 1.338-2.01 1.757"/></g><g style="fill:#e54e26"><path d="m148.89 100.16c0-3.15 0-3.73-.042-4.395-.042-.704-.249-1.057-.705-1.16-.228-.062-.497-.083-.746-.083-.207 0-.332-.042-.332-.207 0-.125.166-.166.498-.166.788 0 2.093.062 2.694.062.519 0 1.741-.062 2.529-.062.27 0 .436.041.436.166 0 .165-.125.207-.332.207-.207 0-.373.021-.622.062-.56.104-.726.456-.767 1.181-.042.664-.042 1.244-.042 4.395v3.648c0 2.01 0 3.647.083 4.539.062.56.208.933.829 1.016.29.041.746.083 1.057.083.228 0 .332.062.332.165 0 .146-.166.208-.394.208-1.368 0-2.674-.062-3.233-.062-.477 0-1.783.062-2.612.062-.27 0-.415-.062-.415-.208 0-.104.083-.165.332-.165.311 0 .56-.042.746-.083.415-.083.539-.436.601-1.037.104-.87.104-2.508.104-4.518v-3.648z"/><path d="m168.47 95.31l-3.088.083c-1.202.042-1.699.146-2.01.602-.208.311-.311.56-.353.726s-.104.248-.228.248c-.145 0-.187-.104-.187-.331 0-.332.394-2.218.436-2.384.062-.27.124-.394.249-.394.166 0 .373.207.891.248.601.062 1.389.104 2.073.104h8.208c1.327 0 1.824-.208 1.99-.208.145 0 .166.125.166.436 0 .436-.062 1.865-.062 2.404-.021.207-.062.332-.187.332-.166 0-.208-.104-.228-.415l-.021-.228c-.042-.539-.601-1.119-2.446-1.161l-2.611-.062v8.499c0 1.906 0 3.544.104 4.436.062.58.187 1.036.808 1.119.291.041.746.083 1.057.083.228 0 .332.062.332.165 0 .146-.166.208-.394.208-1.368 0-2.674-.062-3.254-.062-.477 0-1.782.062-2.611.062-.27 0-.415-.062-.415-.208 0-.104.083-.165.332-.165.311 0 .56-.042.746-.083.415-.083.539-.539.601-1.141.104-.87.104-2.508.104-4.414v-8.499z"/><path d="m187 100.16c0-3.15 0-3.73-.041-4.395-.042-.704-.208-1.036-.892-1.181-.166-.042-.519-.062-.809-.062-.228 0-.353-.042-.353-.187 0-.146.146-.187.456-.187 1.099 0 2.404.062 3.03.062.498 0 1.804-.062 2.55-.062.311 0 .456.041.456.187 0 .145-.125.187-.332.187-.228 0-.353.021-.601.062-.56.104-.726.456-.768 1.181-.041.664-.041 1.244-.041 4.395v2.901c0 3.01.601 4.271 1.616 5.1.934.767 1.887.85 2.592.85.911 0 2.031-.29 2.86-1.119 1.14-1.141 1.202-3.01 1.202-5.141v-2.591c0-3.15 0-3.73-.042-4.395-.041-.704-.207-1.036-.892-1.181-.165-.042-.518-.062-.746-.062-.228 0-.352-.042-.352-.187 0-.146.145-.187.435-.187 1.058 0 2.363.062 2.384.062.249 0 1.555-.062 2.363-.062.29 0 .435.041.435.187 0 .145-.124.187-.373.187-.228 0-.352.021-.601.062-.56.104-.726.456-.767 1.181-.042.664-.042 1.244-.042 4.395v2.218c0 2.301-.228 4.746-1.969 6.239-1.472 1.264-2.964 1.492-4.312 1.492-1.099 0-3.088-.062-4.602-1.431-1.057-.953-1.845-2.487-1.845-5.492v-3.03z"/><path d="m215.77 95.31l-3.089.083c-1.202.042-1.699.146-2.01.602-.207.311-.311.56-.352.726-.042.166-.104.248-.229.248-.145 0-.187-.104-.187-.331 0-.332.394-2.218.436-2.384.062-.27.124-.394.249-.394.165 0 .373.207.891.248.602.062 1.389.104 2.073.104h8.208c1.326 0 1.823-.208 1.989-.208.146 0 .166.125.166.436 0 .436-.062 1.865-.062 2.404-.021.207-.062.332-.187.332-.166 0-.207-.104-.228-.415l-.021-.228c-.042-.539-.602-1.119-2.446-1.161l-2.611-.062v8.499c0 1.906 0 3.544.104 4.436.062.58.187 1.036.809 1.119.29.041.746.083 1.057.083.229 0 .332.062.332.165 0 .146-.166.208-.395.208-1.367 0-2.673-.062-3.254-.062-.477 0-1.782.062-2.611.062-.27 0-.415-.062-.415-.208 0-.104.083-.165.332-.165.311 0 .56-.042.746-.083.415-.083.539-.539.602-1.141.104-.87.104-2.508.104-4.414v-8.499"/><path d="m235.19 100.16c0-3.15 0-3.73-.042-4.395-.041-.704-.248-1.057-.704-1.16-.229-.062-.498-.083-.746-.083-.208 0-.332-.042-.332-.207 0-.125.166-.166.497-.166.788 0 2.094.062 2.695.062.518 0 1.741-.062 2.528-.062.27 0 .436.041.436.166 0 .165-.125.207-.332.207s-.373.021-.622.062c-.56.104-.725.456-.767 1.181-.041.664-.041 1.244-.041 4.395v3.648c0 2.01 0 3.647.083 4.539.062.56.207.933.829 1.016.29.041.746.083 1.057.083.228 0 .332.062.332.165 0 .146-.166.208-.395.208-1.367 0-2.674-.062-3.233-.062-.477 0-1.782.062-2.611.062-.27 0-.414-.062-.414-.208 0-.104.082-.165.331-.165.311 0 .56-.042.746-.083.415-.083.539-.436.602-1.037.104-.87.104-2.508.104-4.518v-3.648z"/><path d="m253.18 107c.042 1.617.312 2.155.726 2.301.353.124.746.146 1.078.146.228 0 .353.041.353.165 0 .166-.187.208-.477.208-1.348 0-2.177-.062-2.57-.062-.187 0-1.161.062-2.239.062-.269 0-.455-.021-.455-.208 0-.124.124-.165.331-.165.27 0 .643-.021.933-.104.539-.165.622-.767.643-2.569l.187-12.271c0-.415.062-.705.27-.705.229 0 .415.27.767.643.249.27 3.399 3.648 6.426 6.653 1.409 1.409 4.208 4.395 4.561 4.726h.104l-.208-9.307c-.021-1.264-.207-1.658-.704-1.865-.312-.124-.809-.124-1.099-.124-.249 0-.332-.062-.332-.187 0-.166.229-.187.539-.187 1.078 0 2.073.062 2.508.062.229 0 1.016-.062 2.031-.062.27 0 .477.021.477.187 0 .124-.124.187-.373.187-.207 0-.373 0-.621.062-.581.165-.746.601-.768 1.762l-.228 13.08c0 .456-.083.643-.27.643-.229 0-.477-.228-.705-.456-1.306-1.243-3.959-3.958-6.114-6.094-2.259-2.238-4.56-4.829-4.933-5.223h-.062l.224 8.704"/><path d="m291.59 108.43c0 .56-.021.601-.27.746-1.347.704-3.378.933-4.995.933-5.078 0-9.576-2.404-9.576-8.125 0-3.316 1.721-5.638 3.606-6.778 1.99-1.202 3.835-1.347 5.576-1.347 1.43 0 3.254.248 3.669.331.435.083 1.16.208 1.637.229.249.021.291.104.291.248 0 .229-.146.809-.146 3.399 0 .332-.062.436-.229.436-.145 0-.187-.104-.207-.27-.062-.477-.166-1.14-.704-1.721-.622-.663-2.28-1.616-4.623-1.616-1.14 0-2.652.083-4.104 1.285-1.161.974-1.907 2.528-1.907 5.078 0 4.456 2.84 7.793 7.214 7.793.538 0 1.264 0 1.762-.228.311-.146.394-.415.394-.767v-1.949c0-1.036 0-1.823-.021-2.445-.021-.705-.208-1.036-.892-1.182-.166-.041-.519-.062-.809-.062-.187 0-.311-.041-.311-.165 0-.166.145-.208.436-.208 1.077 0 2.383.062 3 .062.643 0 1.741-.062 2.425-.062.27 0 .415.042.415.208 0 .124-.124.165-.27.165-.166 0-.311.021-.56.062-.56.104-.767.456-.788 1.182-.021.622-.021 1.451-.021 2.487v2.281z"/><path d="m305.67 104.41c-.104 0-.146.042-.187.166l-1.119 2.964c-.208.519-.312 1.016-.312 1.265 0 .373.187.643.829.643h.312c.248 0 .311.041.311.165 0 .166-.124.208-.353.208-.663 0-1.555-.062-2.197-.062-.228 0-1.367.062-2.445.062-.27 0-.394-.042-.394-.208 0-.124.083-.165.248-.165.187 0 .477-.021.643-.042.954-.124 1.348-.829 1.762-1.865l5.203-13.02c.248-.602.373-.829.58-.829.187 0 .311.187.519.663.497 1.14 3.813 9.597 5.14 12.747.788 1.865 1.389 2.156 1.824 2.26.311.062.622.083.871.083.165 0 .269.021.269.165 0 .166-.187.208-.953.208-.746 0-2.259 0-3.917-.042-.373-.021-.622-.021-.622-.166 0-.124.083-.165.29-.187.146-.041.29-.228.187-.477l-1.658-4.394c-.041-.104-.104-.146-.207-.146h-4.624m4.229-1.035c.104 0 .124-.062.104-.125l-1.865-5.119c-.021-.083-.042-.187-.104-.187-.062 0-.104.104-.124.187l-1.907 5.099c-.021.083 0 .146.083.146h3.813z"/><path d="m340.49 100.16c0-3.15 0-3.73-.042-4.395-.041-.704-.207-1.036-.891-1.181-.166-.042-.519-.062-.809-.062-.229 0-.353-.042-.353-.187 0-.146.146-.187.456-.187 1.099 0 2.404.062 2.984.062.851 0 2.053-.062 3.01-.062 2.591 0 3.523.87 3.855 1.182.456.435 1.036 1.367 1.036 2.466 0 2.943-2.155 5.02-5.099 5.02-.104 0-.332 0-.436-.021-.104-.021-.249-.042-.249-.188 0-.165.146-.228.581-.228 1.16 0 2.777-1.306 2.777-3.42 0-.684-.062-2.072-1.224-3.109-.746-.684-1.596-.808-2.072-.808-.311 0-.622.021-.809.082-.104.042-.166.166-.166.395v8.291c0 1.906 0 3.544.104 4.436.062.58.187 1.036.808 1.119.29.041.746.083 1.058.083.228 0 .331.062.331.165 0 .146-.165.208-.394.208-1.368 0-2.674-.062-3.213-.062-.477 0-1.782.062-2.611.062-.27 0-.414-.062-.414-.208 0-.104.082-.165.331-.165.311 0 .56-.042.746-.083.415-.083.519-.539.602-1.141.104-.87.104-2.508.104-4.414v-3.647z"/><path d="m361.53 100.16c0-3.15 0-3.73-.042-4.395-.041-.704-.248-1.057-.704-1.16-.229-.062-.498-.083-.746-.083-.208 0-.332-.042-.332-.207 0-.125.166-.166.497-.166.788 0 2.094.062 2.695.062.518 0 1.741-.062 2.528-.062.27 0 .436.041.436.166 0 .165-.125.207-.332.207s-.373.021-.622.062c-.56.104-.725.456-.767 1.181-.041.664-.041 1.244-.041 4.395v3.648c0 2.01 0 3.647.083 4.539.062.56.207.933.829 1.016.29.041.746.083 1.057.083.228 0 .332.062.332.165 0 .146-.166.208-.395.208-1.367 0-2.674-.062-3.233-.062-.477 0-1.782.062-2.611.062-.27 0-.414-.062-.414-.208 0-.104.082-.165.331-.165.311 0 .56-.042.746-.083.415-.083.539-.436.602-1.037.104-.87.104-2.508.104-4.518v-3.648z"/><path d="m380.95 103.81c0 2.652 0 4.083.436 4.456.352.311.891.456 2.508.456 1.099 0 1.906-.021 2.425-.581.249-.269.497-.85.539-1.243.021-.187.062-.311.228-.311.146 0 .166.104.166.352 0 .229-.145 1.783-.311 2.384-.125.456-.229.56-1.306.56-2.985 0-4.354-.124-6.03-.124-.477 0-1.782.062-2.611.062-.27 0-.414-.062-.414-.208 0-.104.082-.165.331-.165.311 0 .56-.042.746-.083.415-.083.519-.539.602-1.141.104-.87.104-2.508.104-4.414v-3.648c0-3.15 0-3.73-.042-4.395-.041-.704-.207-1.036-.891-1.181-.166-.042-.415-.062-.685-.062-.228 0-.353-.042-.353-.187 0-.146.146-.187.456-.187.975 0 2.28.062 2.84.062.498 0 2.01-.062 2.819-.062.29 0 .435.041.435.187 0 .145-.124.187-.373.187-.228 0-.56.021-.808.062-.56.104-.726.456-.768 1.181-.041.664-.041 1.244-.041 4.395v3.648"/><path d="m396.1 101.98c0-3.545 2.343-8.125 8.561-8.125 5.161 0 8.374 3 8.374 7.752 0 4.746-3.316 8.498-8.581 8.498-5.95 0-8.354-4.456-8.354-8.125m14.03.394c0-4.643-2.674-7.524-6.072-7.524-2.384 0-5.1 1.327-5.1 6.488 0 4.312 2.384 7.731 6.363 7.731 1.452 0 4.809-.705 4.809-6.695m-5.969-10.405c-.373-.207-.768-.456-1.327-.456-.808 0-1.243.56-1.409.746-.187.187-.249.208-.332.208-.082 0-.145-.062-.145-.146 0-.104.104-.311.166-.394.311-.498 1.16-1.596 2.155-1.596.726 0 1.182.311 1.658.58.519.29.995.456 1.492.456.746 0 1.182-.519 1.265-.622.124-.166.228-.27.332-.27.082 0 .165.062.165.166s-.062.228-.124.353c-.187.353-1.058 1.555-2.031 1.555-.87.0001-1.43-.352-1.865-.58"/><path d="m425.03 100.16c0-3.15 0-3.73-.042-4.395-.041-.704-.207-1.036-.891-1.181-.166-.042-.519-.062-.809-.062-.229 0-.353-.042-.353-.187 0-.146.146-.187.456-.187 1.099 0 2.404.062 2.984.062.664 0 4.788 0 5.183-.021.394-.041.725-.083.891-.124.104-.021.229-.083.332-.083s.124.083.124.187c0 .146-.104.394-.166 1.348-.021.207-.062 1.119-.104 1.368-.021.104-.062.228-.207.228s-.187-.104-.187-.29c0-.146-.021-.498-.124-.746-.146-.373-.353-.622-1.389-.746-.353-.042-2.529-.083-2.943-.083-.104 0-.146.062-.146.207v5.244c0 .145.021.228.146.228.456 0 2.839 0 3.316-.041.497-.042.808-.104.994-.312.146-.165.229-.269.332-.269.083 0 .146.041.146.165 0 .125-.104.456-.166 1.514-.042.414-.083 1.243-.083 1.389 0 .166 0 .394-.187.394-.146 0-.187-.083-.187-.187-.021-.207-.021-.477-.083-.746-.104-.415-.394-.726-1.161-.809-.394-.041-2.445-.062-2.943-.062-.104 0-.124.082-.124.207v1.638c0 .704-.021 2.611 0 3.212.042 1.431.373 1.741 2.487 1.741.539 0 1.409 0 1.948-.248.539-.249.788-.685.933-1.534.042-.229.083-.311.229-.311.166 0 .166.165.166.373 0 .477-.166 1.886-.27 2.3-.146.539-.332.539-1.119.539-3.13 0-4.519-.124-5.742-.124-.477 0-1.782.062-2.611.062-.27 0-.414-.062-.414-.208 0-.104.082-.165.331-.165.311 0 .56-.042.746-.083.415-.083.519-.539.602-1.141.104-.87.104-2.508.104-4.414v-3.647z"/><path d="m444.45 109.57c-.331-.146-.394-.249-.394-.705 0-1.14.083-2.383.104-2.715.021-.311.083-.539.249-.539.187 0 .207.187.207.353 0 .27.083.705.187 1.057.456 1.534 1.679 2.094 2.964 2.094 1.866 0 2.778-1.265 2.778-2.363 0-1.016-.312-1.989-2.031-3.316l-.954-.746c-2.28-1.782-3.067-3.233-3.067-4.912 0-2.28 1.907-3.917 4.788-3.917 1.347 0 2.218.207 2.757.353.187.041.29.104.29.248 0 .27-.083.871-.083 2.487 0 .456-.062.622-.229.622-.145 0-.207-.124-.207-.373 0-.187-.104-.829-.539-1.368-.311-.394-.912-1.016-2.259-1.016-1.534 0-2.467.892-2.467 2.135 0 .954.477 1.679 2.197 2.985l.58.435c2.487 1.928 3.399 3.316 3.399 5.286 0 1.202-.456 2.632-1.948 3.606-1.036.663-2.197.85-3.296.85-1.201-.002-2.134-.147-3.03-.541"/></g><path d="m267.71 80.78c-48.08-2.314-76.25-2.092-92.32-2.717-16.09-.479-20.14-1-20.14-1-6.361-.807-11.563.047-11.564 1.914 0 1.867 5.362 3.361 11.916 3.307 75.34-2.463 150.47 4.201 226 2.486 6.557-.121 17.277-.225 23.828-.23 12.998-.002 26-.145 39.01-.516 6.566-.188 11.824-2.031 11.686-3.996-.141-1.973-5.219-2.32-11.326-.859-.004-.045-2.535.744-25.938 2.111-23.393 1.238-67.743 3.334-151.16-.5" style="fill:#ffcb05"/><path d="m56.927 12.177c.376 1.889-.616 3.602-2.216 3.823-1.6.225-3.204-1.125-3.579-3.02-.377-1.889.616-3.6 2.214-3.824 1.602-.223 3.204 1.127 3.581 3.02" style="fill:#e54e26"/><path d="m67.58 108.01c-.796-.397-2.401-6.26-1.844-8.17.56-1.911.775-17.693 1.492-18.728 0 0-2.164-1.229-9.601-5.719-4.234-2.556-5.07-4.346-12.313-8.691-11.903-7.141-11.77-6.337-16.02-8.209-3.619-1.592-14.668-9.422-16.334-10.249-4.762-2.364-9.62-4.24-10.7-5.511-.553 3.03-1.241 6.174-1.241 8.362 0 3.997 1.677 7.776 1.677 11.777 0 2.127-1.671 6.598-1.671 8.725 0 1.971 1.055 4.341 1.055 6.312 0 4.02-.572 6.418-.531 10.505.042 4.199-1.743 9-1.121 13.147.497 3.318-.621 4.696 2.206 7.521 2.034 2.031 5.176 1.342 7.674.908 3.391-.586 4.879.667 8.01 1.265 3.02.577 6.503-.411 9.59-.354 2.5.046 4.453.258 6.685-.994 2.865-1.606 9.791-.082 12.833-.346 3.499-.306 10.592-1.282 14.01-.498 6.02 1.378 3.85 2.127 9.986 2.127.535 0 1.091-.011 1.664-.031-.136-.127-.266-.279-.495-.438-.639.476-5.081-1.072-5.02-2.711" style="fill:#00a651"/><path d="m102.38 103.33c-1.587-1.1-10.428-5.54-13.358-8.376-1.369 4.575-2.93 8.915-3.125 10.277-.4 2.787-2.693 4.108-3.921 4.33-.451.308-1.199.721-2.064 1.109 1.996-.179 3.947-.361 5.669-.468 1.866-.116 3.719-.702 5.601-.337 1.707.331 2.981 1.662 4.788 1.662 6.133 0 11.671.03 12.789-4.564-1.795-.96-5.184-2.805-6.379-3.633" style="fill:#0082c6"/><path d="m54.09 56.39l-.126-2.691c-1.735-.591-3.708-3.49-3.979-3.983-.271-.495-2.847-6.722-1.873-12.326.976-5.605 1.741-7.374 2.951-8.68.049-.731-2.147-2.867-1.749-3.662-2.597.651-7.485.632-16.324.786-8.838.154-21.818 1.421-25.435 4.43-.237-2.311.438-23.896 45.08-24.356 1.473-1.197 4.171-1.752 5.772-1.892l-.023-.206c-2.98-.152-5.897-.374-8.582-.62-8.374-.772-15.06 1.069-21.779 1.794-4.603.497-7.807-2.039-12.535-1.404-3.355.45-6.975-.359-10.354-.118-3.38.241-5.284 6.789-4.205 10.956 1.066 4.122 1.476 2.659 1.5 7 .014 2.594.13 6.392.267 9.829.534.176 1.13.505 1.787 1.021 1.688 1.322 12.386 6.44 13.182 6.839.796.399 27.463 14.746 27.463 14.746 1.401-.254 4.587-.65 5.271.13.683.782 3.692 2.407 3.692 2.407" style="fill:#ffcb05"/><path d="m108.82 73.09c-.179-3.746-1.589-6.416-1.589-10.241 0-3.344.869-9.307.05-13.154-.834-3.921-.8-3.192-.425-7.241.424-4.583-.35-9.106-.502-13.681-.136-4.102 2.822-6.709 1.865-11.05-.634-2.868.347-5.708.479-8.577.357-7.736-11.366-6.254-16.668-5.551-3.343.443-5.66 1.723-9.161 1.74-3.13.016-6.07-1.765-9.105-1.494-3.867.345-8.196.377-12.502.231-.354-.012-.73.1-.561.121 10.335 1.283 14.349 17.612 15.265 24.304 14.632 5.854 14.91 19.373 14.886 34.22.972 2.544.207 15.788.071 19.636 5.167 2.786 14.174 8.819 17.23 10.863.016-.13.032-.262.047-.401.436-3.792.985-12.09.62-19.722" style="fill:#e54e26"/></svg>