<svg viewBox="0 0 70 70" version="1.1" xmlns="http://www.w3.org/2000/svg" width="70" height="70"><path d="m30.7493 67.4384c-1.4363.2444-4.4673-.2179-6.0071.0756-3.7335.7192-5.1806-.5164-8.2544-1.1513-2.6165-.5428-4.9939-.1877-4.9592-1.8213.0158-.9435.7885-2.5545 3.4404-2.7144 2.6442-.325 6.7714-.7331 9.3406-1.1463.041-.001.0825-.0113.1286-.0176-.2719-.1877-.3174-.4862-.4504-.8187-.2573-.6437 2.9104-1.9839 3.875-2.5243 1.1089-.6121 2.0959-1.0996 3.4409-.9623-.7027-.2217-.6523-.626-.7709-1.1198-.1607-.6776 3.1703-1.4989 4.2047-1.8831 1.2479-.4496 2.3372-.7973 3.7469-.3514 1.4048.4472.7822 1.2369 1.0976 1.9108.0536.1121.0681.2217.0568.3225.1678-.126.3678-.2557.5841-.3867-.0195-.068-.0327-.1411-.0297-.228.0102-.5529.4606-1.4989 2.0216-1.5946 1.5512-.189 3.979-.4308 5.4878-.6727.0259-.0037.0486-.0075.0752-.0113-.1596-.1108-.1855-.2859-.265-.4812-.15-.3778 1.7107-1.1638 2.2809-1.4838.6492-.3602 1.2283-.6449 2.0186-.5643-.4101-.1297-.3842-.3665-.4523-.6575-.0927-.3967 1.862-.8829 2.4733-1.1059.7316-.267 1.3725-.4686 2.2014-.2053.615.1915.5677.4988.581.8074.6453-.2884 2.1787-.4295 2.7577-.5404.1804-.034.3563-.0642.5318-.0894-3.6471-.5907-8.8656-1.4775-8.8656-1.7546 0-.5832-.6832-16.6574-.9872-16.8231-.3041-.165-9.8004-.3656-10.3953.1855-.0926.0863.2227 3.1386.2227 3.1386 0 0 .4649 11.9333.3021 12.7445-.0278.1184-6.7708-.9548-7.8147-1.0215-.7337-.0479-1.9158.1587-4.8508.2103l-3.6099 1.6148c-.002.0403-.0064.0693-.0101.0693-.0959.0668-.3665.1587-.7331.2632l-.0068.0026v-.0026c-.6926.1903-1.7573.4119-2.8032.5581l-.6453.1801c0 0-.0751-.0315-.1931-.0819-.656.0655-1.2609.0844-1.7068.0277-1.4729-.1814-5.9691.4346-5.9691.4346l-.6976-.058-.8902-.1599v-.1033c-1.0742.1146-1.6665-.2746-3.7757-.0592-2.1409.2192-2.5497-.6349-2.5497-.6349l4.3474-.7444c.6875-.1033 1.3492-.2632 1.9819-.427l.017-9.4803 6.4352-5.842-8.5679-.9147-5.7035 2.1706-1.2919.6332c.1092 1.287.1918 2.465.1918 3.0863 0 2.1621-.5419 7.2068-.0315 9.6945.0133.0566.0221.097.0315.1498v5.3772c-.0209.2129-.034.4296-.0145.6424.0051.0743.0115.1499.0145.2255v3.8921c-.2504 1.737-.7789 3.2221-.3387 5.2878.3955 1.8478-.4856 3.6805-.5645 5.5308-.147 3.2762 2.9539 3.9929 6.0429 3.964 1.6135-.0114 3.2284-.2268 4.3636-.3817 2.0879-.2897 3.5331-.6411 5.7232-.6524 1.828-.0076 3.562.529 5.3294.5076.1199 0 .2392-.0013.3559-.0139 1.4538-.1335 3.0036-.1952 4.6002-.2028 1.6747-.0063 3.3937.0479 5.0803.1373-.1608-.1259-.3204-.2632-.4813-.4031-.2914-.2431-.5203-1.0945-.6975-1.5518" style="fill:#009735"/><g style="fill:#fcc900"><path d="m23.9355 44.1965l1.1954.3149 1.5687-1.043.0038.0051c-.5312-.9624-1.1172-2.1338-1.1172-2.1338l-.0491-2.9638c0 0-.0537-.4157-.0083-.5668.0505-.1549.3401-.9573.3401-.9573 0 0-.0701-1.172-.0701-1.3257-.0044-.1512.0309-1.1025.0309-1.1025l.3937-.4619c0 0 .1287-1.2977.2214-1.6567.1009-.3577-.1609-.8112-.3122-.8087-.1515.0038-.4978-.4553-.4978-.4553l-.2669-2.1098c0 0-.6572-14.3348-.7038-17.189-.002-.2217-.1072-1.0162-.1641-1.4687-.2844-.028-.5481-.057-.8018-.0822.1982 2.0321.2814 26.4779.2373 34.0052"/><path d="m13.3623 27.0428l4.9321-.6686 2.0784 1.1299.1753-.0863.253-.1562.5444-1.4132-.21-10.6952c0 0 1.8362-4.5084 1.8936-4.9115.0087-.0466.022-.0806.0358-.1165-.9878-.1036-1.6191-.171-1.6191-.171l-.6094 1.0134-2.2815 4.5124c0 0-.8294-.9906-.9417-1.2454-.07-.1647.1993-.6817.1993-.6817l1.3196-2.5831c0 0 .499-1.5078 1.1284-2.6461l1.2068-.0646 4.4275-8.0462c-.5022-.0089-1.1999.0088-2.4488.0088-2.6701 0-6.1905-.1776-8.8391-.0066-1.167.0762-2.3226.4512-3.4965.2157-1.0667-.2129-1.8652-.4308-2.9917-.4308-5.016 0-9.398-.0368-7.7751 6.6333-.0151.683.3898 2.4206.3898 4.3591 0 1.5493.1357 10.5667.0303 14.1732l6.6585-2.3784 5.9401 4.2556"/></g><path d="m67.665 27.5655c-1.0489.0057-4.2098.0255-4.5549.0425-.7152.034.9072 20.0234.2505 20.958 0 0-.5349-.0806-1.3706-.2129.8016.4774.3203.9573.4471 1.4611.1332.519-.5594.7709-1.3303.8843-.7789.1146-2.433-.3049-3.68-.6071-.6698-.1625-.9285-.3389-1.0325-.5442-.1887.1247-.4441.2293-.7205.3162-.6408.2028-2.1092.1096-3.2099.0478-.0972-.005-.1836-.0138-.2631-.0214.5287.1877.328.6235.5399.9422.2422.3628-.2573.7457-.8572 1.0467-.4504.2242-1.3757.3578-2.2714.461 2.559.485 2.5887 3.1931 2.3352 4.042-.1175.4006-2.0445.252-3.3521.3338.1533.0668.3079.1487.4656.2494.9329.6135.3298 1.0732.4289 1.6337.1009.5631-.6762.752-1.5266.7898-.8552.0352-2.636-.5807-3.9694-1.0329-1.3384-.4484-1.1253-.7973-1.1139-1.3263.0133-.3917 1.4046-.4648 2.4682-.5076-.3136-.126-.6195-.2646-.9398-.4018-.9563.2846-2.4475.4522-3.6257.5932-1.4705.1764-1.4181-.2683-1.6394-.8049-.0032-.0075 0-.0163-.0032-.0264-.3236.2217-.7791.4081-1.2654.5605-1.0925.3426-3.5903.1864-5.4651.0794-.1646-.0076-.3091-.0214-.446-.0341.8995.3175.5564 1.0619.9172 1.6048.4151.6159-.4359 1.2671-1.4584 1.7798-.7645.3791-2.3414.6109-3.8667.7822 1.5544.2947 2.5661 1.0694 3.195 2.0115.0391-.1032.0813-.2028.1235-.2985.8863-1.8352 4.854-1.2205 6.3015-1.6475 1.4421-.4233 7.8949-.1298 9.0494.5756 1.1561.7029-1.7663 3.6717-2.7662 4.9187-.9985 1.2445-2.9841 1.805-4.3725 1.6589-1.3839-.1474-2.0525.8175-3.5354 1.6211-.0322.0189-.0619.0302-.094.0466 1.011.0768.8213.1562 1.7591.2469.9803.0944 1.924.1284 2.8373.1196 3.9569-.0415 7.3537-.8981 10.7649-1.2772.1792-.0202.3565-.0315.5305-.0416 2.2506-.0718 3.9998.98 6.2327 1.014.3413.0051.6958-.0139 1.0648-.0668.5243-.0705 1.0591-.0932 1.599-.0869 1.348.0126 2.7283.2003 4.0686.1927.2681-.0037.533-.0113.7979-.0314 1.5921-.1147 2.6557-2.5406 2.7968-4.8797h.0916l-.335-37.1648m-7.978 27.0994c-.5867.7331-1.7561 1.0631-2.5705.9762-.815-.0856-1.9012.4812-2.771.951-.8717.4799-1.2666.0957-1.7207-.2922-.7608-.6475-.8555-2.8127-.335-3.8922.519-1.0807 2.8542-.7204 3.7026-.9711.8472-.2494 4.6414-.073 5.3194.3388.6782.4132-1.0376 2.159-1.6248 2.8895" style="fill:#1c7cc1"/><path d="m67.4487 3.9589l-.3886-1.1525c-.21-.5706-.4378-1.0017-.6521-1.2281-1.2718-1.3097-3.236-.8654-4.7952-.5857-2.1157.3804-3.0461-.4277-5.0022-.8159-1.886-.3701-4.0603.2654-5.9905.2314-1.5613-.0305-2.0797.2497-4.1758.5492-1.8066.2573-5.3344-.324-5.7843-.3477-.4498-.023-2.1452.006-3.1451.1068-.9998.0998-5.6959.7387-7.8342.2321-.8643-.2041-1.4572-.3524-1.9057-.4601 1.5146 1.8103 3.8681 7.9357 4.4698 8.1675.7171.2749 2.5042.439 2.5042.439 0 0 .8067 1.8132.3123 1.9618-.0733.0217-.2165.0334-.4208.0359-1.4269.0204-5.7855-.3832-9.1078-.7158.1443 1.5074 1.0647 1.0102 1.5397 1.0493 2.5433.2179 6.1854.6127 6.2264 1.0401.0518.6162.468 6.8361.468 6.8361 0 0 9.8888-2.4824 10.1145-2.4263l23.7642 8.393-.1968-21.3101" style="fill:#e24100"/></svg>