<svg xmlns="http://www.w3.org/2000/svg" viewBox="0 0 457 112" style="enable-background:new 0 0 457 112"><path d="m420.36 69.47c-.434 0-1.084-.045-1.721-.258-.988-.283-2.195-1.074-3.709-4.814-1.906-4.75-5.947-15.303-8.361-21.609l-1.895-4.934c-.525-1.354-.727-1.666-1.086-1.666-.355 0-.549.319-1.088 1.801l-9.992 27.337c-.838 2.322-1.73 3.812-3.596 4.055l-1.26.088c-.082 0-.156.012-.223.031-.096-.031-.197-.031-.25-.031-.43 0-1.566 0-2.826-.393-1.85-.602-2.123-3.078-2.287-4.559l-2.949-27.03c-.088-.825-.223-1.303-.654-1.303-.398 0-.602.386-.775.78-.002 0-11.598 24.772-12.828 27.403-.229-.471-13.355-27.452-13.355-27.452-.197-.438-.406-.731-.773-.731-.391 0-.527.453-.609.896 0 .009-3.17 28.71-3.17 28.71 0 .002-.016.16-.016.16-.17 1.617-.33 3.145-1.641 3.383-.65.131-.951.131-1.299.131-.275 0-.568.121-.568.346 0 .523.66.523.877.523l2.707-.092.99-.041.789.031 3.305.102c.32 0 .918 0 .918-.523 0-.217-.244-.346-.48-.346-.268 0-.916-.047-1.643-.217-.607-.123-1.045-.645-1.045-1.242l.043-2.236c0 0 1.605-18.643 1.746-20.264.656 1.544 5.344 11.598 5.762 12.432l.215.434c2.605 5.227 4.266 8.52 4.936 9.781l.076.145c.83 1.574 1.027 1.949 1.4 1.949.428 0 .572-.303 1.262-1.76l.307-.646c0 0 9.703-20.594 10.697-22.702.041.45 2.092 22.483 2.092 22.483.029.271.041.506.041.701 0 .465-.066.715-.121.75-.172.033-.404.117-.404.43 0 .381.453.49 1.348.568 1.578.127 6.342.264 7.361.264.307 0 .555-.045.732-.123.213.121.541.123.756.123l3.967-.1 1.01-.033 1.121.047 2.312.086c.521 0 .787-.162.787-.48 0-.178-.098-.389-.566-.389h-.439c-.598 0-1.547-.312-1.547-1.15 0-.785.217-1.816.609-2.906 0-.002 2.643-7.795 2.643-7.795.092-.232.207-.266.318-.266h9.465c.158 0 .211.049.283.193-.006-.001 4.086 10.818 4.086 10.818.121.32.135.605.039.807-.051.107-.133.186-.225.217-.322.082-.393.277-.393.428 0 .361.438.385 1.234.424l.205.012c.004 0 6.918.088 6.918.088.67 0 1.01-.162 1.01-.48-.0001-.389-.413-.389-.567-.389m-13.162-13.955h-8.408c-.021-.004-.037-.018-.037-.047 0-.021.008-.05.023-.089.002-.008 3.875-11.893 3.875-11.893.125-.375.213-.407.213-.408 0 .003.086.044.207.408 0 .003 4.184 11.888 4.184 11.888 0 .016.012.132.012.132-.0001-.002-.069.009-.069.009m48.949 13.955c-.26 0-.871 0-1.697-.131-1.178-.188-3.01-.719-5.299-3.133-2.236-2.391-4.84-5.732-7.855-9.604 0 0-1.098-1.409-1.223-1.568 3.6-3.346 5.283-6.583 5.283-10.18 0-3.053-1.941-5.264-3.088-6.088-2.412-1.729-5.463-1.961-8.131-1.961l-3.709.09-1.486.042-.584-.021-4.389-.111c-.27 0-.832 0-.832.479 0 .226.203.389.48.389.396 0 1.129.045 1.465.129 1.436.305 1.715.984 1.797 2.394.088 1.404.088 2.641.088 9.501v7.747c0 4.301 0 7.697-.219 9.539-.162 1.168-.361 2.148-1.176 2.312-.49.107-.975.174-1.295.174-.354 0-.48.209-.48.389 0 .48.562.48.832.48l3.941-.125.197-.008.521.018 4.893.115c.688 0 .83-.262.83-.48 0-.18-.125-.389-.479-.389-.381 0-1.334-.086-1.963-.176-1.168-.154-1.467-.932-1.609-2.309-.219-1.844-.219-5.24-.219-9.541v-1.055c0-.208.086-.225.18-.225l5.414.087c.221 0 .324.067.484.228 0 .002 1.639 2.233 1.639 2.233l3.148 4.27.551.725c2.203 2.91 3.658 4.832 5.432 5.781 1.199.645 2.359.852 4.771.852h3.125c.648 0 1.184-.037 1.184-.48.0001-.212-.239-.389-.522-.389m-17.371-15.651c-1.049.729-2.346.814-3.23.814-1.912 0-3.916-.302-4.557-.687-.17-.102-.246-.231-.246-.42v-14.393c0-.2.092-.338.273-.411.408-.121 1.572-.255 2.902-.255 4.688 0 7.488 3.244 7.488 8.679.0001 3.05-.984 5.545-2.63 6.673m-208.95 15.651c-.26 0-.869 0-1.697-.133-1.18-.188-3.01-.717-5.298-3.131-2.243-2.396-4.854-5.75-7.878-9.633 0 0-1.075-1.379-1.2-1.539 3.6-3.347 5.283-6.584 5.283-10.18 0-3.053-1.942-5.263-3.09-6.088-2.411-1.729-5.462-1.962-8.13-1.962l-3.713.091-1.48.042-.586-.021-4.389-.111c-.27 0-.831 0-.831.479 0 .227.201.391.479.391.398 0 1.129.045 1.466.129 1.435.305 1.714.984 1.797 2.394.088 1.404.088 2.641.088 9.501v7.747c0 4.301 0 7.697-.219 9.539-.161 1.168-.361 2.15-1.176 2.312-.49.107-.974.174-1.295.174-.354 0-.479.201-.479.389 0 .48.562.48.831.48l3.944-.125.196-.008.52.018 4.893.115c.687 0 .831-.262.831-.48 0-.18-.126-.389-.479-.389-.379 0-1.334-.086-1.964-.176-1.167-.154-1.465-.932-1.606-2.309-.22-1.844-.22-5.24-.22-9.541v-1.055c0-.209.085-.227.181-.227l5.412.089c.221 0 .323.067.484.228 0 .002 1.647 2.245 1.647 2.245l3.14 4.258.561.74c2.198 2.9 3.65 4.818 5.424 5.766 1.197.645 2.356.852 4.77.852h3.125c.648 0 1.184-.037 1.184-.48-.002-.214-.24-.391-.526-.391m-17.37-15.651c-1.05.729-2.346.814-3.229.814-1.914 0-3.916-.302-4.558-.687-.17-.102-.245-.231-.245-.42v-14.393c0-.2.091-.339.271-.411.407-.121 1.57-.255 2.902-.255 4.688 0 7.488 3.244 7.488 8.679.0001 3.05-.983 5.544-2.629 6.673m-56.5-2.593l-1.232-.968c-3.993-3.269-5.322-4.781-5.322-7.295 0-2.979 2.125-4.979 5.287-4.979 3.754 0 5.02 1.585 5.391 2.266.254.465.514 1.625.558 2.15.038.311.084.69.479.69.4 0 .435-.588.435-1.139 0-2.35.108-3.748.155-4.345l.021-.323c0-.382-.272-.435-.567-.435-.317 0-.639-.033-1.514-.218-1.257-.302-2.567-.442-4.121-.442-5.612 0-9.238 3.159-9.238 8.05 0 2.951.981 5.722 5.769 9.651.0001 0 1.98 1.628 1.98 1.628 3.938 3.25 5.02 4.934 5.02 7.827 0 2.846-2.118 5.729-6.167 5.729-3.443 0-5.833-1.641-6.392-4.389-.128-.604-.128-1.205-.128-1.604 0-.258 0-.611-.437-.611-.372 0-.441.424-.478.82 0 .002-.039.527-.039.527-.068.887-.183 2.371-.183 4.148 0 1.207.054 1.449.731 1.787h.0001c1.657.809 3.605 1.201 5.954 1.201 2.642 0 4.965-.646 6.719-1.871 2.8-1.986 3.797-5.131 3.797-7.41-.0001-3.383-1.06-6.177-6.475-10.445m33.375 12.917c-.354 0-.445.346-.52.764-.306 1.783-.822 2.615-1.906 3.074-1.121.475-3.034.475-4.177.475-4.412 0-4.855-.617-4.979-3.488-.032-.662-.019-3.506-.008-5.584l.008-1.939v-3.873c0-.129.053-.181.181-.181.744 0 5.107.088 6.281.22 1.604.163 2 .823 2.181 1.447.171.558.171.976.171 1.418 0 .324.167.523.436.523.435 0 .435-.58.435-.963 0-.318.09-1.943.176-2.804 0-.0001.274-1.942.274-1.942l.079-.535c0-.418-.218-.479-.347-.479-.221 0-.397.203-.689.54l-.066.076c-.371.411-.997.491-1.984.573-.96.082-5.99.087-6.988.087-.092 0-.138 0-.138-.312v-12.15c0-.313.093-.313.138-.313.523 0 5.284.046 6.01.132 2.341.26 2.742.775 3.02 1.421.199.481.253 1.191.253 1.535 0 .464.161.698.479.698.312 0 .403-.439.433-.584.06-.354.116-1.281.161-2.027l.061-.893.261-1.531.093-.55c0-.432-.165-.522-.304-.522l-.403.126-.238.098c-.373.093-1.09.175-1.874.216-.996.044-9.703.045-10.07.045l-.588-.021-4.387-.111c-.27 0-.831 0-.831.479 0 .227.201.391.479.391.397 0 1.129.045 1.465.129 1.436.305 1.714.984 1.797 2.394.088 1.404.088 2.641.088 9.501v7.747c0 4.301 0 7.697-.219 9.539-.189 1.385-.434 2.164-1.175 2.312-.49.107-.974.174-1.297.174-.354 0-.479.209-.479.389 0 .48.562.48.832.48l2.559-.088 1.594-.039.161-.006 1.684.059c1.707.078 4.564.207 9.188.207 1.708 0 2.167 0 2.499-1.24.23-.961.577-3.959.577-4.303-.003-.318-.003-.791-.393-.791m102.12 5.327c-.432 0-1.08-.045-1.719-.26-.988-.281-2.195-1.072-3.709-4.812-1.916-4.773-5.973-15.373-8.398-21.705l-1.857-4.839c-.523-1.354-.727-1.665-1.086-1.665-.357 0-.551.319-1.088 1.801l-9.992 27.337c-.725 2.01-1.49 3.393-2.891 3.887-1.162-.283-2.762-.979-4.684-3.01-2.238-2.391-4.84-5.73-7.854-9.598 0 0-1.102-1.415-1.227-1.574 3.602-3.346 5.285-6.583 5.285-10.18 0-3.052-1.943-5.263-3.092-6.088-2.412-1.729-5.463-1.962-8.129-1.962l-3.711.091-1.484.042-.586-.021-4.387-.111c-.27 0-.832 0-.832.479 0 .227.201.391.479.391.398 0 1.131.045 1.467.129 1.436.305 1.713.984 1.797 2.394.088 1.405.088 2.641.088 9.501v7.747c0 4.301 0 7.697-.219 9.539-.162 1.168-.361 2.148-1.176 2.312-.49.107-.973.174-1.297.174-.354 0-.479.209-.479.389 0 .48.562.48.832.48l3.943-.125.195-.008.521.018 4.893.115c.686 0 .83-.262.83-.48 0-.18-.125-.389-.479-.389-.381 0-1.334-.086-1.963-.176-1.17-.154-1.467-.932-1.609-2.309-.219-1.844-.219-5.24-.219-9.541v-1.055c0-.209.086-.227.182-.227l5.412.089c.221 0 .324.067.484.227 0 .003 1.635 2.23 1.635 2.23l3.152 4.273.564.744c2.197 2.9 3.646 4.814 5.42 5.762 1.164.627 2.297.84 4.578.85.051.002.1.002.143.002h.008c.014 0 .025 0 .039 0h3.127c.363 0 .689-.014.908-.104l.891-.029 1.121.047 2.312.086c.523 0 .787-.162.787-.48 0-.178-.098-.389-.566-.389h-.439c-.598 0-1.547-.312-1.547-1.15 0-.783.217-1.814.607-2.906.002-.002 2.645-7.797 2.645-7.797.094-.232.213-.266.318-.266h9.465c.158 0 .209.049.281.195-.004-.001 4.09 10.818 4.09 10.818.119.32.133.607.037.809-.051.105-.133.184-.223.215-.324.08-.395.277-.395.428 0 .361.439.385 1.234.424l.205.012c.004 0 6.918.088 6.918.088.67 0 1.01-.162 1.01-.48.004-.391-.408-.391-.564-.391m-45.801-15.651c-1.051.729-2.346.814-3.23.814-1.914 0-3.916-.302-4.557-.687-.17-.102-.246-.231-.246-.42v-14.393c0-.199.092-.338.271-.411.408-.121 1.572-.255 2.902-.255 4.689 0 7.49 3.244 7.49 8.679.0001 3.05-.984 5.545-2.63 6.673m32.64 1.695h-8.408c-.021-.004-.037-.017-.037-.046 0-.021.008-.05.023-.089.002-.008 3.877-11.894 3.877-11.894.125-.375.211-.406.211-.407.002.003.086.043.209.408 0 .002 4.182 11.888 4.182 11.888 0 .015.012.131.012.131 0-.002-.069.009-.069.009m48.651-10.639c-7.174 0-9.85 5.996-9.85 9.774 0 4.734 3.037 9.826 9.703 9.826 5.777 0 9.971-4.297 9.971-10.22 0-5.61-3.947-9.38-9.824-9.38m.517 18.423c-4.58 0-7.781-3.84-7.781-9.339 0-4.937 2.717-8 7.092-8 3.557 0 7.387 2.813 7.387 8.992 0 7.948-5.579 8.351-6.698 8.351m-23.756-18.08l-.469.002-2.742.059-.592.017-.328-.012-2.463-.063c-.152 0-.514 0-.514.317 0 .155.135.269.318.269l.811.069c.703.15.92.441.971 1.301.049.785.049 1.479.049 5.325v4.345c0 2.316 0 4.316-.123 5.348-.105.77-.23 1.178-.621 1.254-.002.002-.717.098-.717.098-.234 0-.316.143-.316.266 0 .318.361.318.514.318l2.02-.059.402-.016.672.047c1.127.088 3.223.25 4.811.25 3.154 0 5.771-.994 7.57-2.877 1.715-1.809 2.699-4.377 2.699-7.05 0-3.164-1.32-5.202-2.428-6.354-2.797-2.891-7.01-2.869-9.522-2.856m7.549 15.793c-1.439 1.438-3.551 2.262-5.795 2.262-2.857 0-3.807-.508-4.1-.936-.189-.26-.234-1.389-.25-1.812-.023-.449-.049-2.623-.049-5.356v-3.062l.023-5.256c0-.244.059-.314.225-.389.168-.083 1.031-.162 1.559-.162 3.225 0 5.816.469 7.988 2.754.873.916 2.338 2.931 2.338 6.141.0001 2.378-.761 4.661-1.939 5.816" style="fill:#231f20"/><g style="fill:#00a651"><path d="m216.46 7.505c-.487-3.175-3.03-5.187-6.465-5.955-1.436-.304-3.076-.454-4.812-.454-8.131 0-18.273 2.981-20.12 2.981-.229 0-1.076.167-.944.61.106.372.397.843 1.289 1.378.551.345 1.225.46 1.997.46 4.124 0 11.227-3.939 18.396-3.939 1.04 0 2.09.075 3.125.267 1.903.344 2.57 1.076 2.875 1.913 1.76 4.833-10.609 10.746-13.743 12.928-.455.305-.634.648-.592.916.041.27.263.46.688.46.191 0 .379-.037.638-.114.396-.137 2.769-1.224 4.228-1.596 2.208-.669 2.326-.085 4.54-1.028 6.756-2.878 9.371-5.762 8.902-8.827"/><path d="m199.79 7.404c-.107-.704-.426-1.283-.985-1.738-.409-.27-.681.512-.751.692-.497 1.266-2.998 4.073-5.164 7.321-1.978 2.943-3.694 6.31-3.267 9.102.293 1.912 1.477 3.098 2.788 3.864.886.495 1.523.878 1.87.878.346 0 .453-.306.43-.459-.022-.151-.156-.269-.543-.269-.423 0-.657-.267-.727-.727-.24-1.566 1.142-5.621 3.71-10.747 1.649-3.326 2.927-6.04 2.639-7.917"/><path d="m410.7 22.857c-.115 0-.324.155-.559.383-.992 1.069-2.396 2.754-3.359 2.754-.078 0-.211-.114-.223-.191-.365-2.371 7.43-16.14 6.832-20.04-.041-.268-.113-.498-.543-1.031-.238-.309-1.436-.411-1.699.415-.998 2.277-6.1 9.485-7.242 15.253-1.27 1.524-3.143 3.666-4.045 4.453-.135.114-.621.534-.738.534-.193 0-.352-.18-.35-.385 0-.116-.002-.269.012-.421.285-1.368 1.631-3.824 2.029-5.196.514-2 .477-4.323-.094-5.159-1.234-2.027-2.342-2.611-3.42-2.611-.502 0-.877.075-1.629.458-1.779.89-6.115 4.04-8.336 8.136-.268.166-.686.544-1.246 1.198-1.17 1.415-3.211 3.939-3.943 3.939-.117 0-.168-.076-.184-.191-.023-.152-.016-.345.061-.612.322-1.415 1.398-3.441 1.934-5.238.023-.075.037-.151.057-.228.039-.141.078-.281.105-.423.002-.006.004-.011.006-.016l-.002-.0001c.123-.621.156-1.239.061-1.858-.209-1.378-1.619-2.026-2.318-2.065-.309 0-.363.153-.363.649-.004.163-.16.958-.557 1.733-.074.143-2.582 3.662-4.994 5.306-.293.201-1.059.879-1.408.879-.111 0-.203-.077-.225-.228-.029-.193.037-.499.162-.957.201-.645.877-1.646 1.553-2.767.004-.006.008-.012.001-.017 1.01-1.812 1.455-3.123 1.455-3.123.117-.475.17-.935.105-1.36-.146-.952-.934-1.837-2.689-2.241-.152-.036-.553.221-.498.558.043.255-.291.968-.77 1.938h-.002c-.305.618-.67 1.345-1.035 2.121-.055.119-.111.239-.168.361-.031.072-.064.142-.098.215-.001.022-.021.045-.031.068h.002c-.42.931-.816 1.913-1.102 2.872-1.461 1.846-3.797 4.495-4.645 4.817-.182.077-.33.113-.408.113-.115 0-.199-.036-.25-.381-.264-1.722 2.479-12.735 7.258-17.746.59-.539.744-1.185.414-1.464-.699-.591-1.859-1.139-2.775-1.139-1.156 0-3.123 4.514-5.072 8.644-.082.184-.246.454-.484.81-.879-2.453-4.166-2.109-4.166-2.109l.001.009c-.035-.002-.074-.009-.107-.009-.346 0-.648.039-.934.191-1.428.735-4.164 4.478-5.424 8.117-1.258 1.507-3.01 3.512-3.891 4.279-.135.114-.623.534-.738.534-.193 0-.352-.18-.35-.385 0-.116-.002-.269.012-.421.285-1.368 1.631-3.824 2.029-5.196.514-2 .477-4.323-.094-5.159-1.234-2.027-2.342-2.611-3.422-2.611-.5 0-.875.075-1.627.458-1.799.898-6.211 4.108-8.408 8.274 0 .002-.002.004-.004.007-.125.075-.273.192-.441.364-3.189 3.327-5.619 5.315-6.662 5.315-.346 0-.529-.19-.588-.573-.223-1.453.973-4.207 3.584-10.06.094-.152.191-.269.383-.269 1.877-.076 4.266-.076 5.281-.494.4-.155.596-.385.574-.538-.025-.152-.191-.228-.537-.228-.926 0-2.705-.041-4.592-.041-.309 0-.355-.036-.293-.15 1.078-2.258 1.414-3.597 1.25-4.668-.119-.768-.518-1.264-1.059-1.627-.777-.291-.895.43-.928.548-.273.957-1.742 3.857-3.242 5.938-.695 0-1.277-.041-2.896-.041-.502 0-.748.155-.713.384.016.114.111.229.25.383.322.344.561.382 1.498.458.389.039.621.039 1.123.039-.982 1.385-1.641 2.535-2.258 3.997-1.205 1.111-3.219 2.786-3.895 3.308.037-1.76-1.629-2.753-2.705-3.747-.184-.191-.279-.309-.305-.46-.062-.421.746-.688 1.963-1.301 1.105-.573 1.645-1.071 1.551-1.684-.059-.38-.354-.802-.904-1.377-1.102-1.147-1.451-1.412-1.68-1.412-.156 0-.254.114-.436.189-2.824 1.187-3.617 2.294-3.434 3.479.188 1.226 1.562 2.41 2.658 3.52.271.268.369.581.436.842 1.109 4.141-3.664 4.169-4.803 5.546-.293.344-.875.651-.83.956.043.268.188.461.443.612.42.23 1.055.344 1.822.344 2.625 0 6.656-1.34 6.34-3.901-.02-.128 1.609-1.563 2.977-2.939-.342 1.137-.42 2-.277 2.939.416 2.714 3.037 3.481 4.04 3.481 2.072 0 4.088-2.107 6.486-5.197-.061.188-.127.377-.176.568-.002.004-.002.008-.002.012-.031.143-.053.294-.061.45 0 .014-.002.026-.002.039-.006.142 0 .286.02.43.002.021 0 .042.002.063.121.784.564 1.587 1.148 2.194.406.423.881.745 1.365.906.215.07.43.112.641.112h.002c.076 0 .154-.008.232-.019.312-.04.625-.164.891-.439 2.287-2.18 4.693-5.263 6.426-7.448.104-.073.182-.073.258-.073.115 0 .166.073.178.151.018.115-.037.267-.121.459-.836 1.838-.984 2.971-.816 4.081.258 1.682.959 2.458 1.873 2.759.471.154 1.426.022 1.777-.305.477-.441 1.75-1.887 3.113-3.458-.053.328-.096.652-.105.965-.076 1.53 2.316 3.059 3.588 3.059.232 0 .459-.036.594-.15 1.363-.92 4.773-6.579 5.719-8.454.146-.305.283-.421.398-.421.076 0-.037.269-.084.46-.572 2.065-1.377 4.091-1.055 6.196.293 1.911 1.807 2.486 2.77 2.486.309 0 .568-.077.709-.153.938-.564 2.789-2.521 4.23-4.293-.062.519-.07 1.01 0 1.463.281 1.835 1.789 2.368 2.443 2.368 2.197 0 4.4-3.977 6.588-6.04.236-.229.336-.344.373-.344.039 0 .045.036-.043.229-.682 1.567-.881 2.793-.734 3.749.152.994.693 1.758 1.424 2.258.344.229.67.343 1.016.343 1.75 0 3.412-2.681 4.547-4.205-.061.19-.129.379-.178.571-.004.021-.004.042-.008.062-.025.122-.043.249-.051.38-.002.026-.004.051-.004.078-.006.129 0 .262.018.395.002.026-.002.053.002.08.244 1.568 1.768 3.213 3.154 3.213h.002c.08 0 .162-.008.244-.02.309-.042.617-.167.881-.438 2.285-2.18 4.691-5.263 6.424-7.448.104-.073.182-.073.26-.073.113 0 .164.073.178.151.016.115-.039.267-.123.459-.836 1.838-.982 2.971-.816 4.081.26 1.682.959 2.458 1.873 2.759.471.154 1.426.022 1.779-.305.535-.495 2.074-2.259 3.617-4.04-.018.497-.008.98.062 1.436.141.918.502 1.762 1.068 2.447.568.69 1.193.995 1.85.995 1.119 0 2.432-1.26 3.771-3.326.283-.423.357-.688.34-.804-.005-.036-.049-.076-.087-.076m-62.75-5.666c-1.543 1.178-4.02 3.761-5.629 5.245-.109.099-.205.17-.295.231-.086.059-.162.101-.232.131-.012.005-.023.012-.035.016-.07.027-.133.043-.182.043-.102 0-.182-.039-.25-.094-.113-.091-.188-.236-.211-.404-.014-.082-.001-.164-.002-.245.004-.021.006-.041.008-.062.016-.089.037-.178.061-.267.014-.044.035-.09.053-.135.031-.084.066-.17.104-.256.049-.109.102-.222.16-.334l-.002-.006-.002-.002c1.439-2.898 5.35-6.212 7.615-6.395.57.152.504.885.262 1.123-.202.203-.803.797-1.423 1.411m15.973-1.019l.045-.024c-1.045 1.397-2.553 3.343-4.557 5.945-.902 1.146-1.15 1.3-1.418 1.3-.078 0-.16-.039-.197-.269-.035-.229.049-.688.209-1.146 1.311-4.105 3.488-7.45 5.164-7.669 1.6.73.754 1.863.754 1.863m33.15 1.019c-1.543 1.178-4.02 3.761-5.631 5.245-.273.247-.486.366-.641.403-.037.001-.074.018-.104.018-.092 0-.166-.033-.23-.079-.125-.089-.203-.242-.23-.419-.031-.19.02-.381.064-.573.049-.144.113-.292.18-.44.129-.288.289-.583.475-.882-.002-.004-.004-.001-.006-.014 1.672-2.771 5.172-5.621 7.283-5.791.568.152.502.885.262 1.123-.203.201-.804.795-1.422 1.409"/><path d="m313.7 26.07c-4.283.959-7.502 1.342-9.773 1.342-3.045 0-4.5-.692-4.652-1.686-.326-2.143 5.332-5.697 13.412-6.541.533-.038.672-.151.627-.418-.215-1.417-1.398-3.865-3.178-3.636-.676.089-1.787.333-3.08.719-1.766-.177-5.223-.297-7.217-1.022-1.043-.381-1.627-1.29-1.697-1.75-.414-2.715 13.359-8.503 19.75-8.03 1.424.104 1.928.722 2.125 1.311.119.351.797.686 1.26.205.465-.48.781-1.07.889-1.95.129-1.039-1.25-4-5.371-3.935-4.975.079-22.08 4.857-21.11 11.207.117.766.512 1.567 1.258 2.409 1.252 1.378 3.357 1.948 5.422 2.193.771.092 1.596.162 2.377.149-3.883 1.483-8.102 3.986-7.594 7.297.082.533.279 1.07.594 1.605 1.479 2.601 3.908 3.633 6.607 3.633 3.045 0 6.473-1.262 9.5-2.639.221-.077.383-.269.365-.381-.007-.037-.069-.191-.517-.078"/><path d="m286.9 18.497c-.076 0-.146.038-.213.113-2.043 2.526-8.158 6.718-10.508 6.718-.5 0-.916-.19-.92-.955.016-.789.129-1.524.307-2.213.246-.058.555-.141.941-.26 2.135-.656 6.967-2.915 7.084-5.082.012-.243.023-.66-.168-1.012-.395-.726-1.844-1.938-3.648-2.817-.293-.152-.576-.229-.883-.229-2.16 0-4.611 3.862-5.688 6.386-.209.489-.311.746-.439 1.272-.139.131-.756 1.116-1.332 1.685-1.174 1.418-2.742 3.24-3.363 3.24-.119 0-.166-.076-.186-.191-.023-.152-.012-.345.062-.612.322-1.415 1.398-3.441 1.934-5.238.256-.845.355-1.685.229-2.525-.211-1.378-1.621-2.026-2.32-2.065-.309 0-.363.153-.363.649-.004.229-.314 1.722-1.176 2.639-.953 1.071-1.617 2.029-4.375 4.4-.275.229-1.059.879-1.406.879-.115 0-.203-.077-.227-.229-.029-.192.037-.498.16-.956.465-1.493 3.49-4.896 3.125-7.267-.145-.952-.932-1.837-2.688-2.241-.154-.036-.555.221-.498.558.104.626-2.049 3.993-3.088 7.191-1.529 1.337-3.637 2.776-5.35 3.59 1.902-2.869 3.354-6.785 3.156-8.755-.109-1.224-2.121-2.791-3.053-3.327-.17-.114-.414-.191-.607-.191-.191 0-.381.036-.516.153-1.676 1.177-3.527 3.456-4.934 6-1.793 1.675-4.82 4.584-6.248 5.774-.242.193-.385.269-.461.269s-.08-.039-.086-.075c-.031-.193.055-.383.109-.536.225-.535.799-1.568 1.268-2.792.332-.842.646-2.065.523-2.869-.059-.381-.227-.727-.492-.956-1-.766-1.725-1.187-2.689-1.187-.693 0-1.473.192-2.564.613-.109.037-.219.076-.297.076-.115 0-.205-.076-.215-.154-.012-.075.053-.152.188-.267 1.049-.955 1.529-1.606 1.416-2.333-.088-.574-.705-1.339-1.781-2.334-.096-.114-.34-.19-.531-.19-.193 0-.379.04-.484.114-2.09 1.456-2.855 2.486-2.65 3.824.107.69.498 1.493 1.141 2.412.102.153-1.861 2.527-2.875 3.652-1.263 1.529-2.598 3.169-3.55 4-.135.114-.622.534-.738.534-.193 0-.352-.18-.35-.385 0-.116-.0001-.269.012-.421.286-1.368 1.631-3.824 2.03-5.196.514-2 .476-4.323-.095-5.159-1.234-2.027-2.341-2.611-3.421-2.611-.501 0-.875.075-1.628.458-2.146 1.073-8.03 5.433-9.406 10.787-.066.305-.092.65-.042.994.243 1.568 1.768 3.213 3.154 3.213.387 0 .792-.114 1.125-.458 2.286-2.18 4.693-5.263 6.425-7.448.104-.073.182-.073.259-.073.114 0 .165.073.178.151.017.115-.038.267-.122.459-.836 1.838-.983 2.971-.815 4.081.258 1.682.959 2.458 1.873 2.759.47.154 1.425.022 1.777-.305 1.125-1.043 6.688-7.677 7.387-8.36.232-.232.521-.44.9-.618.723-.34 2.465-1.087 3.352-1.087.385 0 .484.152.508.307.066.419-.645 1.567-1.334 2.599-1.189 1.799-1.887 2.793-2.117 3.787-.143.573-.221 1.072-.145 1.569.123.803.545 1.299 1.598 2.14.529.422.816.536 1.162.536.541 0 1.297-.343 2.105-1.109.932-.922 3.352-3.688 5.535-6.03-.543 1.322-.828 2.548-.688 3.465.039.268.133.612.281.842.297.421.9 1.34 1.086 1.53.189.229.371.421.381.495.02.118-.123.193-.387.231-.605.077-1.391.23-1.887.765-.164.191-.213.383-.182.574.057.382.547.803 1.049.803.191 0 .455-.039.619-.23.424-.497.973-.688 1.551-.688 3.354 0 9.318 6.234 15.678 6.234 2.391 0 4.803-.841 7.209-3.252.164-.191.289-.382.266-.536-.006-.036-.051-.074-.088-.074s-.148.038-.248.154c-.98 1.146-2.496 1.567-4.268 1.567-5.357 0-13.07-4.054-15.768-4.553-.236-.037-.326-.114-.338-.191-.016-.114.121-.229.152-.267.184-.123.369-.266.555-.425 2.193-.091 4.926-2.099 6.961-4.283-.109.605-.154 1.603.008 2.059.619 1.752 1.762 2.111 2.416 2.111 2.197 0 4.4-3.977 6.59-6.04.234-.228.334-.343.371-.343s.043.036-.043.229c-.684 1.567-.881 2.793-.738 3.747.156.996.695 1.76 1.428 2.26.344.227.67.343 1.016.343 1.799 0 3.461-2.628 4.6-4.126-.025.429.027.65.092 1.065.111.726.379 1.454.902 2.104.949 1.184 1.939 1.605 3.135 1.605 3.775 0 8.49-4.704 10.467-8.146.059-.115.08-.229.068-.307-.016-.113-.106-.19-.184-.19m-6.487-2.601c.322-.153.602-.344.871-.344.191 0 .35.076.379.459.115 1.514-2.281 4.117-5.732 5.02 1.076-2.732 3.195-4.485 4.482-5.131m-57.53 1.295c-1.543 1.178-4.02 3.761-5.63 5.245-.339.307-.591.421-.744.421-.27 0-.422-.229-.462-.498-.029-.19.018-.381.066-.573 1.01-2.984 5.47-6.929 7.93-7.127.57.152.503.885.262 1.123-.203.201-.804.795-1.422 1.409m25.309 6.965c-.246.153-.498.271-.613.271s-.127-.079-.145-.193c-.018-.113-.004-.269.043-.457 1.199-3.748 2.484-5.93 3.557-7.229 1.432-1.721 2.725-1.837 2.842-1.837.152 0 .164.075.176.153.023.153.001.306-.039.496-.195.995-1.691 4.553-3.814 7.04-.628.686-1.3 1.338-2.01 1.757"/></g><path d="m267.67 80.986c-48.08-2.314-76.25-2.092-92.32-2.717-16.09-.479-20.14-1-20.14-1-6.361-.807-11.563.047-11.564 1.914 0 1.867 5.362 3.361 11.916 3.307 75.34-2.463 150.47 4.201 226 2.486 6.557-.121 17.277-.225 23.828-.23 12.998-.002 26-.145 39.01-.516 6.566-.188 11.824-2.031 11.686-3.996-.141-1.973-5.219-2.32-11.326-.859-.004-.045-2.535.744-25.938 2.111-23.393 1.239-67.743 3.334-151.16-.5" style="fill:#ffcb05"/><g style="fill:#e54e26"><path d="m145.5 108.05c-2.031-1.783-2.57-4.104-2.57-6.115 0-1.408.435-3.855 2.425-5.678 1.493-1.369 3.461-2.197 6.55-2.197 1.285 0 2.052.082 3 .207.788.104 1.451.289 2.073.352.228.021.311.125.311.248 0 .166-.062.416-.104 1.141-.042.684-.021 1.824-.062 2.238-.021.311-.062.477-.249.477-.166 0-.207-.166-.207-.455-.021-.643-.291-1.369-.809-1.906-.684-.727-2.301-1.285-4.208-1.285-1.803 0-2.985.455-3.897 1.285-1.513 1.389-1.907 3.357-1.907 5.367 0 4.934 3.751 7.379 6.529 7.379 1.845 0 2.964-.207 3.793-1.16.352-.395.622-.996.705-1.369.062-.33.104-.414.27-.414.145 0 .187.145.187.311 0 .25-.249 2.053-.456 2.758-.104.352-.187.455-.539.602-.829.33-2.404.477-3.731.477-2.839-.004-5.223-.627-7.109-2.263"/><path d="m172.75 104.61c-.104 0-.146.043-.187.166l-1.12 2.965c-.207.518-.311 1.016-.311 1.264 0 .373.187.643.829.643h.311c.249 0 .311.041.311.166 0 .166-.125.207-.353.207-.663 0-1.554-.062-2.197-.062-.228 0-1.368.062-2.446.062-.27 0-.394-.041-.394-.207 0-.125.083-.166.249-.166.187 0 .477-.021.643-.041.953-.125 1.347-.83 1.762-1.865l5.203-13.02c.249-.602.373-.828.58-.828.187 0 .311.186.518.662.498 1.141 3.814 9.598 5.14 12.748.788 1.865 1.389 2.156 1.824 2.26.311.061.622.082.871.082.165 0 .269.021.269.166 0 .166-.187.207-.953.207-.746 0-2.259 0-3.917-.041-.373-.021-.622-.021-.622-.166 0-.125.083-.166.29-.188.146-.041.29-.227.187-.477l-1.658-4.393c-.041-.104-.104-.146-.207-.146h-4.622m4.229-1.035c.104 0 .124-.062.104-.125l-1.866-5.119c-.021-.084-.042-.188-.104-.188s-.104.104-.125.188l-1.907 5.098c-.021.084 0 .146.083.146h3.815"/><path d="m195.96 100.36c0-3.15 0-3.73-.042-4.395-.041-.705-.207-1.037-.891-1.182-.166-.041-.519-.062-.809-.062-.229 0-.353-.041-.353-.186 0-.146.146-.188.456-.188 1.099 0 2.404.062 2.84.062.705 0 2.28-.062 2.923-.062 1.306 0 2.694.125 3.813.893.58.393 1.409 1.449 1.409 2.838 0 1.535-.643 2.943-2.736 4.645 1.845 2.32 3.275 4.166 4.498 5.451 1.161 1.201 2.01 1.346 2.321 1.408.229.041.415.062.581.062.165 0 .248.062.248.166 0 .166-.145.207-.394.207h-1.969c-1.161 0-1.679-.104-2.218-.395-.892-.477-1.679-1.449-2.84-3.047-.829-1.139-1.782-2.549-2.052-2.859-.104-.125-.229-.145-.373-.145l-1.804-.043c-.104 0-.166.043-.166.166v.291c0 1.928 0 3.564.104 4.436.062.602.187 1.057.809 1.141.312.041.768.082 1.016.082.166 0 .249.062.249.166 0 .145-.146.207-.415.207-1.202 0-2.735-.062-3.047-.062-.394 0-1.699.062-2.528.062-.27 0-.414-.062-.414-.207 0-.104.082-.166.331-.166.311 0 .56-.041.746-.082.415-.084.519-.539.602-1.141.104-.871.104-2.508.104-4.414v-3.647m2.446 1.637c0 .229.042.311.187.373.436.145 1.058.207 1.575.207.829 0 1.099-.082 1.472-.352.622-.457 1.224-1.41 1.224-3.109 0-2.943-1.948-3.793-3.172-3.793-.518 0-.891.021-1.099.082-.145.043-.187.125-.187.291v6.301"/><path d="m221.97 104.61c-.104 0-.146.043-.187.166l-1.119 2.965c-.208.518-.312 1.016-.312 1.264 0 .373.187.643.829.643h.312c.248 0 .311.041.311.166 0 .166-.124.207-.353.207-.663 0-1.555-.062-2.197-.062-.228 0-1.367.062-2.445.062-.27 0-.394-.041-.394-.207 0-.125.083-.166.248-.166.187 0 .477-.021.643-.041.954-.125 1.348-.83 1.762-1.865l5.203-13.02c.248-.602.373-.828.58-.828.187 0 .311.186.519.662.497 1.141 3.813 9.598 5.14 12.748.788 1.865 1.389 2.156 1.824 2.26.311.061.622.082.871.082.165 0 .269.021.269.166 0 .166-.187.207-.953.207-.746 0-2.259 0-3.917-.041-.373-.021-.622-.021-.622-.166 0-.125.083-.166.29-.188.146-.041.29-.227.187-.477l-1.658-4.393c-.041-.104-.104-.146-.207-.146h-4.624m4.228-1.035c.104 0 .124-.062.104-.125l-1.865-5.119c-.021-.084-.042-.188-.104-.188-.062 0-.104.104-.124.188l-1.907 5.098c-.021.084 0 .146.083.146h3.813"/><path d="m257.77 108.63c0 .561-.021.602-.27.746-1.347.705-3.378.934-4.995.934-5.078 0-9.576-2.404-9.576-8.125 0-3.316 1.721-5.639 3.606-6.779 1.99-1.201 3.835-1.346 5.576-1.346 1.43 0 3.254.248 3.669.33.435.084 1.16.209 1.637.229.249.021.29.104.29.248 0 .229-.145.809-.145 3.4 0 .332-.062.436-.229.436-.145 0-.187-.104-.207-.27-.062-.477-.166-1.141-.704-1.721-.622-.664-2.28-1.617-4.623-1.617-1.14 0-2.652.084-4.104 1.285-1.161.975-1.907 2.529-1.907 5.078 0 4.457 2.84 7.793 7.213 7.793.539 0 1.265 0 1.763-.227.311-.146.394-.416.394-.768v-1.949c0-1.035 0-1.822-.021-2.445-.021-.705-.208-1.035-.892-1.182-.166-.041-.519-.062-.809-.062-.187 0-.311-.041-.311-.164 0-.166.145-.209.436-.209 1.077 0 2.383.062 3 .062.643 0 1.741-.062 2.425-.062.27 0 .415.043.415.209 0 .123-.124.164-.27.164-.166 0-.311.021-.56.062-.56.104-.767.457-.788 1.182-.021.623-.021 1.451-.021 2.488v2.28z"/><path d="m272.19 100.36c0-3.15 0-3.73-.041-4.395-.042-.705-.208-1.037-.892-1.182-.166-.041-.519-.062-.809-.062-.228 0-.353-.041-.353-.186 0-.146.146-.188.456-.188 1.099 0 2.405.062 3.03.062.498 0 1.804-.062 2.55-.062.311 0 .456.041.456.188 0 .145-.125.186-.332.186-.228 0-.353.021-.601.062-.56.104-.726.457-.768 1.182-.041.664-.041 1.244-.041 4.395v2.9c0 3.01.601 4.271 1.616 5.1.934.768 1.887.85 2.592.85.911 0 2.031-.289 2.86-1.119 1.14-1.141 1.202-3.01 1.202-5.141v-2.59c0-3.15 0-3.73-.042-4.395-.041-.705-.207-1.037-.892-1.182-.165-.041-.518-.062-.746-.062-.228 0-.352-.041-.352-.186 0-.146.145-.188.435-.188 1.058 0 2.363.062 2.384.062.249 0 1.555-.062 2.363-.062.29 0 .435.041.435.188 0 .145-.124.186-.373.186-.228 0-.352.021-.601.062-.56.104-.726.457-.767 1.182-.042.664-.042 1.244-.042 4.395v2.217c0 2.301-.228 4.746-1.969 6.24-1.472 1.264-2.964 1.492-4.312 1.492-1.099 0-3.088-.062-4.602-1.432-1.057-.953-1.845-2.486-1.845-5.492v-3.02z"/><path d="m300.84 104.61c-.104 0-.146.043-.187.166l-1.119 2.965c-.208.518-.312 1.016-.312 1.264 0 .373.187.643.829.643h.312c.248 0 .311.041.311.166 0 .166-.124.207-.353.207-.663 0-1.555-.062-2.197-.062-.228 0-1.367.062-2.445.062-.27 0-.394-.041-.394-.207 0-.125.083-.166.248-.166.187 0 .477-.021.643-.041.954-.125 1.348-.83 1.762-1.865l5.203-13.02c.248-.602.373-.828.58-.828.187 0 .311.186.519.662.497 1.141 3.813 9.598 5.14 12.748.788 1.865 1.389 2.156 1.824 2.26.311.061.622.082.871.082.165 0 .269.021.269.166 0 .166-.187.207-.953.207-.746 0-2.259 0-3.917-.041-.373-.021-.622-.021-.622-.166 0-.125.083-.166.29-.188.146-.041.29-.227.187-.477l-1.658-4.393c-.041-.104-.104-.146-.207-.146h-4.624m4.229-1.035c.104 0 .124-.062.104-.125l-1.865-5.119c-.021-.084-.042-.188-.104-.188-.062 0-.104.104-.124.188l-1.907 5.098c-.021.084 0 .146.083.146h3.813"/><path d="m325.46 95.51l-3.089.084c-1.202.041-1.699.145-2.01.602-.207.311-.311.559-.352.725-.042.166-.104.248-.229.248-.145 0-.187-.104-.187-.33 0-.332.394-2.219.436-2.385.062-.27.124-.393.249-.393.165 0 .373.207.891.248.602.062 1.389.104 2.073.104h8.208c1.326 0 1.823-.207 1.989-.207.146 0 .166.125.166.436 0 .436-.062 1.865-.062 2.404-.021.207-.062.332-.187.332-.166 0-.207-.104-.228-.416l-.021-.227c-.042-.539-.602-1.119-2.446-1.162l-2.611-.062v8.5c0 1.906 0 3.543.104 4.436.062.58.187 1.035.809 1.119.29.041.746.082 1.057.082.229 0 .332.062.332.166 0 .145-.166.207-.395.207-1.367 0-2.674-.062-3.254-.062-.477 0-1.782.062-2.611.062-.27 0-.415-.062-.415-.207 0-.104.083-.166.332-.166.311 0 .56-.041.746-.082.415-.084.539-.539.602-1.141.104-.871.104-2.508.104-4.414v-8.501"/><path d="m346.55 104.61c-.104 0-.146.043-.187.166l-1.119 2.965c-.208.518-.312 1.016-.312 1.264 0 .373.187.643.829.643h.312c.248 0 .311.041.311.166 0 .166-.124.207-.353.207-.663 0-1.555-.062-2.197-.062-.228 0-1.367.062-2.445.062-.27 0-.394-.041-.394-.207 0-.125.083-.166.248-.166.187 0 .477-.021.643-.041.954-.125 1.348-.83 1.762-1.865l5.203-13.02c.248-.602.373-.828.58-.828.187 0 .311.186.519.662.497 1.141 3.813 9.598 5.14 12.748.788 1.865 1.389 2.156 1.824 2.26.311.061.622.082.871.082.165 0 .269.021.269.166 0 .166-.187.207-.953.207-.746 0-2.259 0-3.917-.041-.373-.021-.622-.021-.622-.166 0-.125.083-.166.29-.188.146-.041.29-.227.187-.477l-1.658-4.393c-.041-.104-.104-.146-.207-.146h-4.624m4.229-1.035c.104 0 .124-.062.104-.125l-1.865-5.119c-.021-.084-.042-.188-.104-.188-.062 0-.104.104-.124.188l-1.907 5.098c-.021.084 0 .146.083.146h3.813"/><path d="m371.17 95.51l-3.089.084c-1.202.041-1.699.145-2.01.602-.207.311-.311.559-.352.725-.042.166-.104.248-.229.248-.145 0-.187-.104-.187-.33 0-.332.394-2.219.436-2.385.062-.27.124-.393.249-.393.165 0 .373.207.891.248.602.062 1.389.104 2.073.104h8.208c1.326 0 1.823-.207 1.989-.207.146 0 .166.125.166.436 0 .436-.062 1.865-.062 2.404-.021.207-.062.332-.187.332-.166 0-.207-.104-.228-.416l-.021-.227c-.042-.539-.602-1.119-2.446-1.162l-2.611-.062v8.5c0 1.906 0 3.543.104 4.436.062.58.187 1.035.809 1.119.29.041.746.082 1.057.082.229 0 .332.062.332.166 0 .145-.166.207-.395.207-1.367 0-2.673-.062-3.254-.062-.477 0-1.782.062-2.611.062-.27 0-.415-.062-.415-.207 0-.104.083-.166.332-.166.311 0 .56-.041.746-.082.415-.084.539-.539.602-1.141.104-.871.104-2.508.104-4.414v-8.501"/><path d="m391.77 100.36c0-3.15 0-3.73-.041-4.395-.042-.705-.208-1.037-.892-1.182-.166-.041-.519-.062-.809-.062-.228 0-.353-.041-.353-.186 0-.146.146-.188.456-.188 1.099 0 2.405.062 3.03.062.498 0 1.804-.062 2.55-.062.311 0 .456.041.456.188 0 .145-.125.186-.332.186-.228 0-.353.021-.601.062-.56.104-.726.457-.768 1.182-.041.664-.041 1.244-.041 4.395v2.9c0 3.01.601 4.271 1.616 5.1.934.768 1.887.85 2.592.85.911 0 2.031-.289 2.86-1.119 1.14-1.141 1.202-3.01 1.202-5.141v-2.59c0-3.15 0-3.73-.042-4.395-.041-.705-.207-1.037-.892-1.182-.165-.041-.518-.062-.746-.062-.228 0-.352-.041-.352-.186 0-.146.145-.188.435-.188 1.058 0 2.363.062 2.384.062.249 0 1.555-.062 2.363-.062.29 0 .435.041.435.188 0 .145-.124.186-.373.186-.228 0-.352.021-.601.062-.56.104-.726.457-.767 1.182-.042.664-.042 1.244-.042 4.395v2.217c0 2.301-.228 4.746-1.969 6.24-1.472 1.264-2.964 1.492-4.312 1.492-1.099 0-3.088-.062-4.602-1.432-1.057-.953-1.845-2.486-1.845-5.492v-3.02z"/><path d="m419.86 100.36c0-3.15 0-3.73-.042-4.395-.041-.705-.207-1.037-.891-1.182-.166-.041-.519-.062-.809-.062-.229 0-.353-.041-.353-.186 0-.146.146-.188.456-.188 1.099 0 2.404.062 2.819.062 1.016 0 1.823-.062 2.528-.062 3.752 0 4.415 2.01 4.415 3.109 0 1.699-.975 2.715-2.114 3.627 1.699.58 3.772 2.053 3.772 4.477 0 2.219-1.721 4.52-5.534 4.52-.498 0-2.384-.125-3.01-.125-.477 0-1.782.062-2.611.062-.27 0-.414-.062-.414-.207 0-.104.082-.166.331-.166.311 0 .56-.041.746-.082.415-.084.519-.539.602-1.141.104-.871.104-2.508.104-4.414v-3.647m2.488.352c0 .166.062.207.145.229.187.041.498.062.975.062.684 0 1.14-.084 1.492-.395.539-.436.85-1.182.85-2.197 0-1.389-.808-3.213-2.591-3.213-.29 0-.477 0-.684.043-.146.041-.187.123-.187.352v5.119m2.735 1.658c-.435-.311-.911-.455-1.72-.498-.373-.02-.581-.02-.892-.02-.083 0-.124.041-.124.145v4.912c0 1.369.062 1.721.726 1.99.56.229 1.036.248 1.513.248.933 0 2.508-.496 2.508-2.652 0-1.285-.435-3.03-2.01-4.125"/><path d="m444.98 104.61c-.104 0-.146.043-.187.166l-1.119 2.965c-.208.518-.312 1.016-.312 1.264 0 .373.187.643.829.643h.312c.248 0 .311.041.311.166 0 .166-.124.207-.353.207-.663 0-1.555-.062-2.197-.062-.228 0-1.367.062-2.445.062-.27 0-.394-.041-.394-.207 0-.125.083-.166.248-.166.187 0 .477-.021.643-.041.954-.125 1.348-.83 1.762-1.865l5.203-13.02c.248-.602.373-.828.58-.828.187 0 .311.186.519.662.497 1.141 3.813 9.598 5.14 12.748.788 1.865 1.389 2.156 1.824 2.26.311.061.622.082.871.082.165 0 .269.021.269.166 0 .166-.187.207-.953.207-.746 0-2.259 0-3.917-.041-.373-.021-.622-.021-.622-.166 0-.125.083-.166.29-.188.146-.041.29-.227.187-.477l-1.658-4.393c-.041-.104-.104-.146-.207-.146h-4.624m4.228-1.035c.104 0 .124-.062.104-.125l-1.865-5.119c-.021-.084-.042-.188-.104-.188-.062 0-.104.104-.124.188l-1.907 5.098c-.021.084 0 .146.083.146h3.813"/></g><path d="m79.36 110.7c.535 0 1.016-.055 1.418-.178-.616.055-1.238.111-1.861.164.159.008.312.014.443.014" style="fill:#0082c6"/><g style="fill:#ffcb05"><path d="m30.811 31.824c1.507.169 2.402.588 2.681 1.01.334.503 1.674 1.508 3.349 1.508 1.675 0 1.01 0 1.843-1.338.837-1.343 2.177-2.01 3.02-3.52.837-1.507.503-1.843.333-3.518-.167-1.676-1.842-.837-3.01-.837-1.173 0-3.351.501-4.856 1-1.508.504-3.02 1.01-4.189 2.01-1.174 1.01-3.184 1.844-2.679 3.351.5 1.509 2.01.166 3.516.333"/><path d="m74.7 24.351c0 0 5.04.042 4.541 7.07-.119 1.67-.724 3.858-1.688 5.386-1.064 1.688 2.384-.939 3.04-3.194.93-3.199 1.693-4.309.943-7.146-1.013-3.84-3.75-4.192-4.946-4.351-2.027-.265-8.109 3.326-11.493 5.01-1.9.947-3.198 4.049-3.198 4.049 3.176-.477 10.249-5.88 12.801-6.828"/></g><path d="m89.4 29.11c1.299 1.299 2.76 2.438 4.059 3.086 1.298.647 1.863.378 3.571 0 1.462-.326 5.313.161 7.91-1.461 2.597-1.625 1.299-1.786 0-3.086-1.298-1.299-3.852 0-5.149-.162-1.298-.163-2.11-.324-3.897-1.624-1.786-1.296-3.408-.811-5.03-.162-1.624.65-2.761 2.112-1.462 3.409" style="fill:#e54e26"/><g style="fill:#ffcb05"><path d="m71.24 18.42c.901.564 1.688 1.127 3.19.188 1.502-.936 3.378-2.063 4.88-2.063 1.5 0 3.565-.749 4.503-2.063.938-1.313 3.752-4.504 2.438-5.065-1.312-.564-8.255-.188-9.757.375-1.502.562-5.818.374-6.568 2.25-.751 1.877-.188 5.441 1.314 6.378"/><path d="m74.34 38.04c.622-.169 1.072-.568 1.395-1.095.611-3.428.368-6.775.249-7.606-.218-1.529-1.352-2.387-1.934-2.167-.844.317-13.36 10.755-13.36 10.755 1.177 5.398 10.579 6.754 11.134 6.375.587-.399 1.094-.895 1.536-1.45.939-2.713-1.024-4.272.98-4.812"/><path d="m46.47 34.545c2 .842 2.164.365 3.691 1.048 1.528.683 2.583.681 4.59-.063 2.01-.746 1.743-1.541 1.748-3.657.005-2.114-1.157-1.794-3.16-3.165-2-1.371-3.164-.521-4.483-.252-1.319.268-4.489 3-4.491 3.978-.003 1.587.102 1.269 2.105 2.111"/><path d="m41.15 40.11c-2.059 1.888-1.792 2.369-1.792 5.108l.571.286c2.292-.503 4.386-1.557 6.602-2.295 2.252-.752 3.312-4.335.498-4.973-2.484-.562-4.096.242-5.879 1.874"/><path d="m50.883 21.408c2.02.772 2.241.553 2.634 1.238.621 1.085 4.185 2.02 5.426 2.17 1.24.156 2.325-.928 1.86-2.17-.466-1.238-.31-2.17.31-4.34.621-2.17.31-2.635.31-3.41 0-.776-1.86-1.242-3.721-.776-1.859.466-2.634.776-3.721 1.085-1.085.312-3.255.775-3.875 1.088-.62.307-2.635 1.083-2.17 2.323.466 1.241.929 2.01 2.947 2.792"/><path d="m92.28 17.391c.894.604 2.937.781 3.56.958.712.201 2.045 1.123 2.839 2.01.812.906 1.565 1.487 2.599 1.641 1.031.154 6.094.441 6.389-.479.294-.924-.105-3.051.042-4.896.148-1.843 1.014-6.548-.737-7.831-1.031-.754-3.629-2.148-4.81-2.148-1.181 0-3.096-.307-3.835.613-.738.921-.738 1.842-.442 3.377.294 1.537-.738 3.072-1.77 3.38-1.033.307-6.738 1.423-3.835 3.376"/></g><path d="m95.36 93.76c-1.01-1.514-2.259-.906-3.732-.049-1.228.721-4.893 1.994-5.207 3.783s-.806 3.064.869 3.814c1.674.754 3.895 1.807 5.146 1.199 1.251-.609 2.473-1.691 2.641-3.52s1.289-3.714.283-5.227" style="fill:#0082c6"/><path d="m102.7 48.923c1.691 0 5.428.188 5.625-1.21.426-3.02.279-14-5.993-11.855-2.126.728-5.547 1.442-7.734 2.01-2.201.285-2.836 3.083-2.849 4.71-.027 2.835 1.942 2.212 4.111 3.145 2.545 1.091 3.722 3.198 6.84 3.198" style="fill:#e54e26"/><path d="m67.44 86.16c1.246-1.244 6.181-3.838 9.802-10.02.011-.143.024-.275.024-.428 0-1.402-1.177-.941-2.399-.352-2.72 3.719-7.476 7.717-15.763 9.674-.56.131-1.895 1.133-2.211 2.293-.57 2.098-1.613 5.486-2.984 8.02-1.13 2.887-4.666 5.02-5.461 6.572-1.054 2.055-2.06 5.463-4.874 7.369 1.702.137 3.274.268 4.354.174 3.48-.303 10.535-1.273 13.94-.494.905.207 1.621.4 2.211.578.588-2.031 1.857-6.232 2.863-8.24 1.866-3.729-2.185-12.459.498-15.15" style="fill:#0082c6"/><path d="m23.489 101.47c4.16.674 5.404-.699 7.709-1.242 1.973-.465 5.281 2.318 9.05 1.564 2.097-.418 1.301-1.346.794-1.385-7.701-.623-7.87-1.754-8.718-2.328s-.618-1.143-.673-2.098c-.143-2.451 3.829-5.03 3.829-5.03 3.953-.369 4.04-4.145 3.953-5.184-.082-1.01-.721-1.172-.971-.418-.253.752-2.346 2.078-3.101 2.158-.753.086-1.507-.158-2.511-.41-1-.25-10.302-.084-10.302-.084-1.34.336-1.34 1.176-1.34 1.176-.921 2.596 8.71 6.279 9.04 7.873.161.754.158 1.246-.5 1.924-3.633 3.75-7.55 1.24-7.55 1.24s-6.113-4.355-6.113-8.291c0 0-.923-6.451-.345-11.146.097-.785-.09-2.818-.766-3.693-1.207-1.566-2.917-3.861-3.078-4.508-.25-1.01-1.255-2.01-1.507-4.271-.251-2.26-.251-5.277-.503-6.531 0 0 0-1.01-.251-3.02-.25-2.01 0-3.767 0-5.02 0-1.255.754-3.02.502-4.521-.251-1.508.251-2.263-.752-4.776-.09-.223-.163-.438-.238-.654-.164-.058-.551-1.693-.671-2.694-.09-.558-.065-1.354-.686-2.312-.788-1.217-3.485-4.067-5.101-6.767.084 2.176.177 4.252.261 5.836.202 3.911-1.899 10.646-1.899 14.459 0 3.975 1.67 7.734 1.67 11.713 0 2.117-1.663 6.562-1.663 8.68 0 1.961 1.049 4.32 1.049 6.277 0 4-.569 6.385-.529 10.451.042 4.176-1.733 8.951-1.116 13.07.496 3.303-.617 4.674 2.195 7.482 2.024 2.02 5.857 1.336 8.342.904 3.373-.584 4.852.662 7.971 1.258 3 .574 6.467-.408 9.538-.352 1.357.025 2.554.098 3.721-.043-1.356-.156-2.559-.463-3.222-1.023-1.143-.965-3.886-5.473-5.521-8.262" style="fill:#00a651"/><g style="fill:#e54e26"><path d="m95.66 84.56c-1.371-.914-3.501-1.523-4.566-3.502-1.065-1.98 1.065-4.264-.609-5.48-1.675-1.217-3.502-.76-4.872 0-1.318.732-1.523.914-2.284 2.588-.761 1.676-1.219 2.285 0 3.805 1.217 1.521 1.979 4.418 4.11 5.03 2.131.607 3.198-.459 5.48-.309 2.286.155 4.112-1.216 2.741-2.129"/><path d="m105.61 86.1c1.617.373 2.919-5.641 2.546-6.883-.372-1.24.54-5.723.167-6.965s-4-.32-5.372-.568c-1.367-.25-2.362 0-4.104 0-.995 0-1.864.496-2.486 1.861-.622 1.369.745 3.98 2.486 5.723 1.742 1.74 5.15 6.459 6.763 6.832"/></g><path d="m19.434 28.366c0 0 2.01-.252 3.02-1.01 1-.754 2.512-1.756 2.512-1.756l5.276-2.767c0 0 4.522-1.505 5.528-1.505 1 0 1.507-3.02 4.02-3.771 2.513-.755 4.774-2.763 6.283-3.769 1.507-1.01 15.577-4.522 17.336-5.03 1.583-.452 4.489 1.01 19.636-2.979-3.059-.037-5.941-1.747-8.916-1.482-7.394.662-16.487.167-23.841-.511-8.329-.765-14.978 1.064-21.663 1.786-4.58.496-7.768-2.027-12.47-1.396-3.337.447-7.647-.358-11.01-.118-3.362.242-5.256 6.754-4.183 10.899.949 3.662 1.374 2.895 1.47 5.766 2.771 1.475 8.677 5.205 10.07 5.406 1.735.247 6.937 2.229 6.937 2.229" style="fill:#ffcb05"/><path d="m60.06 70.14c0 0-2.583.246-3.922 1.586-1.339 1.338-.768 2.434-.433 3.439s.576 1.195 1.497 1.598c.958.418.849.982 2.188.312 1.34-.672 1.58-.549 1.7-1.869.184-2.025.308-2.053.308-3.059.0001-1-1.338-2.01-1.338-2.01" style="fill:#e54e26"/><path d="m65.988 50.28c.266-.932 1.063-2.128-.398-2.527-1.463-.399-3.327-1.063-4.924-.932-1.596.133-1.596-1.064-2.925-1.863-1.332-.796-2.395-1.328-3.726-1.196-1.33.133-2.793 1.064-2.926 2.261-.133 1.199-.133 3.594 1.063 3.726.805.09 1.73-.531 3.193.132 1.463.668 2.927 1.864 4.124 2.264 1.196.399 3.06.531 3.591.132.533-.399 2.662-1.065 2.928-1.997" style="fill:#ffcb05"/><g style="fill:#e54e26"><path d="m51.869 54.848c-4.607-.67-5.709-.519-7.396.275-1.686.797-4.969 7.471-4.969 7.471-1.633 2.764-.951 8.166-.951 9.676 0 1.506 3.01 4.521 3.01 4.521.587.67.839 1.01 1.256.584.419-.416-.84-1.955-.987-2.955-.17-1.156 1.212-1.113.709-2.537-.502-1.424-2.097-5.688-1.566-7.488.535-1.801 2.097-3.125 2.097-3.125 1.926 2.264 4.689 1.869 4.689 1.869 5.428-.992 5.475-4.094 4.939-6.158-.023-.092 1.958-.695 1.64-1.974-.292-1.162-2.475-.159-2.475-.159m-4.313 5.986c-3.078 0-3.267-3.391-3.267-3.391.692-.812 1.556-1.232 2.27-1.452-.318.304-.517.723-.517 1.185 0 .939.81 1.699 1.811 1.699 1 0 1.81-.76 1.81-1.699 0-.65-.393-1.209-.965-1.494 1.995-.068 2.501.881 2.501.881 1.01 4.146-3.643 4.271-3.643 4.271"/><path d="m84.42 54.972c1.445-1.688 3.893-2.778 3.933-4.967.04-2.191-1.647-2.456-3.734-2.625-1.741-.141-6.325-1.416-7.89.132-1.565 1.551-2.949 2.469-1.785 4.369 1.164 1.902 2.673 4.476 4.358 4.74 1.687.265 3.673.039 5.118-1.649"/><path d="m64.19 58.98c-.964 1.756-1.931 4.123-.437 5.883.617.729 2.705 1.779 2.01 3.164-.59 1.176-2.444 2-.725 4.295 1.497 1.998 2.776 1.988 4.49.516 1.781-1.533 3.107-6.207 2.09-8.893-.992-2.623-5.542-6.349-7.43-4.965"/></g><path d="m72.69 98.34c1.161.828 2.156 1.326 3.151.168.992-1.162 1.656-1.992 2.982-1.824 1.327.164 2.487-.168 3.15-1.162s1.658-1.824.663-2.818c-.844-.844-1.524-1.881-2.063-2.312-.874-.701-.826-1.232-.874-2.6-.099-2.85-1.596-2.488-2.298-2.447-.899.047-1.728 3.215-2.391 4.375s-2.487 3.979-2.652 5.139c-.165 1.161-.828 2.653.332 3.481" style="fill:#0082c6"/><g style="fill:#ffcb05"><path d="m29.327 48.689c.377.735 1.01.881 2.89.881s1.505-1.325 1.633-2.209c.126-.882-.628-2.209-1.381-2.503-.754-.294-1.633.44-2.514.734-.877.297-1.256.887-.627 1.623-.0001.0001-.378.736-.0001 1.474"/><path d="m41.27 51.871c.292-.739.488-1.985-.879-2.313-1.365-.328-1.083-.566-1.925-.55-1.695.033-3.389 6.731-7.718 6.755-1.422.009-2.602-2.709-4.631-4.054-.157.104-.63 1.17-.932 2.035-.299.862.259 1.482.275 1.569.789.802 1.44 2.19 2.624 2.868 1.462.836 1.769 2.111 2.898 2.176 1.13.062 1.7-1.164 3.261-2.084 1.562-.92 1.834-1.282 2.935-2.981 1.101-1.699 3.798-2.684 4.092-3.421"/><path d="m21.447 38.477c1.23.776 1 2.25 2.305 2.889 0 0 1.855.036 2.497-1.766.642-1.799-2.822-4.856-5.792-5.208-2.501-.294.062 3.501.99 4.085"/><path d="m32.446 37.829c-2.501-1.161-3.107 1.8-3.29 3.662 3.075.511 8.718-1.137 3.29-3.662"/><path d="m17.546 47.7c.172-3.149 2.324-11.626-4.142-9.305-.434.155.951 5.163.832 5.697-.713 3.24-.675 3.844 3.31 3.608"/><path d="m23.958 46.09c-.378-.879-2.155-.693-2.767-.051-.609.646-.948 2.037.219 3.387.99 1.145 1.321 1.514 1.777 2.099.375-.497 1.752-1.415 1.237-4.03-.16-.803-.289-.998-.466-1.408"/><path d="m17.27 30.566c-2.05-1.105-4.097-2.215-6.136-3.339-.413-.226-.962.071-.867.423.74 2.742.093 4.619 3.754 5.688 1.899.553 5.138.254 3.249-2.772"/><path d="m22.528 58.51c-3.511-4.161-8.981-2.389-8.981-2.389.014.125-1.611-.264-1.611.522 0 .757 1.126.894 1.14 1.021.733 6.734 4.587 6.346 6.907 5.457.524-.201 2.02.332 2.167 1.697.385 3.516-2.367 4.098-2.631 5.693-.157.951-.245 1.736-.245 1.736s-.24 1.729.536 1.371c.774-.357 1.043-.838 1.887-1.766.837-.922.695-1.105 1.171-2.178.479-1.074.72-2.084.839-3.098.119-1.014.116-3.176 0-4.189-.119-1.01.459-1.936-1.179-3.877m-4.02 3.521c-1.848 0-3.344-1.406-3.344-3.139 0-1.736-.245-2.213 1.597-2.323.438-.029.9.068 1.355.235-.905.092-1.613.805-1.613 1.68 0 .939.81 1.701 1.812 1.701.999 0 1.81-.762 1.81-1.701 0-.219-.047-.43-.129-.623.884.662 1.545 1.385 1.666 1.658.704 1.587-1.309 2.512-3.154 2.512"/></g><path d="m84 108.54c-.165-1.66.167-2.32-1.658-2.818-1.823-.498-3.148-1.494-2.983-2.818.209-1.678-2.321-1.66-3.482-.332-1.159 1.326-1.491.994-2.321 1.656-.829.666-1.822 1.494-1.657 2.986.165 1.49-.167 2.484 1.657 2.65 1.68.154 5.467.727 7.35.816.623-.053 1.245-.109 1.861-.164.848-.265 1.346-.855 1.233-1.976" style="fill:#0082c6"/><g style="fill:#e54e26"><path d="m108.57 60.852c0-.863-.215-2.586-.646-3.659-.43-1.077-.43-1.294-2.152-2.586-1.723-1.291-4 0-4.864.432-.601.299-.999.604-1.624.979-.308-.124-.724-.111-1.393.08-1.94.545-2.891-.79-4.695 1.34-1.409 1.668-1.985 2.832-3.729 3.51-1.744.68-2.458.889-4.166.879-1.708-.014-4.338 1.445-4.64 2.527-.303 1.082-.174 1.74.61 2.27.831.564 9.3.104 11.04.277 1.74.176 5.317.168 6.368.303 1.049.137 5.185.979 7.03-.064 1.651-.928 1.533-.693 2.94-2.537.438-1.021-.076-2.976-.076-3.751"/><path d="m107.42 99.97c-.745-1.506-3.669-1.727-5.396-.959-1.725.77-2.989 2.516-2.865 4.02.135 1.633.565 2.535-.028 3.385-.665.955-1.556 2.617-1.377 3.387.121.521 1.603 1.604 2.893 1.49.57-.051 5.548-.297 6.52-.664.972-.371.347-3.678.347-4.07 0-2.192.652-5.084-.094-6.59"/></g></svg>