<svg xmlns="http://www.w3.org/2000/svg" viewBox="0 0 457 112" style="enable-background:new 0 0 457 112"><g style="fill:#e54e26"><path d="m172.57 100.16c0-3.15 0-3.73-.041-4.395-.043-.705-.209-1.037-.891-1.182-.166-.041-.52-.062-.809-.062-.229 0-.352-.041-.352-.188 0-.145.143-.186.455-.186 1.098 0 2.404.061 2.982.061.852 0 2.055-.061 3.01-.061 2.594 0 3.525.871 3.857 1.182.455.436 1.037 1.369 1.037 2.467 0 2.943-2.158 5.02-5.1 5.02-.104 0-.332 0-.436-.02-.104-.021-.25-.041-.25-.188 0-.164.146-.229.582-.229 1.16 0 2.777-1.305 2.777-3.42 0-.684-.061-2.072-1.225-3.109-.744-.684-1.596-.809-2.072-.809-.309 0-.621.021-.807.084-.104.041-.168.166-.168.393v8.293c0 1.908 0 3.545.104 4.436.064.58.188 1.037.809 1.119.293.043.748.084 1.057.084.23 0 .334.061.334.166 0 .145-.168.207-.395.207-1.369 0-2.676-.062-3.215-.062-.475 0-1.781.062-2.609.062-.27 0-.416-.062-.416-.207 0-.105.084-.166.332-.166.311 0 .559-.041.746-.084.414-.082.518-.539.602-1.141.104-.869.104-2.506.104-4.414v-3.647z"/><path d="m196.51 104.41c-.105 0-.146.041-.189.166l-1.117 2.963c-.209.52-.312 1.018-.312 1.266 0 .373.186.643.83.643h.311c.248 0 .312.041.312.166 0 .164-.127.207-.354.207-.664 0-1.555-.062-2.197-.062-.229 0-1.369.062-2.447.062-.27 0-.393-.043-.393-.207 0-.125.084-.166.25-.166.186 0 .475-.02.641-.041.955-.125 1.348-.83 1.764-1.867l5.203-13.02c.246-.602.373-.828.578-.828.188 0 .312.186.52.662.498 1.139 3.814 9.598 5.14 12.748.787 1.867 1.389 2.156 1.824 2.26.311.064.623.084.871.084.164 0 .27.02.27.166 0 .164-.186.207-.953.207-.748 0-2.262 0-3.917-.043-.375-.02-.621-.02-.621-.164 0-.125.08-.166.289-.186.145-.043.289-.23.186-.479l-1.658-4.395c-.041-.104-.104-.145-.207-.145h-4.624zm4.227-1.037c.105 0 .125-.062.105-.125l-1.867-5.119c-.021-.084-.041-.188-.104-.188-.061 0-.104.104-.123.188l-1.908 5.098c-.021.084 0 .146.082.146h3.815"/><path d="m219.72 100.16c0-3.15 0-3.73-.043-4.395-.039-.705-.205-1.037-.891-1.182-.166-.041-.517-.062-.808-.062-.229 0-.352-.041-.352-.188 0-.145.146-.186.455-.186 1.099 0 2.404.061 2.986.061.642 0 1.949-.061 3.191-.061 2.591 0 6.05 0 8.312 2.363 1.037 1.078 2.01 2.799 2.01 5.266 0 2.611-1.1 4.602-2.26 5.783-.955.975-3.109 2.447-6.944 2.447-1.513 0-3.38-.25-4.415-.25-.479 0-1.783.062-2.613.062-.27 0-.412-.062-.412-.207 0-.105.08-.166.33-.166.311 0 .56-.041.746-.084.414-.082.52-.539.602-1.141.104-.869.104-2.506.104-4.414v-3.646m2.592 2.281c0 2.195.02 3.793.039 4.186.023.52.062 1.348.23 1.576.268.395 1.076.83 2.714.83 2.115 0 3.526-.416 4.77-1.494 1.326-1.139 1.738-3.03 1.738-5.162 0-2.631-1.098-4.332-1.988-5.182-1.909-1.824-4.27-2.072-5.889-2.072-.412 0-1.18.061-1.346.145-.188.082-.25.188-.25.414-.02.705-.02 2.508-.02 4.146v2.613z"/><path d="m248.66 100.16c0-3.15 0-3.73-.039-4.395-.043-.705-.209-1.037-.893-1.182-.166-.041-.518-.062-.807-.062-.23 0-.354-.041-.354-.188 0-.145.145-.186.457-.186 1.096 0 2.402.061 2.838.061.705 0 2.281-.061 2.924-.061 1.307 0 2.693.125 3.814.891.58.395 1.41 1.451 1.41 2.84 0 1.535-.643 2.945-2.738 4.645 1.846 2.322 3.275 4.166 4.5 5.451 1.16 1.203 2.01 1.348 2.32 1.41.23.043.416.062.582.062s.246.061.246.166c0 .164-.143.207-.393.207h-1.969c-1.16 0-1.678-.104-2.217-.393-.893-.479-1.68-1.453-2.84-3.049-.832-1.141-1.785-2.549-2.055-2.861-.104-.123-.227-.145-.373-.145l-1.803-.041c-.104 0-.166.041-.166.164v.291c0 1.93 0 3.566.104 4.436.062.602.186 1.059.809 1.141.312.043.768.084 1.018.084.166 0 .246.061.246.166 0 .145-.145.207-.414.207-1.203 0-2.736-.062-3.047-.062-.395 0-1.701.062-2.529.062-.268 0-.414-.062-.414-.207 0-.105.082-.166.332-.166.309 0 .559-.041.744-.084.416-.082.52-.539.602-1.141.104-.869.104-2.506.104-4.414v-3.647m2.449 1.637c0 .229.041.312.188.373.436.146 1.057.207 1.574.207.83 0 1.098-.082 1.471-.352.623-.455 1.225-1.41 1.225-3.109 0-2.943-1.949-3.793-3.172-3.793-.518 0-.893.021-1.098.082-.146.041-.188.125-.188.289v6.303"/><path d="m273.84 100.16c0-3.15 0-3.73-.041-4.395-.043-.705-.209-1.037-.891-1.182-.166-.041-.52-.062-.809-.062-.229 0-.352-.041-.352-.188 0-.145.143-.186.455-.186 1.098 0 2.404.061 2.982.061.666 0 4.791 0 5.184-.02.393-.041.727-.082.893-.125.104-.02.229-.082.332-.082s.123.082.123.186c0 .146-.104.395-.166 1.348-.02.209-.061 1.119-.104 1.369-.02.104-.061.229-.207.229-.145 0-.186-.104-.186-.291 0-.145-.02-.498-.125-.746-.145-.373-.354-.621-1.389-.746-.352-.041-2.529-.084-2.945-.084-.104 0-.143.062-.143.209v5.244c0 .145.02.227.143.227.459 0 2.84 0 3.318-.041.496-.041.809-.104.994-.311.146-.166.23-.27.332-.27.084 0 .146.041.146.166s-.105.455-.166 1.514c-.043.414-.082 1.242-.082 1.389 0 .166 0 .395-.188.395-.146 0-.189-.084-.189-.188-.02-.207-.02-.477-.08-.746-.105-.414-.395-.725-1.162-.809-.393-.041-2.445-.062-2.943-.062-.104 0-.123.084-.123.207v1.639c0 .703-.023 2.613 0 3.213.039 1.43.373 1.74 2.486 1.74.539 0 1.41 0 1.949-.248s.787-.684.932-1.533c.043-.229.082-.312.229-.312.166 0 .166.168.166.375 0 .477-.166 1.885-.27 2.301-.145.539-.332.539-1.119.539-3.129 0-4.52-.125-5.742-.125-.477 0-1.783.062-2.611.062-.27 0-.416-.062-.416-.207 0-.105.084-.166.332-.166.311 0 .561-.041.746-.084.416-.082.518-.539.602-1.141.104-.869.104-2.506.104-4.414v-3.649"/><path d="m312.23 100.16c0-3.15 0-3.73-.041-4.395-.043-.705-.209-1.037-.891-1.182-.166-.041-.52-.062-.809-.062-.229 0-.352-.041-.352-.188 0-.145.143-.186.455-.186 1.098 0 2.404.061 2.984.061.643 0 1.947-.061 3.193-.061 2.592 0 6.05 0 8.312 2.363 1.035 1.078 2.01 2.799 2.01 5.266 0 2.611-1.098 4.602-2.258 5.783-.955.975-3.109 2.447-6.947 2.447-1.512 0-3.377-.25-4.414-.25-.477 0-1.783.062-2.611.062-.27 0-.416-.062-.416-.207 0-.105.084-.166.332-.166.311 0 .561-.041.746-.084.416-.082.52-.539.602-1.141.104-.869.104-2.506.104-4.414v-3.646zm2.59 2.281c0 2.195.023 3.793.043 4.186.02.52.062 1.348.229 1.576.27.395 1.078.83 2.715.83 2.115 0 3.523-.416 4.768-1.494 1.328-1.139 1.742-3.03 1.742-5.162 0-2.631-1.1-4.332-1.99-5.182-1.906-1.824-4.27-2.072-5.887-2.072-.416 0-1.184.061-1.348.145-.188.082-.248.188-.248.414-.023.705-.023 2.508-.023 4.146v2.613"/><path d="m338.9 101.98c0-3.545 2.344-8.127 8.561-8.127 5.162 0 8.377 3.01 8.377 7.754 0 4.746-3.318 8.5-8.582 8.5-5.952 0-8.356-4.459-8.356-8.127m14.04.393c0-4.643-2.674-7.523-6.076-7.523-2.383 0-5.1 1.326-5.1 6.488 0 4.311 2.385 7.732 6.363 7.732 1.453 0 4.813-.705 4.813-6.697m-2.135-11.524c.123.248 0 .311-.104.311-.105 0-.293-.041-.705 0-1.141.145-2.779.809-3.547 1.223-.164.082-.311.166-.354.166-.039 0-.123-.043-.123-.125 0-.084.084-.166.188-.27.83-.789 3.01-2.404 3.338-2.611.205-.145.352-.188.414-.188.145 0 .188.062.291.248.166.291.352.686.602 1.246"/><path d="m369.91 100.16c0-3.15 0-3.73-.041-4.395-.043-.705-.209-1.037-.891-1.182-.166-.041-.52-.062-.809-.062-.229 0-.352-.041-.352-.188 0-.145.143-.186.455-.186 1.098 0 2.404.061 2.84.061.705 0 2.281-.061 2.922-.061 1.307 0 2.695.125 3.814.891.582.395 1.41 1.451 1.41 2.84 0 1.535-.643 2.945-2.736 4.645 1.846 2.322 3.275 4.166 4.498 5.451 1.162 1.203 2.01 1.348 2.322 1.41.229.043.414.062.582.062.166 0 .246.061.246.166 0 .164-.145.207-.393.207h-1.969c-1.16 0-1.68-.104-2.219-.393-.891-.479-1.68-1.453-2.84-3.049-.83-1.141-1.785-2.549-2.055-2.861-.102-.123-.227-.145-.371-.145l-1.803-.041c-.104 0-.166.041-.166.164v.291c0 1.93 0 3.566.104 4.436.062.602.186 1.059.807 1.141.312.043.768.084 1.018.084.166 0 .246.061.246.166 0 .145-.143.207-.412.207-1.203 0-2.736-.062-3.049-.062-.393 0-1.699.062-2.527.062-.27 0-.416-.062-.416-.207 0-.105.084-.166.332-.166.311 0 .561-.041.746-.084.416-.082.52-.539.602-1.141.104-.869.104-2.506.104-4.414v-3.647m2.449 1.637c0 .229.039.312.186.373.436.146 1.059.207 1.576.207.828 0 1.098-.082 1.471-.352.621-.455 1.223-1.41 1.223-3.109 0-2.943-1.947-3.793-3.172-3.793-.516 0-.891.021-1.098.082-.146.041-.186.125-.186.289v6.303"/><path d="m395.09 100.16c0-3.15 0-3.73-.039-4.395-.043-.705-.25-1.057-.705-1.162-.229-.061-.498-.082-.748-.082-.207 0-.33-.041-.33-.207 0-.125.164-.166.496-.166.789 0 2.096.061 2.697.061.518 0 1.738-.061 2.527-.061.27 0 .436.041.436.166 0 .166-.123.207-.332.207-.207 0-.373.021-.623.062-.559.104-.725.455-.766 1.182-.043.664-.043 1.244-.043 4.395v3.648c0 2.01 0 3.648.084 4.539.062.561.209.934.83 1.016.291.043.746.084 1.059.084.227 0 .33.061.33.166 0 .145-.168.207-.395.207-1.369 0-2.672-.062-3.234-.062-.475 0-1.781.062-2.611.062-.268 0-.414-.062-.414-.207 0-.105.082-.166.332-.166.309 0 .559-.041.744-.084.416-.082.539-.436.604-1.035.102-.871.102-2.51.102-4.52v-3.648z"/><path d="m414.82 104.41c-.104 0-.145.041-.186.166l-1.121 2.963c-.205.52-.309 1.018-.309 1.266 0 .373.186.643.828.643h.312c.246 0 .309.041.309.166 0 .164-.123.207-.352.207-.662 0-1.555-.062-2.199-.062-.227 0-1.365.062-2.443.062-.27 0-.395-.043-.395-.207 0-.125.082-.166.248-.166.188 0 .477-.02.643-.041.953-.125 1.35-.83 1.762-1.867l5.203-13.02c.25-.602.373-.828.582-.828.188 0 .311.186.52.662.496 1.139 3.812 9.598 5.141 12.748.787 1.867 1.387 2.156 1.822 2.26.312.064.621.084.871.084.166 0 .27.02.27.166 0 .164-.188.207-.955.207-.744 0-2.258 0-3.916-.043-.373-.02-.623-.02-.623-.164 0-.125.084-.166.291-.186.145-.043.291-.23.186-.479l-1.656-4.395c-.043-.104-.104-.145-.209-.145h-4.624zm4.231-1.037c.104 0 .123-.062.104-.125l-1.867-5.119c-.02-.084-.041-.188-.102-.188-.064 0-.104.104-.127.188l-1.906 5.098c-.02.084 0 .146.084.146h3.814"/></g><path d="m417.47 69.27c-.436 0-1.086-.043-1.723-.26-.99-.283-2.195-1.072-3.711-4.812-1.902-4.75-5.945-15.302-8.357-21.607l-1.896-4.936c-.525-1.354-.725-1.668-1.084-1.668-.355 0-.553.322-1.09 1.802l-9.99 27.338c-.844 2.32-1.732 3.812-3.598 4.055l-1.262.088c-.082 0-.156.014-.221.029-.096-.029-.199-.029-.252-.029-.432 0-1.566 0-2.824-.395-1.854-.6-2.125-3.076-2.287-4.555l-2.949-27.03c-.086-.828-.225-1.307-.654-1.307-.398 0-.604.387-.775.782 0 0-11.596 24.77-12.83 27.403-.229-.473-13.357-27.451-13.357-27.451-.195-.438-.404-.734-.771-.734-.389 0-.525.457-.609.899 0 .009-3.168 28.709-3.168 28.709l-.018.16c-.17 1.617-.33 3.145-1.641 3.385-.65.129-.951.129-1.299.129-.275 0-.566.121-.566.348 0 .52.66.52.877.52l2.705-.09.99-.039.789.029 3.307.1c.32 0 .92 0 .92-.52 0-.219-.248-.348-.482-.348-.268 0-.916-.049-1.645-.217-.607-.121-1.045-.646-1.045-1.24l.041-2.238c0 0 1.607-18.64 1.75-20.263.654 1.545 5.34 11.595 5.76 12.433l.215.434c2.605 5.223 4.268 8.516 4.938 9.777l.078.148c.828 1.574 1.021 1.947 1.396 1.947.428 0 .572-.305 1.262-1.762l.307-.646c0 0 9.705-20.591 10.699-22.701.037.451 2.09 22.484 2.09 22.484.029.27.045.504.045.697 0 .471-.07.717-.123.752-.174.035-.408.117-.408.43 0 .381.457.49 1.35.568 1.582.131 6.344.264 7.363.264.309 0 .555-.043.732-.121.213.121.543.121.756.121l3.965-.1 1-.029 1.127.043 2.311.086c.521 0 .785-.16.785-.48 0-.178-.096-.387-.564-.387h-.443c-.594 0-1.543-.312-1.543-1.148 0-.787.217-1.818.607-2.908l2.641-7.795c.096-.23.209-.264.322-.264h9.467c.156 0 .209.049.281.189-.006-.008 4.086 10.818 4.086 10.818.121.322.137.609.041.809-.053.109-.137.188-.227.217-.32.082-.396.277-.396.43 0 .359.438.381 1.236.42l.203.014c.006 0 6.922.086 6.922.086.666 0 1.01-.16 1.01-.48-.004-.386-.416-.386-.566-.386m-13.162-13.954h-8.414c-.018-.004-.035-.018-.035-.049 0-.018.001-.047.023-.085.004-.011 3.879-11.892 3.879-11.892.121-.377.211-.408.211-.412 0 .004.084.047.205.412l4.186 11.887c0 .012.008.129.008.129l-.063.001m48.945 13.954c-.26 0-.871 0-1.697-.129-1.172-.191-3.01-.721-5.297-3.133-2.238-2.395-4.84-5.734-7.854-9.605 0 0-1.098-1.409-1.225-1.569 3.602-3.346 5.285-6.581 5.285-10.179 0-3.053-1.943-5.262-3.09-6.086-2.412-1.73-5.463-1.959-8.129-1.959l-3.711.085-1.488.044-.584-.021-4.387-.107c-.268 0-.832 0-.832.475 0 .227.203.393.482.393.395 0 1.127.043 1.459.125 1.438.308 1.721.984 1.803 2.395.086 1.406.086 2.643.086 9.5v7.748c0 4.299 0 7.697-.221 9.539-.162 1.168-.361 2.148-1.176 2.312-.492.109-.973.174-1.293.174-.357 0-.482.209-.482.387 0 .48.564.48.834.48l3.943-.125.195-.004.52.018 4.895.111c.686 0 .828-.26.828-.48 0-.178-.121-.387-.479-.387-.379 0-1.332-.088-1.961-.178-1.17-.152-1.471-.93-1.607-2.309-.223-1.842-.223-5.24-.223-9.539v-1.054c0-.207.088-.225.184-.225l5.412.087c.217 0 .322.065.482.226l1.641 2.234 3.15 4.27.551.723c2.203 2.912 3.654 4.832 5.43 5.783 1.199.643 2.361.85 4.773.85h3.121c.652 0 1.186-.033 1.186-.48.002-.212-.237-.39-.524-.39m-17.369-15.65c-1.049.729-2.348.814-3.232.814-1.912 0-3.912-.304-4.557-.685-.168-.104-.246-.234-.246-.42v-14.394c0-.2.092-.338.275-.412.406-.121 1.572-.256 2.902-.256 4.688 0 7.486 3.244 7.486 8.68.0001 3.051-.983 5.544-2.628 6.673m-208.95 15.65c-.26 0-.866 0-1.694-.135-1.18-.186-3.01-.715-5.296-3.127-2.243-2.398-4.855-5.752-7.878-9.634 0 0-1.075-1.38-1.201-1.54 3.6-3.346 5.283-6.581 5.283-10.179 0-3.053-1.944-5.262-3.088-6.086-2.411-1.73-5.462-1.965-8.127-1.965l-3.712.091-1.48.044-.587-.021-4.388-.113c-.27 0-.831 0-.831.48 0 .227.201.393.479.393.397 0 1.128.043 1.464.125 1.434.308 1.715.984 1.799 2.395.084 1.406.084 2.643.084 9.5v7.748c0 4.299 0 7.697-.215 9.539-.161 1.168-.365 2.148-1.176 2.312-.492.109-.977.174-1.297.174-.353 0-.479.199-.479.387 0 .48.562.48.829.48l3.949-.125.194-.004.516.018 4.894.111c.689 0 .832-.26.832-.48 0-.178-.125-.387-.482-.387-.375 0-1.331-.088-1.958-.178-1.175-.152-1.468-.93-1.612-2.309-.216-1.842-.216-5.24-.216-9.539v-1.054c0-.207.083-.229.179-.229l5.413.091c.22 0 .322.065.482.226l1.646 2.246 3.143 4.258.558.74c2.2 2.898 3.653 4.82 5.422 5.766 1.198.643 2.361.85 4.772.85h3.124c.649 0 1.184-.033 1.184-.48-.002-.211-.244-.389-.529-.389m-17.365-15.65c-1.05.729-2.346.814-3.227.814-1.913 0-3.917-.304-4.559-.685-.171-.104-.244-.234-.244-.42v-14.394c0-.2.087-.338.269-.412.409-.121 1.571-.256 2.903-.256 4.69 0 7.486 3.244 7.486 8.68 0 3.051-.98 5.544-2.628 6.673m-56.5-2.591l-1.23-.971c-3.998-3.268-5.325-4.781-5.325-7.293 0-2.98 2.128-4.979 5.289-4.979 3.752 0 5.02 1.582 5.388 2.263.257.464.516 1.628.56 2.152.04.312.083.69.478.69.398 0 .434-.588.434-1.137 0-2.352.108-3.749.156-4.348l.021-.322c0-.381-.273-.438-.568-.438-.317 0-.637-.03-1.513-.217-1.259-.299-2.569-.443-4.121-.443-5.614 0-9.237 3.16-9.237 8.05 0 2.949.979 5.723 5.766 9.652.005 0 1.983 1.627 1.983 1.627 3.938 3.25 5.02 4.931 5.02 7.826 0 2.846-2.118 5.727-6.166 5.727-3.443 0-5.836-1.639-6.395-4.387-.126-.602-.126-1.205-.126-1.604 0-.258 0-.613-.438-.613-.373 0-.443.426-.479.82 0 .004-.038.529-.038.529-.07.885-.185 2.369-.185 4.146 0 1.207.053 1.449.736 1.787 1.656.812 3.604 1.203 5.951 1.203 2.641 0 4.967-.646 6.72-1.871 2.799-1.986 3.796-5.131 3.796-7.408 0-3.386-1.06-6.179-6.473-10.444m33.371 12.915c-.354 0-.439.346-.515.764-.308 1.781-.823 2.615-1.908 3.074-1.118.475-3.03.475-4.177.475-4.413 0-4.856-.617-4.978-3.488-.035-.666-.021-3.506-.008-5.584l.008-1.939v-3.873c0-.127.053-.178.179-.178.743 0 5.105.086 6.281.216 1.606.165 2 .825 2.183 1.449.169.556.169.977.169 1.419 0 .32.168.521.433.521.438 0 .438-.578.438-.963 0-.317.088-1.943.174-2.802l.274-1.943.083-.534c0-.421-.222-.481-.348-.481-.223 0-.4.203-.689.542l-.07.073c-.368.412-.992.494-1.981.572-.959.084-5.992.087-6.988.087-.094 0-.137 0-.137-.312v-12.148c0-.315.091-.315.137-.315.523 0 5.283.046 6.02.135 2.339.259 2.741.771 3.02 1.417.198.481.252 1.193.252 1.536 0 .464.161.697.48.697.312 0 .402-.438.431-.584.061-.352.115-1.279.158-2.027l.061-.893.267-1.531.091-.547c0-.434-.166-.525-.305-.525l-.402.127-.239.1c-.373.09-1.088.174-1.873.216-.994.044-9.705.044-10.07.044l-.589-.021-4.387-.113c-.27 0-.827 0-.827.48 0 .227.199.393.476.393.4 0 1.128.043 1.467.125 1.437.308 1.713.984 1.796 2.395.088 1.406.088 2.643.088 9.5v7.748c0 4.299 0 7.697-.216 9.539-.191 1.385-.436 2.166-1.176 2.312-.492.109-.972.174-1.299.174-.351 0-.477.209-.477.387 0 .48.56.48.834.48l2.558-.086 1.594-.039.158-.004 1.685.057c1.703.078 4.563.207 9.188.207 1.709 0 2.168 0 2.497-1.24.232-.965.579-3.961.579-4.303-.0001-.315-.0001-.788-.395-.788m102.12 5.326c-.434 0-1.08-.043-1.717-.26-.99-.283-2.195-1.072-3.709-4.812-1.918-4.775-5.975-15.373-8.398-21.706l-1.857-4.837c-.523-1.354-.729-1.668-1.09-1.668-.355 0-.549.322-1.084 1.802l-9.996 27.338c-.723 2.01-1.488 3.393-2.887 3.887-1.164-.281-2.766-.98-4.686-3.01-2.238-2.395-4.84-5.73-7.852-9.599 0 0-1.104-1.415-1.23-1.575 3.602-3.346 5.285-6.581 5.285-10.179 0-3.053-1.943-5.262-3.09-6.086-2.41-1.73-5.465-1.965-8.129-1.965l-3.713.091-1.484.044-.584-.021-4.386-.113c-.27 0-.833 0-.833.48 0 .227.204.393.48.393.396 0 1.127.043 1.467.125 1.436.308 1.707.984 1.795 2.395.086 1.406.086 2.643.086 9.5v7.748c0 4.299 0 7.697-.217 9.539-.162 1.168-.365 2.148-1.176 2.312-.488.109-.973.174-1.295.174-.356 0-.482.209-.482.387 0 .48.564.48.833.48l3.943-.125.193-.004.521.018 4.893.111c.686 0 .834-.26.834-.48 0-.178-.125-.387-.48-.387-.383 0-1.332-.088-1.961-.178-1.174-.152-1.469-.93-1.611-2.309-.219-1.842-.219-5.24-.219-9.539v-1.054c0-.207.084-.229.18-.229l5.414.091c.221 0 .326.065.482.226l1.635 2.23 3.154 4.273.562.744c2.201 2.898 3.648 4.816 5.418 5.762 1.168.625 2.301.842 4.582.85.053 0 .102 0 .145 0h.004c.018 0 .025 0 .039 0h3.129c.361 0 .689-.012.908-.104l.891-.025 1.119.043 2.312.086c.523 0 .789-.16.789-.48 0-.178-.1-.387-.566-.387h-.439c-.598 0-1.551-.312-1.551-1.148 0-.787.221-1.818.609-2.908.004-.002 2.646-7.795 2.646-7.795.096-.232.211-.268.316-.268h9.467c.158 0 .207.053.281.193-.004-.008 4.092 10.818 4.092 10.818.115.322.129.609.033.809-.049.109-.129.188-.219.217-.328.078-.396.277-.396.43 0 .359.438.381 1.236.42l.203.014c.006 0 6.918.086 6.918.086.67 0 1.01-.16 1.01-.48.003-.389-.409-.389-.565-.389m-45.801-15.65c-1.051.729-2.348.814-3.232.814-1.914 0-3.912-.304-4.555-.685-.168-.104-.246-.234-.246-.42v-14.394c0-.2.092-.338.271-.412.408-.121 1.57-.256 2.902-.256 4.689 0 7.492 3.244 7.492 8.68.0001 3.051-.983 5.544-2.632 6.673m32.639 1.696h-8.406c-.021-.004-.035-.018-.035-.049 0-.018.006-.047.021-.085 0-.011 3.879-11.896 3.879-11.896.121-.373.209-.404.209-.408.002.004.086.043.205.412l4.186 11.887c0 .012.012.129.012.129l-.071.001m48.654-10.637c-7.176 0-9.85 5.994-9.85 9.772 0 4.733 3.037 9.825 9.701 9.825 5.777 0 9.973-4.299 9.973-10.218 0-5.61-3.947-9.379-9.824-9.379m.516 18.418c-4.576 0-7.779-3.838-7.779-9.338 0-4.937 2.717-8.01 7.09-8.01 3.557 0 7.385 2.816 7.385 8.994-.0001 7.946-5.579 8.349-6.696 8.349m-23.756-18.08h-.469l-2.744.061-.588.013-.33-.007-2.465-.066c-.15 0-.512 0-.512.317 0 .156.135.269.318.269l.811.068c.701.152.918.443.971 1.303.049.785.049 1.479.049 5.326v4.342c0 2.317 0 4.317-.121 5.349-.107.77-.232 1.176-.621 1.254l-.721.096c-.234 0-.314.143-.314.27 0 .316.363.316.516.316l2.02-.062.402-.012.672.049c1.125.086 3.221.246 4.809.246 3.156 0 5.771-.994 7.568-2.875 1.719-1.811 2.703-4.377 2.703-7.05 0-3.162-1.324-5.201-2.43-6.35-2.798-2.892-7.01-2.869-9.522-2.857m7.547 15.79c-1.434 1.436-3.549 2.26-5.789 2.26-2.859 0-3.809-.508-4.102-.934-.191-.26-.238-1.389-.252-1.812-.025-.451-.047-2.623-.047-5.357v-3.062l.021-5.253c0-.243.061-.317.225-.391.172-.083 1.035-.161 1.559-.161 3.223 0 5.818.469 7.99 2.754.873.917 2.334 2.93 2.334 6.14 0 2.381-.758 4.662-1.939 5.816" style="fill:#1b1c20"/><g style="fill:#00a651"><path d="m213.57 7.304c-.485-3.177-3.03-5.186-6.46-5.957-1.438-.305-3.076-.452-4.811-.452-8.131 0-18.271 2.981-20.12 2.981-.232 0-1.078.164-.942.611.104.369.396.842 1.289 1.375.552.347 1.224.46 1.994.46 4.126 0 11.229-3.938 18.398-3.938 1.037 0 2.086.078 3.124.268 1.904.344 2.572 1.076 2.876 1.914 1.754 4.832-10.61 10.746-13.742 12.928-.455.303-.634.646-.596.914.045.27.267.461.689.461.191 0 .377-.039.64-.113.395-.139 2.767-1.227 4.229-1.596 2.202-.668 2.323-.087 4.536-1.029 6.759-2.88 9.374-5.764 8.9-8.827"/><path d="m196.91 7.203c-.108-.706-.426-1.283-.984-1.739-.413-.269-.683.513-.751.694-.501 1.263-3 4.074-5.168 7.318-1.979 2.945-3.69 6.312-3.266 9.102.295 1.912 1.479 3.098 2.79 3.865.884.494 1.521.876 1.868.876.347 0 .455-.304.43-.454-.022-.152-.156-.27-.541-.27-.426 0-.659-.27-.725-.729-.244-1.567 1.135-5.618 3.708-10.746 1.65-3.327 2.924-6.04 2.639-7.917"/><path d="m407.81 22.656c-.113 0-.32.156-.555.383-.994 1.07-2.398 2.754-3.363 2.754-.078 0-.209-.113-.221-.191-.365-2.373 7.432-16.14 6.832-20.04-.043-.27-.113-.499-.541-1.032-.24-.309-1.438-.413-1.703.416-.996 2.277-6.096 9.484-7.24 15.253-1.271 1.522-3.145 3.665-4.045 4.45-.137.117-.621.534-.738.534-.195 0-.352-.177-.352-.382 0-.117 0-.27.012-.42.287-1.371 1.633-3.826 2.031-5.197.512-2 .477-4.325-.094-5.158-1.234-2.031-2.346-2.611-3.42-2.611-.504 0-.875.073-1.631.455-1.779.89-6.113 4.04-8.334 8.139-.27.165-.686.543-1.246 1.197-1.17 1.415-3.215 3.938-3.941 3.938-.119 0-.17-.078-.188-.19-.021-.152-.012-.347.061-.611.32-1.414 1.4-3.445 1.934-5.241.023-.073.035-.151.059-.226.037-.143.078-.281.104-.424.004-.006.004-.001.001-.014l-.006-.004c.127-.621.156-1.236.061-1.858-.209-1.378-1.617-2.025-2.316-2.063-.309 0-.363.151-.363.65-.006.16-.162.959-.557 1.73-.074.144-2.586 3.662-4.998 5.306-.289.204-1.057.881-1.404.881-.113 0-.205-.077-.227-.229-.031-.191.039-.499.16-.955.205-.646.883-1.648 1.555-2.768.004-.004.001-.013.012-.018 1.01-1.812 1.455-3.123 1.455-3.123.115-.473.168-.933.104-1.358-.145-.954-.934-1.839-2.689-2.241-.152-.035-.551.22-.496.559.041.252-.293.967-.771 1.935-.309.62-.672 1.346-1.035 2.121-.059.118-.113.239-.172.36-.029.074-.061.143-.096.217-.008.021-.02.043-.029.07-.42.928-.816 1.912-1.1 2.871-1.463 1.844-3.797 4.494-4.643 4.815-.184.078-.336.112-.414.112-.113 0-.193-.034-.246-.382-.264-1.718 2.477-12.731 7.258-17.741.59-.543.74-1.187.412-1.469-.699-.589-1.857-1.135-2.773-1.135-1.158 0-3.121 4.512-5.074 8.641-.082.187-.242.456-.482.811-.881-2.454-4.168-2.107-4.168-2.107l.012.008c-.037-.004-.078-.008-.107-.008-.348 0-.65.039-.932.191-1.434.732-4.166 4.477-5.428 8.115-1.26 1.506-3.01 3.51-3.893 4.277-.133.117-.619.534-.738.534-.189 0-.35-.177-.346-.382 0-.117-.004-.27.001-.42.287-1.371 1.631-3.826 2.029-5.197.516-2 .479-4.325-.092-5.158-1.236-2.031-2.34-2.611-3.424-2.611-.498 0-.875.073-1.625.455-1.801.898-6.211 4.108-8.406 8.277l-.006.004c-.125.078-.273.196-.443.365-3.186 3.326-5.615 5.314-6.664 5.314-.344 0-.527-.187-.584-.573-.227-1.454.973-4.204 3.584-10.06.09-.151.191-.27.383-.27 1.877-.078 4.264-.078 5.277-.494.404-.156.6-.386.578-.538-.025-.151-.191-.229-.539-.229-.924 0-2.707-.04-4.59-.04-.312 0-.355-.034-.295-.151 1.076-2.256 1.416-3.596 1.25-4.667-.117-.769-.518-1.263-1.059-1.628-.775-.291-.893.43-.928.548-.273.958-1.74 3.86-3.24 5.938-.695 0-1.279-.04-2.898-.04-.504 0-.748.156-.713.383.014.116.113.229.248.386.326.343.566.382 1.502.455.385.04.619.04 1.123.04-.984 1.384-1.645 2.538-2.26 3.999-1.207 1.11-3.219 2.785-3.896 3.306.039-1.761-1.625-2.755-2.703-3.747-.182-.191-.277-.309-.303-.461-.064-.42.746-.685 1.963-1.302 1.104-.573 1.643-1.071 1.551-1.683-.061-.378-.355-.799-.906-1.376-1.102-1.149-1.449-1.413-1.68-1.413-.156 0-.254.117-.434.189-2.824 1.189-3.617 2.296-3.436 3.479.186 1.229 1.562 2.413 2.66 3.52.268.269.367.581.434.846 1.109 4.139-3.66 4.169-4.805 5.544-.289.342-.875.65-.828.953.043.27.188.465.443.612.422.234 1.055.348 1.822.348 2.625 0 6.654-1.341 6.338-3.905-.018-.125 1.611-1.561 2.98-2.937-.342 1.137-.42 2-.277 2.937.416 2.717 3.037 3.484 4.04 3.484 2.068 0 4.086-2.108 6.484-5.197-.061.187-.125.378-.176.568 0 .004 0 .008 0 .008-.031.145-.053.297-.061.452 0 .013 0 .025 0 .039-.001.143 0 .286.016.429.004.021 0 .043.004.066.119.785.564 1.587 1.146 2.195.406.42.881.744 1.367.906.211.068.43.113.641.113.078 0 .156-.001.234-.023.312-.039.625-.159.889-.438 2.285-2.178 4.695-5.262 6.426-7.448.105-.074.184-.074.262-.074.109 0 .162.074.176.152.018.117-.039.269-.121.46-.836 1.838-.984 2.972-.816 4.082.258 1.679.959 2.455 1.871 2.759.473.152 1.428.021 1.777-.308.479-.439 1.75-1.888 3.117-3.457-.059.33-.096.654-.107.967-.076 1.526 2.314 3.059 3.586 3.059.234 0 .459-.039.594-.152 1.365-.92 4.775-6.581 5.723-8.455.141-.303.281-.42.393-.42.078 0-.033.27-.08.459-.574 2.065-1.377 4.091-1.055 6.199.289 1.908 1.805 2.486 2.766 2.486.311 0 .57-.078.713-.156.938-.564 2.789-2.521 4.23-4.291-.061.516-.07 1.01 0 1.463.281 1.835 1.787 2.369 2.441 2.369 2.201 0 4.402-3.979 6.59-6.05.234-.225.334-.342.373-.342s.043.035-.043.229c-.682 1.565-.881 2.794-.734 3.749.154.992.689 1.756 1.424 2.256.344.23.668.346 1.016.346 1.746 0 3.408-2.682 4.547-4.207-.061.19-.131.382-.18.572-.004.021-.004.043-.008.061-.027.121-.045.247-.047.382-.006.025-.006.048-.006.078-.008.126 0 .261.018.396 0 .025-.004.051 0 .078.242 1.569 1.771 3.215 3.154 3.215h.004c.078 0 .16-.001.244-.023.307-.043.617-.164.881-.438 2.285-2.178 4.688-5.262 6.424-7.448.104-.074.182-.074.26-.074.113 0 .166.074.18.152.012.117-.041.269-.127.46-.832 1.838-.982 2.972-.814 4.082.258 1.679.959 2.455 1.873 2.759.467.152 1.426.021 1.779-.308.533-.496 2.072-2.256 3.617-4.04-.018.499-.001.98.061 1.437.143.92.504 1.761 1.072 2.447.566.689 1.193.998 1.848.998 1.117 0 2.43-1.264 3.77-3.328.287-.426.359-.689.342-.803-.013-.039-.056-.078-.095-.078m-62.746-5.665c-1.547 1.176-4.02 3.761-5.633 5.244-.107.101-.203.169-.295.23-.084.06-.16.099-.234.13-.006.004-.021.012-.035.018-.066.025-.131.043-.18.043-.102 0-.18-.038-.248-.096-.113-.092-.188-.234-.213-.403-.014-.083-.008-.165 0-.243.004-.021.004-.044.001-.064.012-.088.033-.178.061-.266.012-.043.035-.09.051-.135.029-.085.064-.168.105-.255.047-.108.098-.222.156-.333v-.006-.004c1.434-2.898 5.346-6.211 7.611-6.395.57.152.504.885.26 1.123-.199.201-.801.796-1.416 1.412m15.967-1.02l.049-.026c-1.045 1.396-2.555 3.345-4.559 5.947-.904 1.146-1.15 1.297-1.416 1.297-.078 0-.16-.039-.199-.264-.035-.23.049-.69.209-1.15 1.311-4.104 3.488-7.449 5.166-7.669 1.597.732.75 1.865.75 1.865m33.16 1.02c-1.543 1.176-4.02 3.761-5.629 5.244-.275.247-.484.364-.643.403-.039.001-.074.018-.105.018-.09 0-.164-.035-.229-.078-.127-.092-.205-.242-.229-.421-.033-.191.014-.382.062-.573.047-.142.113-.29.178-.441.131-.287.293-.582.48-.881-.006-.006-.006-.009-.012-.013 1.674-2.772 5.172-5.623 7.283-5.792.568.152.504.885.262 1.123-.198.2-.801.795-1.418 1.411"/><path d="m310.81 25.867c-4.285.957-7.5 1.344-9.773 1.344-3.045 0-4.498-.693-4.654-1.688-.324-2.143 5.338-5.695 13.414-6.542.533-.039.672-.151.629-.417-.217-1.417-1.402-3.864-3.18-3.635-.678.086-1.787.334-3.082.716-1.764-.173-5.221-.294-7.213-1.02-1.047-.382-1.625-1.292-1.701-1.752-.41-2.712 13.363-8.503 19.752-8.03 1.424.104 1.926.725 2.125 1.311.119.351.799.686 1.26.207.463-.48.779-1.071.889-1.951.131-1.037-1.25-4-5.371-3.935-4.977.077-22.08 4.858-21.11 11.209.117.765.512 1.565 1.26 2.408 1.254 1.38 3.355 1.947 5.422 2.194.771.092 1.596.16 2.377.148-3.883 1.483-8.1 3.986-7.592 7.297.082.533.279 1.07.59 1.604 1.479 2.603 3.908 3.636 6.611 3.636 3.047 0 6.473-1.263 9.496-2.643.223-.072.385-.27.367-.381-.007-.033-.068-.19-.517-.076"/><path d="m284.01 18.296c-.072 0-.141.039-.211.111-2.045 2.525-8.158 6.717-10.508 6.717-.5 0-.914-.188-.92-.955.018-.789.131-1.521.307-2.211.244-.057.553-.141.941-.262 2.135-.655 6.969-2.914 7.086-5.08.001-.242.021-.659-.17-1.01-.395-.729-1.842-1.938-3.648-2.819-.293-.152-.576-.23-.885-.23-2.16 0-4.609 3.865-5.688 6.386-.207.491-.307.747-.438 1.276-.139.13-.756 1.113-1.332 1.684-1.176 1.418-2.742 3.239-3.361 3.239-.121 0-.168-.078-.186-.19-.029-.152-.014-.347.061-.611.324-1.414 1.398-3.445 1.934-5.241.256-.841.357-1.683.23-2.525-.213-1.378-1.623-2.025-2.32-2.063-.311 0-.365.151-.365.65-.006.23-.312 1.722-1.176 2.637-.955 1.072-1.619 2.031-4.373 4.399-.277.23-1.057.881-1.41.881-.113 0-.199-.077-.227-.229-.029-.191.041-.499.162-.955.465-1.492 3.49-4.897 3.123-7.267-.143-.954-.928-1.839-2.686-2.241-.156-.035-.555.22-.498.559.102.624-2.047 3.991-3.09 7.188-1.525 1.342-3.635 2.776-5.35 3.592 1.906-2.867 3.354-6.784 3.16-8.753-.113-1.224-2.123-2.794-3.055-3.328-.168-.117-.412-.191-.605-.191-.191 0-.383.035-.518.152-1.676 1.176-3.527 3.458-4.934 6-1.791 1.674-4.818 4.585-6.246 5.773-.244.195-.387.27-.465.27-.074 0-.078-.041-.082-.074-.035-.195.051-.387.109-.537.223-.534.797-1.566 1.266-2.79.33-.846.646-2.069.523-2.872-.061-.382-.229-.726-.492-.955-1-.768-1.723-1.188-2.689-1.188-.695 0-1.471.195-2.566.615-.107.034-.215.074-.293.074-.117 0-.209-.074-.217-.152-.014-.078.053-.156.186-.27 1.051-.954 1.531-1.604 1.42-2.334-.094-.572-.707-1.335-1.785-2.333-.096-.112-.336-.19-.527-.19-.195 0-.383.043-.486.115-2.092 1.455-2.855 2.486-2.65 3.824.107.689.498 1.496 1.139 2.411.102.156-1.859 2.528-2.875 3.653-1.264 1.53-2.597 3.17-3.548 3.998-.134.117-.619.534-.738.534-.193 0-.354-.177-.35-.382 0-.117 0-.27.013-.42.287-1.371 1.631-3.826 2.029-5.197.514-2 .473-4.325-.094-5.158-1.238-2.031-2.343-2.611-3.423-2.611-.498 0-.871.073-1.625.455-2.147 1.076-8.03 5.437-9.404 10.789-.07.305-.091.65-.043.994.241 1.569 1.769 3.215 3.152 3.215.387 0 .794-.119 1.127-.461 2.283-2.178 4.694-5.262 6.421-7.448.104-.074.181-.074.259-.074.113 0 .167.074.179.152.018.117-.04.269-.12.46-.839 1.838-.987 2.972-.816 4.082.26 1.679.957 2.455 1.873 2.759.468.152 1.422.021 1.777-.308 1.126-1.041 6.686-7.674 7.383-8.359.234-.23.527-.439.904-.616.725-.343 2.465-1.089 3.354-1.089.381 0 .48.15.506.307.066.417-.645 1.568-1.334 2.6-1.188 1.801-1.889 2.793-2.117 3.787-.143.572-.221 1.072-.143 1.57.119.803.541 1.297 1.596 2.139.527.42.814.533 1.162.533.541 0 1.297-.342 2.105-1.105.932-.924 3.354-3.692 5.533-6.03-.541 1.322-.828 2.55-.686 3.465.041.27.131.611.283.842.293.42.898 1.341 1.084 1.531.191.227.367.422.383.496.016.115-.125.193-.387.229-.607.078-1.393.23-1.887.768-.166.191-.213.382-.184.573.059.382.547.802 1.051.802.191 0 .449-.038.615-.229.426-.499.973-.69 1.555-.69 3.354 0 9.316 6.233 15.676 6.233 2.393 0 4.803-.838 7.207-3.249.164-.19.291-.382.27-.538-.001-.035-.053-.074-.092-.074-.033 0-.146.039-.248.156-.979 1.146-2.494 1.566-4.264 1.566-5.357 0-13.07-4.052-15.77-4.551-.236-.039-.326-.117-.338-.195-.018-.113.121-.225.15-.264.184-.122.371-.266.557-.426 2.195-.09 4.924-2.1 6.963-4.281-.113.602-.154 1.6.004 2.057.621 1.752 1.762 2.113 2.416 2.113 2.201 0 4.404-3.979 6.592-6.04.234-.225.332-.342.371-.342.035 0 .043.035-.041.229-.688 1.565-.883 2.794-.738 3.749.156.992.691 1.756 1.428 2.256.342.23.666.346 1.014.346 1.801 0 3.461-2.629 4.598-4.129-.025.43.029.65.092 1.066.111.725.381 1.453.902 2.104.949 1.185 1.943 1.604 3.137 1.604 3.773 0 8.488-4.702 10.467-8.143.057-.117.078-.23.072-.309-.018-.112-.112-.191-.19-.191m-6.484-2.603c.322-.152.604-.342.873-.342.188 0 .344.078.377.459.115 1.514-2.283 4.117-5.732 5.02 1.077-2.734 3.193-4.487 4.482-5.133m-57.53 1.298c-1.539 1.176-4.01 3.761-5.628 5.244-.34.308-.592.421-.742.421-.27 0-.426-.229-.464-.499-.027-.191.021-.382.068-.573 1.01-2.984 5.464-6.928 7.928-7.127.57.152.5.885.263 1.123-.203.2-.803.795-1.425 1.411m25.308 6.962c-.242.156-.498.273-.611.273-.117 0-.127-.083-.143-.195-.018-.113-.004-.27.039-.455 1.201-3.748 2.484-5.93 3.557-7.232 1.432-1.718 2.725-1.834 2.842-1.834.156 0 .164.074.178.151.021.156.001.309-.039.499-.195.992-1.691 4.551-3.814 7.04-.63.69-1.302 1.341-2.01 1.757"/></g><path d="m264.78 80.78c-48.08-2.311-76.24-2.09-92.31-2.715-16.09-.477-20.14-.998-20.14-.998-6.36-.807-11.565.049-11.565 1.914s5.362 3.361 11.918 3.305c75.33-2.463 150.47 4.205 225.99 2.486 6.557-.121 17.277-.221 23.828-.23 12.998 0 26-.143 39.01-.516 6.562-.186 11.822-2.029 11.688-3.996-.145-1.973-5.219-2.32-11.328-.857-.004-.043-2.537.746-25.938 2.111-23.395 1.237-67.743 3.332-151.16-.504" style="fill:#ffcb05"/><path d="m50.825 107.56c-2.224.379-6.916-.338-9.3.117-5.78 1.115-8.02-.801-12.779-1.785-4.051-.842-7.731-.291-7.678-2.824.024-1.463 1.221-3.961 5.326-4.209 4.094-.504 10.483-1.137 14.461-1.777.063-.016.128-.018.199-.027-.421-.291-.491-.754-.697-1.27-.398-.998 4.506-3.076 5.999-3.914 1.717-.949 3.245-1.705 5.327-1.492-1.088-.344-1.01-.971-1.193-1.736-.249-1.051 4.908-2.324 6.51-2.92 1.932-.697 3.618-1.236 5.801-.545 2.175.693 1.211 1.918 1.699 2.963.083.174.105.344.088.5.26-.195.569-.396.904-.6-.03-.105-.051-.219-.046-.354.016-.857.713-2.324 3.13-2.473 2.401-.293 6.16-.668 8.496-1.043.04-.006.075-.012.116-.018-.247-.172-.287-.443-.41-.746-.232-.586 2.648-1.805 3.531-2.301 1-.559 1.901-1 3.125-.875-.635-.201-.595-.568-.7-1.02-.144-.615 2.883-1.369 3.829-1.715 1.133-.414 2.125-.727 3.408-.318.952.297.879.773.899 1.252.999-.447 3.373-.666 4.27-.838.279-.053.552-.1.823-.139-5.646-.916-13.726-2.291-13.726-2.721 0-.904-1.058-25.828-1.528-26.09-.471-.256-15.173-.567-16.09.288-.144.134.345 4.867.345 4.867s.72 18.503.468 19.761c-.043.184-10.482-1.48-12.1-1.584-1.136-.074-2.966.246-7.51.326l-5.589 2.504c-.003.062-.001.107-.016.107-.148.104-.567.246-1.135.408l-.011.004v-.004c-1.072.295-2.721.639-4.34.865l-.999.279c0 0-.116-.049-.299-.127-1.016.102-1.952.131-2.643.043-2.28-.281-9.241.674-9.241.674l-1.08-.09-1.378-.248v-.16c-1.663.178-2.58-.426-5.846-.092-3.314.34-3.947-.984-3.947-.984l6.73-1.154c1.064-.16 2.089-.408 3.068-.662l.026-14.699 9.963-9.06-13.265-1.418-8.83 3.366-2 .982c.169 1.996.297 3.822.297 4.786 0 3.352-.839 11.174-.049 15.03.021.088.034.15.049.232v8.338c-.032.33-.053.666-.022.996.008.115.018.232.022.35v6.03c-.384 2.694-1.202 4.997-.521 8.2.612 2.865-.752 5.707-.874 8.576-.228 5.08 4.573 6.191 9.355 6.146 2.498-.018 4.998-.352 6.756-.592 3.232-.449 5.47-.994 8.86-1.012 2.83-.012 5.515.82 8.251.787.186 0 .37-.002.551-.021 2.251-.207 4.65-.303 7.122-.314 2.593-.001 5.254.074 7.865.213-.249-.195-.496-.408-.745-.625-.45-.377-.805-1.697-1.079-2.406" style="fill:#00a651"/><g style="fill:#ffcb05"><path d="m40.28 71.52l1.851.488 2.429-1.617.006.008c-.822-1.492-1.729-3.309-1.729-3.309l-.076-4.596c0 0-.083-.645-.013-.879.078-.24.526-1.484.526-1.484s-.108-1.816-.108-2.055c-.007-.234.048-1.709.048-1.709l.609-.716c0 0 .199-2.01.343-2.569.156-.555-.249-1.258-.483-1.254-.234.006-.771-.706-.771-.706l-.413-3.271c0 0-1.018-22.23-1.09-26.653-.003-.344-.166-1.576-.254-2.277-.44-.043-.849-.088-1.241-.127.306 3.149.434 41.05.366 52.726"/><path d="m23.907 44.921l7.636-1.037 3.218 1.752.271-.134.392-.242.843-2.191-.325-16.584c0 0 2.843-6.991 2.932-7.616.014-.072.034-.125.056-.181-1.529-.161-2.507-.265-2.507-.265l-.943 1.571-3.532 6.997c0 0-1.284-1.536-1.458-1.931-.108-.255.309-1.057.309-1.057l2.043-4c0 0 .772-2.338 1.747-4.103l1.868-.1 6.854-12.477c-.777-.014-1.857.014-3.791.014-4.134 0-9.584-.275-13.685-.001-1.807.118-3.596.7-5.413.334-1.651-.33-2.888-.668-4.632-.668-7.766 0-14.55-.057-12.04 10.286-.023 1.059.604 3.753.604 6.759 0 2.402.21 16.385.047 21.977l10.309-3.688 9.194 6.599"/></g><path d="m107.98 45.731c-1.624.009-6.518.04-7.05.066-1.107.053 1.404 31.05.388 32.497 0 0-.828-.125-2.122-.33 1.241.74.496 1.484.692 2.266.206.805-.866 1.195-2.06 1.371-1.206.178-3.767-.473-5.697-.941-1.037-.252-1.438-.525-1.599-.844-.292.193-.688.355-1.115.49-.992.314-3.266.17-4.97.074-.15-.008-.284-.021-.407-.033.818.291.508.967.836 1.461.375.562-.398 1.156-1.327 1.623-.697.348-2.13.555-3.517.715 3.962.752 4.01 4.951 3.615 6.268-.182.621-3.165.391-5.189.518.237.104.477.23.721.387 1.444.951.511 1.664.664 2.533.156.873-1.047 1.166-2.363 1.225-1.324.055-4.081-.9-6.146-1.602-2.072-.695-1.742-1.236-1.725-2.057.021-.607 2.175-.721 3.821-.787-.485-.195-.959-.41-1.455-.623-1.48.441-3.789.701-5.613.92-2.276.273-2.195-.416-2.538-1.248-.005-.012 0-.025-.005-.041-.501.344-1.206.633-1.959.869-1.691.531-5.559.289-8.461.123-.255-.012-.479-.033-.69-.053 1.393.492.861 1.646 1.42 2.488.643.955-.675 1.965-2.258 2.76-1.184.588-3.625.947-5.986 1.213 2.406.457 3.973 1.658 4.946 3.119.061-.16.126-.314.191-.463 1.372-2.846 7.515-1.893 9.756-2.555 2.232-.656 12.223-.201 14.01.893 1.79 1.09-2.734 5.693-4.282 7.627-1.546 1.93-4.62 2.799-6.77 2.572-2.143-.229-3.178 1.268-5.474 2.514-.05.029-.096.047-.146.072 1.565.119 1.271.242 2.724.383 1.518.146 2.979.199 4.393.186 6.126-.064 11.385-1.393 16.666-1.98.277-.031.552-.049.821-.064 3.484-.111 6.192 1.52 9.649 1.572.528.008 1.077-.021 1.648-.104.812-.109 1.64-.145 2.476-.135 2.087.02 4.224.311 6.299.299.415-.006.825-.018 1.235-.049 2.465-.178 4.111-3.939 4.33-7.566h.142l-.517-57.629m-12.351 42.02c-.908 1.137-2.719 1.648-3.979 1.514-1.262-.133-2.943.746-4.29 1.475-1.35.744-1.961.148-2.664-.453-1.178-1-1.324-4.361-.519-6.03.804-1.676 4.419-1.117 5.732-1.506 1.312-.387 7.186-.113 8.235.525 1.05.64-1.606 3.347-2.515 4.48" style="fill:#0082c6"/><path d="m107.64 9.127l-.602-1.787c-.325-.885-.678-1.553-1.01-1.904-1.969-2.031-5.01-1.342-7.424-.908-3.275.59-4.716-.663-7.744-1.265-2.92-.574-6.286.412-9.274.359-2.417-.047-3.22.387-6.465.852-2.797.399-8.259-.502-8.955-.539-.696-.036-3.321.009-4.869.166-1.548.155-8.818 1.146-12.13.36-1.338-.316-2.256-.546-2.95-.713 2.345 2.807 5.988 12.305 6.92 12.665 1.11.426 3.877.681 3.877.681s1.249 2.812.483 3.042c-.113.034-.335.052-.651.056-2.209.032-8.957-.594-14.1-1.11.224 2.337 1.648 1.566 2.384 1.627 3.938.338 9.576.95 9.64 1.613.08.956.725 10.6.725 10.6s15.31-3.849 15.659-3.762l36.791 13.01-.305-33.05" style="fill:#e54e26"/></svg>