<svg xmlns="http://www.w3.org/2000/svg" viewBox="0 0 457 112" style="enable-background:new 0 0 457 112"><path d="m420.41 69.19c-.434 0-1.084-.045-1.721-.258-.988-.283-2.195-1.074-3.709-4.814-1.906-4.75-5.947-15.303-8.361-21.608l-1.895-4.934c-.525-1.354-.727-1.666-1.086-1.666-.355 0-.549.319-1.088 1.801l-9.992 27.337c-.838 2.322-1.73 3.812-3.596 4.055l-1.26.088c-.082 0-.156.012-.223.031-.096-.031-.197-.031-.25-.031-.43 0-1.566 0-2.826-.393-1.85-.602-2.123-3.078-2.287-4.559l-2.949-27.03c-.088-.825-.223-1.303-.654-1.303-.398 0-.602.386-.775.78-.002 0-11.598 24.771-12.828 27.402-.229-.471-13.355-27.451-13.355-27.451-.197-.438-.406-.731-.773-.731-.391 0-.527.453-.609.896 0 .009-3.17 28.71-3.17 28.71 0 .002-.016.16-.016.16-.17 1.617-.33 3.145-1.641 3.383-.65.131-.951.131-1.299.131-.275 0-.568.121-.568.346 0 .523.66.523.877.523l2.707-.092.99-.041.789.031 3.305.102c.32 0 .918 0 .918-.523 0-.217-.244-.346-.48-.346-.268 0-.916-.047-1.643-.217-.607-.123-1.045-.645-1.045-1.242l.043-2.236c0 0 1.605-18.643 1.746-20.264.656 1.544 5.344 11.598 5.762 12.432 0 .0001.215.434.215.434 2.605 5.227 4.266 8.52 4.936 9.781l.076.145c.83 1.574 1.027 1.949 1.4 1.949.428 0 .572-.303 1.262-1.76l.307-.646c0 0 9.703-20.594 10.697-22.701.041.45 2.092 22.482 2.092 22.482.029.271.041.506.041.701 0 .465-.066.715-.121.75-.172.033-.404.117-.404.43 0 .381.453.49 1.348.568 1.578.127 6.342.264 7.361.264.307 0 .555-.045.732-.123.213.121.541.123.756.123l3.967-.1 1.01-.033 1.121.047 2.312.086c.521 0 .787-.162.787-.48 0-.178-.098-.389-.566-.389h-.439c-.598 0-1.547-.312-1.547-1.15 0-.785.217-1.816.609-2.906 0-.002 2.643-7.794 2.643-7.794.092-.232.207-.266.318-.266h9.465c.158 0 .211.048.283.193-.006-.011 4.086 10.817 4.086 10.817.121.32.135.605.039.807-.051.107-.133.186-.225.217-.322.082-.393.277-.393.428 0 .361.438.385 1.234.424l.205.012c.004 0 6.918.088 6.918.088.67 0 1.01-.162 1.01-.48 0-.391-.412-.391-.567-.391m-13.162-13.954h-8.408c-.021-.004-.037-.018-.037-.047 0-.021.008-.05.023-.089.002-.008 3.875-11.893 3.875-11.893.125-.375.213-.407.213-.408 0 .003.086.044.207.408 0 .003 4.184 11.888 4.184 11.888 0 .016.012.132.012.132 0-.0001-.069.009-.069.009m48.95 13.954c-.26 0-.871 0-1.697-.131-1.178-.188-3.01-.719-5.299-3.133-2.236-2.391-4.84-5.732-7.855-9.603 0 0-1.098-1.409-1.223-1.568 3.6-3.346 5.283-6.583 5.283-10.18 0-3.053-1.941-5.264-3.088-6.088-2.412-1.729-5.463-1.961-8.131-1.961l-3.709.09-1.486.042-.584-.021-4.389-.111c-.27 0-.832 0-.832.479 0 .226.203.389.48.389.396 0 1.129.045 1.465.129 1.436.305 1.715.984 1.797 2.394.088 1.404.088 2.641.088 9.501v7.747c0 4.3 0 7.696-.219 9.538-.162 1.168-.361 2.148-1.176 2.312-.49.107-.975.174-1.295.174-.354 0-.48.209-.48.389 0 .48.562.48.832.48l3.941-.125.197-.008.521.018 4.893.115c.688 0 .83-.262.83-.48 0-.18-.125-.389-.479-.389-.381 0-1.334-.086-1.963-.176-1.168-.154-1.467-.932-1.609-2.309-.219-1.844-.219-5.24-.219-9.54v-1.056c0-.208.086-.225.18-.225l5.414.087c.221 0 .324.067.484.228 0 .002 1.639 2.232 1.639 2.232l3.148 4.27.551.725c2.203 2.91 3.658 4.832 5.432 5.781 1.199.645 2.359.852 4.771.852h3.125c.648 0 1.184-.037 1.184-.48.0001-.21-.239-.388-.522-.388m-17.372-15.65c-1.049.729-2.346.814-3.23.814-1.912 0-3.916-.302-4.557-.687-.17-.102-.246-.231-.246-.42v-14.393c0-.2.092-.338.273-.411.408-.121 1.572-.255 2.902-.255 4.688 0 7.488 3.244 7.488 8.679.0001 3.05-.983 5.545-2.63 6.673m-208.95 15.65c-.26 0-.869 0-1.697-.133-1.179-.188-3.01-.717-5.297-3.131-2.243-2.396-4.854-5.75-7.878-9.632 0 0-1.075-1.38-1.2-1.539 3.6-3.347 5.283-6.584 5.283-10.18 0-3.053-1.942-5.263-3.09-6.088-2.411-1.729-5.462-1.962-8.13-1.962l-3.713.091-1.48.042-.586-.021-4.389-.111c-.27 0-.831 0-.831.479 0 .227.201.391.479.391.398 0 1.129.045 1.466.129 1.435.305 1.714.984 1.797 2.394.088 1.404.088 2.641.088 9.501v7.747c0 4.3 0 7.696-.219 9.538-.161 1.168-.361 2.15-1.176 2.312-.49.107-.974.174-1.295.174-.354 0-.479.201-.479.389 0 .48.562.48.831.48l3.944-.125.196-.008.52.018 4.893.115c.687 0 .831-.262.831-.48 0-.18-.126-.389-.479-.389-.379 0-1.334-.086-1.964-.176-1.167-.154-1.465-.932-1.606-2.309-.22-1.844-.22-5.24-.22-9.54v-1.056c0-.209.085-.227.181-.227l5.412.089c.221 0 .323.067.484.228 0 .002 1.647 2.245 1.647 2.245l3.14 4.257.561.74c2.198 2.9 3.65 4.818 5.424 5.766 1.197.645 2.356.852 4.77.852h3.125c.648 0 1.184-.037 1.184-.48-.003-.212-.242-.39-.527-.39m-17.37-15.65c-1.05.729-2.346.814-3.229.814-1.914 0-3.916-.302-4.558-.687-.17-.102-.245-.231-.245-.42v-14.393c0-.2.091-.339.271-.411.407-.121 1.57-.255 2.902-.255 4.688 0 7.488 3.244 7.488 8.679 0 3.05-.983 5.544-2.629 6.673m-56.5-2.593l-1.232-.968c-3.993-3.269-5.322-4.781-5.322-7.295 0-2.979 2.125-4.979 5.287-4.979 3.754 0 5.02 1.585 5.391 2.266.254.465.514 1.625.558 2.15.038.311.084.69.479.69.4 0 .435-.588.435-1.139 0-2.35.108-3.748.155-4.345l.021-.323c0-.382-.272-.435-.567-.435-.317 0-.639-.033-1.514-.218-1.257-.302-2.567-.442-4.121-.442-5.612 0-9.238 3.159-9.238 8.05 0 2.951.981 5.722 5.769 9.651.0001 0 1.98 1.628 1.98 1.628 3.938 3.251 5.02 4.934 5.02 7.826 0 2.846-2.118 5.729-6.167 5.729-3.443 0-5.833-1.641-6.392-4.389-.128-.604-.128-1.205-.128-1.604 0-.258 0-.611-.437-.611-.372 0-.441.424-.478.82 0 .002-.039.527-.039.527-.068.887-.183 2.371-.183 4.148 0 1.207.054 1.449.731 1.787h.0001c1.657.809 3.605 1.201 5.954 1.201 2.642 0 4.965-.646 6.719-1.871 2.8-1.986 3.797-5.131 3.797-7.41-.0001-3.382-1.06-6.176-6.475-10.444m33.375 12.917c-.354 0-.445.346-.52.764-.306 1.783-.822 2.615-1.906 3.074-1.121.475-3.034.475-4.177.475-4.412 0-4.855-.617-4.979-3.488-.032-.662-.019-3.506-.008-5.584l.008-1.938v-3.873c0-.129.053-.181.181-.181.744 0 5.107.088 6.281.22 1.604.163 2 .823 2.181 1.447.171.558.171.976.171 1.418 0 .323.167.523.436.523.435 0 .435-.58.435-.964 0-.318.09-1.943.176-2.804 0-.0001.274-1.942.274-1.942l.079-.535c0-.418-.218-.479-.347-.479-.221 0-.397.203-.689.54l-.066.076c-.371.411-.997.491-1.984.573-.96.082-5.99.087-6.988.087-.092 0-.138 0-.138-.312v-12.15c0-.313.093-.313.138-.313.523 0 5.284.046 6.01.132 2.341.26 2.742.775 3.02 1.421.199.481.253 1.191.253 1.535 0 .464.161.698.479.698.312 0 .403-.439.433-.584.06-.354.116-1.281.161-2.027l.061-.893.261-1.531.093-.55c0-.432-.165-.522-.304-.522l-.403.126-.238.098c-.373.093-1.09.175-1.874.216-.996.044-9.703.045-10.07.045l-.588-.021-4.387-.111c-.27 0-.831 0-.831.479 0 .227.201.391.479.391.397 0 1.129.045 1.465.129 1.436.305 1.714.984 1.797 2.394.088 1.404.088 2.641.088 9.501v7.747c0 4.3 0 7.696-.219 9.538-.189 1.385-.434 2.164-1.175 2.312-.49.107-.974.174-1.297.174-.354 0-.479.209-.479.389 0 .48.562.48.832.48l2.559-.088 1.594-.039.161-.006 1.684.059c1.707.078 4.564.207 9.188.207 1.708 0 2.167 0 2.499-1.24.23-.961.577-3.959.577-4.303-.003-.317-.003-.79-.393-.79m102.12 5.326c-.432 0-1.08-.045-1.719-.26-.988-.281-2.195-1.072-3.709-4.812-1.916-4.773-5.973-15.372-8.398-21.704l-1.857-4.839c-.523-1.354-.727-1.665-1.086-1.665-.357 0-.551.319-1.088 1.801l-9.992 27.337c-.725 2.01-1.49 3.393-2.891 3.887-1.162-.283-2.762-.979-4.684-3.01-2.238-2.391-4.84-5.73-7.854-9.598 0 0-1.102-1.414-1.227-1.573 3.602-3.346 5.285-6.583 5.285-10.18 0-3.052-1.943-5.263-3.092-6.088-2.412-1.729-5.463-1.962-8.129-1.962l-3.711.091-1.484.042-.586-.021-4.387-.111c-.27 0-.832 0-.832.479 0 .227.201.391.479.391.398 0 1.131.045 1.467.129 1.436.305 1.713.984 1.797 2.394.088 1.405.088 2.641.088 9.501v7.747c0 4.3 0 7.696-.219 9.538-.162 1.168-.361 2.148-1.176 2.312-.49.107-.973.174-1.297.174-.354 0-.479.209-.479.389 0 .48.562.48.832.48l3.943-.125.195-.008.521.018 4.893.115c.686 0 .83-.262.83-.48 0-.18-.125-.389-.479-.389-.381 0-1.334-.086-1.963-.176-1.17-.154-1.467-.932-1.609-2.309-.219-1.844-.219-5.24-.219-9.54v-1.056c0-.209.086-.227.182-.227l5.412.089c.221 0 .324.067.484.227 0 .003 1.635 2.229 1.635 2.229l3.152 4.273.564.744c2.197 2.9 3.646 4.814 5.42 5.762 1.164.627 2.297.84 4.578.85.051.002.1.002.143.002h.008c.014 0 .025 0 .039 0h3.127c.363 0 .689-.014.908-.104l.891-.029 1.121.047 2.312.086c.523 0 .787-.162.787-.48 0-.178-.098-.389-.566-.389h-.439c-.598 0-1.547-.312-1.547-1.15 0-.783.217-1.814.607-2.906.002-.002 2.645-7.796 2.645-7.796.094-.233.213-.266.318-.266h9.465c.158 0 .209.049.281.194-.004-.001 4.09 10.818 4.09 10.818.119.32.133.607.037.809-.051.105-.133.184-.223.215-.324.08-.395.277-.395.428 0 .361.439.385 1.234.424l.205.012c.004 0 6.918.088 6.918.088.67 0 1.01-.162 1.01-.48.005-.391-.408-.391-.564-.391m-45.801-15.65c-1.051.729-2.346.814-3.23.814-1.914 0-3.916-.302-4.557-.687-.17-.102-.246-.231-.246-.42v-14.393c0-.199.092-.338.271-.411.408-.121 1.572-.255 2.902-.255 4.689 0 7.49 3.244 7.49 8.679.0001 3.05-.983 5.545-2.63 6.673m32.641 1.695h-8.408c-.021-.004-.037-.017-.037-.046 0-.021.008-.05.023-.089.002-.008 3.877-11.894 3.877-11.894.125-.375.211-.406.211-.407.002.003.086.043.209.408 0 .002 4.182 11.888 4.182 11.888 0 .015.012.131.012.131-.0001-.0001-.069.009-.069.009m48.65-10.638c-7.174 0-9.85 5.996-9.85 9.774 0 4.733 3.037 9.825 9.703 9.825 5.777 0 9.971-4.297 9.971-10.22.0001-5.61-3.947-9.379-9.824-9.379m.518 18.422c-4.58 0-7.781-3.84-7.781-9.339 0-4.937 2.717-8 7.092-8 3.557 0 7.387 2.813 7.387 8.992-.0001 7.948-5.579 8.351-6.698 8.351m-23.756-18.08l-.469.002-2.742.059-.592.017-.328-.012-2.463-.063c-.152 0-.514 0-.514.317 0 .155.135.269.318.269l.811.069c.703.15.92.441.971 1.301.049.785.049 1.479.049 5.325v4.346c0 2.315 0 4.315-.123 5.347-.105.77-.23 1.178-.621 1.254-.002.002-.717.098-.717.098-.234 0-.316.143-.316.266 0 .318.361.318.514.318l2.02-.059.402-.016.672.047c1.127.088 3.223.25 4.811.25 3.154 0 5.771-.994 7.57-2.877 1.715-1.809 2.699-4.377 2.699-7.05 0-3.164-1.32-5.202-2.428-6.354-2.797-2.891-7.01-2.868-9.522-2.856m7.549 15.792c-1.439 1.438-3.551 2.262-5.795 2.262-2.857 0-3.807-.508-4.1-.936-.189-.26-.234-1.389-.25-1.812-.023-.449-.049-2.622-.049-5.355v-3.062l.023-5.256c0-.244.059-.314.225-.389.168-.083 1.031-.162 1.559-.162 3.225 0 5.816.469 7.988 2.754.873.916 2.338 2.931 2.338 6.141 0 2.378-.761 4.661-1.939 5.815" style="fill:#231f20"/><g style="fill:#00a651"><path d="m216.51 7.223c-.487-3.175-3.03-5.187-6.465-5.955-1.436-.304-3.076-.454-4.812-.454-8.131 0-18.273 2.981-20.12 2.981-.229 0-1.076.167-.944.61.106.372.397.843 1.289 1.378.551.345 1.225.46 1.997.46 4.124 0 11.227-3.939 18.396-3.939 1.04 0 2.09.075 3.125.267 1.903.344 2.57 1.076 2.875 1.913 1.76 4.833-10.609 10.746-13.743 12.928-.455.305-.634.648-.592.916.041.27.263.46.688.46.191 0 .379-.037.638-.114.396-.137 2.769-1.224 4.228-1.596 2.208-.669 2.326-.085 4.54-1.028 6.757-2.879 9.372-5.763 8.902-8.827"/><path d="m199.84 7.121c-.107-.704-.426-1.283-.985-1.738-.409-.27-.681.512-.751.692-.497 1.266-2.998 4.073-5.164 7.321-1.978 2.943-3.694 6.31-3.267 9.102.293 1.912 1.477 3.098 2.788 3.864.886.495 1.523.878 1.87.878.346 0 .453-.306.43-.459-.022-.151-.156-.269-.543-.269-.423 0-.657-.267-.727-.727-.24-1.566 1.142-5.621 3.71-10.747 1.649-3.326 2.928-6.04 2.639-7.917"/><path d="m410.75 22.574c-.115 0-.324.155-.559.383-.992 1.069-2.396 2.754-3.359 2.754-.078 0-.211-.114-.223-.191-.365-2.371 7.43-16.14 6.832-20.04-.041-.268-.113-.498-.543-1.031-.238-.309-1.436-.411-1.699.415-.998 2.277-6.1 9.485-7.242 15.253-1.27 1.524-3.143 3.666-4.045 4.453-.135.114-.621.534-.738.534-.193 0-.352-.18-.35-.385 0-.116-.002-.269.012-.421.285-1.368 1.631-3.824 2.029-5.196.514-2 .477-4.323-.094-5.159-1.234-2.027-2.342-2.611-3.42-2.611-.502 0-.877.075-1.629.458-1.779.89-6.115 4.04-8.336 8.136-.268.166-.686.544-1.246 1.198-1.17 1.415-3.211 3.939-3.943 3.939-.117 0-.168-.076-.184-.191-.023-.152-.016-.345.061-.612.322-1.415 1.398-3.441 1.934-5.238.023-.075.037-.151.057-.228.039-.141.078-.281.105-.423.002-.006.004-.011.006-.016l-.002-.0001c.123-.621.156-1.239.061-1.858-.209-1.378-1.619-2.026-2.318-2.065-.309 0-.363.153-.363.649-.004.163-.16.958-.557 1.733-.074.143-2.582 3.662-4.994 5.306-.293.201-1.059.879-1.408.879-.111 0-.203-.077-.225-.228-.029-.193.037-.499.162-.957.201-.645.877-1.646 1.553-2.767.004-.006.008-.012.001-.017 1.01-1.812 1.455-3.123 1.455-3.123.117-.475.17-.935.105-1.36-.146-.952-.934-1.837-2.689-2.241-.152-.036-.553.221-.498.558.043.255-.291.968-.77 1.938h-.002c-.305.618-.67 1.345-1.035 2.121-.055.119-.111.239-.168.361-.031.072-.064.142-.098.215-.001.022-.021.045-.031.068h.002c-.42.931-.816 1.913-1.102 2.872-1.461 1.846-3.797 4.495-4.645 4.817-.182.077-.33.113-.408.113-.115 0-.199-.036-.25-.381-.264-1.722 2.479-12.735 7.258-17.746.59-.539.744-1.185.414-1.464-.699-.591-1.859-1.139-2.775-1.139-1.156 0-3.123 4.514-5.072 8.644-.082.184-.246.454-.484.81-.879-2.453-4.166-2.109-4.166-2.109l.001.009c-.035-.002-.074-.009-.107-.009-.346 0-.648.039-.934.191-1.428.735-4.164 4.478-5.424 8.117-1.258 1.507-3.01 3.512-3.891 4.279-.135.114-.623.534-.738.534-.193 0-.352-.18-.35-.385 0-.116-.002-.269.012-.421.285-1.368 1.631-3.824 2.029-5.196.514-2 .477-4.323-.094-5.159-1.234-2.027-2.342-2.611-3.422-2.611-.5 0-.875.075-1.627.458-1.799.898-6.211 4.108-8.408 8.274 0 .002-.002.004-.004.007-.125.075-.273.192-.441.364-3.189 3.327-5.619 5.315-6.662 5.315-.346 0-.529-.19-.588-.573-.223-1.453.973-4.207 3.584-10.06.094-.152.191-.269.383-.269 1.877-.076 4.266-.076 5.281-.494.4-.155.596-.385.574-.538-.025-.152-.191-.228-.537-.228-.926 0-2.705-.041-4.592-.041-.309 0-.355-.036-.293-.15 1.078-2.258 1.414-3.597 1.25-4.668-.119-.768-.518-1.264-1.059-1.627-.777-.291-.895.43-.928.548-.273.957-1.742 3.857-3.242 5.938-.695 0-1.277-.041-2.896-.041-.502 0-.748.155-.713.384.016.114.111.229.25.383.322.344.561.382 1.498.458.389.039.621.039 1.123.039-.982 1.385-1.641 2.535-2.258 3.997-1.205 1.111-3.219 2.786-3.895 3.308.037-1.76-1.629-2.753-2.705-3.747-.184-.191-.279-.309-.305-.46-.062-.421.746-.688 1.963-1.301 1.105-.573 1.645-1.071 1.551-1.684-.059-.38-.354-.802-.904-1.377-1.102-1.147-1.451-1.412-1.68-1.412-.156 0-.254.114-.436.189-2.824 1.187-3.617 2.294-3.434 3.479.188 1.226 1.562 2.41 2.658 3.52.271.268.369.581.436.842 1.109 4.141-3.664 4.169-4.803 5.546-.293.344-.875.651-.83.956.043.268.188.461.443.612.42.23 1.055.344 1.822.344 2.625 0 6.656-1.34 6.34-3.901-.02-.128 1.609-1.563 2.977-2.939-.342 1.137-.42 2-.277 2.939.416 2.714 3.037 3.481 4.04 3.481 2.072 0 4.088-2.107 6.486-5.197-.061.188-.127.377-.176.568-.002.004-.002.008-.002.012-.031.143-.053.294-.061.45 0 .014-.002.026-.002.039-.006.142 0 .286.02.43.002.021 0 .042.002.063.121.784.564 1.587 1.148 2.194.406.423.881.745 1.365.906.215.07.43.112.641.112h.002c.076 0 .154-.008.232-.019.312-.04.625-.164.891-.439 2.287-2.18 4.693-5.263 6.426-7.448.104-.073.182-.073.258-.073.115 0 .166.073.178.151.018.115-.037.267-.121.459-.836 1.838-.984 2.971-.816 4.081.258 1.682.959 2.458 1.873 2.759.471.154 1.426.022 1.777-.305.477-.441 1.75-1.887 3.113-3.458-.053.328-.096.652-.105.965-.076 1.53 2.316 3.059 3.588 3.059.232 0 .459-.036.594-.15 1.363-.92 4.773-6.579 5.719-8.454.146-.305.283-.421.398-.421.076 0-.037.269-.084.46-.572 2.065-1.377 4.091-1.055 6.196.293 1.911 1.807 2.486 2.77 2.486.309 0 .568-.077.709-.153.938-.564 2.789-2.521 4.23-4.293-.062.519-.07 1.01 0 1.463.281 1.835 1.789 2.368 2.443 2.368 2.197 0 4.4-3.977 6.588-6.04.236-.229.336-.344.373-.344.039 0 .045.036-.043.229-.682 1.567-.881 2.793-.734 3.749.152.994.693 1.758 1.424 2.258.344.229.67.343 1.016.343 1.75 0 3.412-2.681 4.547-4.205-.061.19-.129.379-.178.571-.004.021-.004.042-.008.062-.025.122-.043.249-.051.38-.002.026-.004.051-.004.078-.006.129 0 .262.018.395.002.026-.002.053.002.08.244 1.568 1.768 3.213 3.154 3.213h.002c.08 0 .162-.008.244-.02.309-.042.617-.167.881-.438 2.285-2.18 4.691-5.263 6.424-7.448.104-.073.182-.073.26-.073.113 0 .164.073.178.151.016.115-.039.267-.123.459-.836 1.838-.982 2.971-.816 4.081.26 1.682.959 2.458 1.873 2.759.471.154 1.426.022 1.779-.305.535-.495 2.074-2.259 3.617-4.04-.018.497-.008.98.062 1.436.141.918.502 1.762 1.068 2.447.568.69 1.193.995 1.85.995 1.119 0 2.432-1.26 3.771-3.326.283-.423.357-.688.34-.804-.005-.036-.05-.076-.087-.076m-62.75-5.666c-1.543 1.178-4.02 3.761-5.629 5.245-.109.099-.205.17-.295.231-.086.059-.162.101-.232.131-.012.005-.023.012-.035.016-.07.027-.133.043-.182.043-.102 0-.182-.039-.25-.094-.113-.091-.188-.236-.211-.404-.014-.082-.001-.164-.002-.245.004-.021.006-.041.008-.062.016-.089.037-.178.061-.267.014-.044.035-.09.053-.135.031-.084.066-.17.104-.256.049-.109.102-.222.16-.334l-.002-.006-.002-.002c1.439-2.898 5.35-6.212 7.615-6.395.57.152.504.885.262 1.123-.202.203-.804.797-1.423 1.411m15.973-1.018l.045-.024c-1.045 1.397-2.553 3.343-4.557 5.945-.902 1.146-1.15 1.3-1.418 1.3-.078 0-.16-.039-.197-.269-.035-.229.049-.688.209-1.146 1.311-4.105 3.488-7.45 5.164-7.669 1.6.729.754 1.863.754 1.863m33.15 1.018c-1.543 1.178-4.02 3.761-5.631 5.245-.273.247-.486.366-.641.403-.037.001-.074.018-.104.018-.092 0-.166-.033-.23-.079-.125-.089-.203-.242-.23-.419-.031-.19.02-.381.064-.573.049-.144.113-.292.18-.44.129-.288.289-.583.475-.882-.002-.004-.004-.001-.006-.014 1.672-2.771 5.172-5.621 7.283-5.791.568.152.502.885.262 1.123-.203.201-.805.795-1.422 1.409"/><path d="m313.75 25.786c-4.283.959-7.502 1.342-9.773 1.342-3.045 0-4.5-.692-4.652-1.686-.326-2.143 5.332-5.697 13.412-6.541.533-.038.672-.151.627-.418-.215-1.417-1.398-3.865-3.178-3.636-.676.089-1.787.333-3.08.719-1.766-.177-5.223-.297-7.217-1.022-1.043-.381-1.627-1.29-1.697-1.75-.414-2.715 13.359-8.503 19.75-8.03 1.424.104 1.928.722 2.125 1.311.119.351.797.686 1.26.205.465-.48.781-1.07.889-1.95.129-1.039-1.25-4-5.371-3.935-4.975.079-22.08 4.857-21.11 11.207.117.766.512 1.567 1.258 2.409 1.252 1.378 3.357 1.948 5.422 2.193.771.092 1.596.162 2.377.149-3.883 1.483-8.102 3.986-7.594 7.297.082.533.279 1.07.594 1.605 1.479 2.601 3.908 3.633 6.607 3.633 3.045 0 6.473-1.262 9.5-2.639.221-.077.383-.269.365-.381-.007-.037-.07-.191-.517-.078"/><path d="m286.95 18.214c-.076 0-.146.038-.213.113-2.043 2.526-8.158 6.718-10.508 6.718-.5 0-.916-.19-.92-.955.016-.789.129-1.524.307-2.213.246-.058.555-.141.941-.26 2.135-.656 6.967-2.915 7.084-5.082.012-.243.023-.66-.168-1.012-.395-.726-1.844-1.938-3.648-2.817-.293-.152-.576-.229-.883-.229-2.16 0-4.611 3.862-5.688 6.386-.209.489-.311.746-.439 1.272-.139.131-.756 1.116-1.332 1.685-1.174 1.418-2.742 3.24-3.363 3.24-.119 0-.166-.076-.186-.191-.023-.152-.012-.345.062-.612.322-1.415 1.398-3.441 1.934-5.238.256-.845.355-1.685.229-2.525-.211-1.378-1.621-2.026-2.32-2.065-.309 0-.363.153-.363.649-.004.229-.314 1.722-1.176 2.639-.953 1.071-1.617 2.029-4.375 4.4-.275.229-1.059.879-1.406.879-.115 0-.203-.077-.227-.229-.029-.192.037-.498.16-.956.465-1.493 3.49-4.896 3.125-7.267-.145-.952-.932-1.837-2.688-2.241-.154-.036-.555.221-.498.558.104.626-2.049 3.993-3.088 7.191-1.529 1.337-3.637 2.776-5.35 3.59 1.902-2.869 3.354-6.785 3.156-8.755-.109-1.224-2.121-2.791-3.053-3.327-.17-.114-.414-.191-.607-.191-.191 0-.381.036-.516.153-1.676 1.177-3.527 3.456-4.934 6-1.793 1.675-4.82 4.584-6.248 5.774-.242.193-.385.269-.461.269s-.08-.039-.086-.075c-.031-.193.055-.383.109-.536.225-.535.799-1.568 1.268-2.792.332-.842.646-2.065.523-2.869-.059-.381-.227-.727-.492-.956-1-.766-1.725-1.187-2.689-1.187-.693 0-1.473.192-2.564.613-.109.037-.219.076-.297.076-.115 0-.205-.076-.215-.154-.012-.075.053-.152.188-.267 1.049-.955 1.529-1.606 1.416-2.333-.088-.574-.705-1.339-1.781-2.334-.096-.114-.34-.19-.531-.19-.193 0-.379.04-.484.114-2.09 1.456-2.855 2.486-2.65 3.824.107.69.498 1.493 1.141 2.412.102.153-1.861 2.527-2.875 3.652-1.264 1.529-2.598 3.169-3.55 4-.135.114-.622.534-.738.534-.193 0-.352-.18-.35-.385 0-.116-.0001-.269.012-.421.286-1.368 1.631-3.824 2.03-5.196.514-2 .476-4.323-.095-5.159-1.234-2.027-2.341-2.611-3.421-2.611-.501 0-.875.075-1.628.458-2.146 1.073-8.03 5.433-9.406 10.787-.066.305-.092.65-.042.994.243 1.568 1.768 3.213 3.154 3.213.387 0 .792-.114 1.125-.458 2.286-2.18 4.693-5.263 6.425-7.448.104-.073.182-.073.259-.073.114 0 .165.073.178.151.017.115-.038.267-.122.459-.836 1.838-.983 2.971-.815 4.081.258 1.682.959 2.458 1.873 2.759.47.154 1.425.022 1.777-.305 1.125-1.043 6.688-7.677 7.387-8.36.232-.232.521-.44.9-.618.723-.34 2.465-1.087 3.352-1.087.385 0 .484.152.508.307.066.419-.645 1.567-1.334 2.599-1.189 1.799-1.887 2.793-2.117 3.787-.143.573-.221 1.072-.145 1.569.123.803.545 1.299 1.598 2.14.529.422.816.536 1.162.536.541 0 1.297-.343 2.105-1.109.932-.922 3.352-3.688 5.535-6.03-.543 1.322-.828 2.548-.688 3.465.039.268.133.612.281.842.297.421.9 1.34 1.086 1.53.189.229.371.421.381.495.02.118-.123.193-.387.231-.605.077-1.391.23-1.887.765-.164.191-.213.383-.182.574.057.382.547.803 1.049.803.191 0 .455-.039.619-.23.424-.497.973-.688 1.551-.688 3.354 0 9.318 6.234 15.678 6.234 2.391 0 4.803-.841 7.209-3.252.164-.191.289-.382.266-.536-.006-.036-.051-.074-.088-.074s-.148.038-.248.154c-.98 1.146-2.496 1.567-4.268 1.567-5.357 0-13.07-4.054-15.768-4.553-.236-.037-.326-.114-.338-.191-.016-.114.121-.229.152-.267.184-.123.369-.266.555-.425 2.193-.091 4.926-2.099 6.961-4.283-.109.605-.154 1.603.008 2.059.619 1.752 1.762 2.111 2.416 2.111 2.197 0 4.4-3.977 6.59-6.04.234-.228.334-.343.371-.343s.043.036-.043.229c-.684 1.567-.881 2.793-.738 3.747.156.996.695 1.76 1.428 2.26.344.227.67.343 1.016.343 1.799 0 3.461-2.628 4.6-4.126-.025.429.027.65.092 1.065.111.726.379 1.454.902 2.104.949 1.184 1.939 1.605 3.135 1.605 3.775 0 8.49-4.704 10.467-8.146.059-.115.08-.229.068-.307-.016-.113-.106-.19-.184-.19m-6.486-2.601c.322-.153.602-.344.871-.344.191 0 .35.076.379.459.115 1.514-2.281 4.117-5.732 5.02 1.076-2.731 3.195-4.485 4.482-5.131m-57.53 1.295c-1.543 1.178-4.02 3.761-5.63 5.245-.339.307-.591.421-.744.421-.27 0-.422-.229-.462-.498-.029-.19.018-.381.066-.573 1.01-2.984 5.47-6.929 7.93-7.127.57.152.503.885.262 1.123-.202.201-.804.795-1.422 1.409m25.309 6.965c-.246.153-.498.271-.613.271s-.127-.079-.145-.193c-.018-.113-.004-.269.043-.457 1.199-3.748 2.484-5.93 3.557-7.229 1.432-1.721 2.725-1.837 2.842-1.837.152 0 .164.075.176.153.023.153.001.306-.039.496-.195.995-1.691 4.553-3.814 7.04-.628.687-1.3 1.338-2.01 1.757"/></g><path d="m267.73 80.7c-48.08-2.314-76.25-2.092-92.32-2.717-16.09-.479-20.14-1-20.14-1-6.361-.807-11.563.047-11.564 1.914 0 1.867 5.362 3.361 11.916 3.307 75.34-2.463 150.47 4.201 226 2.486 6.557-.121 17.277-.225 23.828-.23 12.998-.002 26-.145 39.01-.516 6.566-.188 11.824-2.031 11.686-3.996-.141-1.973-5.219-2.32-11.326-.859-.004-.045-2.535.744-25.938 2.111-23.394 1.238-67.743 3.334-151.16-.5" style="fill:#ffcb05"/><g style="fill:#e54e26"><path d="m156.7 109.49c-.332-.146-.394-.249-.394-.705 0-1.14.083-2.383.104-2.715.021-.311.083-.539.249-.539.187 0 .208.187.208.353 0 .27.083.705.187 1.057.456 1.534 1.679 2.094 2.964 2.094 1.865 0 2.777-1.265 2.777-2.363 0-1.016-.311-1.989-2.031-3.316l-.954-.746c-2.28-1.782-3.067-3.233-3.067-4.912 0-2.28 1.907-3.917 4.788-3.917 1.347 0 2.218.207 2.756.353.187.041.291.104.291.248 0 .27-.083.871-.083 2.487 0 .456-.062.622-.228.622-.145 0-.208-.124-.208-.373 0-.187-.104-.829-.539-1.368-.311-.394-.912-1.016-2.259-1.016-1.534 0-2.467.892-2.467 2.135 0 .954.477 1.679 2.197 2.985l.581.435c2.487 1.928 3.399 3.316 3.399 5.286 0 1.202-.456 2.632-1.948 3.606-1.037.663-2.197.85-3.295.85-1.204-.002-2.136-.147-3.03-.541"/><path d="m180.27 104.33c-.104 0-.146.042-.187.166l-1.119 2.964c-.208.519-.312 1.016-.312 1.265 0 .373.187.643.829.643h.312c.248 0 .311.041.311.165 0 .166-.124.208-.353.208-.663 0-1.555-.062-2.197-.062-.228 0-1.368.062-2.445.062-.27 0-.394-.042-.394-.208 0-.124.083-.165.249-.165.187 0 .477-.021.643-.042.954-.124 1.347-.829 1.761-1.865l5.203-13.02c.248-.602.373-.829.58-.829.187 0 .311.187.519.663.497 1.14 3.813 9.597 5.14 12.747.788 1.865 1.389 2.156 1.824 2.26.311.062.622.083.871.083.165 0 .269.021.269.165 0 .166-.187.208-.953.208-.746 0-2.259 0-3.917-.042-.373-.021-.622-.021-.622-.166 0-.124.083-.165.29-.187.146-.041.29-.228.187-.477l-1.658-4.394c-.041-.104-.104-.146-.207-.146h-4.624m2.632-12.435c-.373-.207-.767-.456-1.326-.456-.809 0-1.244.56-1.409.746-.187.187-.249.208-.332.208s-.145-.062-.145-.146c0-.104.104-.311.165-.394.312-.498 1.161-1.596 2.156-1.596.726 0 1.181.311 1.658.58.518.29.994.456 1.492.456.746 0 1.182-.519 1.265-.622.124-.166.228-.27.331-.27.083 0 .166.062.166.166s-.062.228-.124.353c-.187.353-1.058 1.555-2.031 1.555-.871.0001-1.431-.352-1.866-.58m1.596 11.4c.104 0 .124-.062.104-.125l-1.865-5.119c-.021-.083-.042-.187-.104-.187-.062 0-.104.104-.124.187l-1.907 5.099c-.021.083 0 .146.083.146h3.813z"/><path d="m201.22 101.9c0-3.545 2.343-8.125 8.561-8.125 5.161 0 8.374 3 8.374 7.752 0 4.746-3.316 8.498-8.581 8.498-5.95 0-8.354-4.456-8.354-8.125m14.03.394c0-4.643-2.674-7.524-6.072-7.524-2.384 0-5.1 1.327-5.1 6.488 0 4.312 2.384 7.731 6.363 7.731 1.452 0 4.809-.705 4.809-6.695"/><path d="m246.84 109.49c-.331-.146-.394-.249-.394-.705 0-1.14.083-2.383.104-2.715.021-.311.083-.539.249-.539.187 0 .207.187.207.353 0 .27.083.705.187 1.057.456 1.534 1.679 2.094 2.964 2.094 1.866 0 2.778-1.265 2.778-2.363 0-1.016-.312-1.989-2.031-3.316l-.954-.746c-2.28-1.782-3.067-3.233-3.067-4.912 0-2.28 1.907-3.917 4.788-3.917 1.347 0 2.218.207 2.757.353.187.041.29.104.29.248 0 .27-.083.871-.083 2.487 0 .456-.062.622-.229.622-.145 0-.207-.124-.207-.373 0-.187-.104-.829-.539-1.368-.311-.394-.912-1.016-2.259-1.016-1.534 0-2.467.892-2.467 2.135 0 .954.477 1.679 2.197 2.985l.58.435c2.487 1.928 3.399 3.316 3.399 5.286 0 1.202-.456 2.632-1.948 3.606-1.036.663-2.197.85-3.296.85-1.202-.002-2.134-.147-3.03-.541"/><path d="m269.58 100.08c0-3.15 0-3.73-.042-4.395-.041-.704-.207-1.036-.891-1.181-.166-.042-.519-.062-.809-.062-.229 0-.353-.042-.353-.187 0-.146.146-.187.456-.187 1.099 0 2.404.062 2.984.062.664 0 4.788 0 5.183-.021.394-.041.725-.083.891-.124.104-.021.229-.083.332-.083s.124.083.124.187c0 .146-.104.394-.166 1.348-.021.207-.062 1.119-.104 1.368-.021.104-.062.228-.207.228s-.187-.104-.187-.29c0-.146-.021-.498-.124-.746-.146-.373-.353-.622-1.389-.746-.353-.042-2.529-.083-2.943-.083-.104 0-.146.062-.146.207v5.244c0 .145.021.228.146.228.456 0 2.839 0 3.316-.041.497-.042.808-.104.994-.312.146-.165.229-.269.332-.269.083 0 .146.041.146.165 0 .125-.104.456-.166 1.514-.042.414-.083 1.243-.083 1.389 0 .166 0 .394-.187.394-.146 0-.187-.083-.187-.187-.021-.207-.021-.477-.083-.746-.104-.415-.394-.726-1.161-.809-.394-.041-2.445-.062-2.943-.062-.104 0-.124.082-.124.207v1.638c0 .704-.021 2.611 0 3.212.042 1.431.373 1.741 2.487 1.741.539 0 1.409 0 1.948-.248.539-.249.788-.685.933-1.534.042-.229.083-.311.229-.311.166 0 .166.165.166.373 0 .477-.166 1.886-.27 2.3-.146.539-.332.539-1.119.539-3.13 0-4.519-.124-5.742-.124-.477 0-1.782.062-2.611.062-.27 0-.414-.062-.414-.208 0-.104.082-.165.331-.165.311 0 .56-.042.746-.083.415-.083.519-.539.602-1.141.104-.87.104-2.508.104-4.414v-3.647z"/><path d="m292.21 100.08c0-3.15 0-3.73-.042-4.395-.041-.704-.207-1.036-.891-1.181-.166-.042-.519-.062-.809-.062-.229 0-.353-.042-.353-.187 0-.146.146-.187.456-.187 1.099 0 2.404.062 2.819.062 1.016 0 1.823-.062 2.528-.062 3.752 0 4.415 2.01 4.415 3.109 0 1.699-.975 2.715-2.114 3.627 1.699.58 3.772 2.052 3.772 4.477 0 2.218-1.721 4.519-5.534 4.519-.498 0-2.384-.124-3.01-.124-.477 0-1.782.062-2.611.062-.27 0-.414-.062-.414-.208 0-.104.082-.165.331-.165.311 0 .56-.042.746-.083.415-.083.519-.539.602-1.141.104-.87.104-2.508.104-4.414v-3.647m2.488.353c0 .166.062.207.145.228.187.042.498.062.975.062.684 0 1.14-.083 1.492-.394.539-.436.85-1.182.85-2.197 0-1.389-.808-3.213-2.591-3.213-.29 0-.477 0-.684.042-.146.041-.187.124-.187.352v5.12m2.736 1.658c-.435-.312-.911-.456-1.72-.498-.373-.021-.58-.021-.892-.021-.083 0-.124.042-.124.146v4.912c0 1.368.062 1.721.726 1.99.56.228 1.036.248 1.513.248.933 0 2.508-.497 2.508-2.653 0-1.284-.436-3.03-2.01-4.124"/><path d="m317.33 104.33c-.104 0-.146.042-.187.166l-1.119 2.964c-.208.519-.312 1.016-.312 1.265 0 .373.187.643.829.643h.312c.248 0 .311.041.311.165 0 .166-.124.208-.353.208-.663 0-1.555-.062-2.197-.062-.228 0-1.367.062-2.445.062-.27 0-.394-.042-.394-.208 0-.124.083-.165.248-.165.187 0 .477-.021.643-.042.954-.124 1.348-.829 1.762-1.865l5.203-13.02c.248-.602.373-.829.58-.829.187 0 .311.187.519.663.497 1.14 3.813 9.597 5.14 12.747.788 1.865 1.389 2.156 1.824 2.26.311.062.622.083.871.083.165 0 .269.021.269.165 0 .166-.187.208-.953.208-.746 0-2.259 0-3.917-.042-.373-.021-.622-.021-.622-.166 0-.124.083-.165.29-.187.146-.041.29-.228.187-.477l-1.658-4.394c-.041-.104-.104-.146-.207-.146h-4.624m4.229-1.035c.104 0 .124-.062.104-.125l-1.865-5.119c-.021-.083-.042-.187-.104-.187-.062 0-.104.104-.124.187l-1.907 5.099c-.021.083 0 .146.083.146h3.813z"/><path d="m339.2 109.49c-.331-.146-.394-.249-.394-.705 0-1.14.083-2.383.104-2.715.021-.311.083-.539.249-.539.187 0 .207.187.207.353 0 .27.083.705.187 1.057.456 1.534 1.679 2.094 2.964 2.094 1.866 0 2.778-1.265 2.778-2.363 0-1.016-.312-1.989-2.032-3.316l-.953-.746c-2.28-1.782-3.067-3.233-3.067-4.912 0-2.28 1.907-3.917 4.788-3.917 1.347 0 2.218.207 2.757.353.187.041.29.104.29.248 0 .27-.083.871-.083 2.487 0 .456-.062.622-.229.622-.145 0-.207-.124-.207-.373 0-.187-.104-.829-.539-1.368-.311-.394-.912-1.016-2.259-1.016-1.534 0-2.467.892-2.467 2.135 0 .954.477 1.679 2.197 2.985l.58.435c2.487 1.928 3.399 3.316 3.399 5.286 0 1.202-.456 2.632-1.948 3.606-1.036.663-2.197.85-3.296.85-1.201-.002-2.134-.147-3.03-.541"/><path d="m364.7 95.23l-3.089.083c-1.202.042-1.699.146-2.01.602-.207.311-.311.56-.352.726-.042.166-.104.248-.229.248-.145 0-.187-.104-.187-.331 0-.332.394-2.218.436-2.384.062-.27.124-.394.249-.394.165 0 .373.207.891.248.602.062 1.389.104 2.073.104h8.208c1.326 0 1.823-.208 1.989-.208.146 0 .166.125.166.436 0 .436-.062 1.865-.062 2.404-.021.207-.062.332-.187.332-.166 0-.207-.104-.228-.415l-.021-.228c-.042-.539-.602-1.119-2.446-1.161l-2.611-.062v8.499c0 1.906 0 3.544.104 4.436.062.58.187 1.036.809 1.119.29.041.746.083 1.057.083.229 0 .332.062.332.165 0 .146-.166.208-.395.208-1.367 0-2.674-.062-3.254-.062-.477 0-1.782.062-2.611.062-.27 0-.415-.062-.415-.208 0-.104.083-.165.332-.165.311 0 .56-.042.746-.083.415-.083.539-.539.602-1.141.104-.87.104-2.508.104-4.414v-8.499"/><path d="m386.19 100.08c0-3.15 0-3.73-.042-4.395-.041-.704-.248-1.057-.704-1.16-.229-.062-.498-.083-.746-.083-.208 0-.332-.042-.332-.207 0-.125.166-.166.497-.166.788 0 2.094.062 2.695.062.518 0 1.741-.062 2.528-.062.27 0 .436.041.436.166 0 .165-.125.207-.332.207s-.373.021-.622.062c-.56.104-.725.456-.767 1.181-.041.664-.041 1.244-.041 4.395v3.648c0 2.01 0 3.647.083 4.539.062.56.207.933.829 1.016.29.041.746.083 1.057.083.228 0 .332.062.332.165 0 .146-.166.208-.395.208-1.367 0-2.674-.062-3.233-.062-.477 0-1.782.062-2.611.062-.27 0-.414-.062-.414-.208 0-.104.082-.165.331-.165.311 0 .56-.042.746-.083.415-.083.539-.436.602-1.037.104-.87.104-2.508.104-4.518v-3.648z"/><path d="m405.92 104.33c-.104 0-.146.042-.187.166l-1.119 2.964c-.208.519-.312 1.016-.312 1.265 0 .373.187.643.829.643h.312c.248 0 .311.041.311.165 0 .166-.124.208-.353.208-.663 0-1.555-.062-2.197-.062-.228 0-1.367.062-2.445.062-.27 0-.394-.042-.394-.208 0-.124.083-.165.248-.165.187 0 .477-.021.643-.042.954-.124 1.348-.829 1.762-1.865l5.203-13.02c.248-.602.373-.829.58-.829.187 0 .311.187.519.663.497 1.14 3.813 9.597 5.14 12.747.788 1.865 1.389 2.156 1.824 2.26.311.062.622.083.871.083.165 0 .269.021.269.165 0 .166-.187.208-.953.208-.746 0-2.259 0-3.917-.042-.373-.021-.622-.021-.622-.166 0-.124.083-.165.29-.187.146-.041.29-.228.187-.477l-1.658-4.394c-.041-.104-.104-.146-.207-.146h-4.624m2.632-12.435c-.373-.207-.767-.456-1.326-.456-.809 0-1.244.56-1.409.746-.187.187-.249.208-.332.208s-.145-.062-.145-.146c0-.104.104-.311.165-.394.312-.498 1.161-1.596 2.156-1.596.726 0 1.181.311 1.658.58.518.29.994.456 1.492.456.746 0 1.182-.519 1.265-.622.124-.166.228-.27.331-.27.083 0 .166.062.166.166s-.062.228-.124.353c-.187.353-1.058 1.555-2.031 1.555-.871.0001-1.431-.352-1.866-.58m1.597 11.4c.104 0 .124-.062.104-.125l-1.865-5.119c-.021-.083-.042-.187-.104-.187-.062 0-.104.104-.124.187l-1.907 5.099c-.021.083 0 .146.083.146h3.813z"/><path d="m426.88 101.9c0-3.545 2.343-8.125 8.561-8.125 5.161 0 8.374 3 8.374 7.752 0 4.746-3.316 8.498-8.581 8.498-5.95 0-8.354-4.456-8.354-8.125m14.03.394c0-4.643-2.674-7.524-6.072-7.524-2.384 0-5.1 1.327-5.1 6.488 0 4.312 2.384 7.731 6.363 7.731 1.452 0 4.809-.705 4.809-6.695"/></g><path d="m101.11 102.62c-2.754 2.767-6.157 4.691-9.529 5.858-1.825.634-3.646 1.074-5.447 1.379 2.518.567 4.906 1.437 7.905 1.035 3.364-.452 6.998.358 10.387.116 3.387-.242 5.299-6.811 4.217-10.987-1.07-4.135-1.479-2.667-1.504-7.02-.002-.268-.005-.547-.007-.836-.065.229-.126.457-.196.688-1.088 3.52-3.056 7.01-5.826 9.767" style="fill:#0082c6"/><path d="m11.221 71.879c1.403 1.087 3.321 2.09 5.261 2.942 7.878 3.345 17.07 4.946 25.25 2.92 1.171-.291 2.425-.677 3.688-1.14-.053-.478-.103-.956-.141-1.446-.072-1.206-.122-2.398-.113-3.599-2.432.484-4.825.529-7.182.277-1.559-.183-3.106-.49-4.714-1.033-.807-.277-1.627-.605-2.492-1.055-.44-.234-.888-.494-1.355-.807-.236-.161-.483-.347-.719-.527-.198-.157-.354-.293-.532-.442-5.376-4.796-7.566-11.711-6.31-18.59.333-1.715.929-3.416 1.776-5 .426-.791.905-1.557 1.45-2.269.566-.747.926-1.161 1.433-1.738 1.89-2.155 4.167-4.152 6.853-5.736 2.677-1.582 5.812-2.715 9.101-3.044 3.284-.334 6.66.122 9.67 1.255 3.02 1.109 5.721 2.902 7.856 4.766.133.116.261.231.385.349.555-.567 1.124-1.124 1.695-1.671.998-.942 2.02-1.85 3.048-2.736-1.629-.358-3.431-.907-5.126-1.442-1.952-.615-7.256-6.945-10.237-12.225-2.983-5.277-9.68-8.427-9.557-9.663.122-1.234 15.328 4.94 23.808 8.443 5.56 2.297 6.74 7.03 6.826 10.362 6.767-4.937 14.05-8.909 21.489-12.323 2.705-1.23 5.439-2.375 8.218-3.438 1.412-.541 2.734-1.03 4.261-1.55 1.446-.479 2.791-.9 4.168-1.336.0001 0 .003 0 .003 0-.022-1.821.003-3.115-2.051-5.167-2.042-2.036-5.192-1.343-7.698-.91-3.402.587-4.894-.669-8.04-1.267-3.03-.58-6.522.412-9.619.353-2.508-.045-4.465-.256-6.705.998-2.874 1.612-9.819.083-12.87.348-3.509.307-10.625 1.287-14.06.501-6.03-1.384-3.862-2.136-10.02-2.136-4.287 0-9.939.726-14.196.991-1.871.117-3.728.702-5.616.335-1.711-.33-2.99-1.664-4.804-1.664-8.05 0-15.09-.061-12.484 10.314 1.268 5.04.799 3.35.215 8.456-.439 3.803-.991 12.13-.624 19.781.179 3.756 1.595 6.433 1.595 10.272 0 1.844-.262 4.486-.366 7.131 1.164 3.3 2.862 6.35 5.131 8.99 1.307 1.533 2.803 2.921 4.438 4.174" style="fill:#ffcb05"/><path d="m48.871 89.47c-.551-1.299-1.039-2.609-1.47-3.938-1 .405-2.02.758-3.037 1.053-5.463 1.615-10.992 1.869-16.269 1.389-.224-.021-.447-.053-.671-.076.413.859-1.064 3.02-2.415 4.911-.677.946-5.366 3.306-9.05 4.546-3.686 1.247-6.648 4.454-7.382 4.332-.738-.12 5.393-7.447 8.849-11.528 1.689-1.997 3.829-2.708 5.652-2.895-3.511-.647-6.941-1.615-10.316-2.918-2.489-.996-4.93-2.08-7.539-3.881-.972-.681-1.917-1.416-2.833-2.188.16 2.493.425 4.982.507 7.483.135 4.116-2.833 6.729-1.872 11.08.637 2.878-.348 5.726-.48 8.603-.36 7.761 11.399 6.274 16.716 5.566 3.353-.442 5.677-1.726 9.189-1.743 3.138-.014 6.089 1.769 9.131 1.499 7.458-.665 16.628-.171 24.04.514 5.991.551 11.11-.23 16.01-.987-4.876-.482-9.911-2.02-14.12-4.91-6.02-4.02-10.08-9.913-12.643-15.914" style="fill:#00a651"/><g style="fill:#ffcb05"><path d="m49.637 39.62c-8.185-3.72-18.887 2.225-21.666 10.969-1.052 4.537.382 9.713 3.942 13.04 1.863 1.698 4.319 2.365 6.686 2.759 2.293.328 4.668.277 6.972-.321.729-5.22 2.438-10.293 4.877-14.824.112-.206.233-.406.347-.613-.365-.387-.733-.757-1.04-1.1-.093-.1-.162-.185-.251-.284-.148-.157-.301-.311-.458-.463-.325-.274-.666-.524-1.027-.714-1.44-.766-2.975-.937-4.465-.738-.701.095-1.372.373-2.033.744-.736.412-4.499 2.662-5.587 1.886-1.67-1.195.699-3.887 2.266-4.843 1.479-1 3.194-1.835 4.641-2.085 2.299-.348 4.641-.215 7.226 1.052.635.319 1.288.755 1.9 1.262.31.275.61.565.896.865.071.073.064.07.145.15.066.067.152.153.249.251.704-1.039 1.436-2.047 2.197-3.03-1.699-1.663-3.673-3.053-5.817-3.967"/><path d="m60.879 52.911c-.727 1.054-1.405 2.138-2.029 3.249.097.897.097 1.814-.045 2.706-.379 2.544-1.487 4.51-2.561 5.95-.38.525-.805 1.014-1.246 1.485-.286 1.394-.483 2.812-.576 4.258-.001.13-.014.262-.023.396 2.658-3.01 4.976-6.586 6.089-10.34.778-2.511.912-5.157.391-7.704"/></g><path d="m104.66 23.978c-2.583.9-5.147 1.886-7.679 2.942-10.09 4.253-19.819 9.634-27.84 16.769-1.166 1.027-2.287 2.106-3.359 3.227.909 1.991 1.575 4.143 1.888 6.36.462 3.186.205 6.422-.547 9.352-.748 2.944-1.934 5.62-3.322 8.03-.696 1.206-1.442 2.357-2.225 3.459-.39.55-.792 1.087-1.197 1.616-.449.568-.908 1.135-1.395 1.678-1.115 1.268-2.351 2.433-3.674 3.491.414 1.743.938 3.467 1.588 5.136 1.927 4.94 4.954 9.479 9.188 12.499 4.221 3.063 9.563 4.336 15.02 4.112 5.418-.136 10.984-1.452 14.898-5.146 3.935-3.645 5.636-9.364 5.463-14.884-.091-2.747-.803-5.508-2.242-7.891-1.433-2.381-3.565-4.356-6.082-5.651-2.506-1.328-5.338-1.999-8.184-2.237-2.835-.346-5.855.169-8.397 1.649-2.538 1.46-4.625 3.758-5.783 6.522-1.181 2.796-1.215 5.958-.426 8.872.407 1.471 1.119 2.915 2.197 4.113 1.068 1.204 2.512 2.089 4.03 2.56 1.511.484 3.12.606 4.602.576 1.502-.027 3.056-.175 4.627-.728 1.554-.518 3.183-1.726 3.981-3.379.778-1.627 1.065-3.189.996-4.962-.059-.864-.23-1.762-.655-2.669-.404-.895-1.194-1.852-2.317-2.325-1.136-.488-2.228-.443-3.136-.291-.967.202-5.192 1.198-5.728.266-.707-1.238.069-2.444 2.665-3.782.719-.314 1.452-.529 2.217-.69.794-.147 1.515-.234 2.444-.209 1 .037 2.122.215 3.226.692 1.108.443 2.093 1.169 2.881 1.954.74.775 1.321 1.63 1.694 2.402.779 1.58 1.05 2.974 1.17 4.269.112 1.28.033 2.554-.175 3.719-.183 1.029-.493 2.298-1.136 3.628-.63 1.331-1.642 2.677-2.819 3.67-1.178 1-2.434 1.663-3.594 2.119-2.324.872-4.312 1.076-6.13 1.167-1.706.083-3.997.001-6.206-.646-2.246-.627-4.604-1.964-6.338-3.823-1.754-1.846-2.861-4.03-3.491-6.074-.641-2.069-.874-4.055-.886-6.02-.003-2.206.427-4.387 1.192-6.376 1.545-3.984 4.36-7.259 7.91-9.442 1.781-1.081 3.75-1.894 5.812-2.346 2.048-.484 4.324-.49 5.892-.39 3.469.192 7.124.913 10.593 2.611 3.462 1.652 6.645 4.378 8.799 7.746.855 1.322 1.541 2.726 2.078 4.17.423-3.896 1.803-8.922 1.803-12.03 0-4.01-1.682-7.8-1.682-11.812 0-2.134 1.676-6.62 1.676-8.752 0-1.975-1.06-4.353-1.06-6.33 0-4.03.576-6.435.535-10.535-.012-1.021.087-2.08.232-3.155-1.142.351-2.408.775-3.598 1.19" style="fill:#e54e26"/></svg>