<svg viewBox="0 0 70 70" version="1.1" xmlns="http://www.w3.org/2000/svg" width="70" height="70"><path d="m65.3195 30.7848c-.7997.5924-.8389 2.0236-1.9294 2.5644-.9153.4563-1.6801.7566-2.5177 1.0132.2015.0594.4089.1271.6161.2133 1.0731.4439 1.6294.3658 1.88 1.5632.2508 1.196-.4791 1.5385-1.2124 2.4935-.7359.9574-1.0049 2.2215-2.349 1.5347-1.3448-.6881-1.2894-1.062-2.3343-.3141-1.0448.7523-1.5-.7856-1.5-.7856-.0496-.0542-.0933-.1171-.1383-.1795-.7198.3179-1.4336.5609-2.0987.7844l-.287.1001c-1.5198.5162-4.7851 1.293-6.4454 1.3396-1.677.0453-5.8799-.4476-7.3928-1.0544-1.2979-.52-2.9343-1.8049-4.7907-3.75.1289 3.1551.2511 7.736.132 10.4159-.0657 1.5234 1.3048 14.7489 2.0394 22.9647.3791.0327.7538.0667 1.1206.0988 5.3943.4967 9.699-.6893 14.0286-1.1583 2.9645-.3211 5.0303 1.3144 8.0752.9059 2.1607-.2902 4.4931.2316 6.6695.0749 2.1764-.1536 3.4036-4.3783 2.7095-7.0663-.6883-2.6578-.9508-1.7135-.9674-4.5162-.0148-2.6112-.1899-7.121-.3213-9.6743-.132-2.5338 1.2293-6.902 1.2293-9.3735 0-2.5785-.3533-5.0175-.3533-7.5982 0-.1829.0201-.796.0529-1.0261-1.2574-.3132-1.1228-.2849-2.0155-.2619-.8931.0252-1.1015.0969-1.8999.6918" style="fill:#007dc2"/><path d="m2.8542 21.852c-.1788-.6238-.1788-1.13.7591-2.2832.4344-.4589 1.1483-1.5637 1.5192-1.5225 2.36-.6034 2.2955-.102 4.1778.763.7333-.0309.2382-1.4149.7585-2.2817.8638-.6569 2.1236-.9188 3.7986-.7608.9054-2.5199 5.2576-4.3273 6.4577-3.8038 1.4522-.254 2.3213.2332 3.7981.7592 1.1966.1844.8606-1.1662 2.2782-.7592 2.0002.5335 3.1236 1.9427 4.1778 3.4242.9446-.1992-.5749-2.9014.761-3.0446 2.0007-.0362 2.8054-.0221 3.419.7607.7705.052.5542-.8542 1.0398-1.0972 2.5487-.6846 5.0416-.0179 7.4456.3764 3.6312.5937 6.8688 1.8023 7.0888 3.7639 1.8907.3868 3.0638.2792 4.9375 1.8999.8993-.1218 1.6386-.2934 2.2972-.3689 2.6231-.1791 3.6815.4082 3.733.9096.0591.5839 1.1479 4.1262 2.9155 3.9779 1.6222-.1243 3.484.3113 4.9409 1.0136-.1578-.6519-.3058-1.3044-.3058-1.8946 0-2.5936.3668-4.1412.341-6.777-.027-2.7082 1.1222-5.8054.7229-8.4802-.3212-2.14.3993-3.0289-1.4213-4.8507-1.3099-1.311-3.3332-.865-4.9432-.5852-2.1831.3778-3.143-.4299-5.1616-.8174-1.9455-.372-4.1876.2669-6.177.2295-1.6112-.0302-2.8705-.1643-4.306.6415-1.8449 1.0365-6.3074.0535-8.2663.2228-2.2544.1955-6.8226.8266-9.0267.3211-3.8748-.8883-2.4811-1.3717-6.4325-1.3717-2.752 0-6.3847.468-9.1169.6361-1.2017.0749-2.3964.4526-3.6082.2168-1.1008-.2134-1.9203-1.0695-3.0849-1.0695-5.1723 0-9.6908-.0419-8.0163 6.6319.8109 3.2423.5104 2.1555.1351 5.4381-.2738 2.3997-.6208 7.6007-.4108 12.4449h2.3955c-.4501-1.0545-.7236-2.0614.3797-2.6629" style="fill:#ffcb00"/><g style="fill:#009540"><path d="m12.5369 28.5098c5.3355.9172 12.0414.7865 15.7191.3695.9515-.1058.5447-.8181-.2477-1.0192-8.7334-2.2112-15.7527-2.3909-16.3339-1.27-.6812 1.1803-.4932 1.2769.8625 1.9197"/><path d="m9.9782 31.318c.5548.5049 1.3494 1.598 1.5211 1.8785.0927.1501.0625.5448-.0217.9559.3464.192.7783.3494 1.3896.5105 1.9122.4964 3.9515.9673 5.9865.8477 2.1038-.1234 4.1844-.5716 5.9799-1.005 2.2207-.5376 4.0722-1.1543 5.0824-1.5521-.1849-.989-.4288-1.0856-.3684-1.5949-5.5611.006-7.9768.7866-13.7819.3796-4.1555-.288-6.0437-1.0286-5.3163-.7586-.0012.1483-.1873.2566-.4712.3384"/><path d="m14.0922 41.9184c.1107.4224.2628.7712.2628 1.0438 0 .3223-1.9313 1.1815-2.4691 1.1815-.5375 0-.9669.5376-1.3956.1083-.4294-.4306-.215-.7522-.7513-.8599-.5369-.1076-.9656.4293-1.3943.3223-.43-.107-1.075-.107-1.2876-.4299-.2175-.3223-.1093-.6447-.2175-1.074-.1069-.43-.2125-1.0765 0-1.3988.2175-.3223 0-.8599.4313-1.1822.43-.3223 2.6825-.7523 3.3263-1.2893.6443-.5382.7512-.4299 1.3972-.2159.6437.2159 1.0731.7529 1.5025.5383.4294-.2147.4294-.6447.8581-.2147.4294.4293.6444.7517.6444 1.074 0 .3229-.1069.6452-.3213.9675-.0581.0875-.1386.1807-.226.272 7.709 2.0937 14.9692-5.0217 15.638-5.8042-.0018-.1214-.0025-.236-.0072-.3377-.0063-.1388-.0148-.2606-.0211-.3843-.4334.2231-.976.4583-1.6326.6824-.9753.3298-5.6501 1.8445-6.8754 2.0144-1.1592.1593-5.9264-.0088-6.8474-.1108-1.0719-.1145-2.0947-.761-3.0257-1.0399-.392-.1171-.6297-.2317-.8214-.3563-.9263.2876-4.2372.5942-4.7109.5779-.5343-.0183-2.3427-1.3107-2.3324-1.633.0123-.3229.2402-.7425.365-1.2763.0786-.334.1075-.4164.1166-.4319-.0317-.0289-.5215-.4551-.7173-.7755-.204-.3274-.3011-.6563-.2889-.9761.0076-.2222.117-.4394.3263-.6865-.0019-.0019-.0031-.0019-.0044-.0044-.8267.5241-1.4912.3204-2.5719-.0368.0437.3887.0727.7903.0727 1.2152 0 2.1568-.5598 6.0015-.0334 8.4843.5382 2.5288.5162 2.0598.2748 4.6704-.2729 2.9549.2241 5.874.3247 8.8239.0874 2.6465-1.8194 4.3285-1.2021 7.1274.4068 1.8501-.2234 3.6801-.3095 5.5321-.2298 4.9908 7.3214 4.0327 10.7363 3.5794 2.1541-.2845 3.6475-1.1104 5.9006-1.123 2.0171-.0082 3.9109 1.1394 5.8661.9638 1.4381-.1272 2.9739-.1863 4.55-.1983 1.0473-9.0342 2.4596-24.3773 2.7972-31.5034-3.1675 2.3625-10.2359 6.5243-15.9266 4.1642"/></g><path d="m41.0764 24.6064c.6786-.0484 1.1972-.5546 1.1972-.5546 0 0 1.6804.0835 2.1604.0835.4785 0 3.3006-.1599 3.3006-.1599l2.2641.0598c1.8772-.1212 4.0234-.09 3.352-1.2764-1.1089-1.1416-1.4883-1.531-3.5142-1.496.0226.0824-2.7661.5458-2.7661.5458l-1.4381.3308c0 0-1.5859-5.5832-4.7156-1.7438-.2594.3173-.7975 2.6399-.8949 3.1309-.1204.6088.3765 1.1281 1.0546 1.0799m16.0261 2.2433c-1.3101.1521-2.6278-.2206-4.4565.3352-1.8285.555-1.385.4958-5.1893.6872-3.8015.1938-4.8521.2102-5.7752-.0375-.9214-.248-2.3393-.4885-3.128-.4762-.7886.0129-2.9104.0462-2.244.5628.6636.5136 2.3195.9326 2.3195.9326 0 0 4.7539 1.8964 7.1139 1.7283 2.36-.1703 3.5039-.0472 4.6801-.3264 1.1769-.2823 3.2599-.6374 4.0505-.5187.7899.1193 2.0585-.8137 2.5781-1.0856.5215-.2707 1.643-.773 1.6352-1.3003-.0085-.524-.2735-.6509-1.5843-.5014m-3.6082 9.5649c-.3734-.0875-.7949-.3652-1.1278-.6264-.4765.3746-.6676.9386-1.5748.5269-.9326-.423-1.4868-.3311-1.4726-1.0538.0069-.3475.0506-.6673.0965-.9074l-.1025-.04c0 0-.8292-.0904-1.7574-.1857-.8034.1108-1.7298.152-2.8633.0393-4.1878-.2153-5.3213-2.2867-9.4453-2.0991 0 0-.292.4423-.4307 1.3506 3.0085 3.4954 4.7452 4.5341 5.5125 4.8407 1.1621.469 5.0566.96 6.6229.9184 1.3071-.0365 4.3227-.7113 5.8736-1.2389l.293-.0988c.7371-.2486 1.4896-.503 2.2145-.8505.0085-.0648.016-.1309.0349-.1825.0751-.248.1788-.5269.3218-.8259-.0993.0289-.2036.0535-.3322.0768-1.2457.1989-1.0043.5628-1.8631.3563" style="fill:#df4013"/></svg>