<svg xmlns="http://www.w3.org/2000/svg" viewBox="0 0 457 112" style="enable-background:new 0 0 457 112"><path d="m420.23 69.46c-.434 0-1.084-.045-1.721-.258-.988-.283-2.195-1.074-3.709-4.814-1.906-4.75-5.947-15.303-8.361-21.608l-1.895-4.934c-.525-1.354-.727-1.666-1.086-1.666-.355 0-.549.319-1.088 1.801l-9.992 27.337c-.838 2.322-1.73 3.812-3.596 4.055l-1.26.088c-.082 0-.156.012-.223.031-.096-.031-.197-.031-.25-.031-.43 0-1.566 0-2.826-.393-1.85-.602-2.123-3.078-2.287-4.559l-2.949-27.03c-.088-.825-.223-1.303-.654-1.303-.398 0-.602.386-.775.78 0 0-11.598 24.771-12.828 27.402-.229-.471-13.355-27.451-13.355-27.451-.197-.438-.406-.731-.773-.731-.391 0-.527.453-.609.896 0 .009-3.17 28.71-3.17 28.71 0 .002-.016.16-.016.16-.17 1.617-.33 3.145-1.641 3.383-.65.131-.951.131-1.299.131-.275 0-.568.121-.568.346 0 .523.66.523.877.523l2.707-.092.99-.041.789.031 3.305.102c.32 0 .918 0 .918-.523 0-.217-.244-.346-.48-.346-.268 0-.916-.047-1.643-.217-.607-.123-1.045-.645-1.045-1.242l.043-2.236c0 0 1.605-18.643 1.746-20.264.656 1.544 5.344 11.598 5.762 12.432 0 .0001.215.434.215.434 2.605 5.227 4.266 8.52 4.936 9.781l.076.145c.83 1.574 1.027 1.949 1.4 1.949.428 0 .572-.303 1.262-1.76l.307-.646c0 0 9.703-20.594 10.697-22.701.041.45 2.092 22.482 2.092 22.482.029.271.041.506.041.701 0 .465-.066.715-.121.75-.172.033-.404.117-.404.43 0 .381.453.49 1.348.568 1.578.127 6.342.264 7.361.264.307 0 .555-.045.732-.123.213.121.541.123.756.123l3.967-.1 1.01-.033 1.121.047 2.312.086c.521 0 .787-.162.787-.48 0-.178-.098-.389-.566-.389h-.439c-.598 0-1.547-.312-1.547-1.15 0-.785.217-1.816.609-2.906 0-.002 2.643-7.794 2.643-7.794.092-.232.207-.266.318-.266h9.465c.158 0 .211.048.283.193-.006-.011 4.086 10.817 4.086 10.817.121.32.135.605.039.807-.051.107-.133.186-.225.217-.322.082-.393.277-.393.428 0 .361.438.385 1.234.424l.205.012 6.918.088c.67 0 1.01-.162 1.01-.48-.0001-.391-.413-.391-.567-.391m-13.162-13.954h-8.408c-.021-.004-.037-.018-.037-.047 0-.021.008-.05.023-.089.002-.008 3.875-11.893 3.875-11.893.125-.375.213-.407.213-.407 0 .002.086.043.207.407 0 .003 4.184 11.888 4.184 11.888 0 .016.012.132.012.132-.0001-.002-.069.009-.069.009m48.949 13.954c-.26 0-.871 0-1.697-.131-1.178-.188-3.01-.719-5.299-3.133-2.236-2.391-4.84-5.732-7.855-9.603 0 0-1.098-1.409-1.223-1.568 3.6-3.346 5.283-6.583 5.283-10.18 0-3.053-1.941-5.264-3.088-6.088-2.412-1.729-5.463-1.961-8.131-1.961l-3.709.09-1.486.042-.584-.021-4.389-.111c-.27 0-.832 0-.832.479 0 .226.203.389.48.389.396 0 1.129.045 1.465.129 1.436.305 1.715.984 1.797 2.394.088 1.404.088 2.641.088 9.501v7.747c0 4.3 0 7.696-.219 9.538-.162 1.168-.361 2.148-1.176 2.312-.49.107-.975.174-1.295.174-.354 0-.48.209-.48.389 0 .48.562.48.832.48l3.941-.125.197-.008.521.018 4.893.115c.688 0 .83-.262.83-.48 0-.18-.125-.389-.479-.389-.381 0-1.334-.086-1.963-.176-1.168-.154-1.467-.932-1.609-2.309-.219-1.844-.219-5.24-.219-9.54v-1.056c0-.208.086-.225.18-.225l5.414.087c.221 0 .324.067.484.228 0 .002 1.639 2.232 1.639 2.232l3.148 4.27.551.725c2.203 2.91 3.658 4.832 5.432 5.781 1.199.645 2.359.852 4.771.852h3.125c.648 0 1.184-.037 1.184-.48.0001-.21-.239-.388-.522-.388m-17.371-15.651c-1.049.729-2.346.814-3.23.814-1.912 0-3.916-.302-4.557-.687-.17-.102-.246-.231-.246-.42v-14.392c0-.2.092-.338.273-.411.408-.121 1.572-.255 2.902-.255 4.688 0 7.488 3.244 7.488 8.679.0001 3.049-.984 5.545-2.63 6.672m-208.95 15.651c-.26 0-.869 0-1.697-.133-1.18-.188-3.01-.717-5.297-3.131-2.244-2.396-4.855-5.75-7.879-9.632 0 0-1.074-1.38-1.199-1.539 3.6-3.347 5.283-6.584 5.283-10.18 0-3.053-1.943-5.263-3.09-6.088-2.412-1.729-5.463-1.962-8.131-1.962l-3.713.091-1.48.042-.586-.021-4.389-.111c-.27 0-.83 0-.83.479 0 .227.201.391.479.391.398 0 1.129.045 1.465.129 1.436.305 1.715.984 1.797 2.394.088 1.404.088 2.641.088 9.501v7.747c0 4.3 0 7.696-.219 9.538-.16 1.168-.361 2.15-1.176 2.312-.49.107-.973.174-1.295.174-.354 0-.479.201-.479.389 0 .48.561.48.83.48l3.945-.125.195-.008.52.018 4.893.115c.688 0 .832-.262.832-.48 0-.18-.127-.389-.48-.389-.379 0-1.334-.086-1.963-.176-1.168-.154-1.465-.932-1.607-2.309-.219-1.844-.219-5.24-.219-9.54v-1.056c0-.209.084-.227.18-.227l5.412.089c.221 0 .324.067.484.228 0 .002 1.648 2.245 1.648 2.245l3.139 4.257.561.74c2.199 2.9 3.65 4.818 5.424 5.766 1.197.645 2.357.852 4.77.852h3.125c.648 0 1.184-.037 1.184-.48-.0001-.212-.239-.39-.525-.39m-17.371-15.651c-1.049.729-2.346.814-3.229.814-1.914 0-3.916-.302-4.559-.687-.17-.102-.244-.231-.244-.42v-14.392c0-.2.09-.339.271-.411.406-.121 1.57-.255 2.902-.255 4.688 0 7.488 3.244 7.488 8.679.002 3.049-.982 5.544-2.629 6.672m-56.5-2.592l-1.232-.968c-3.994-3.269-5.322-4.781-5.322-7.295 0-2.979 2.125-4.979 5.287-4.979 3.754 0 5.02 1.585 5.391 2.266.254.465.514 1.625.557 2.15.039.311.084.69.479.69.4 0 .436-.588.436-1.139 0-2.35.107-3.748.154-4.345l.021-.323c0-.382-.271-.435-.566-.435-.318 0-.639-.033-1.514-.218-1.258-.302-2.568-.442-4.121-.442-5.613 0-9.238 3.159-9.238 8.05 0 2.951.98 5.722 5.768 9.651l1.98 1.628c3.938 3.251 5.02 4.934 5.02 7.826 0 2.846-2.117 5.729-6.166 5.729-3.443 0-5.834-1.641-6.393-4.389-.127-.604-.127-1.205-.127-1.604 0-.258 0-.611-.438-.611-.371 0-.441.424-.477.82 0 .002-.039.527-.039.527-.068.887-.184 2.371-.184 4.148 0 1.207.055 1.449.732 1.787 1.658.809 3.605 1.201 5.955 1.201 2.641 0 4.965-.646 6.719-1.871 2.799-1.986 3.797-5.131 3.797-7.41 0-3.383-1.061-6.177-6.475-10.444m33.375 12.917c-.355 0-.445.346-.52.764-.307 1.783-.822 2.615-1.906 3.074-1.121.475-3.035.475-4.178.475-4.412 0-4.855-.617-4.979-3.488-.033-.662-.02-3.506-.008-5.584l.008-1.938v-3.873c0-.129.053-.181.18-.181.744 0 5.107.088 6.281.22 1.605.163 2 .823 2.182 1.447.17.558.17.976.17 1.418 0 .323.168.523.436.523.436 0 .436-.58.436-.964 0-.318.09-1.943.176-2.804 0-.0001.273-1.942.273-1.942l.08-.535c0-.418-.219-.479-.348-.479-.221 0-.396.203-.689.54l-.066.076c-.371.411-.996.491-1.984.573-.959.082-5.99.087-6.988.087-.092 0-.137 0-.137-.312v-12.15c0-.313.092-.313.137-.313.523 0 5.285.046 6.02.132 2.34.26 2.742.775 3.02 1.421.199.481.254 1.191.254 1.535 0 .464.16.698.479.698.312 0 .404-.439.434-.584.059-.354.115-1.281.16-2.027l.061-.893.262-1.531.092-.55c0-.432-.164-.522-.303-.522l-.404.126-.238.098c-.373.093-1.09.175-1.873.216-.996.044-9.703.045-10.07.045l-.588-.021-4.387-.111c-.27 0-.83 0-.83.479 0 .227.201.391.479.391.398 0 1.129.045 1.465.129 1.436.305 1.715.984 1.797 2.394.088 1.404.088 2.641.088 9.501v7.747c0 4.3 0 7.696-.219 9.538-.189 1.385-.434 2.164-1.174 2.312-.49.107-.975.174-1.297.174-.354 0-.479.209-.479.389 0 .48.561.48.832.48l2.559-.088 1.594-.039.16-.006 1.684.059c1.707.078 4.564.207 9.189.207 1.707 0 2.166 0 2.498-1.24.23-.961.578-3.959.578-4.303-.003-.318-.003-.79-.394-.79m102.12 5.326c-.432 0-1.08-.045-1.719-.26-.988-.281-2.195-1.072-3.709-4.812-1.916-4.773-5.973-15.372-8.398-21.704l-1.857-4.839c-.523-1.354-.727-1.665-1.086-1.665-.357 0-.551.319-1.088 1.801l-9.992 27.337c-.725 2.01-1.49 3.393-2.891 3.887-1.162-.283-2.762-.979-4.684-3.01-2.238-2.391-4.84-5.73-7.854-9.598 0 0-1.102-1.414-1.227-1.573 3.602-3.346 5.285-6.583 5.285-10.18 0-3.052-1.943-5.263-3.092-6.088-2.412-1.729-5.463-1.962-8.129-1.962l-3.711.091-1.484.042-.586-.021-4.387-.111c-.27 0-.832 0-.832.479 0 .227.201.391.479.391.398 0 1.131.045 1.467.129 1.436.305 1.713.984 1.797 2.394.088 1.405.088 2.641.088 9.501v7.747c0 4.3 0 7.696-.219 9.538-.162 1.168-.361 2.148-1.176 2.312-.49.107-.973.174-1.297.174-.354 0-.479.209-.479.389 0 .48.562.48.832.48l3.943-.125.195-.008.521.018 4.893.115c.686 0 .83-.262.83-.48 0-.18-.125-.389-.479-.389-.381 0-1.334-.086-1.963-.176-1.17-.154-1.467-.932-1.609-2.309-.219-1.844-.219-5.24-.219-9.54v-1.056c0-.209.086-.227.182-.227l5.412.089c.221 0 .324.067.484.227 0 .003 1.635 2.229 1.635 2.229l3.152 4.273.564.744c2.197 2.9 3.646 4.814 5.42 5.762 1.164.627 2.297.84 4.578.85.051.002.1.002.143.002h.008c.014 0 .025 0 .039 0h3.127c.363 0 .689-.014.908-.104l.891-.029 1.121.047 2.312.086c.523 0 .787-.162.787-.48 0-.178-.098-.389-.566-.389h-.439c-.598 0-1.547-.312-1.547-1.15 0-.783.217-1.814.607-2.906.002-.002 2.645-7.796 2.645-7.796.094-.233.213-.266.318-.266h9.465c.158 0 .209.049.281.194-.004-.001 4.09 10.818 4.09 10.818.119.32.133.607.037.809-.051.105-.133.184-.223.215-.324.08-.395.277-.395.428 0 .361.439.385 1.234.424l.205.012 6.918.088c.67 0 1.01-.162 1.01-.48.005-.391-.407-.391-.564-.391m-45.8-15.651c-1.051.729-2.346.814-3.23.814-1.914 0-3.916-.302-4.557-.687-.17-.102-.246-.231-.246-.42v-14.392c0-.199.092-.338.271-.411.408-.121 1.572-.255 2.902-.255 4.689 0 7.49 3.244 7.49 8.679.0001 3.049-.984 5.545-2.63 6.672m32.64 1.696h-8.408c-.021-.004-.037-.017-.037-.046 0-.021.008-.05.023-.089.002-.008 3.877-11.894 3.877-11.894.125-.375.211-.406.211-.406.002.002.086.042.209.407 0 .002 4.182 11.888 4.182 11.888 0 .015.012.131.012.131 0-.002-.069.009-.069.009m48.651-10.639c-7.174 0-9.85 5.996-9.85 9.774 0 4.733 3.037 9.825 9.703 9.825 5.777 0 9.971-4.297 9.971-10.22 0-5.609-3.947-9.379-9.824-9.379m.517 18.422c-4.58 0-7.781-3.84-7.781-9.339 0-4.937 2.717-8 7.092-8 3.557 0 7.387 2.813 7.387 8.992 0 7.949-5.579 8.351-6.698 8.351m-23.756-18.08l-.469.002-2.742.059-.592.017-.328-.012-2.463-.063c-.152 0-.514 0-.514.317 0 .155.135.269.318.269l.811.069c.703.15.92.441.971 1.301.049.785.049 1.479.049 5.325v4.346c0 2.315 0 4.315-.123 5.347-.105.77-.23 1.178-.621 1.254-.002.002-.717.098-.717.098-.234 0-.316.143-.316.266 0 .318.361.318.514.318l2.02-.059.402-.016.672.047c1.127.088 3.223.25 4.811.25 3.154 0 5.771-.994 7.57-2.877 1.715-1.809 2.699-4.377 2.699-7.05 0-3.164-1.32-5.202-2.428-6.354-2.797-2.891-7.01-2.869-9.522-2.856m7.549 15.792c-1.439 1.438-3.551 2.262-5.795 2.262-2.857 0-3.807-.508-4.1-.936-.189-.26-.234-1.389-.25-1.812-.023-.449-.049-2.622-.049-5.355v-3.062l.023-5.256c0-.244.059-.314.225-.389.168-.083 1.031-.162 1.559-.162 3.225 0 5.816.469 7.988 2.754.873.916 2.338 2.931 2.338 6.141.0001 2.377-.761 4.661-1.939 5.815" style="fill:#1b1c20"/><g style="fill:#00a651"><path d="m216.34 7.495c-.488-3.175-3.03-5.187-6.465-5.955-1.436-.304-3.076-.454-4.812-.454-8.131 0-18.273 2.981-20.12 2.981-.229 0-1.076.167-.943.61.105.372.396.843 1.289 1.378.551.345 1.225.46 1.996.46 4.125 0 11.227-3.939 18.396-3.939 1.039 0 2.09.075 3.125.267 1.902.344 2.57 1.076 2.875 1.913 1.76 4.833-10.609 10.746-13.744 12.928-.455.305-.633.648-.592.916.041.27.264.46.689.46.191 0 .379-.037.637-.114.396-.137 2.77-1.224 4.229-1.596 2.207-.669 2.326-.085 4.539-1.028 6.758-2.879 9.373-5.762 8.904-8.827"/><path d="m199.67 7.394c-.107-.704-.426-1.283-.984-1.738-.41-.27-.682.512-.752.692-.496 1.266-2.998 4.073-5.164 7.321-1.977 2.943-3.693 6.31-3.266 9.102.293 1.912 1.477 3.098 2.787 3.864.887.495 1.523.878 1.871.878.346 0 .453-.306.43-.459-.023-.151-.156-.269-.543-.269-.424 0-.658-.267-.727-.727-.24-1.566 1.141-5.621 3.709-10.747 1.649-3.327 2.928-6.04 2.639-7.917"/><path d="m410.57 22.847c-.115 0-.324.155-.559.383-.992 1.069-2.396 2.754-3.359 2.754-.078 0-.211-.114-.223-.191-.365-2.371 7.43-16.14 6.832-20.04-.041-.268-.113-.498-.543-1.031-.238-.309-1.436-.411-1.699.415-.998 2.277-6.1 9.485-7.242 15.253-1.27 1.524-3.143 3.666-4.045 4.453-.135.114-.621.534-.738.534-.193 0-.352-.18-.35-.385 0-.116-.002-.269.012-.421.285-1.368 1.631-3.824 2.029-5.196.514-2 .477-4.323-.094-5.159-1.234-2.027-2.342-2.611-3.42-2.611-.502 0-.877.075-1.629.458-1.779.89-6.115 4.04-8.336 8.136-.268.166-.686.544-1.246 1.198-1.17 1.415-3.211 3.939-3.943 3.939-.117 0-.168-.076-.184-.191-.023-.152-.016-.345.061-.612.322-1.415 1.398-3.441 1.934-5.238.023-.075.037-.151.057-.228.039-.141.078-.281.105-.423.002-.006.004-.011.006-.016l-.002-.0001c.123-.621.156-1.239.061-1.858-.209-1.378-1.619-2.026-2.318-2.065-.309 0-.363.153-.363.649-.004.163-.16.958-.557 1.733-.074.143-2.582 3.662-4.994 5.306-.293.201-1.059.879-1.408.879-.111 0-.203-.077-.225-.228-.029-.193.037-.499.162-.957.201-.645.877-1.646 1.553-2.767.004-.006.008-.012.001-.017 1.01-1.812 1.455-3.123 1.455-3.123.117-.475.17-.935.105-1.36-.146-.952-.934-1.837-2.689-2.241-.152-.036-.553.221-.498.558.043.255-.291.968-.77 1.938h-.002c-.305.618-.67 1.345-1.035 2.121-.055.119-.111.239-.168.361-.031.072-.064.142-.098.215-.001.022-.021.045-.031.068h.002c-.42.931-.816 1.913-1.102 2.872-1.461 1.846-3.797 4.495-4.645 4.817-.182.077-.33.113-.408.113-.115 0-.199-.036-.25-.381-.264-1.722 2.479-12.735 7.258-17.746.59-.539.744-1.185.414-1.464-.699-.591-1.859-1.139-2.775-1.139-1.156 0-3.123 4.514-5.072 8.644-.082.184-.246.454-.484.81-.879-2.453-4.166-2.109-4.166-2.109l.001.009c-.035-.002-.074-.009-.107-.009-.346 0-.648.039-.934.191-1.428.735-4.164 4.478-5.424 8.117-1.258 1.507-3.01 3.512-3.891 4.279-.135.114-.623.534-.738.534-.193 0-.352-.18-.35-.385 0-.116-.002-.269.012-.421.285-1.368 1.631-3.824 2.029-5.196.514-2 .477-4.323-.094-5.159-1.234-2.027-2.342-2.611-3.422-2.611-.5 0-.875.075-1.627.458-1.799.898-6.211 4.108-8.408 8.274 0 .002-.002.004-.004.007-.125.075-.273.192-.441.364-3.189 3.327-5.619 5.315-6.662 5.315-.346 0-.529-.19-.588-.573-.223-1.453.973-4.207 3.584-10.06.094-.152.191-.269.383-.269 1.877-.076 4.266-.076 5.281-.494.4-.155.596-.385.574-.538-.025-.152-.191-.228-.537-.228-.926 0-2.705-.041-4.592-.041-.309 0-.355-.036-.293-.15 1.078-2.258 1.414-3.597 1.25-4.668-.119-.768-.518-1.264-1.059-1.627-.777-.291-.895.43-.928.548-.273.957-1.742 3.857-3.242 5.938-.695 0-1.277-.041-2.896-.041-.502 0-.748.155-.713.384.016.114.111.229.25.383.322.344.561.382 1.498.458.389.039.621.039 1.123.039-.982 1.385-1.641 2.535-2.258 3.997-1.205 1.111-3.219 2.786-3.895 3.308.037-1.76-1.629-2.753-2.705-3.747-.184-.191-.279-.309-.305-.46-.062-.421.746-.688 1.963-1.301 1.105-.573 1.645-1.071 1.551-1.684-.059-.38-.354-.802-.904-1.377-1.102-1.147-1.451-1.412-1.68-1.412-.156 0-.254.114-.436.189-2.824 1.187-3.617 2.294-3.434 3.479.188 1.226 1.562 2.41 2.658 3.52.271.268.369.581.436.842 1.109 4.141-3.664 4.169-4.803 5.546-.293.344-.875.651-.83.956.043.268.188.461.443.612.42.23 1.055.344 1.822.344 2.625 0 6.656-1.34 6.34-3.901-.02-.128 1.609-1.563 2.977-2.939-.342 1.137-.42 2-.277 2.939.416 2.714 3.037 3.481 4.04 3.481 2.072 0 4.088-2.107 6.486-5.197-.061.188-.127.377-.176.568-.002.004-.002.008-.002.012-.031.143-.053.294-.061.45 0 .014-.002.026-.002.039-.006.142 0 .286.02.43.002.021 0 .042.002.063.121.784.564 1.587 1.148 2.194.406.423.881.745 1.365.906.215.07.43.112.641.112h.002c.076 0 .154-.008.232-.019.312-.04.625-.164.891-.439 2.287-2.18 4.693-5.263 6.426-7.448.104-.073.182-.073.258-.073.115 0 .166.073.178.151.018.115-.037.267-.121.459-.836 1.838-.984 2.971-.816 4.081.258 1.682.959 2.458 1.873 2.759.471.154 1.426.022 1.777-.305.477-.441 1.75-1.887 3.113-3.458-.053.328-.096.652-.105.965-.076 1.53 2.316 3.059 3.588 3.059.232 0 .459-.036.594-.15 1.363-.92 4.773-6.579 5.719-8.454.146-.305.283-.421.398-.421.076 0-.037.269-.084.46-.572 2.065-1.377 4.091-1.055 6.196.293 1.911 1.807 2.486 2.77 2.486.309 0 .568-.077.709-.153.938-.564 2.789-2.521 4.23-4.293-.062.519-.07 1.01 0 1.463.281 1.835 1.789 2.368 2.443 2.368 2.197 0 4.4-3.977 6.588-6.04.236-.229.336-.344.373-.344.039 0 .045.036-.043.229-.682 1.567-.881 2.793-.734 3.749.152.994.693 1.758 1.424 2.258.344.229.67.343 1.016.343 1.75 0 3.412-2.681 4.547-4.205-.061.19-.129.379-.178.571-.004.021-.004.042-.008.062-.025.122-.043.249-.051.38-.002.026-.004.051-.004.078-.006.129 0 .262.018.395.002.026-.002.053.002.08.244 1.568 1.768 3.213 3.154 3.213h.002c.08 0 .162-.008.244-.02.309-.042.617-.167.881-.438 2.285-2.18 4.691-5.263 6.424-7.448.104-.073.182-.073.26-.073.113 0 .164.073.178.151.016.115-.039.267-.123.459-.836 1.838-.982 2.971-.816 4.081.26 1.682.959 2.458 1.873 2.759.471.154 1.426.022 1.779-.305.535-.495 2.074-2.259 3.617-4.04-.018.497-.008.98.062 1.436.141.918.502 1.762 1.068 2.447.568.69 1.193.995 1.85.995 1.119 0 2.432-1.26 3.771-3.326.283-.423.357-.688.34-.804-.005-.036-.049-.076-.087-.076m-62.75-5.666c-1.543 1.178-4.02 3.761-5.629 5.245-.109.099-.205.17-.295.231-.086.059-.162.101-.232.131-.012.005-.023.012-.035.016-.07.027-.133.043-.182.043-.102 0-.182-.039-.25-.094-.113-.091-.188-.236-.211-.404-.014-.082-.001-.164-.002-.245.004-.021.006-.041.008-.062.016-.089.037-.178.061-.267.014-.044.035-.09.053-.135.031-.084.066-.17.104-.256.049-.109.102-.222.16-.334l-.002-.006-.002-.002c1.439-2.898 5.35-6.212 7.615-6.395.57.152.504.885.262 1.123-.202.203-.803.796-1.423 1.411m15.973-1.019l.045-.024c-1.045 1.397-2.553 3.343-4.557 5.945-.902 1.146-1.15 1.3-1.418 1.3-.078 0-.16-.039-.197-.269-.035-.229.049-.688.209-1.146 1.311-4.105 3.488-7.45 5.164-7.669 1.6.729.754 1.863.754 1.863m33.15 1.019c-1.543 1.178-4.02 3.761-5.631 5.245-.273.247-.486.366-.641.403-.037.001-.074.018-.104.018-.092 0-.166-.033-.23-.079-.125-.089-.203-.242-.23-.419-.031-.19.02-.381.064-.573.049-.144.113-.292.18-.44.129-.288.289-.583.475-.882-.002-.004-.004-.001-.006-.014 1.672-2.771 5.172-5.621 7.283-5.791.568.152.502.885.262 1.123-.203.201-.804.794-1.422 1.409"/><path d="m313.58 26.06c-4.283.959-7.502 1.342-9.773 1.342-3.045 0-4.5-.692-4.652-1.686-.326-2.143 5.332-5.697 13.412-6.541.533-.038.672-.151.627-.418-.215-1.417-1.398-3.865-3.178-3.636-.676.089-1.787.333-3.08.719-1.766-.177-5.223-.297-7.217-1.022-1.043-.381-1.627-1.29-1.697-1.75-.414-2.715 13.359-8.503 19.75-8.03 1.424.104 1.928.722 2.125 1.311.119.351.797.686 1.26.205.465-.48.781-1.07.889-1.95.129-1.039-1.25-4-5.371-3.935-4.975.079-22.08 4.857-21.11 11.207.117.766.512 1.567 1.258 2.409 1.252 1.378 3.357 1.948 5.422 2.193.771.092 1.596.162 2.377.149-3.883 1.483-8.102 3.986-7.594 7.297.082.533.279 1.07.594 1.605 1.479 2.601 3.908 3.633 6.607 3.633 3.045 0 6.473-1.262 9.5-2.639.221-.077.383-.269.365-.381-.007-.037-.069-.192-.517-.078"/><path d="m286.78 18.486c-.076 0-.146.038-.213.113-2.043 2.526-8.158 6.718-10.508 6.718-.5 0-.916-.19-.92-.955.016-.789.129-1.524.307-2.213.246-.058.555-.141.941-.26 2.135-.656 6.967-2.915 7.084-5.082.012-.243.023-.66-.168-1.012-.395-.726-1.844-1.938-3.648-2.817-.293-.152-.576-.229-.883-.229-2.16 0-4.611 3.862-5.688 6.386-.209.489-.311.746-.439 1.272-.139.131-.756 1.116-1.332 1.685-1.174 1.418-2.742 3.24-3.363 3.24-.119 0-.166-.076-.186-.191-.023-.152-.012-.345.062-.612.322-1.415 1.398-3.441 1.934-5.238.256-.845.355-1.685.229-2.525-.211-1.378-1.621-2.026-2.32-2.065-.309 0-.363.153-.363.649-.004.229-.314 1.722-1.176 2.639-.953 1.071-1.617 2.029-4.375 4.4-.275.229-1.059.879-1.406.879-.115 0-.203-.077-.227-.229-.029-.192.037-.498.16-.956.465-1.493 3.49-4.896 3.125-7.267-.145-.952-.932-1.837-2.688-2.241-.154-.036-.555.221-.498.558.104.626-2.049 3.993-3.088 7.191-1.529 1.337-3.637 2.776-5.35 3.59 1.902-2.869 3.354-6.785 3.156-8.755-.109-1.224-2.121-2.791-3.053-3.327-.17-.114-.414-.191-.607-.191-.191 0-.381.036-.516.153-1.676 1.177-3.527 3.456-4.934 6-1.793 1.675-4.82 4.584-6.248 5.774-.242.193-.385.269-.461.269s-.08-.039-.086-.075c-.031-.193.055-.383.109-.536.225-.535.799-1.568 1.268-2.792.332-.842.646-2.065.523-2.869-.059-.381-.227-.727-.492-.956-1-.766-1.725-1.187-2.689-1.187-.693 0-1.473.192-2.564.613-.109.037-.219.076-.297.076-.115 0-.205-.076-.215-.154-.012-.075.053-.152.188-.267 1.049-.955 1.529-1.606 1.416-2.333-.088-.574-.705-1.339-1.781-2.334-.096-.114-.34-.19-.531-.19-.193 0-.379.04-.484.114-2.09 1.456-2.855 2.486-2.65 3.824.107.69.498 1.493 1.141 2.412.102.153-1.861 2.527-2.875 3.652-1.264 1.529-2.598 3.169-3.551 4-.135.114-.621.534-.738.534-.193 0-.352-.18-.35-.385 0-.116 0-.269.012-.421.287-1.368 1.631-3.824 2.031-5.196.514-2 .475-4.323-.096-5.159-1.234-2.027-2.34-2.611-3.42-2.611-.502 0-.875.075-1.629.458-2.146 1.073-8.03 5.433-9.406 10.787-.066.305-.092.65-.041.994.242 1.568 1.768 3.213 3.154 3.213.387 0 .791-.114 1.125-.458 2.285-2.18 4.693-5.263 6.424-7.448.104-.073.182-.073.26-.073.113 0 .164.073.178.151.016.115-.039.267-.123.459-.836 1.838-.982 2.971-.814 4.081.258 1.682.959 2.458 1.873 2.759.469.154 1.424.022 1.777-.305 1.125-1.043 6.688-7.677 7.387-8.36.232-.232.521-.44.9-.618.723-.34 2.465-1.087 3.352-1.087.385 0 .484.152.508.307.066.419-.645 1.567-1.334 2.599-1.189 1.799-1.887 2.793-2.117 3.787-.143.573-.221 1.072-.145 1.569.123.803.545 1.299 1.598 2.14.529.422.816.536 1.162.536.541 0 1.297-.343 2.105-1.109.932-.922 3.352-3.688 5.535-6.03-.543 1.322-.828 2.548-.688 3.465.039.268.133.612.281.842.297.421.9 1.34 1.086 1.53.189.229.371.421.381.495.02.118-.123.193-.387.231-.605.077-1.391.23-1.887.765-.164.191-.213.383-.182.574.057.382.547.803 1.049.803.191 0 .455-.039.619-.23.424-.497.973-.688 1.551-.688 3.354 0 9.318 6.234 15.678 6.234 2.391 0 4.803-.841 7.209-3.252.164-.191.289-.382.266-.536-.006-.036-.051-.074-.088-.074s-.148.038-.248.154c-.98 1.146-2.496 1.567-4.268 1.567-5.357 0-13.07-4.054-15.768-4.553-.236-.037-.326-.114-.338-.191-.016-.114.121-.229.152-.267.184-.123.369-.266.555-.425 2.193-.091 4.926-2.099 6.961-4.283-.109.605-.154 1.603.008 2.059.619 1.752 1.762 2.111 2.416 2.111 2.197 0 4.4-3.977 6.59-6.04.234-.228.334-.343.371-.343s.043.036-.043.229c-.684 1.567-.881 2.793-.738 3.747.156.996.695 1.76 1.428 2.26.344.227.67.343 1.016.343 1.799 0 3.461-2.628 4.6-4.126-.025.429.027.65.092 1.065.111.726.379 1.454.902 2.104.949 1.184 1.939 1.605 3.135 1.605 3.775 0 8.49-4.704 10.467-8.146.059-.115.08-.229.068-.307-.016-.113-.106-.19-.184-.19m-6.487-2.6c.322-.153.602-.344.871-.344.191 0 .35.076.379.459.115 1.514-2.281 4.117-5.732 5.02 1.076-2.732 3.195-4.486 4.482-5.131m-57.53 1.295c-1.543 1.178-4.02 3.761-5.631 5.245-.338.307-.59.421-.744.421-.27 0-.422-.229-.461-.498-.029-.19.018-.381.066-.573 1.01-2.984 5.469-6.929 7.93-7.127.57.152.502.885.262 1.123-.203.201-.805.794-1.422 1.409m25.309 6.965c-.246.153-.498.271-.613.271s-.127-.079-.145-.193c-.018-.113-.004-.269.043-.457 1.199-3.748 2.484-5.93 3.557-7.229 1.432-1.721 2.725-1.837 2.842-1.837.152 0 .164.075.176.153.023.153.001.306-.039.496-.195.995-1.691 4.553-3.814 7.04-.629.686-1.3 1.338-2.01 1.757"/></g><path d="m106.04 6.01c-2.02-2.02-5.139-1.333-7.619-.902-3.365.586-4.844-.66-7.955-1.256-3-.57-6.457.409-9.523.354-2.482-.048-3.309.385-6.637.844-2.877.396-8.264-.466-11.619-.527.141.121.234.193.254.185-.209-.053-.467-.118-.746-.188-.225.003-.436.012-.631.028-3.475.303-10.516 1.271-13.914.493-5.975-1.369-3.822-1.122-9.916-1.122-4.244 0-9.84-.271-14.05-.009-1.854.116-3.693.695-5.561.334-1.697-.329-2.961-.663-4.756-.663-7.973 0-14.939-.06-12.361 10.21-.021 1.052.621 3.728.621 6.711 0 2.982-.031 15.15-.357 17.943 0 0 3.316-1.481 4.02-1.449.705.031 6.471 1.832 6.471 1.832l13.05-8.864 3.676-1.333c0 0 1.873-1.384 3.305-1.789 1.432-.408 9.809-7.774 9.809-7.774 1.852-.665 6.701.948 8.195 1.16 1.51.216 5.078 1.408 6.156 1.838 1.08.431 6.838-1.583 9.264-2.392.001-.003 5.268-3.581 6.885-3.904.324.323 6.264-2.461 6.266-2.473-.512-.422 4.801.605 5.498.475 6.723-1.242 12.1 5.218 13.836 5.218l3.869.612c0 0 1.918-.168 2.598-.198 1.098-.049 3.74 1.743 3.74 1.743l.219-3.07c.744-4.968-.785-10.762-2.092-12.07m-83.64 17.04c-2.387 2.861-9.74 2.559-12.291-.131-3-3.159-3.523-10.06 2.348-10.619.924-.088 2.025-.801 3.379-.947 1.762-.189 2.77.771 4.168 1.745 3.327 2.315 5.71 5.976 2.396 9.952" style="fill:#ffcb05"/><path d="m86.69 67.36c-3.699 1.109-18.438 8.193-20.424 9.188s-7.242 3.736-10.551 3.404c-3.311-.33-7.322 3.262-8.939 3.607-1.848.395-3.852 1.719-6.498.729-2.648-.994-8.107-2.814-9.434-2.482-1.324.33-7.129 2.482-7.129 2.482s-.422 0-2.078 0c-1.652 0-6.949-1.988-9.598-3.643-2.393-1.496-8.04-2.451-9.09-2.621.002.016.004.033.004.049.082 1.387-.504 2.773-.398 4.164.014.174.025.346.037.52.029.385.057.77.082 1.156.037.609.07 1.219.092 1.832.133 4.094-1.658 6.742-.725 10.971.629 2.848-.77 5.668-.9 8.516-.232 5.04 4.701 6.143 9.607 6.102 2.57-.018 5.133-.35 6.941-.59 3.32-.441 5.621-1.711 9.1-1.727 2.914-.014 5.662 1.537 8.477 1.51.188 0 .377-.008.566-.025 2.307-.207 4.777-.301 7.311-.312 5.574-.021 11.439.354 16.486.82 1.559.143 3.061.195 4.512.182 6.295-.062 11.691-1.379 17.11-1.963.285-.035.566-.051.842-.062 3.582-.113 6.365 1.508 9.91 1.557.545.001 1.107-.021 1.693-.102.834-.111 1.684-.145 2.541-.137 2.145.023 4.344.311 6.473.299.426-.002.848-.018 1.268-.047 3.355-.236 5.246-6.738 4.176-10.877-1.059-4.092-1.307-4.646-1.328-8.957-.023-4.02.555-6.123.926-10.945.371-4.824.373-8.809.383-8.852-3.171-.117-18.04-4.767-21.444-3.746" style="fill:#0082c6"/><path d="m44.4 68.54c.59-.006 3.213-1.861 3.547-2.48 1.242-2.307 8.594-1.867 2.838-3.02-1.242-.248-7.133-2.605-9.123-2.605s-3.385.016-5.375-1.479c-1.988-1.493-3.73-1.741-5.969-2.735-2.24-.995-11.691-6.219-12.936-6.467-1.244-.251-2.488 0-3.98-.251-1.494-.249-3.805-6.181-4.91-6.253-2.48-.16-3.299.365-4.293.612-.996.249-.996 0-2.736.746-.041.019-.09.038-.131.058.471 2.475 1.248 10.314 1.248 13.147 0 3.328-.865 11.09-.049 14.924.059.281.113.533.164.771 3.535-.025 6.426 1.059 7.301 1.059 1.203 0 7-4.24 7.98-4.611.98-.367 4.01-3.191 4.967-3.191.963 0 5.408 1.178 7.094 1.418 1.361.195 5.42-2.166 6.06-2.322.638-.157 7.716 2.679 8.306 2.675" style="fill:#00a651"/><g style="fill:#e54e26"><path d="m107.1 51.636c0-.134.309-10.483.309-10.659 0-4.01.1-8.273.213-11.849-1.133-.881-2.225-1.589-2.627-1.445-.898.315-3.219-1.062-4.191-1.732-.971-.671-2.066-1.355-3.123-.462-1.059.893-7.05 3.927-8.326 4.209-1.279.285-6.01 2.847-6.641 2.794-.521-.044-4.443 1.526-6.05 2.257-1.346-.2-5.486-2.084-6.193-2.495-.727-.425-6.494-1.969-7.664-2.613-1.168-.645-2.941-1.148-4.277-1.433-1.334-.285-9.377 5.05-9.377 5.05s-7.842 3.182-8.924 3.843c-.885.544-2.658.646-3.592.536-.711-.201-1.469-.331-1.877-.259-.762.13-3.971 1.231-4.633 1.766-.658.533-4.457 3.158-5.564 2.672-1.107-.487-6.092 1.914-6.092 1.914l-.805.689c.049 0 .096-.009.145 0 .498.082 6.887 1.299 10.508 1.637 2.633.246 12.539.655 15.488.983 1.771.196 5.549.394 8.289.521 1.824.082 7.281 5.388 8.482 6.095 1.312.776 31.773.623 34.514 5.234 1.346 2.262.037 3.352-.072 3.418 1.25.125 13.309 1.01 13.309.91-.002-3.933-1.23-7.65-1.23-11.581"/><path d="m205.63 100.35c0-3.149 0-3.729-.042-4.393-.041-.705-.207-1.036-.891-1.182-.166-.041-.518-.062-.808-.062-.229 0-.353-.041-.353-.186 0-.146.145-.187.456-.187 1.098 0 2.403.062 2.817.062 1.016 0 1.824-.062 2.528-.062 3.751 0 4.414 2.01 4.414 3.108 0 1.699-.975 2.715-2.114 3.626 1.699.58 3.771 2.052 3.771 4.476 0 2.217-1.72 4.518-5.532 4.518-.498 0-2.383-.125-3-.125-.477 0-1.782.062-2.611.062-.269 0-.414-.062-.414-.207 0-.104.083-.166.332-.166.311 0 .559-.041.745-.082.415-.084.519-.539.602-1.141.104-.87.104-2.507.104-4.414v-3.645zm2.486.352c0 .165.062.207.146.228.187.042.497.062.974.062.684 0 1.14-.083 1.492-.394.538-.435.85-1.181.85-2.196 0-1.389-.809-3.213-2.591-3.213-.29 0-.477 0-.684.042-.145.042-.187.124-.187.353v5.118m2.736 1.657c-.436-.311-.912-.455-1.72-.497-.373-.021-.58-.021-.892-.021-.082 0-.124.041-.124.145v4.912c0 1.367.062 1.719.726 1.988.56.229 1.036.249 1.513.249.933 0 2.507-.497 2.507-2.652 0-1.284-.435-3.02-2.01-4.124"/><path d="m230.65 100.35c0-3.149 0-3.729-.042-4.393-.041-.705-.207-1.036-.891-1.182-.166-.041-.518-.062-.809-.062-.228 0-.352-.041-.352-.186 0-.146.145-.187.456-.187 1.098 0 2.403.062 2.983.062.663 0 4.787 0 5.181-.021.394-.041.725-.083.891-.124.104-.021.229-.083.332-.083s.124.083.124.187c0 .145-.104.394-.166 1.347-.021.208-.062 1.119-.104 1.368-.021.104-.062.228-.207.228-.146 0-.187-.104-.187-.29 0-.145-.021-.498-.124-.746-.146-.373-.353-.621-1.389-.746-.353-.041-2.528-.082-2.942-.082-.104 0-.146.062-.146.207v5.242c0 .145.021.229.146.229.456 0 2.839 0 3.315-.042.497-.042.809-.104.994-.312.146-.165.229-.27.332-.27.083 0 .145.042.145.166 0 .125-.104.457-.165 1.514-.042.414-.083 1.242-.083 1.388 0 .166 0 .394-.187.394-.146 0-.187-.082-.187-.186-.021-.208-.021-.477-.083-.746-.104-.415-.394-.726-1.16-.809-.394-.041-2.445-.062-2.942-.062-.104 0-.125.083-.125.207v1.637c0 .705-.021 2.611 0 3.213.042 1.43.373 1.74 2.487 1.74.538 0 1.409 0 1.947-.248.539-.25.788-.685.933-1.534.042-.228.083-.311.229-.311.165 0 .165.165.165.373 0 .477-.165 1.886-.27 2.3-.145.539-.331.539-1.118.539-3.129 0-4.518-.125-5.74-.125-.477 0-1.782.062-2.611.062-.269 0-.414-.062-.414-.207 0-.104.083-.166.332-.166.311 0 .559-.041.745-.082.415-.084.519-.539.602-1.141.104-.87.104-2.507.104-4.414v-3.646z"/><path d="m254.11 100.35c0-3.149 0-3.729-.042-4.393-.041-.705-.207-1.036-.891-1.182-.166-.041-.518-.062-.809-.062-.228 0-.352-.041-.352-.186 0-.146.145-.187.456-.187 1.098 0 2.403.062 2.839.062.704 0 2.279-.062 2.921-.062 1.306 0 2.694.124 3.813.891.58.394 1.409 1.45 1.409 2.839 0 1.533-.643 2.942-2.735 4.642 1.844 2.321 3.273 4.165 4.496 5.45 1.16 1.201 2.01 1.347 2.321 1.408.228.042.414.062.58.062.165 0 .248.062.248.166 0 .166-.145.207-.394.207h-1.969c-1.16 0-1.678-.104-2.217-.394-.891-.477-1.679-1.45-2.839-3.046-.829-1.14-1.782-2.549-2.052-2.859-.104-.125-.228-.146-.373-.146l-1.803-.042c-.104 0-.165.042-.165.166v.291c0 1.927 0 3.563.104 4.434.062.602.187 1.057.808 1.141.312.041.767.082 1.016.082.166 0 .249.062.249.166 0 .145-.146.207-.415.207-1.201 0-2.735-.062-3.046-.062-.394 0-1.699.062-2.528.062-.269 0-.414-.062-.414-.207 0-.104.083-.166.332-.166.311 0 .559-.041.745-.082.415-.084.519-.539.602-1.141.104-.87.104-2.507.104-4.414v-3.645zm2.445 1.636c0 .229.041.312.187.373.435.146 1.057.207 1.574.207.829 0 1.099-.082 1.472-.352.621-.456 1.223-1.409 1.223-3.108 0-2.942-1.948-3.792-3.171-3.792-.518 0-.891.021-1.098.083-.146.042-.187.124-.187.29v6.299"/><path d="m282.88 95.5l-3.088.083c-1.201.041-1.699.145-2.01.602-.207.311-.311.559-.353.725-.041.166-.104.248-.228.248-.145 0-.187-.104-.187-.331 0-.331.394-2.218.436-2.383.062-.27.124-.394.248-.394.166 0 .373.207.892.248.601.062 1.388.104 2.072.104h8.205c1.326 0 1.823-.207 1.989-.207.146 0 .166.125.166.436 0 .436-.062 1.865-.062 2.403-.021.208-.062.331-.187.331-.165 0-.207-.104-.228-.414l-.021-.228c-.042-.538-.602-1.119-2.445-1.161l-2.611-.062v8.495c0 1.907 0 3.544.104 4.436.062.58.187 1.035.809 1.119.29.041.746.082 1.057.082.229 0 .332.062.332.166 0 .145-.166.207-.395.207-1.367 0-2.673-.062-3.253-.062-.477 0-1.782.062-2.61.062-.27 0-.415-.062-.415-.207 0-.104.083-.166.332-.166.311 0 .56-.041.746-.082.414-.084.538-.539.601-1.141.104-.87.104-2.507.104-4.414v-8.495"/><path d="m305.2 100.35c0-3.149 0-3.729-.042-4.393-.041-.705-.248-1.057-.704-1.16-.228-.062-.497-.084-.746-.084-.207 0-.331-.041-.331-.207 0-.124.165-.165.497-.165.787 0 2.093.062 2.693.062.519 0 1.741-.062 2.528-.062.27 0 .436.041.436.165 0 .166-.125.207-.332.207s-.373.021-.621.062c-.56.104-.726.456-.768 1.182-.041.663-.041 1.243-.041 4.393v3.646c0 2.01 0 3.647.083 4.539.062.559.207.932.829 1.016.29.041.746.082 1.057.082.228 0 .331.062.331.166 0 .145-.165.207-.394.207-1.367 0-2.673-.062-3.232-.062-.477 0-1.782.062-2.611.062-.269 0-.414-.062-.414-.207 0-.104.083-.166.332-.166.311 0 .559-.041.745-.082.415-.084.539-.436.602-1.037.104-.87.104-2.507.104-4.518v-3.646z"/><path d="m322.68 102.17c0-3.544 2.342-8.123 8.558-8.123 5.16 0 8.372 3 8.372 7.75 0 4.744-3.315 8.495-8.579 8.495-5.948 0-8.351-4.455-8.351-8.122m14.03.392c0-4.641-2.673-7.521-6.071-7.521-2.383 0-5.098 1.326-5.098 6.486 0 4.31 2.383 7.729 6.361 7.729 1.452 0 4.808-.704 4.808-6.694"/><path d="m367.09 108.62c0 .561-.021.602-.27.746-1.347.705-3.378.933-4.994.933-5.077 0-9.573-2.403-9.573-8.122 0-3.316 1.72-5.637 3.605-6.776 1.989-1.202 3.834-1.347 5.574-1.347 1.43 0 3.253.248 3.668.331.435.083 1.16.208 1.637.228.249.021.29.104.29.25 0 .227-.146.808-.146 3.397 0 .331-.062.435-.228.435-.145 0-.187-.104-.207-.269-.062-.477-.166-1.14-.705-1.72-.621-.664-2.279-1.617-4.62-1.617-1.14 0-2.652.084-4.104 1.285-1.16.975-1.906 2.528-1.906 5.077 0 4.455 2.839 7.791 7.211 7.791.539 0 1.265 0 1.762-.228.311-.146.394-.414.394-.768v-1.947c0-1.036 0-1.824-.021-2.445-.021-.705-.207-1.035-.892-1.182-.165-.041-.518-.062-.808-.062-.187 0-.311-.042-.311-.165 0-.166.145-.208.435-.208 1.078 0 2.383.062 3 .062.643 0 1.74-.062 2.425-.062.269 0 .414.042.414.208 0 .123-.124.165-.27.165-.166 0-.311.021-.56.062-.56.104-.767.457-.787 1.182-.021.621-.021 1.451-.021 2.486v2.28z"/><path d="m384.07 104.6c-.104 0-.146.041-.187.166l-1.119 2.963c-.207.518-.311 1.016-.311 1.264 0 .373.187.643.828.643h.312c.248 0 .311.041.311.166 0 .166-.124.207-.353.207-.663 0-1.554-.062-2.196-.062-.228 0-1.367.062-2.445.062-.27 0-.394-.041-.394-.207 0-.125.083-.166.249-.166.187 0 .477-.021.642-.041.953-.125 1.348-.829 1.762-1.865l5.201-13.01c.249-.6.373-.828.58-.828.187 0 .311.187.518.663.498 1.14 3.813 9.595 5.14 12.743.787 1.865 1.388 2.156 1.823 2.26.311.062.622.082.87.082.166 0 .27.021.27.166 0 .166-.187.207-.953.207-.746 0-2.259 0-3.916-.041-.373-.021-.622-.021-.622-.166 0-.125.083-.166.29-.187.146-.042.29-.228.187-.477l-1.657-4.394c-.042-.104-.104-.145-.208-.145h-4.622zm4.226-1.036c.104 0 .125-.062.104-.124l-1.864-5.118c-.021-.083-.042-.187-.104-.187-.062 0-.104.104-.125.187l-1.906 5.097c-.021.084 0 .146.083.146h3.812z"/></g><path d="m267.55 80.973c-48.08-2.312-76.25-2.092-92.32-2.717-16.09-.477-20.14-.997-20.14-.997-6.359-.807-11.564.047-11.564 1.913 0 1.865 5.361 3.361 11.916 3.305 75.34-2.462 150.47 4.204 226 2.487 6.557-.122 17.279-.222 23.83-.23 12.998 0 26-.143 39.01-.517 6.563-.186 11.821-2.029 11.687-3.994-.145-1.974-5.219-2.322-11.326-.86-.006-.043-2.537.747-25.939 2.114-23.394 1.235-67.744 3.331-151.16-.504" style="fill:#ffcb05"/></svg>