<svg viewBox="0 0 70 70" version="1.1" xmlns="http://www.w3.org/2000/svg" width="70" height="70"><path d="m.8531 15.4337c1.3576-.4384 3.6545-1.0468 3.9778-1.0468.3913 0 2.5052 1.0576 3.5581 1.0576 1.0522 0 1.5817-.6621 1.5817-.6621l3.0374-1.8503.9182-.5243 1.0556-1.1917 1.7165 1.0593 2.1139 1.1864c0 0 .7895.7927 1.186.9251.3948.136 1.3164-.5279 1.7121-.5279.3982 0 1.0574.6639 1.0574.6639 0 0 .9235.1271 1.579.5243.6627.3973 2.7748.6621 2.7748.6621l2.1069-.2648 2.1104.6603 2.9052-2.1115 1.7129.7891c0 0 .2679-.6585.7896-.6585.5331 0 4.0912 3.4356 4.7512 3.4356.6599 0 2.1077 0 3.1624-.1341 1.0566-.1325 2.9052-.791 3.6955-1.1882.7914-.3955 1.5853-.2631 2.2417-.7927.66-.5297 5.4077-2.9078 5.8034-3.0367.3956-.1324 1.5843-1.326 1.9799-1.326.3966 0 1.1861-1.4512 1.5817-1.4512.3948 0 1.8461-.1324 2.3748 0 .5268.1343 1.9773.2667 2.3756.2667.3993 0 2.2417.2594 2.6408.3937.3913.1359.7868-.1343 1.5773 0 .3447.059.6777.2684.9868.4956.0965-1.9397.1233-3.5735-.0027-4.4002-.317-2.1312.3938-3.0116-1.4111-4.8189-1.3013-1.3045-3.3061-.8607-4.9048-.5815-2.1694.374-3.1186-.4277-5.1191-.8088-1.9309-.3705-4.1592.2648-6.133.2218-1.5977-.025-2.849-.161-4.2699.6406-1.8353 1.0236-6.2587.052-8.2058.2219-2.238.1969-6.7686.8178-8.9621.3203-3.8402-.8839-2.4541-1.3688-6.3801-1.3688-2.7294 0-6.3321.4688-9.0445.637-1.1941.0733-2.3791.4491-3.583.2147-1.0887-.2112-1.904-1.0647-3.0588-1.0647-5.1336 0-9.617-.0394-7.9549 6.5886.5225 2.0883.1161 5.6993-.0348 8.8451" style="fill:#ffcb00"/><path d="m27.3994 37.9929l-.4537 3.8884.8699-.1038c1.0716-1.0987 2.1612-2.2099 3.2214-3.2925-.8395.2684-1.63.5171-1.63.5171l-2.0076-1.0092m-27.2134-8.5355c-.3403 2.1383.4341 2.8881.0965 3.9796-.3189 1.0433.5599 2.0024.5599 2.8023 0 .8017-.5599 2.7181-.8011 3.9224-.2198 1.0969.5056 4.0942.5715 5.5114.8173-.1038 1.6193-.1664 1.9453-.0859.8565.2129 1.5745-.4599 2.1085-.4599.0991 0 3.0409 1.1327 3.4679 1.0271 1.1985-.3041 2.3444-.5314 3.2482-.5869-.5324-1.8162.4672-3.8007-.0267-4.7688-.6128-1.2025-1.8774-2.6644-1.8774-2.6644l.2376-.5762 4.9325.0787c0 0 2.3445 1.8592 2.9741 2.7074.5938.8017 2.447 1.963 3.4785 2.1169l-1.5566-1.3582 1.0073-4.2964.5457-.7819 2.3962-.7856c0 0 .3679-.0412.0894-.9627-.1376-.4438-1.5674-.8536-.886-1.3385.5429-.3847-.2278-2.124 1.8452-2.4282.626-.0913 2.1147 1.4226 2.1147 1.4226l-.2929.8875-.0821 1.5479-.7011.5153c0 0-.3055-.0608-.1519.4026.1519.4617 1.2458-.2791 1.8121.1163.5805.4116 2.2345 1.8861 2.4998 2.0006.2679.1127 2.2854-.4134 2.9285-.5851.0892-.0949.175-.1808.2642-.2774l.1895-.7068c0 0 .2303-.0161.5232-.0161 2.6017-2.6627 4.6915-4.7992 5.4658-5.5991l.0107-.0107c-22.4453-5.5795-31.6931 1.1864-38.937-.7498" style="fill:#009540"/><path d="m.1833 29.4681c0-.0036 0-.0071.0027-.0107h-.0063c0 .0036.0036.0071.0036.0107m4.6092 15.6986c0 0 0 0 .0036 0-.0625-.0215-.1196-.0394-.1295-.0394.0099 0 .0644.0179.1259.0394m64.1741-12.585c-.1143-.7981-.242-1.716-.3822-2.4282-.0483-.4116-.1447-.5207-.3342-.5529-17.0168-3.1888-25.0744-1.4137-23.1872-.3902.6733.3669 2.3203 1.6803-2.0657 1.4209-.6091-.0358-1.7746-.1701-3.2598-.3472.0973.1843.1617.3937.0455.5601-.3206.4634-2.2791 2.5588-4.8754 5.2698.193.306-.4269.6138-.3268 1.1238.0759.4133-.6699.4205-1.2272.4921-1.1887 1.2275-2.4505 2.532-3.7188 3.8329l.1125-.0143c0 0 1.6843.5153 2.1461 1.1327.0992.1342.3019.3203.5431.5171.6563.0269 1.2234.0448 1.6387.0448 2.741-.0108 8.8005-2.6699 9.6025-3.3337.8101-.6657 2.3409-2.0829 3.2205-2.7987 1.9979-1.6319 4.603-.977 5.2666-1.3635 0 0 1.3442-1.9791 1.4995-2.6788l1.5879-.6585.8191.2255c-.1483 1.0021-.2483 1.4298-.8467 3.2711-.3412 1.0467-.134.7765 1.244 2.4282 1.5407 1.8449.527 4.6489-.5456 7.2722 1.52-.1038.402-.3436 1.4164-.4008 1.4022-.0806.5251.4384 1.8049.6012 1.2825.1628.9619.0787 2.3989.0787 1.4406 0-.4189.0197 1.6541.1825 2.0692.1593 1.5539-.4813 5.1673-.4885.5119-5.3145-.9396-9.466.2849-11.4737.1884-.3096.4403-.8679.3171-1.5246m-64.3499 12.5528c.0142 0 .0347-.0072.0499-.0072-.0152 0-.0357.0072-.0526.0072.0027 0 .0027 0 .0027 0" style="fill:#df4013"/><path d="m68.7942 58.1113c-.0143-2.5409-.1786-6.8839-.3108-9.4445-.0197-.0018-.0366-.0018-.0571-.009-2.5542-.6406-4.3145-1.2848-6.2293-.8034-1.922.4814-1.6192-.6478-2.5783-.807-.9603-.1593-3.7476-.9806-3.7476-.9806 0 0-.0652.034-.1758.0948-.577 1.3904-1.1235 2.7092-1.2441 3.7775-.6253-.9681-1.8765-1.5676-3.1704-1.5676-2.6982 0-4.22.3436-7.3664 1.657 0 0-1.9933.9842-7.6385-.2201-2.0318-.4348-4.0154.2362-4.7791.3204-2.6051.2898-3.1069.4777-5.2253-.4796-.969-.442-2.2891-.7963-3.6028-1.0092-1.687 1.6945-2.9562 2.9453-3.4241 3.3676-.7519.6747-1.7881 2.7414-1.8523 3.3355-.0697.5923-1.5566.5512-2.2934 1.0736-.7395.5333-2.8223-.1181-4.2351.0233 0 0 2.4238-2.4336 3.7466-2.8452 1.5441-.4759 2.9471-1.3581 3.7063-2.1204.0893-.0913 1.2414-1.2633 2.9533-3.0116-.5438-.0483-1.0591-.0626-1.52-.0394-.7966.0394-3.1418-1.3796-4.3796-1.6552-.9038-.204-1.7496-.195-2.4882-.0913l.0133.1396c-1.1753-.1073-1.2279-.4849-2.8257-.4849-1.5959 0-1.5442.5368-2.3962.5368-.4268 0-.4946-.1592-1.8808-.1592-1.3817 0-.9217.0143-1.2379.2254-.3222.2166-1.3199 1.0862-1.3199 1.0862 0 0-.9591-.7498-1.278-.7498-.1447 0-.6779-.2719-1.3101-.5547.0758 1.7232.3778 3.3856.4635 5.8747.0856 2.6251-.577 4.2516.0322 7.0306.4081 1.836-.1975 4.6006-.2788 6.4401-.2339 4.9567 7.2636 4.0083 10.6501 3.5538 2.1372-.2827 3.6198-1.0987 5.8588-1.1094 1.9996-.0126 3.8805 1.1237 5.8185.9573 4.7512-.4259 10.593-.111 15.3227.3239 5.3496.4957 9.6267-.6836 13.9188-1.147 2.9472-.3221 4.9933 1.3045 8.0138.9 2.1452-.2916 4.46.2291 6.6177.0734 2.1622-.1539 3.3795-4.3447 2.6882-7.0163-.6831-2.6376-.9448-1.7017-.9582-4.4861" style="fill:#007dc2"/></svg>