<svg viewBox="0 0 70 70" version="1.1" xmlns="http://www.w3.org/2000/svg" width="70" height="70"><path d="m68.434 1.5773c-1.3064-1.3093-3.3309-.8657-4.9387-.587-2.1818.3827-3.1387-.4275-5.1559-.8164-1.9449-.3675-4.1858.2661-6.1727.2321-1.6087-.0314-2.1434.25-4.3012.5485-1.8662.2572-5.3562-.3039-7.5318-.3442.0912.0816.152.1264.1654.121-.1368-.0341-.3031-.0771-.4856-.1228-.1448.0018-.2807.0072-.4059.0197-2.2543.1972-6.8174.8254-9.0198.3191-3.8728-.8872-2.4787-.7277-6.4266-.7277-2.7524 0-6.3784-.1757-9.1093-.0072-1.2009.0762-2.3946.4526-3.6036.2169-1.0999-.2133-1.9208-.4293-3.0823-.4293-5.1676 0-9.6842-.0394-8.0121 6.6337-.0152.6821.4024 2.418.4024 4.3592 0 1.9349-.0197 9.8386-.2334 11.6543 0 0 2.1515-.9607 2.6093-.941.4578.0215 4.1938 1.191 4.1938 1.191l8.461-5.7599 2.383-.864c0 0 1.2143-.9015 2.1416-1.1623.9282-.2662 6.3578-5.0511 6.3578-5.0511 1.2009-.4319 4.3431.6157 5.3098.7538.98.1406 3.2933.9141 3.9935 1.1928.6983.2805 4.4307-1.0262 6.0036-1.5531.0063-.0018 3.4141-2.3266 4.4612-2.5363.2111.2097 4.0597-1.5988 4.0597-1.606-.329-.2733 3.1145.3943 3.5652.3074 4.3574-.8057 7.8421 3.393 8.9679 3.393l2.5083.3944c0 0 1.2438-.1067 1.6846-.1282.71-.0304 2.4233 1.1328 2.4233 1.1328l.1404-1.9949c.4856-3.2255-.5061-6.9896-1.3529-7.8383m-54.2146 11.0682c-1.5461 1.8569-6.313 1.6616-7.9664-.0833-1.944-2.0533-2.2847-6.5352 1.521-6.9009.5983-.0564 1.3127-.5198 2.1908-.6138 1.1401-.1246 1.7947.5 2.7023 1.1337 2.1559 1.5038 3.7002 3.8832 1.5523 6.4643" style="fill:#ffcb00"/><path d="m55.8955 41.4335c-2.3974.7224-11.951 5.3244-13.2378 5.9706-1.2885.6443-4.6954 2.4278-6.8397 2.2118-2.1443-.2151-4.7473 2.1169-5.7944 2.3409-1.1965.2572-2.4958 1.1194-4.2117.475-1.716-.6453-5.2543-1.8292-6.1137-1.6132-.8576.2151-4.6203 1.6132-4.6203 1.6132 0 0-.2736 0-1.3476 0-1.0712 0-4.5041-1.2933-6.22-2.3669-1.5524-.9697-5.207-1.5908-5.8937-1.701 0 .009.0008.0197.0008.0305.0537.8998-.3263 1.8013-.2584 2.7047.0098.1121.0179.2241.025.3361.0188.2518.0376.5019.0528.7519.0241.3962.0456.7932.0608 1.1893.0859 2.6626-1.0766 4.3806-.4712 7.1275.4087 1.8498-.4981 3.6834-.583 5.5323-.1502 3.2766 3.0474 3.99 6.2272 3.9631 1.6659-.0108 3.3273-.2268 4.4987-.3827 2.1514-.2859 3.643-1.1113 5.8964-1.1221 1.8894-.0089 3.6707.9975 5.4931.9814.1233 0 .245-.0054.3692-.0162 1.4934-.1344 3.0949-.1935 4.7394-.2034 3.6107-.0143 7.4138.2303 10.6839.5324 1.0113.0941 1.9842.129 2.9249.1201 4.0784-.0422 7.5765-.8963 11.0926-1.2771.1859-.0233.3684-.0323.5454-.0395 2.3223-.0743 4.1277.9778 6.4231 1.0101.355.0053.7189-.0144 1.0981-.0655.5401-.0717 1.0918-.0914 1.6488-.0878 1.3888.0143 2.8141.2007 4.1939.1936.2754-.0018.549-.0126.8208-.0314 2.1756-.1533 3.4007-4.3771 2.7068-7.0657-.6859-2.6573-.8459-3.0175-.8611-5.8164-.0144-2.6142.3612-3.981.6018-7.1132.2387-3.1313.2405-5.7205.2477-5.7474-2.0549-.0762-11.6935-3.0955-13.8986-2.435" style="fill:#007dc2"/><path d="m28.4828 42.2007c.3827-.0036 2.0826-1.209 2.2991-1.6123.8038-1.4958 5.5699-1.2099 1.8375-1.9573-.8038-.1595-4.6221-1.693-5.9124-1.693-1.2886 0-2.1927.009-3.4839-.9589-1.2894-.9706-2.4179-1.1319-3.8682-1.7781-1.4532-.6461-7.5784-4.0383-8.385-4.1996-.8057-.1631-1.6105 0-2.5807-.1631-.9675-.1631-2.4652-4.015-3.1816-4.0626-1.6077-.103-2.138.2358-2.7827.3989-.6456.1586-.6456 0-1.7723.4848-.0286.0108-.059.0233-.0858.0359.3058 1.6078.8101 6.7018.8101 8.5417 0 2.1617-.5615 7.2064-.0331 9.6943.0402.1829.0742.3451.1065.501 2.2918-.0179 4.1651.6865 4.7338.6865.7789 0 4.5363-2.7558 5.1703-2.9942.6358-.2393 2.5977-2.073 3.2218-2.073.6242 0 3.5053.7636 4.5962.9196.8826.1263 3.5133-1.4071 3.9265-1.5084.414-.1012 5.0012 1.7396 5.3839 1.7378" style="fill:#009540"/><path d="m69.1198 31.2176c0-.0851.1994-6.8103.1994-6.9241 0-2.6052.0653-5.3736.1378-7.6957-.7333-.5727-1.4433-1.0342-1.7018-.9401-.582.2052-2.087-.691-2.7165-1.1257-.6295-.4346-1.3386-.8801-2.0254-.2984-.6858.5789-4.5711 2.5506-5.3965 2.7334-.828.1846-3.8969 1.848-4.302 1.8139-.3398-.0268-2.882.9921-3.922 1.4662-.8718-.129-3.5544-1.3541-4.0122-1.6221-.4713-.2751-4.2126-1.2762-4.9691-1.6965-.7583-.4176-1.9073-.7439-2.773-.9303-.8637-.1864-6.076 3.2802-6.076 3.2802 0 0-5.0853 2.0675-5.7846 2.4968-.575.3549-1.7241.4203-2.3285.3495-.4597-.1326-.9523-.216-1.2179-.1703-.4936.0852-2.5745.8021-3.001 1.1481-.4292.3468-2.89 2.0505-3.6081 1.7359-.7189-.3172-3.947 1.2413-3.947 1.2413l-.5231.449c.0322 0 .0617-.0072.0948 0 .321.0546 4.4621.8442 6.8094 1.0629 1.7079.1613 8.1273.4275 10.0401.6408 1.1463.1272 3.5955.2554 5.3723.3369 1.1822.0538 4.7205 3.5015 5.4967 3.9595.8512.5028 20.5952.4051 22.3711 3.3993.8709 1.4707.0251 2.1778-.0456 2.2199.8102.0816 8.6255.6534 8.6255.5915 0-2.5524-.7968-4.9677-.7968-7.5219" style="fill:#df4013"/></svg>