<svg viewBox="0 0 70 70" version="1.1" xmlns="http://www.w3.org/2000/svg" width="70" height="70"><path d="m57.3636 52.0954c-.7683 2.3998-.7101 5.3765-1.1126 8.1585 1.5803 2.9365 5.7763 5.8087 4.5163 7.227-.2549.2884-.4571.5608-.9668.3224-1.0124-.4778-3.0128-.9664-5.9149-.8851-.4641.0125-.9291.1009-1.4004.2358-.2066.1304-.4132.2581-.6439.3751l-.0277-.1563c-1.3907.5064-2.8716 1.3182-4.6432 1.8541 1.6857.2295 3.2078.4367 5.2012.3697 2.6471-.0848 5.3318.543 8.13-.0741 1.853-.4073 3.681.2224 5.5331.3072 4.9919.2305 4.0341-7.3207 3.5798-10.7359-.2862-2.1542-1.108-3.6466-1.1188-5.9016-.0098-1.32.4821-2.5882.7709-3.8564-2.3716-1.646-4.4822-3.0812-5.9274-4.0628-2.4718 1.3111-4.9338 3.5591-5.9756 6.8224" style="fill:#007dc2"/><path d="m29.6065 31.7605c0-.8243-.6671-1.4924-1.4899-1.4924-.8263 0-1.4943.6681-1.4943 1.4906 0 .8225.668 1.4915 1.4943 1.4915.8228 0 1.4899-.669 1.4899-1.4897" style="fill:#ffcb00"/><path d="m13.1175 39.4616c-.423-1.9121-3.291-10.8966-3.7757-11.6236-.4847-.7234-4.3337-7.6887-5.7038-8.8158-.4131-.3412-.7307-.8163-.9712-1.3316-.7602-.0072-1.5113-.0259-2.2617-.0509 0 .0527 0 .0991 0 .1482-.0313 1.6112-.1654 2.8687.6403 4.3066 1.0401 1.8451.0546 6.3052.2236 8.2656.1968 2.2551.8263 6.8197.3202 9.0256-.8845 3.8752-1.3737 2.4793-1.3737 6.4339 0 2.7508.4686 6.3821.6403 9.1159.0734 1.2012.4508 2.3935.2165 3.6063-.2129 1.1003-1.0723 1.9211-1.0723 3.0848 0 5.172-.0394 9.6928 6.6357 8.0192 3.2391-.8119 2.1552-.5127 5.4355-.1376 2.4477.2796 7.8009.6368 12.7195.3992 2.4173-.1143 4.1379-1.0217 6.6062-1.0217 1.3057 0 3.2257.2045 5.084.2474-17.3663-4.0966-22.478-25.6793-23.3634-29.6715" style="fill:#009540"/><path d="m29.7067 13.6904c2.9807-2.2024 5.1537-1.1217 5.1537-1.1217 3.0021 1.9809 3.6935 5.6631 3.841 7.6833 2.3726 1.8371 4.9848 3.9671 6.9809 5.6203.0286-.0366.0491-.0617.0491-.0617 2.4916-1.512 5.1941-.4313 5.1941-.4313 2.5756 1.2048 2.0283 4.4092 1.4881 6.1865 2.2161 1.6844 5.2728 3.8367 8.7248 6.1891.228-.3626.5526-.7609 1.0409-1.1378 1.4488-1.1279 4.6325.8922 4.9079 4.4593.0224.2599.0394.4947.0564.7127.702.4653 1.4067.9341 2.1195 1.4039-.0475-3.7939.2074-7.8467.5231-11.3066.4999-5.3925-.6877-9.6982-1.1599-14.0261-.3165-2.966 1.3191-5.03.9086-8.0754-.2889-2.1596.2343-4.4941.076-6.6679-.1538-2.1774-4.3784-3.4054-7.0676-2.7115-2.656.6895-1.7135.953-4.5162.9672-2.6122.0144-7.1221.1894-9.6727.3233-2.5335.1296-6.903-1.2271-9.3739-1.2271-2.5783 0-5.0152 1.0771-7.597 1.0771-1.3737 0-4.2587-1.0753-5.6287-1.0753-1.269 0-2.7983.6797-4.0691.6797-.0143 0-.0241-.0018-.0348-.0018.5866 5.2648 3.5611 8.4166 3.5611 8.4166.3943.6993 2.5398 2.5364 4.4947 4.1252" style="fill:#df4013"/><g style="fill:#ffcb00"><path d="m2.2751 13.5135c.6224-.7216 1.9129-1.445 3.4797-1.6683 1.6446-.2384 2.9905.8119 3.5968 1.3986 6.2074-.4206 10.1968-1.1789 10.1968-1.1789 1.4487-.2706.778-2.1756.778-2.1756-1.9978-3.3428-3.1532-6.4437-3.8007-9.0488-.5026-.025-1.0294-.0393-1.6178-.034-2.7061.0286-5.8076-1.1226-8.4779-.7216-2.1428.3206-3.0299-.3992-4.8552 1.4209-1.3065 1.3102-.8639 3.334-.5839 4.9433.3818 2.1828-.4275 3.1428-.8129 5.1595-.1172.61-.1342 1.2503-.1038 1.8996.7476.0089 1.4801.0107 2.2009.0053"/><path d="m29.7549 19.4964c-.1386.1349-.2647.2474-.3416.3028-.312.2367-3.0727 3.2205-3.2042 2.2318-.1055-.7761 1.759-2.3595 2.0828-2.915.0903-.1537-.0617-.3198-.2549-.2564-.8988.2939-3.3661 2.7687-3.0495 1.6362.2272-.8154 1.8351-1.8907 2.3099-2.4373.0609-.0652.0921-.1321.1029-.1893-.0957-.0652-.1887-.1268-.2817-.1876-1.0088.1787-3.4055 2.7472-2.9646 1.6594.313-.7797 1.5149-1.7013 2.1892-2.1756-.2298-.1518-.4337-.2849-.5884-.384-.9775-.6546-4.255-.9387-4.255-.9387l-1.2217.2778c-3.469.6859-6.9236 1.1173-10.3031 1.3513 1.1911 1.6343 3.2874 4.4369 4.162 5.0013 1.1331.7252 2.4199 2.0113 2.5818 3.6242.1547 1.5371 2.9458 5.706 3.0639 6.0168-.0519-1.6147 3.1461-4.4887 3.1461-4.4887.6448-.9654 1.7135-1.1655 2.5783-.6439.8647.5198 2.8751 2.172 3.79 1.9318 1.8145-.4796 2.7401.484 2.7401.484 1.9344 2.9785-3.147 10.9485-3.147 10.9485 4.2184 1.9898 6.1446-7.711 6.48-9.1524.4892-2.1015-1.8878-7.3815-3.3124-9.9671-.8639-.6367-1.7421-1.2949-2.3029-1.7299"/></g><g style="fill:#007dc2"><path d="m50.6778 46.8208c2.09-2.2738 4.3615-4.094 6.2091-5.3997-1.5373-1.0137-3.1103-2.1684-4.5806-3.3018-.2137 2.9928-.9229 6.1446-1.6285 8.7015"/><path d="m45.7449 32.6982c-1.5561-1.4414-3.6281-3.2258-5.6842-4.9504.5 1.579.9721 3.2437.9721 3.8894 0 5.8007-2.6649 8.7684-2.2759 10.0795.4507 1.5442 2.3851 3.0794 4.3722 4.1512 1.2109-2.7329 3.6111-8.7158 3.3178-12.5525-.4471-.3876-.702-.6172-.702-.6172"/></g></svg>