<svg viewBox="0 0 70 70" version="1.1" xmlns="http://www.w3.org/2000/svg" width="70" height="70"><path d="m26.9871 50.2272c.5295-1.212 1.1109-2.4677 1.7432-3.752-2.6882-5.4016-14.3048-30.6268-27.764-44.338-.5055.9816-.7493 2.4088-.7082 4.4942.0759 3.2893.5199 2.156.1411 5.44-.0714.618-.1411 1.4281-.2027 2.3685 5.0738 1.8113 14.6621 10.2307 26.7906 35.7873" style="fill:#ffcb00"/><path d="m25.5428 53.7255c.2582-.6617.5297-1.3388.819-2.0291-2.3524-3.2804-17.6808-23.9025-26.3618-30.3705.0072 1.1494.0348 2.3221.0902 3.4653.1126 2.4159.6591 4.1387.6591 6.6091 0 .0571 0 .1223 0 .1857 3.9958 1.2191 11.6854 5.9339 24.7935 22.1395" style="fill:#009540"/><path d="m30.7318 42.6446c-.1794-.3027-.3412-.7091-.4536-1.2593-.176-.8279-4.4504-17.3158-5.1917-41.1745-.2885.0053-.6091.0071-.9654.0071-2.7579 0-3.8823-.0429-6.6224.1269-1.1995.075-2.9535.3474-4.17.1134-1.0993-.2135-3.8707-.4582-5.0398-.4582-.0723 0-.1411 0-.2089 0 4.3101 4.4843 14.3691 17.3801 21.3273 45.1364.4162-.8172.8602-1.6505 1.3245-2.4918" style="fill:#ffcb00"/><g style="fill:#009540"><path d="m23.6075 59.2968c.1482-.4796.3028-.9726.4716-1.479-.9181-.5358-2.3114-1.3638-3.3688-2.0265 0 0-10.5995-6.8966-19.9493-9.2982-.0902 2.3292.0339 4.6326.1124 6.9797.0447 1.4147-.2742 2.5293-.4885 3.6859 7.5397-.8226 17.145-.9976 23.2226 2.1381"/><path d="m24.4917 56.5924c.1821-.5269.3751-1.0663.5806-1.6147-1.6729-1.3191-5.1944-4.128-6.4046-5.4194 0 0-10.1412-9.5475-17.9764-12.5885.0339 1.0494.1169 2.0613.2992 2.9115.2054.9682.2652 1.5192.2483 1.9935 5.748 1.8925 14.7719 6.016 23.2529 14.7176"/><path d="m.4198 60.691c.3295 1.7862-.2572 3.5564-.343 5.3444-.2322 4.9898 7.3324 4.0333 10.7495 3.5805 2.1559-.2867 3.651-1.1128 5.9097-1.1218 1.5745-.0089 3.0704.6842 4.5816.9093.1795-1.4362.6876-4.6711 1.9988-9.134-2.8848-.6171-11.4836-1.9899-22.8966.4216"/></g><g style="fill:#df4013"><path d="m36.3147 37.5199l-.3099.2974c3.7581-2.9303 12.95-7.6621 18.9973-10.0833 6.525-2.6088 10.9709-4.2718 13.9271-5.2319-.0447-.2831-.0795-.5573-.0795-.819 0-2.5927.3688-4.1387.3438-6.7761-.0036-.0196 0-.0437 0-.0669-20.6576 9.6323-32.8788 22.6798-32.8788 22.6798"/><path d="m34.7463 39.4062l-.1508.1536c0 0-.502.8717-1.2684 2.4668 3.6502-1.9399 15.7831-7.6549 35.1698-9.7332-.0286-.3019-.0456-.6047-.0456-.911 0-.9637.5297-2.6651.845-4.0708-16.5905 4.2271-32.1537 11.0755-32.6762 11.3881-.4332.2617-1.4781.5895-1.8738.7065"/></g><path d="m34.3383 36.6214c2.5738-19.6003 9.7392-31.761 12.4516-35.7845-1.922.8823-5.2988.877-7.1511.66-2.0595-.2412-4.8925-.2162-7.0582-.4939-.0205 9.0133-.0992 31.5101-.3429 39.006.659-1.1146 1.3611-2.2462 2.1006-3.3876" style="fill:#ffcb00"/><g style="fill:#df4013"><path d="m46.9025 24.4563c10.703-10.4495 19.6778-14.0273 22.976-15.0696.126-1.0164.1786-2.0158.0367-2.9589-.3216-2.1417.4036-3.0313-1.4228-4.8514-.1375-.1385-.2857-.2528-.4358-.3519-4.0914 4.2342-21.8374 23.9007-21.1541 23.2318"/><path d="m35.2795 37.7343l.1412-.218c12.0837-20.8034 23.0332-32.5916 26.8798-36.432-1.396-.042-2.33-.6047-3.9261-.9075-1.6013-.3072-3.4099.0679-5.1085.193-8.2265 11.6176-17.5049 36.3954-17.5049 36.3954 0 0-.2171.4564-.4815.9691"/></g><g style="fill:#007dc2"><path d="m29.5663 51.3891c-.2161.6556-.434 1.3335-.6466 2.0372 4.6433-1.4468 19.5501-4.646 39.7165 5.3043-.0035-.2081-.0062-.4367-.0099-.702-.007-.9235-.0302-2.0855-.0651-3.3126-3.7055-1.4236-18.248-6.242-38.9949-3.3269"/><path d="m27.7543 57.5758c-.1519.6046-.2992 1.2235-.443 1.8487.6938-.1009 1.5771-.1786 2.3371-.0625.7592.1152 6.9413 2.0604 13.7066 10.4308 3.1142-.2501 5.9338-.8601 8.7632-1.1656 2.3587-.2536 4.1494.7234 6.3151.9333-5.6274-4.1405-20.8924-14.4256-30.679-11.9847"/><path d="m28.4866 54.8732c-.1457.5037-.2849 1.0155-.4269 1.5388 5.3533-1.2503 20.8746-2.9892 36.5236 13.1771.7744.0473 1.5468.0759 2.2979.0214 1.9104-.1384 3.0929-3.4036 2.883-6.0178-2.5445-1.404-20.2146-11.8713-41.2776-8.7195"/></g><path d="m32.7324 43.2966c-.4064.8895-.8556 1.9265-1.3271 3.0991 4.1457-1.8746 18.5641-7.4816 37.8641-4.938.1519-.9217.2644-1.7765.2644-2.4785 0-.6537-.0688-1.2959-.1715-1.9327-5.2113.3341-11.1567.8932-17.7737 1.922-8.6328 1.3433-16.6877 4.1459-18.8562 4.3281" style="fill:#df4013"/><g style="fill:#007dc2"><path d="m31.2712 47.756c-.158.0491-.2992.0687-.4304.0651-.251.6654-.5127 1.3674-.769 2.1033 4.2038-1.6326 17.8113-5.5579 38.3689 1.4764-.0447-1.1352-.0929-2.2016-.1376-3.0474-.0509-1.0128.1339-2.3203.3795-3.6787-4.4494-.3841-22.2339-1.5353-37.4114 3.0813"/><path d="m31.8009 62.7809c-1.6648-.7637-3.5519-1.3826-4.8174-1.8836-.5565 2.6213-1.0235 5.4266-1.3513 8.3872 4.1128-.1214 8.6337.1528 12.4384.5011.8671.0813 1.7058.1143 2.5229.1161-1.5727-1.7737-5.0934-5.4221-8.7926-7.1208"/></g></svg>